<svg width="304" height="288" viewBox="0 0 304 288" fill="none" xmlns="http://www.w3.org/2000/svg">
<g clip-path="url(#clip0_4939_15671)">
<rect width="304" height="288" fill="white"/>
<path d="M24.4055 27.5078C24.3459 26.9496 24.0945 26.5149 23.6513 26.2038C23.2124 25.8928 22.6413 25.7372 21.9382 25.7372C21.4439 25.7372 21.0199 25.8118 20.6662 25.9609C20.3125 26.1101 20.0419 26.3125 19.8544 26.5682C19.6669 26.8239 19.571 27.1158 19.5668 27.4439C19.5668 27.7166 19.6286 27.9531 19.7521 28.1534C19.88 28.3537 20.0526 28.5241 20.2699 28.6648C20.4872 28.8011 20.728 28.9162 20.9922 29.0099C21.2564 29.1037 21.5227 29.1825 21.7912 29.2464L23.0185 29.5533C23.5128 29.6683 23.9879 29.8239 24.4439 30.0199C24.9041 30.2159 25.3153 30.4631 25.6776 30.7614C26.044 31.0597 26.3338 31.4197 26.5469 31.8416C26.7599 32.2635 26.8665 32.7578 26.8665 33.3246C26.8665 34.0916 26.6705 34.767 26.2784 35.3509C25.8864 35.9304 25.3196 36.3842 24.5781 36.7124C23.8409 37.0362 22.9482 37.1982 21.8999 37.1982C20.8814 37.1982 19.9972 37.0405 19.2472 36.7251C18.5014 36.4098 17.9176 35.9496 17.4957 35.3445C17.0781 34.7393 16.8523 34.0021 16.8182 33.1328H19.1513C19.1854 33.5888 19.326 33.968 19.5732 34.2706C19.8203 34.5732 20.142 34.799 20.5384 34.9482C20.9389 35.0973 21.3864 35.1719 21.8807 35.1719C22.3963 35.1719 22.848 35.0952 23.2358 34.9418C23.6278 34.7841 23.9347 34.5668 24.1562 34.2898C24.3778 34.0085 24.4908 33.6804 24.495 33.3054C24.4908 32.9645 24.3906 32.6832 24.1946 32.4616C23.9986 32.2358 23.7237 32.0483 23.37 31.8991C23.0206 31.7457 22.6115 31.6094 22.1428 31.4901L20.6534 31.1065C19.5753 30.8295 18.723 30.4098 18.0966 29.8473C17.4744 29.2805 17.1634 28.5284 17.1634 27.5909C17.1634 26.8196 17.3722 26.1442 17.7898 25.5646C18.2116 24.9851 18.7848 24.5355 19.5092 24.2159C20.2337 23.892 21.054 23.7301 21.9702 23.7301C22.8991 23.7301 23.7131 23.892 24.4119 24.2159C25.1151 24.5355 25.6669 24.9808 26.0675 25.5518C26.468 26.1186 26.6747 26.7706 26.6875 27.5078H24.4055ZM33.7811 27.1818V28.9716H28.1369V27.1818H33.7811ZM29.5304 24.8295H31.8443V34.0469C31.8443 34.358 31.8912 34.5966 31.9849 34.7628C32.0829 34.9247 32.2108 35.0355 32.3684 35.0952C32.5261 35.1548 32.7008 35.1847 32.8926 35.1847C33.0375 35.1847 33.1696 35.174 33.2889 35.1527C33.4125 35.1314 33.5062 35.1122 33.5701 35.0952L33.9601 36.9041C33.8365 36.9467 33.6596 36.9936 33.4295 37.0447C33.2037 37.0959 32.9267 37.1257 32.5985 37.1342C32.019 37.1513 31.497 37.0639 31.0325 36.8722C30.568 36.6761 30.1994 36.3736 29.9267 35.9645C29.6582 35.5554 29.5261 35.044 29.5304 34.4304V24.8295ZM38.5415 37.1982C37.9194 37.1982 37.359 37.0874 36.8604 36.8658C36.3661 36.6399 35.9741 36.3075 35.6843 35.8686C35.3988 35.4297 35.256 34.8885 35.256 34.245C35.256 33.6911 35.3583 33.233 35.5629 32.8707C35.7674 32.5085 36.0465 32.2188 36.4002 32.0014C36.7539 31.7841 37.1523 31.62 37.5955 31.5092C38.043 31.3942 38.5053 31.3111 38.9826 31.2599C39.5579 31.2003 40.0245 31.147 40.3825 31.1001C40.7404 31.049 41.0004 30.9723 41.1623 30.87C41.3285 30.7635 41.4116 30.5994 41.4116 30.3778V30.3395C41.4116 29.858 41.2688 29.4851 40.9833 29.2209C40.6978 28.9567 40.2866 28.8246 39.7496 28.8246C39.1829 28.8246 38.7333 28.9482 38.4009 29.1953C38.0728 29.4425 37.8512 29.7344 37.7362 30.071L35.5756 29.7642C35.7461 29.1676 36.0273 28.669 36.4194 28.2685C36.8114 27.8636 37.2908 27.5611 37.8576 27.3608C38.4244 27.1562 39.0508 27.054 39.7369 27.054C40.2099 27.054 40.6808 27.1094 41.1495 27.2202C41.6183 27.331 42.0465 27.5142 42.4343 27.7699C42.8221 28.0213 43.1332 28.3643 43.3675 28.799C43.6062 29.2337 43.7255 29.777 43.7255 30.429V37H41.5011V35.6513H41.4244C41.2837 35.924 41.0856 36.1797 40.8299 36.4183C40.5785 36.6527 40.261 36.8423 39.8775 36.9872C39.4982 37.1278 39.0529 37.1982 38.5415 37.1982ZM39.1424 35.4979C39.6069 35.4979 40.0096 35.4062 40.3505 35.223C40.6914 35.0355 40.9535 34.7884 41.1367 34.4815C41.3242 34.1747 41.418 33.8402 41.418 33.478V32.321C41.3455 32.3807 41.2219 32.4361 41.0472 32.4872C40.8768 32.5384 40.685 32.5831 40.4719 32.6214C40.2589 32.6598 40.0479 32.6939 39.8391 32.7237C39.6303 32.7536 39.4492 32.7791 39.2958 32.8004C38.9506 32.8473 38.6417 32.924 38.369 33.0305C38.0962 33.1371 37.881 33.2862 37.7234 33.478C37.5657 33.6655 37.4869 33.9084 37.4869 34.2067C37.4869 34.6328 37.6424 34.9545 37.9535 35.1719C38.2646 35.3892 38.6609 35.4979 39.1424 35.4979ZM50.9549 27.1818V28.9716H45.3107V27.1818H50.9549ZM46.7042 24.8295H49.0181V34.0469C49.0181 34.358 49.065 34.5966 49.1587 34.7628C49.2567 34.9247 49.3846 35.0355 49.5423 35.0952C49.6999 35.1548 49.8746 35.1847 50.0664 35.1847C50.2113 35.1847 50.3434 35.174 50.4627 35.1527C50.5863 35.1314 50.68 35.1122 50.744 35.0952L51.1339 36.9041C51.0103 36.9467 50.8335 36.9936 50.6033 37.0447C50.3775 37.0959 50.1005 37.1257 49.7724 37.1342C49.1928 37.1513 48.6708 37.0639 48.2063 36.8722C47.7418 36.6761 47.3732 36.3736 47.1005 35.9645C46.832 35.5554 46.6999 35.044 46.7042 34.4304V24.8295ZM59.1479 32.8707V27.1818H61.4618V37H59.2182V35.255H59.1159C58.8944 35.8047 58.53 36.2543 58.0229 36.6037C57.5201 36.9531 56.9 37.1278 56.1628 37.1278C55.5194 37.1278 54.9505 36.9851 54.4561 36.6996C53.9661 36.4098 53.5826 35.9901 53.3056 35.4403C53.0286 34.8864 52.8901 34.2173 52.8901 33.4332V27.1818H55.204V33.0753C55.204 33.6974 55.3745 34.1918 55.7154 34.5582C56.0563 34.9247 56.5037 35.108 57.0577 35.108C57.3986 35.108 57.7289 35.0249 58.0485 34.8587C58.3681 34.6925 58.6301 34.4453 58.8347 34.1172C59.0435 33.7848 59.1479 33.3693 59.1479 32.8707ZM71.6012 29.777L69.4918 30.0071C69.4322 29.794 69.3278 29.5938 69.1786 29.4062C69.0337 29.2188 68.8377 29.0675 68.5906 28.9524C68.3434 28.8374 68.0408 28.7798 67.6829 28.7798C67.2013 28.7798 66.7965 28.8842 66.4684 29.093C66.1445 29.3018 65.9847 29.5724 65.989 29.9048C65.9847 30.1903 66.0891 30.4226 66.3022 30.6016C66.5195 30.7805 66.8775 30.9276 67.3761 31.0426L69.0508 31.4006C69.9798 31.6009 70.6701 31.9183 71.1218 32.353C71.5778 32.7876 71.8079 33.3565 71.8121 34.0597C71.8079 34.6776 71.6268 35.223 71.2688 35.696C70.9151 36.1648 70.4229 36.5312 69.7923 36.7955C69.1616 37.0597 68.4371 37.1918 67.619 37.1918C66.4173 37.1918 65.4499 36.9403 64.717 36.4375C63.984 35.9304 63.5472 35.2251 63.4066 34.3217L65.663 34.1044C65.7653 34.5476 65.9826 34.8821 66.315 35.108C66.6474 35.3338 67.0799 35.4467 67.6126 35.4467C68.1623 35.4467 68.6033 35.3338 68.9357 35.108C69.2724 34.8821 69.4407 34.603 69.4407 34.2706C69.4407 33.9893 69.332 33.7571 69.1147 33.5739C68.9016 33.3906 68.5692 33.25 68.1175 33.152L66.4428 32.8004C65.5011 32.6044 64.8043 32.2741 64.3526 31.8097C63.9009 31.3409 63.6772 30.7486 63.6815 30.0327C63.6772 29.4276 63.8413 28.9034 64.1737 28.4602C64.5103 28.0128 64.9769 27.6676 65.5735 27.4247C66.1744 27.1776 66.8668 27.054 67.6509 27.054C68.8015 27.054 69.707 27.299 70.3675 27.7891C71.0323 28.2791 71.4435 28.9418 71.6012 29.777ZM79.9684 37H77.4371L82.0458 23.9091H84.9734L89.5884 37H87.0572L83.5607 26.5938H83.4585L79.9684 37ZM80.0515 31.8672H86.9549V33.772H80.0515V31.8672ZM97.4682 32.8707V27.1818H99.7821V37H97.5385V35.255H97.4363C97.2147 35.8047 96.8503 36.2543 96.3432 36.6037C95.8404 36.9531 95.2203 37.1278 94.4831 37.1278C93.8397 37.1278 93.2708 36.9851 92.7765 36.6996C92.2864 36.4098 91.9029 35.9901 91.6259 35.4403C91.3489 34.8864 91.2104 34.2173 91.2104 33.4332V27.1818H93.5243V33.0753C93.5243 33.6974 93.6948 34.1918 94.0357 34.5582C94.3766 34.9247 94.824 35.108 95.378 35.108C95.7189 35.108 96.0492 35.0249 96.3688 34.8587C96.6884 34.6925 96.9505 34.4453 97.155 34.1172C97.3638 33.7848 97.4682 33.3693 97.4682 32.8707ZM105.805 37.1726C105.034 37.1726 104.343 36.9744 103.734 36.5781C103.125 36.1818 102.643 35.6065 102.289 34.8523C101.936 34.098 101.759 33.1818 101.759 32.1037C101.759 31.0128 101.938 30.0923 102.296 29.3423C102.658 28.5881 103.146 28.0192 103.76 27.6357C104.373 27.2479 105.057 27.054 105.811 27.054C106.387 27.054 106.86 27.152 107.23 27.348C107.601 27.5398 107.895 27.772 108.113 28.0447C108.33 28.3132 108.498 28.5668 108.618 28.8054H108.713V23.9091H111.034V37H108.758V35.4531H108.618C108.498 35.6918 108.326 35.9453 108.1 36.2138C107.874 36.478 107.576 36.7038 107.205 36.8913C106.834 37.0788 106.368 37.1726 105.805 37.1726ZM106.451 35.2741C106.941 35.2741 107.358 35.142 107.703 34.8778C108.049 34.6094 108.311 34.2365 108.49 33.7592C108.669 33.282 108.758 32.7259 108.758 32.0909C108.758 31.456 108.669 30.9041 108.49 30.4354C108.315 29.9666 108.055 29.6023 107.71 29.3423C107.369 29.0824 106.949 28.9524 106.451 28.9524C105.935 28.9524 105.505 29.0866 105.159 29.3551C104.814 29.6236 104.554 29.9943 104.38 30.4673C104.205 30.9403 104.118 31.4815 104.118 32.0909C104.118 32.7045 104.205 33.2521 104.38 33.7337C104.559 34.2109 104.821 34.5881 105.166 34.8651C105.515 35.1378 105.944 35.2741 106.451 35.2741ZM113.499 37V27.1818H115.813V37H113.499ZM114.663 25.7884C114.296 25.7884 113.981 25.6669 113.717 25.424C113.453 25.1768 113.32 24.8807 113.32 24.5355C113.32 24.1861 113.453 23.8899 113.717 23.647C113.981 23.3999 114.296 23.2763 114.663 23.2763C115.034 23.2763 115.349 23.3999 115.609 23.647C115.873 23.8899 116.005 24.1861 116.005 24.5355C116.005 24.8807 115.873 25.1768 115.609 25.424C115.349 25.6669 115.034 25.7884 114.663 25.7884ZM123.096 27.1818V28.9716H117.451V27.1818H123.096ZM118.845 24.8295H121.159V34.0469C121.159 34.358 121.206 34.5966 121.299 34.7628C121.397 34.9247 121.525 35.0355 121.683 35.0952C121.841 35.1548 122.015 35.1847 122.207 35.1847C122.352 35.1847 122.484 35.174 122.603 35.1527C122.727 35.1314 122.821 35.1122 122.885 35.0952L123.275 36.9041C123.151 36.9467 122.974 36.9936 122.744 37.0447C122.518 37.0959 122.241 37.1257 121.913 37.1342C121.333 37.1513 120.811 37.0639 120.347 36.8722C119.882 36.6761 119.514 36.3736 119.241 35.9645C118.973 35.5554 118.841 35.044 118.845 34.4304V24.8295Z" fill="#101828"/>
<path d="M52 60.5H276C282.351 60.5 287.5 65.6487 287.5 72V110C287.5 116.351 282.351 121.5 276 121.5H52C45.6487 121.5 40.5 116.351 40.5 110V72C40.5 65.6487 45.6487 60.5 52 60.5Z" stroke="#EAECF0"/>
<path d="M53.9787 87H52.348L56.0121 76.8182H57.7869L61.451 87H59.8203L56.9418 78.6676H56.8622L53.9787 87ZM54.2521 83.0128H59.5419V84.3054H54.2521V83.0128ZM65.5376 87.1491C64.9212 87.1491 64.371 86.9917 63.8871 86.6768C63.4065 86.3587 63.0286 85.9062 62.7536 85.3196C62.4818 84.7296 62.3459 84.022 62.3459 83.1967C62.3459 82.3714 62.4834 81.6655 62.7585 81.0788C63.0369 80.4922 63.4181 80.0431 63.902 79.7315C64.3859 79.42 64.9344 79.2642 65.5476 79.2642C66.0215 79.2642 66.4027 79.3438 66.6911 79.5028C66.9827 79.6586 67.2081 79.8409 67.3672 80.0497C67.5296 80.2585 67.6555 80.4425 67.745 80.6016H67.8345V76.8182H69.321V87H67.8693V85.8118H67.745C67.6555 85.9742 67.5263 86.1598 67.3572 86.3686C67.1915 86.5774 66.9628 86.7597 66.6712 86.9155C66.3795 87.0713 66.0017 87.1491 65.5376 87.1491ZM65.8658 85.8814C66.2933 85.8814 66.6546 85.7687 66.9496 85.5433C67.2479 85.3146 67.4732 84.9981 67.6257 84.5938C67.7815 84.1894 67.8594 83.7187 67.8594 83.1818C67.8594 82.6515 67.7831 82.1875 67.6307 81.7898C67.4782 81.392 67.2545 81.0821 66.9595 80.8601C66.6645 80.638 66.3 80.527 65.8658 80.527C65.4183 80.527 65.0455 80.643 64.7472 80.875C64.4489 81.107 64.2235 81.4235 64.071 81.8246C63.9219 82.2256 63.8473 82.678 63.8473 83.1818C63.8473 83.6922 63.9235 84.1513 64.076 84.5589C64.2285 84.9666 64.4538 85.2898 64.7521 85.5284C65.0537 85.7637 65.425 85.8814 65.8658 85.8814ZM74.7338 87.1541C73.9815 87.1541 73.3335 86.9934 72.79 86.6719C72.2497 86.3471 71.8321 85.8913 71.5371 85.3047C71.2454 84.7147 71.0996 84.0237 71.0996 83.2315C71.0996 82.4493 71.2454 81.7599 71.5371 81.1634C71.8321 80.5668 72.2431 80.1011 72.7701 79.7663C73.3004 79.4316 73.9202 79.2642 74.6294 79.2642C75.0603 79.2642 75.4779 79.3355 75.8823 79.478C76.2866 79.6205 76.6496 79.8442 76.9711 80.1491C77.2926 80.4541 77.5461 80.8501 77.7317 81.3374C77.9173 81.8213 78.0101 82.4096 78.0101 83.1023V83.6293H71.9398V82.5156H76.5534C76.5534 82.1245 76.4739 81.7782 76.3148 81.4766C76.1557 81.1716 75.932 80.9313 75.6436 80.7557C75.3586 80.58 75.0239 80.4922 74.6394 80.4922C74.2218 80.4922 73.8572 80.5949 73.5456 80.8004C73.2374 81.0026 72.9988 81.2678 72.8297 81.5959C72.664 81.9207 72.5811 82.2737 72.5811 82.6548V83.5249C72.5811 84.0353 72.6706 84.4695 72.8496 84.8274C73.0319 85.1854 73.2855 85.4588 73.6103 85.6477C73.9351 85.8333 74.3146 85.9261 74.7488 85.9261C75.0305 85.9261 75.2873 85.8864 75.5194 85.8068C75.7514 85.724 75.9519 85.6013 76.1209 85.4389C76.29 85.2765 76.4192 85.076 76.5087 84.8374L77.9157 85.0909C77.803 85.5052 77.6008 85.8681 77.3091 86.1797C77.0208 86.4879 76.6578 86.7282 76.2203 86.9006C75.7862 87.0696 75.2907 87.1541 74.7338 87.1541ZM79.7788 87V76.8182H81.2653V80.6016H81.3548C81.4409 80.4425 81.5652 80.2585 81.7276 80.0497C81.89 79.8409 82.1154 79.6586 82.4038 79.5028C82.6921 79.3438 83.0733 79.2642 83.5472 79.2642C84.1637 79.2642 84.7139 79.42 85.1978 79.7315C85.6817 80.0431 86.0612 80.4922 86.3363 81.0788C86.6147 81.6655 86.7539 82.3714 86.7539 83.1967C86.7539 84.022 86.6164 84.7296 86.3413 85.3196C86.0662 85.9062 85.6883 86.3587 85.2077 86.6768C84.7272 86.9917 84.1786 87.1491 83.5621 87.1491C83.0981 87.1491 82.7186 87.0713 82.4237 86.9155C82.132 86.7597 81.9033 86.5774 81.7376 86.3686C81.5719 86.1598 81.4442 85.9742 81.3548 85.8118H81.2305V87H79.7788ZM81.2354 83.1818C81.2354 83.7187 81.3133 84.1894 81.4691 84.5938C81.6249 84.9981 81.8503 85.3146 82.1452 85.5433C82.4402 85.7687 82.8015 85.8814 83.229 85.8814C83.6732 85.8814 84.0444 85.7637 84.3427 85.5284C84.641 85.2898 84.8664 84.9666 85.0188 84.5589C85.1746 84.1513 85.2525 83.6922 85.2525 83.1818C85.2525 82.678 85.1763 82.2256 85.0238 81.8246C84.8746 81.4235 84.6493 81.107 84.3477 80.875C84.0494 80.643 83.6765 80.527 83.229 80.527C82.7982 80.527 82.4336 80.638 82.1353 80.8601C81.8403 81.0821 81.6166 81.392 81.4641 81.7898C81.3117 82.1875 81.2354 82.6515 81.2354 83.1818ZM91.6397 87.1541C90.9238 87.1541 90.2991 86.9901 89.7654 86.6619C89.2318 86.3338 88.8175 85.8748 88.5225 85.2848C88.2276 84.6948 88.0801 84.0054 88.0801 83.2166C88.0801 82.4245 88.2276 81.7318 88.5225 81.1385C88.8175 80.5452 89.2318 80.0845 89.7654 79.7564C90.2991 79.4283 90.9238 79.2642 91.6397 79.2642C92.3556 79.2642 92.9804 79.4283 93.514 79.7564C94.0476 80.0845 94.4619 80.5452 94.7569 81.1385C95.0519 81.7318 95.1994 82.4245 95.1994 83.2166C95.1994 84.0054 95.0519 84.6948 94.7569 85.2848C94.4619 85.8748 94.0476 86.3338 93.514 86.6619C92.9804 86.9901 92.3556 87.1541 91.6397 87.1541ZM91.6447 85.9062C92.1087 85.9062 92.4932 85.7836 92.7981 85.5384C93.103 85.2931 93.3284 84.9666 93.4743 84.5589C93.6234 84.1513 93.698 83.7022 93.698 83.2116C93.698 82.7244 93.6234 82.277 93.4743 81.8693C93.3284 81.4583 93.103 81.1286 92.7981 80.88C92.4932 80.6314 92.1087 80.5071 91.6447 80.5071C91.1774 80.5071 90.7896 80.6314 90.4814 80.88C90.1764 81.1286 89.9494 81.4583 89.8002 81.8693C89.6544 82.277 89.5815 82.7244 89.5815 83.2116C89.5815 83.7022 89.6544 84.1513 89.8002 84.5589C89.9494 84.9666 90.1764 85.2931 90.4814 85.5384C90.7896 85.7836 91.1774 85.9062 91.6447 85.9062ZM98.3452 76.8182V87H96.8587V76.8182H98.3452ZM102.567 87.169C102.083 87.169 101.646 87.0795 101.255 86.9006C100.864 86.7183 100.554 86.4548 100.325 86.1101C100.1 85.7654 99.987 85.3428 99.987 84.8423C99.987 84.4115 100.07 84.0568 100.236 83.7784C100.401 83.5 100.625 83.2796 100.907 83.1172C101.189 82.9548 101.503 82.8321 101.851 82.7493C102.199 82.6664 102.554 82.6035 102.915 82.5604C103.373 82.5073 103.744 82.4643 104.029 82.4311C104.314 82.3946 104.521 82.3366 104.65 82.2571C104.78 82.1776 104.844 82.0483 104.844 81.8693V81.8345C104.844 81.4003 104.722 81.0639 104.476 80.8253C104.234 80.5866 103.873 80.4673 103.393 80.4673C102.892 80.4673 102.498 80.5784 102.209 80.8004C101.924 81.0192 101.727 81.2628 101.618 81.5312L100.221 81.2131C100.386 80.7491 100.628 80.3745 100.947 80.0895C101.268 79.8011 101.638 79.5923 102.055 79.4631C102.473 79.3305 102.912 79.2642 103.373 79.2642C103.678 79.2642 104.001 79.3007 104.342 79.3736C104.687 79.4432 105.008 79.5724 105.307 79.7614C105.608 79.9503 105.855 80.2204 106.047 80.5717C106.24 80.9197 106.336 81.3722 106.336 81.929V87H104.884V85.956H104.824C104.728 86.1482 104.584 86.3371 104.392 86.5227C104.2 86.7083 103.953 86.8625 103.651 86.9851C103.349 87.1077 102.988 87.169 102.567 87.169ZM102.89 85.9759C103.301 85.9759 103.653 85.8946 103.944 85.7322C104.239 85.5698 104.463 85.3577 104.616 85.0959C104.771 84.8307 104.849 84.5473 104.849 84.2457V83.2614C104.796 83.3144 104.693 83.3641 104.541 83.4105C104.392 83.4536 104.221 83.4917 104.029 83.5249C103.837 83.5547 103.649 83.5829 103.467 83.6094C103.285 83.6326 103.132 83.6525 103.01 83.669C102.721 83.7055 102.458 83.7668 102.219 83.853C101.984 83.9392 101.795 84.0634 101.653 84.2259C101.513 84.3849 101.444 84.5971 101.444 84.8622C101.444 85.2301 101.58 85.5085 101.851 85.6974C102.123 85.883 102.47 85.9759 102.89 85.9759ZM120.985 81.9091C120.985 82.9962 120.786 83.9309 120.388 84.7131C119.99 85.492 119.445 86.0919 118.752 86.5128C118.063 86.9304 117.279 87.1392 116.401 87.1392C115.519 87.1392 114.732 86.9304 114.039 86.5128C113.35 86.0919 112.806 85.4903 112.409 84.7081C112.011 83.9259 111.812 82.9929 111.812 81.9091C111.812 80.822 112.011 79.889 112.409 79.1101C112.806 78.3279 113.35 77.728 114.039 77.3104C114.732 76.8894 115.519 76.679 116.401 76.679C117.279 76.679 118.063 76.8894 118.752 77.3104C119.445 77.728 119.99 78.3279 120.388 79.1101C120.786 79.889 120.985 80.822 120.985 81.9091ZM119.463 81.9091C119.463 81.0805 119.329 80.3828 119.061 79.8161C118.795 79.246 118.431 78.8151 117.967 78.5234C117.506 78.2285 116.984 78.081 116.401 78.081C115.814 78.081 115.29 78.2285 114.83 78.5234C114.369 78.8151 114.004 79.246 113.736 79.8161C113.471 80.3828 113.338 81.0805 113.338 81.9091C113.338 82.7377 113.471 83.437 113.736 84.0071C114.004 84.5739 114.369 85.0047 114.83 85.2997C115.29 85.5914 115.814 85.7372 116.401 85.7372C116.984 85.7372 117.506 85.5914 117.967 85.2997C118.431 85.0047 118.795 84.5739 119.061 84.0071C119.329 83.437 119.463 82.7377 119.463 81.9091ZM124.267 76.8182V87H122.781V76.8182H124.267ZM131.104 83.8331V79.3636H132.596V87H131.134V85.6776H131.055C130.879 86.0852 130.597 86.425 130.209 86.6967C129.825 86.9652 129.346 87.0994 128.773 87.0994C128.282 87.0994 127.848 86.9917 127.47 86.7763C127.095 86.5575 126.8 86.2344 126.585 85.8068C126.373 85.3793 126.267 84.8506 126.267 84.2209V79.3636H127.753V84.0419C127.753 84.5623 127.898 84.9766 128.186 85.2848C128.474 85.593 128.849 85.7472 129.309 85.7472C129.588 85.7472 129.865 85.6776 130.14 85.5384C130.418 85.3991 130.648 85.1887 130.831 84.907C131.016 84.6252 131.108 84.2673 131.104 83.8331ZM137.81 87.1541C137.071 87.1541 136.434 86.9867 135.901 86.652C135.37 86.3139 134.963 85.8482 134.678 85.255C134.393 84.6617 134.25 83.9822 134.25 83.2166C134.25 82.4411 134.396 81.7566 134.688 81.1634C134.979 80.5668 135.39 80.1011 135.92 79.7663C136.451 79.4316 137.076 79.2642 137.795 79.2642C138.375 79.2642 138.892 79.3719 139.346 79.5874C139.8 79.7995 140.166 80.0978 140.445 80.4822C140.726 80.8667 140.894 81.3158 140.947 81.8295H139.5C139.42 81.4716 139.238 81.1634 138.953 80.9048C138.671 80.6463 138.294 80.517 137.82 80.517C137.405 80.517 137.042 80.6264 136.731 80.8452C136.423 81.0606 136.182 81.3688 136.01 81.7699C135.838 82.1676 135.751 82.6383 135.751 83.1818C135.751 83.7386 135.836 84.2192 136.005 84.6236C136.174 85.0279 136.413 85.3411 136.721 85.5632C137.032 85.7853 137.399 85.8963 137.82 85.8963C138.101 85.8963 138.357 85.8449 138.585 85.7422C138.817 85.6361 139.011 85.4853 139.167 85.2898C139.326 85.0942 139.437 84.8589 139.5 84.5838H140.947C140.894 85.0777 140.733 85.5185 140.464 85.9062C140.196 86.294 139.836 86.599 139.386 86.821C138.938 87.0431 138.413 87.1541 137.81 87.1541ZM144.023 82.4659V87H142.536V76.8182H144.003V80.6065H144.097C144.276 80.1955 144.55 79.8691 144.918 79.6271C145.286 79.3852 145.766 79.2642 146.36 79.2642C146.883 79.2642 147.341 79.3719 147.732 79.5874C148.126 79.8028 148.431 80.1243 148.646 80.5518C148.865 80.9761 148.975 81.5064 148.975 82.1428V87H147.488V82.3217C147.488 81.7616 147.344 81.3274 147.056 81.0192C146.767 80.7076 146.366 80.5518 145.852 80.5518C145.501 80.5518 145.186 80.6264 144.908 80.7756C144.633 80.9247 144.416 81.1435 144.257 81.4318C144.101 81.7169 144.023 82.0616 144.023 82.4659ZM150.958 87V79.3636H152.445V87H150.958ZM151.709 78.1854C151.45 78.1854 151.228 78.0992 151.043 77.9268C150.86 77.7512 150.769 77.5424 150.769 77.3004C150.769 77.0552 150.86 76.8464 151.043 76.674C151.228 76.4983 151.45 76.4105 151.709 76.4105C151.968 76.4105 152.188 76.4983 152.37 76.674C152.556 76.8464 152.649 77.0552 152.649 77.3004C152.649 77.5424 152.556 77.7512 152.37 77.9268C152.188 78.0992 151.968 78.1854 151.709 78.1854Z" fill="#667085"/>
<path d="M55.9716 96.2727V105H54.9148V97.3807H54.8636L52.733 98.7955V97.7216L54.9148 96.2727H55.9716ZM61.4304 105.119C60.8679 105.119 60.3665 105.023 59.9261 104.83C59.4886 104.636 59.1406 104.368 58.8821 104.024C58.6264 103.678 58.4872 103.276 58.4645 102.818H59.5384C59.5611 103.099 59.6577 103.342 59.8281 103.547C59.9986 103.749 60.2216 103.905 60.4972 104.016C60.7727 104.126 61.0781 104.182 61.4134 104.182C61.7884 104.182 62.1207 104.116 62.4105 103.986C62.7003 103.855 62.9276 103.673 63.0923 103.44C63.2571 103.207 63.3395 102.938 63.3395 102.631C63.3395 102.31 63.2599 102.027 63.1009 101.783C62.9418 101.536 62.7088 101.342 62.402 101.203C62.0952 101.064 61.7202 100.994 61.277 100.994H60.5781V100.057H61.277C61.6236 100.057 61.9276 99.9943 62.1889 99.8693C62.4531 99.7443 62.6591 99.5682 62.8068 99.3409C62.9574 99.1136 63.0327 98.8466 63.0327 98.5398C63.0327 98.2443 62.9673 97.9872 62.8366 97.7685C62.706 97.5497 62.5213 97.3793 62.2827 97.2571C62.0469 97.1349 61.7685 97.0739 61.4474 97.0739C61.1463 97.0739 60.8622 97.1293 60.5952 97.2401C60.331 97.348 60.1151 97.5057 59.9474 97.7131C59.7798 97.9176 59.6889 98.1648 59.6747 98.4545H58.652C58.669 97.9972 58.8068 97.5966 59.0653 97.2528C59.3239 96.9062 59.6619 96.6364 60.0795 96.4432C60.5 96.25 60.9616 96.1534 61.4645 96.1534C62.0043 96.1534 62.4673 96.2628 62.8537 96.4815C63.2401 96.6974 63.5369 96.983 63.7443 97.3381C63.9517 97.6932 64.0554 98.0767 64.0554 98.4886C64.0554 98.9801 63.9261 99.3991 63.6676 99.7457C63.4119 100.092 63.0639 100.332 62.6236 100.466V100.534C63.1747 100.625 63.6051 100.859 63.9148 101.237C64.2244 101.612 64.3793 102.077 64.3793 102.631C64.3793 103.105 64.25 103.531 63.9915 103.909C63.7358 104.284 63.3864 104.58 62.9432 104.795C62.5 105.011 61.9957 105.119 61.4304 105.119ZM72.9915 96.2727H74.0483V102.511C74.0483 103.068 73.946 103.541 73.7415 103.93C73.5369 104.32 73.2486 104.615 72.8764 104.817C72.5043 105.018 72.0653 105.119 71.5597 105.119C71.0824 105.119 70.6577 105.033 70.2855 104.859C69.9134 104.683 69.6207 104.433 69.4077 104.109C69.1946 103.786 69.0881 103.401 69.0881 102.955H70.1278C70.1278 103.202 70.1889 103.418 70.3111 103.602C70.4361 103.784 70.6065 103.926 70.8224 104.028C71.0384 104.131 71.2841 104.182 71.5597 104.182C71.8636 104.182 72.1222 104.118 72.3352 103.99C72.5483 103.862 72.7102 103.675 72.821 103.428C72.9347 103.178 72.9915 102.872 72.9915 102.511V96.2727ZM77.956 105.153C77.5412 105.153 77.1648 105.075 76.8267 104.919C76.4886 104.76 76.2202 104.531 76.0213 104.233C75.8224 103.932 75.723 103.568 75.723 103.142C75.723 102.767 75.7969 102.463 75.9446 102.23C76.0923 101.994 76.2898 101.81 76.5369 101.676C76.7841 101.543 77.0568 101.443 77.3551 101.378C77.6563 101.31 77.9588 101.256 78.2628 101.216C78.6605 101.165 78.983 101.126 79.2301 101.101C79.4801 101.072 79.6619 101.026 79.7756 100.96C79.892 100.895 79.9503 100.781 79.9503 100.619V100.585C79.9503 100.165 79.8352 99.8381 79.6051 99.6051C79.3778 99.3722 79.0327 99.2557 78.5696 99.2557C78.0895 99.2557 77.7131 99.3608 77.4403 99.571C77.1676 99.7812 76.9759 100.006 76.8651 100.244L75.9105 99.9034C76.081 99.5057 76.3082 99.196 76.5923 98.9744C76.8793 98.75 77.1918 98.5937 77.5298 98.5057C77.8707 98.4148 78.206 98.3693 78.5355 98.3693C78.7457 98.3693 78.9872 98.3949 79.2599 98.446C79.5355 98.4943 79.8011 98.5952 80.0568 98.7486C80.3153 98.902 80.5298 99.1335 80.7003 99.4432C80.8707 99.7528 80.956 100.168 80.956 100.688V105H79.9503V104.114H79.8991C79.831 104.256 79.7173 104.408 79.5582 104.57C79.3991 104.732 79.1875 104.869 78.9233 104.983C78.6591 105.097 78.3366 105.153 77.956 105.153ZM78.1094 104.25C78.5071 104.25 78.8423 104.172 79.1151 104.016C79.3906 103.859 79.598 103.658 79.7372 103.411C79.8793 103.163 79.9503 102.903 79.9503 102.631V101.71C79.9077 101.761 79.8139 101.808 79.669 101.851C79.527 101.891 79.3622 101.926 79.1747 101.957C78.9901 101.986 78.8097 102.011 78.6335 102.034C78.4602 102.054 78.3196 102.071 78.2116 102.085C77.9503 102.119 77.706 102.175 77.4787 102.251C77.2543 102.325 77.0724 102.437 76.9332 102.588C76.7969 102.736 76.7287 102.937 76.7287 103.193C76.7287 103.543 76.858 103.807 77.1165 103.986C77.3778 104.162 77.7088 104.25 78.1094 104.25ZM83.7972 101.062V105H82.7915V98.4545H83.7631V99.4773H83.8484C84.0018 99.1449 84.2347 98.8778 84.5472 98.6761C84.8597 98.4716 85.2631 98.3693 85.7575 98.3693C86.2006 98.3693 86.5884 98.4602 86.9208 98.642C87.2532 98.821 87.5117 99.0938 87.6964 99.4602C87.881 99.8239 87.9734 100.284 87.9734 100.841V105H86.9677V100.909C86.9677 100.395 86.8342 99.9943 86.5671 99.7074C86.3001 99.4176 85.9336 99.2727 85.4677 99.2727C85.1467 99.2727 84.8597 99.3423 84.6069 99.4815C84.3569 99.6207 84.1594 99.8239 84.0146 100.091C83.8697 100.358 83.7972 100.682 83.7972 101.062ZM91.3111 103.807L91.2429 104.267C91.1946 104.591 91.1207 104.938 91.0213 105.307C90.9247 105.676 90.8239 106.024 90.7188 106.351C90.6136 106.678 90.527 106.938 90.4588 107.131H89.6918C89.7287 106.949 89.777 106.709 89.8366 106.411C89.8963 106.112 89.956 105.778 90.0156 105.409C90.0781 105.043 90.1293 104.668 90.169 104.284L90.2202 103.807H91.3111ZM96.5323 105V104.233L99.413 101.08C99.7511 100.71 100.029 100.389 100.248 100.116C100.467 99.8409 100.629 99.5824 100.734 99.3409C100.842 99.0966 100.896 98.8409 100.896 98.5739C100.896 98.267 100.822 98.0014 100.674 97.777C100.529 97.5526 100.331 97.3793 100.078 97.2571C99.8249 97.1349 99.5408 97.0739 99.2255 97.0739C98.8903 97.0739 98.5977 97.1435 98.3477 97.2827C98.1005 97.419 97.9087 97.6108 97.7724 97.858C97.6388 98.1051 97.5721 98.3949 97.5721 98.7273H96.5664C96.5664 98.2159 96.6843 97.767 96.9201 97.3807C97.1559 96.9943 97.4769 96.6932 97.8832 96.4773C98.2923 96.2614 98.7511 96.1534 99.2596 96.1534C99.771 96.1534 100.224 96.2614 100.619 96.4773C101.014 96.6932 101.324 96.9844 101.548 97.3509C101.772 97.7173 101.885 98.125 101.885 98.5739C101.885 98.8949 101.826 99.2088 101.71 99.5156C101.596 99.8196 101.397 100.159 101.113 100.534C100.832 100.906 100.441 101.361 99.9414 101.898L97.9812 103.994V104.062H102.038V105H96.5323ZM106.645 105.119C106.002 105.119 105.456 104.945 105.004 104.595C104.552 104.243 104.207 103.733 103.968 103.065C103.73 102.395 103.61 101.585 103.61 100.636C103.61 99.6932 103.73 98.8878 103.968 98.2202C104.21 97.5497 104.556 97.0384 105.008 96.6861C105.463 96.331 106.008 96.1534 106.645 96.1534C107.281 96.1534 107.825 96.331 108.277 96.6861C108.731 97.0384 109.078 97.5497 109.316 98.2202C109.558 98.8878 109.679 99.6932 109.679 100.636C109.679 101.585 109.559 102.395 109.321 103.065C109.082 103.733 108.737 104.243 108.285 104.595C107.833 104.945 107.287 105.119 106.645 105.119ZM106.645 104.182C107.281 104.182 107.775 103.875 108.127 103.261C108.48 102.648 108.656 101.773 108.656 100.636C108.656 99.8807 108.575 99.2372 108.413 98.706C108.254 98.1747 108.024 97.7699 107.723 97.4915C107.424 97.2131 107.065 97.0739 106.645 97.0739C106.014 97.0739 105.521 97.3849 105.166 98.0071C104.811 98.6264 104.633 99.5028 104.633 100.636C104.633 101.392 104.713 102.034 104.872 102.562C105.031 103.091 105.26 103.493 105.558 103.768C105.859 104.044 106.221 104.182 106.645 104.182ZM111.298 105V104.233L114.179 101.08C114.517 100.71 114.795 100.389 115.014 100.116C115.233 99.8409 115.395 99.5824 115.5 99.3409C115.608 99.0966 115.662 98.8409 115.662 98.5739C115.662 98.267 115.588 98.0014 115.44 97.777C115.295 97.5526 115.096 97.3793 114.843 97.2571C114.591 97.1349 114.306 97.0739 113.991 97.0739C113.656 97.0739 113.363 97.1435 113.113 97.2827C112.866 97.419 112.674 97.6108 112.538 97.858C112.404 98.1051 112.338 98.3949 112.338 98.7273H111.332C111.332 98.2159 111.45 97.767 111.686 97.3807C111.922 96.9943 112.243 96.6932 112.649 96.4773C113.058 96.2614 113.517 96.1534 114.025 96.1534C114.537 96.1534 114.99 96.2614 115.385 96.4773C115.779 96.6932 116.089 96.9844 116.314 97.3509C116.538 97.7173 116.65 98.125 116.65 98.5739C116.65 98.8949 116.592 99.2088 116.475 99.5156C116.362 99.8196 116.163 100.159 115.879 100.534C115.598 100.906 115.207 101.361 114.707 101.898L112.747 103.994V104.062H116.804V105H111.298ZM118.172 103.21V102.341L122.007 96.2727H122.637V97.6193H122.211L119.314 102.205V102.273H124.478V103.21H118.172ZM122.279 105V102.946V102.541V96.2727H123.285V105H122.279Z" fill="#667085"/>
<g style="mix-blend-mode:multiply">
<rect x="231.5" y="72.5" width="44" height="21" rx="10.5" fill="#F2F4F7"/>
<rect x="231.5" y="72.5" width="44" height="21" rx="10.5" stroke="#EAECF0"/>
<path d="M242.817 87H239.992V78.2727H242.907C243.762 78.2727 244.496 78.4474 245.11 78.7969C245.724 79.1435 246.194 79.642 246.52 80.2926C246.85 80.9403 247.015 81.7173 247.015 82.6236C247.015 83.5327 246.849 84.3139 246.516 84.9673C246.187 85.6207 245.709 86.1236 245.084 86.4759C244.459 86.8253 243.704 87 242.817 87ZM241.309 85.8494H242.745C243.41 85.8494 243.962 85.7244 244.403 85.4744C244.843 85.2216 245.172 84.8565 245.391 84.3793C245.61 83.8991 245.719 83.3139 245.719 82.6236C245.719 81.9389 245.61 81.358 245.391 80.8807C245.175 80.4034 244.853 80.0412 244.424 79.794C243.995 79.5469 243.462 79.4233 242.826 79.4233H241.309V85.8494ZM248.55 87V80.4545H249.781V81.4943H249.85C249.969 81.142 250.179 80.8651 250.48 80.6634C250.784 80.4588 251.128 80.3565 251.512 80.3565C251.591 80.3565 251.685 80.3594 251.793 80.3651C251.904 80.3707 251.99 80.3778 252.053 80.3864V81.6051C252.002 81.5909 251.911 81.5753 251.78 81.5582C251.649 81.5384 251.519 81.5284 251.388 81.5284C251.087 81.5284 250.818 81.5923 250.583 81.7202C250.35 81.8452 250.165 82.0199 250.029 82.2443C249.892 82.4659 249.824 82.7187 249.824 83.0028V87H248.55ZM255.002 87.1449C254.587 87.1449 254.212 87.0682 253.877 86.9148C253.541 86.7585 253.276 86.5327 253.08 86.2372C252.887 85.9418 252.79 85.5795 252.79 85.1506C252.79 84.7812 252.861 84.4773 253.003 84.2386C253.145 84 253.337 83.8111 253.578 83.6719C253.82 83.5327 254.09 83.4276 254.388 83.3565C254.686 83.2855 254.99 83.2315 255.3 83.1946C255.692 83.1491 256.01 83.1122 256.254 83.0838C256.499 83.0526 256.676 83.0028 256.787 82.9347C256.898 82.8665 256.953 82.7557 256.953 82.6023V82.5724C256.953 82.2003 256.848 81.9119 256.638 81.7074C256.431 81.5028 256.121 81.4006 255.709 81.4006C255.28 81.4006 254.942 81.4957 254.695 81.6861C254.45 81.8736 254.281 82.0824 254.188 82.3125L252.99 82.0398C253.132 81.642 253.34 81.321 253.612 81.0767C253.888 80.8295 254.205 80.6506 254.563 80.5398C254.921 80.4261 255.297 80.3693 255.692 80.3693C255.953 80.3693 256.23 80.4006 256.523 80.4631C256.818 80.5227 257.094 80.6335 257.35 80.7955C257.608 80.9574 257.82 81.1889 257.985 81.4901C258.149 81.7884 258.232 82.1761 258.232 82.6534V87H256.987V86.1051H256.936C256.854 86.2699 256.73 86.4318 256.566 86.5909C256.401 86.75 256.189 86.8821 255.931 86.9872C255.672 87.0923 255.362 87.1449 255.002 87.1449ZM255.279 86.1222C255.631 86.1222 255.932 86.0526 256.182 85.9134C256.435 85.7741 256.627 85.5923 256.757 85.3679C256.891 85.1406 256.958 84.8977 256.958 84.6392V83.7955C256.912 83.8409 256.824 83.8835 256.693 83.9233C256.566 83.9602 256.419 83.9929 256.254 84.0213C256.09 84.0469 255.929 84.071 255.773 84.0938C255.617 84.1136 255.486 84.1307 255.381 84.1449C255.134 84.1761 254.908 84.2287 254.703 84.3026C254.502 84.3764 254.34 84.483 254.218 84.6222C254.098 84.7585 254.039 84.9403 254.039 85.1676C254.039 85.483 254.155 85.7216 254.388 85.8835C254.621 86.0426 254.918 86.1222 255.279 86.1222ZM263.044 80.4545V81.4773H259.345V80.4545H263.044ZM260.359 87V79.696C260.359 79.2869 260.449 78.9474 260.628 78.6776C260.807 78.4048 261.044 78.2017 261.339 78.0682C261.635 77.9318 261.956 77.8636 262.302 77.8636C262.558 77.8636 262.777 77.8849 262.959 77.9276C263.14 77.9673 263.275 78.0043 263.363 78.0384L263.065 79.0696C263.006 79.0526 262.929 79.0327 262.835 79.0099C262.741 78.9844 262.628 78.9716 262.494 78.9716C262.184 78.9716 261.963 79.0483 261.829 79.2017C261.699 79.3551 261.633 79.5767 261.633 79.8665V87H260.359ZM267.414 80.4545V81.4773H263.839V80.4545H267.414ZM264.797 78.8864H266.072V85.0781C266.072 85.3253 266.108 85.5114 266.182 85.6364C266.256 85.7585 266.351 85.8423 266.468 85.8878C266.587 85.9304 266.716 85.9517 266.856 85.9517C266.958 85.9517 267.047 85.9446 267.124 85.9304C267.201 85.9162 267.26 85.9048 267.303 85.8963L267.533 86.9489C267.459 86.9773 267.354 87.0057 267.218 87.0341C267.081 87.0653 266.911 87.0824 266.706 87.0852C266.371 87.0909 266.059 87.0312 265.769 86.9062C265.479 86.7812 265.245 86.5881 265.066 86.3267C264.887 86.0653 264.797 85.7372 264.797 85.3423V78.8864Z" fill="#344054"/>
</g>
<path d="M52 134.5H276C282.351 134.5 287.5 139.649 287.5 146V184C287.5 190.351 282.351 195.5 276 195.5H52C45.6487 195.5 40.5 190.351 40.5 184V146C40.5 139.649 45.6487 134.5 52 134.5Z" stroke="#EAECF0"/>
<path d="M53.9787 161H52.348L56.0121 150.818H57.7869L61.451 161H59.8203L56.9418 152.668H56.8622L53.9787 161ZM54.2521 157.013H59.5419V158.305H54.2521V157.013ZM65.5376 161.149C64.9212 161.149 64.371 160.992 63.8871 160.677C63.4065 160.359 63.0286 159.906 62.7536 159.32C62.4818 158.73 62.3459 158.022 62.3459 157.197C62.3459 156.371 62.4834 155.665 62.7585 155.079C63.0369 154.492 63.4181 154.043 63.902 153.732C64.3859 153.42 64.9344 153.264 65.5476 153.264C66.0215 153.264 66.4027 153.344 66.6911 153.503C66.9827 153.659 67.2081 153.841 67.3672 154.05C67.5296 154.259 67.6555 154.442 67.745 154.602H67.8345V150.818H69.321V161H67.8693V159.812H67.745C67.6555 159.974 67.5263 160.16 67.3572 160.369C67.1915 160.577 66.9628 160.76 66.6712 160.915C66.3795 161.071 66.0017 161.149 65.5376 161.149ZM65.8658 159.881C66.2933 159.881 66.6546 159.769 66.9496 159.543C67.2479 159.315 67.4732 158.998 67.6257 158.594C67.7815 158.189 67.8594 157.719 67.8594 157.182C67.8594 156.652 67.7831 156.187 67.6307 155.79C67.4782 155.392 67.2545 155.082 66.9595 154.86C66.6645 154.638 66.3 154.527 65.8658 154.527C65.4183 154.527 65.0455 154.643 64.7472 154.875C64.4489 155.107 64.2235 155.424 64.071 155.825C63.9219 156.226 63.8473 156.678 63.8473 157.182C63.8473 157.692 63.9235 158.151 64.076 158.559C64.2285 158.967 64.4538 159.29 64.7521 159.528C65.0537 159.764 65.425 159.881 65.8658 159.881ZM74.7338 161.154C73.9815 161.154 73.3335 160.993 72.79 160.672C72.2497 160.347 71.8321 159.891 71.5371 159.305C71.2454 158.715 71.0996 158.024 71.0996 157.232C71.0996 156.449 71.2454 155.76 71.5371 155.163C71.8321 154.567 72.2431 154.101 72.7701 153.766C73.3004 153.432 73.9202 153.264 74.6294 153.264C75.0603 153.264 75.4779 153.335 75.8823 153.478C76.2866 153.621 76.6496 153.844 76.9711 154.149C77.2926 154.454 77.5461 154.85 77.7317 155.337C77.9173 155.821 78.0101 156.41 78.0101 157.102V157.629H71.9398V156.516H76.5534C76.5534 156.125 76.4739 155.778 76.3148 155.477C76.1557 155.172 75.932 154.931 75.6436 154.756C75.3586 154.58 75.0239 154.492 74.6394 154.492C74.2218 154.492 73.8572 154.595 73.5456 154.8C73.2374 155.003 72.9988 155.268 72.8297 155.596C72.664 155.921 72.5811 156.274 72.5811 156.655V157.525C72.5811 158.035 72.6706 158.469 72.8496 158.827C73.0319 159.185 73.2855 159.459 73.6103 159.648C73.9351 159.833 74.3146 159.926 74.7488 159.926C75.0305 159.926 75.2873 159.886 75.5194 159.807C75.7514 159.724 75.9519 159.601 76.1209 159.439C76.29 159.277 76.4192 159.076 76.5087 158.837L77.9157 159.091C77.803 159.505 77.6008 159.868 77.3091 160.18C77.0208 160.488 76.6578 160.728 76.2203 160.901C75.7862 161.07 75.2907 161.154 74.7338 161.154ZM79.7788 161V150.818H81.2653V154.602H81.3548C81.4409 154.442 81.5652 154.259 81.7276 154.05C81.89 153.841 82.1154 153.659 82.4038 153.503C82.6921 153.344 83.0733 153.264 83.5472 153.264C84.1637 153.264 84.7139 153.42 85.1978 153.732C85.6817 154.043 86.0612 154.492 86.3363 155.079C86.6147 155.665 86.7539 156.371 86.7539 157.197C86.7539 158.022 86.6164 158.73 86.3413 159.32C86.0662 159.906 85.6883 160.359 85.2077 160.677C84.7272 160.992 84.1786 161.149 83.5621 161.149C83.0981 161.149 82.7186 161.071 82.4237 160.915C82.132 160.76 81.9033 160.577 81.7376 160.369C81.5719 160.16 81.4442 159.974 81.3548 159.812H81.2305V161H79.7788ZM81.2354 157.182C81.2354 157.719 81.3133 158.189 81.4691 158.594C81.6249 158.998 81.8503 159.315 82.1452 159.543C82.4402 159.769 82.8015 159.881 83.229 159.881C83.6732 159.881 84.0444 159.764 84.3427 159.528C84.641 159.29 84.8664 158.967 85.0188 158.559C85.1746 158.151 85.2525 157.692 85.2525 157.182C85.2525 156.678 85.1763 156.226 85.0238 155.825C84.8746 155.424 84.6493 155.107 84.3477 154.875C84.0494 154.643 83.6765 154.527 83.229 154.527C82.7982 154.527 82.4336 154.638 82.1353 154.86C81.8403 155.082 81.6166 155.392 81.4641 155.79C81.3117 156.187 81.2354 156.652 81.2354 157.182ZM91.6397 161.154C90.9238 161.154 90.2991 160.99 89.7654 160.662C89.2318 160.334 88.8175 159.875 88.5225 159.285C88.2276 158.695 88.0801 158.005 88.0801 157.217C88.0801 156.424 88.2276 155.732 88.5225 155.138C88.8175 154.545 89.2318 154.085 89.7654 153.756C90.2991 153.428 90.9238 153.264 91.6397 153.264C92.3556 153.264 92.9804 153.428 93.514 153.756C94.0476 154.085 94.4619 154.545 94.7569 155.138C95.0519 155.732 95.1994 156.424 95.1994 157.217C95.1994 158.005 95.0519 158.695 94.7569 159.285C94.4619 159.875 94.0476 160.334 93.514 160.662C92.9804 160.99 92.3556 161.154 91.6397 161.154ZM91.6447 159.906C92.1087 159.906 92.4932 159.784 92.7981 159.538C93.103 159.293 93.3284 158.967 93.4743 158.559C93.6234 158.151 93.698 157.702 93.698 157.212C93.698 156.724 93.6234 156.277 93.4743 155.869C93.3284 155.458 93.103 155.129 92.7981 154.88C92.4932 154.631 92.1087 154.507 91.6447 154.507C91.1774 154.507 90.7896 154.631 90.4814 154.88C90.1764 155.129 89.9494 155.458 89.8002 155.869C89.6544 156.277 89.5815 156.724 89.5815 157.212C89.5815 157.702 89.6544 158.151 89.8002 158.559C89.9494 158.967 90.1764 159.293 90.4814 159.538C90.7896 159.784 91.1774 159.906 91.6447 159.906ZM98.3452 150.818V161H96.8587V150.818H98.3452ZM102.567 161.169C102.083 161.169 101.646 161.08 101.255 160.901C100.864 160.718 100.554 160.455 100.325 160.11C100.1 159.765 99.987 159.343 99.987 158.842C99.987 158.411 100.07 158.057 100.236 157.778C100.401 157.5 100.625 157.28 100.907 157.117C101.189 156.955 101.503 156.832 101.851 156.749C102.199 156.666 102.554 156.603 102.915 156.56C103.373 156.507 103.744 156.464 104.029 156.431C104.314 156.395 104.521 156.337 104.65 156.257C104.78 156.178 104.844 156.048 104.844 155.869V155.835C104.844 155.4 104.722 155.064 104.476 154.825C104.234 154.587 103.873 154.467 103.393 154.467C102.892 154.467 102.498 154.578 102.209 154.8C101.924 155.019 101.727 155.263 101.618 155.531L100.221 155.213C100.386 154.749 100.628 154.375 100.947 154.089C101.268 153.801 101.638 153.592 102.055 153.463C102.473 153.33 102.912 153.264 103.373 153.264C103.678 153.264 104.001 153.301 104.342 153.374C104.687 153.443 105.008 153.572 105.307 153.761C105.608 153.95 105.855 154.22 106.047 154.572C106.24 154.92 106.336 155.372 106.336 155.929V161H104.884V159.956H104.824C104.728 160.148 104.584 160.337 104.392 160.523C104.2 160.708 103.953 160.862 103.651 160.985C103.349 161.108 102.988 161.169 102.567 161.169ZM102.89 159.976C103.301 159.976 103.653 159.895 103.944 159.732C104.239 159.57 104.463 159.358 104.616 159.096C104.771 158.831 104.849 158.547 104.849 158.246V157.261C104.796 157.314 104.693 157.364 104.541 157.411C104.392 157.454 104.221 157.492 104.029 157.525C103.837 157.555 103.649 157.583 103.467 157.609C103.285 157.633 103.132 157.652 103.01 157.669C102.721 157.705 102.458 157.767 102.219 157.853C101.984 157.939 101.795 158.063 101.653 158.226C101.513 158.385 101.444 158.597 101.444 158.862C101.444 159.23 101.58 159.509 101.851 159.697C102.123 159.883 102.47 159.976 102.89 159.976ZM120.985 155.909C120.985 156.996 120.786 157.931 120.388 158.713C119.99 159.492 119.445 160.092 118.752 160.513C118.063 160.93 117.279 161.139 116.401 161.139C115.519 161.139 114.732 160.93 114.039 160.513C113.35 160.092 112.806 159.49 112.409 158.708C112.011 157.926 111.812 156.993 111.812 155.909C111.812 154.822 112.011 153.889 112.409 153.11C112.806 152.328 113.35 151.728 114.039 151.31C114.732 150.889 115.519 150.679 116.401 150.679C117.279 150.679 118.063 150.889 118.752 151.31C119.445 151.728 119.99 152.328 120.388 153.11C120.786 153.889 120.985 154.822 120.985 155.909ZM119.463 155.909C119.463 155.08 119.329 154.383 119.061 153.816C118.795 153.246 118.431 152.815 117.967 152.523C117.506 152.228 116.984 152.081 116.401 152.081C115.814 152.081 115.29 152.228 114.83 152.523C114.369 152.815 114.004 153.246 113.736 153.816C113.471 154.383 113.338 155.08 113.338 155.909C113.338 156.738 113.471 157.437 113.736 158.007C114.004 158.574 114.369 159.005 114.83 159.3C115.29 159.591 115.814 159.737 116.401 159.737C116.984 159.737 117.506 159.591 117.967 159.3C118.431 159.005 118.795 158.574 119.061 158.007C119.329 157.437 119.463 156.738 119.463 155.909ZM124.267 150.818V161H122.781V150.818H124.267ZM131.104 157.833V153.364H132.596V161H131.134V159.678H131.055C130.879 160.085 130.597 160.425 130.209 160.697C129.825 160.965 129.346 161.099 128.773 161.099C128.282 161.099 127.848 160.992 127.47 160.776C127.095 160.558 126.8 160.234 126.585 159.807C126.373 159.379 126.267 158.851 126.267 158.221V153.364H127.753V158.042C127.753 158.562 127.898 158.977 128.186 159.285C128.474 159.593 128.849 159.747 129.309 159.747C129.588 159.747 129.865 159.678 130.14 159.538C130.418 159.399 130.648 159.189 130.831 158.907C131.016 158.625 131.108 158.267 131.104 157.833ZM137.81 161.154C137.071 161.154 136.434 160.987 135.901 160.652C135.37 160.314 134.963 159.848 134.678 159.255C134.393 158.662 134.25 157.982 134.25 157.217C134.25 156.441 134.396 155.757 134.688 155.163C134.979 154.567 135.39 154.101 135.92 153.766C136.451 153.432 137.076 153.264 137.795 153.264C138.375 153.264 138.892 153.372 139.346 153.587C139.8 153.799 140.166 154.098 140.445 154.482C140.726 154.867 140.894 155.316 140.947 155.83H139.5C139.42 155.472 139.238 155.163 138.953 154.905C138.671 154.646 138.294 154.517 137.82 154.517C137.405 154.517 137.042 154.626 136.731 154.845C136.423 155.061 136.182 155.369 136.01 155.77C135.838 156.168 135.751 156.638 135.751 157.182C135.751 157.739 135.836 158.219 136.005 158.624C136.174 159.028 136.413 159.341 136.721 159.563C137.032 159.785 137.399 159.896 137.82 159.896C138.101 159.896 138.357 159.845 138.585 159.742C138.817 159.636 139.011 159.485 139.167 159.29C139.326 159.094 139.437 158.859 139.5 158.584H140.947C140.894 159.078 140.733 159.518 140.464 159.906C140.196 160.294 139.836 160.599 139.386 160.821C138.938 161.043 138.413 161.154 137.81 161.154ZM144.023 156.466V161H142.536V150.818H144.003V154.607H144.097C144.276 154.196 144.55 153.869 144.918 153.627C145.286 153.385 145.766 153.264 146.36 153.264C146.883 153.264 147.341 153.372 147.732 153.587C148.126 153.803 148.431 154.124 148.646 154.552C148.865 154.976 148.975 155.506 148.975 156.143V161H147.488V156.322C147.488 155.762 147.344 155.327 147.056 155.019C146.767 154.708 146.366 154.552 145.852 154.552C145.501 154.552 145.186 154.626 144.908 154.776C144.633 154.925 144.416 155.143 144.257 155.432C144.101 155.717 144.023 156.062 144.023 156.466ZM150.958 161V153.364H152.445V161H150.958ZM151.709 152.185C151.45 152.185 151.228 152.099 151.043 151.927C150.86 151.751 150.769 151.542 150.769 151.3C150.769 151.055 150.86 150.846 151.043 150.674C151.228 150.498 151.45 150.411 151.709 150.411C151.968 150.411 152.188 150.498 152.37 150.674C152.556 150.846 152.649 151.055 152.649 151.3C152.649 151.542 152.556 151.751 152.37 151.927C152.188 152.099 151.968 152.185 151.709 152.185Z" fill="#667085"/>
<path d="M55.9716 170.273V179H54.9148V171.381H54.8636L52.733 172.795V171.722L54.9148 170.273H55.9716ZM61.4304 179.119C60.8679 179.119 60.3665 179.023 59.9261 178.83C59.4886 178.636 59.1406 178.368 58.8821 178.024C58.6264 177.678 58.4872 177.276 58.4645 176.818H59.5384C59.5611 177.099 59.6577 177.342 59.8281 177.547C59.9986 177.749 60.2216 177.905 60.4972 178.016C60.7727 178.126 61.0781 178.182 61.4134 178.182C61.7884 178.182 62.1207 178.116 62.4105 177.986C62.7003 177.855 62.9276 177.673 63.0923 177.44C63.2571 177.207 63.3395 176.938 63.3395 176.631C63.3395 176.31 63.2599 176.027 63.1009 175.783C62.9418 175.536 62.7088 175.342 62.402 175.203C62.0952 175.064 61.7202 174.994 61.277 174.994H60.5781V174.057H61.277C61.6236 174.057 61.9276 173.994 62.1889 173.869C62.4531 173.744 62.6591 173.568 62.8068 173.341C62.9574 173.114 63.0327 172.847 63.0327 172.54C63.0327 172.244 62.9673 171.987 62.8366 171.768C62.706 171.55 62.5213 171.379 62.2827 171.257C62.0469 171.135 61.7685 171.074 61.4474 171.074C61.1463 171.074 60.8622 171.129 60.5952 171.24C60.331 171.348 60.1151 171.506 59.9474 171.713C59.7798 171.918 59.6889 172.165 59.6747 172.455H58.652C58.669 171.997 58.8068 171.597 59.0653 171.253C59.3239 170.906 59.6619 170.636 60.0795 170.443C60.5 170.25 60.9616 170.153 61.4645 170.153C62.0043 170.153 62.4673 170.263 62.8537 170.482C63.2401 170.697 63.5369 170.983 63.7443 171.338C63.9517 171.693 64.0554 172.077 64.0554 172.489C64.0554 172.98 63.9261 173.399 63.6676 173.746C63.4119 174.092 63.0639 174.332 62.6236 174.466V174.534C63.1747 174.625 63.6051 174.859 63.9148 175.237C64.2244 175.612 64.3793 176.077 64.3793 176.631C64.3793 177.105 64.25 177.531 63.9915 177.909C63.7358 178.284 63.3864 178.58 62.9432 178.795C62.5 179.011 61.9957 179.119 61.4304 179.119ZM72.9915 170.273H74.0483V176.511C74.0483 177.068 73.946 177.541 73.7415 177.93C73.5369 178.32 73.2486 178.615 72.8764 178.817C72.5043 179.018 72.0653 179.119 71.5597 179.119C71.0824 179.119 70.6577 179.033 70.2855 178.859C69.9134 178.683 69.6207 178.433 69.4077 178.109C69.1946 177.786 69.0881 177.401 69.0881 176.955H70.1278C70.1278 177.202 70.1889 177.418 70.3111 177.602C70.4361 177.784 70.6065 177.926 70.8224 178.028C71.0384 178.131 71.2841 178.182 71.5597 178.182C71.8636 178.182 72.1222 178.118 72.3352 177.99C72.5483 177.862 72.7102 177.675 72.821 177.428C72.9347 177.178 72.9915 176.872 72.9915 176.511V170.273ZM77.956 179.153C77.5412 179.153 77.1648 179.075 76.8267 178.919C76.4886 178.76 76.2202 178.531 76.0213 178.233C75.8224 177.932 75.723 177.568 75.723 177.142C75.723 176.767 75.7969 176.463 75.9446 176.23C76.0923 175.994 76.2898 175.81 76.5369 175.676C76.7841 175.543 77.0568 175.443 77.3551 175.378C77.6563 175.31 77.9588 175.256 78.2628 175.216C78.6605 175.165 78.983 175.126 79.2301 175.101C79.4801 175.072 79.6619 175.026 79.7756 174.96C79.892 174.895 79.9503 174.781 79.9503 174.619V174.585C79.9503 174.165 79.8352 173.838 79.6051 173.605C79.3778 173.372 79.0327 173.256 78.5696 173.256C78.0895 173.256 77.7131 173.361 77.4403 173.571C77.1676 173.781 76.9759 174.006 76.8651 174.244L75.9105 173.903C76.081 173.506 76.3082 173.196 76.5923 172.974C76.8793 172.75 77.1918 172.594 77.5298 172.506C77.8707 172.415 78.206 172.369 78.5355 172.369C78.7457 172.369 78.9872 172.395 79.2599 172.446C79.5355 172.494 79.8011 172.595 80.0568 172.749C80.3153 172.902 80.5298 173.134 80.7003 173.443C80.8707 173.753 80.956 174.168 80.956 174.688V179H79.9503V178.114H79.8991C79.831 178.256 79.7173 178.408 79.5582 178.57C79.3991 178.732 79.1875 178.869 78.9233 178.983C78.6591 179.097 78.3366 179.153 77.956 179.153ZM78.1094 178.25C78.5071 178.25 78.8423 178.172 79.1151 178.016C79.3906 177.859 79.598 177.658 79.7372 177.411C79.8793 177.163 79.9503 176.903 79.9503 176.631V175.71C79.9077 175.761 79.8139 175.808 79.669 175.851C79.527 175.891 79.3622 175.926 79.1747 175.957C78.9901 175.986 78.8097 176.011 78.6335 176.034C78.4602 176.054 78.3196 176.071 78.2116 176.085C77.9503 176.119 77.706 176.175 77.4787 176.251C77.2543 176.325 77.0724 176.437 76.9332 176.588C76.7969 176.736 76.7287 176.937 76.7287 177.193C76.7287 177.543 76.858 177.807 77.1165 177.986C77.3778 178.162 77.7088 178.25 78.1094 178.25ZM83.7972 175.062V179H82.7915V172.455H83.7631V173.477H83.8484C84.0018 173.145 84.2347 172.878 84.5472 172.676C84.8597 172.472 85.2631 172.369 85.7575 172.369C86.2006 172.369 86.5884 172.46 86.9208 172.642C87.2532 172.821 87.5117 173.094 87.6964 173.46C87.881 173.824 87.9734 174.284 87.9734 174.841V179H86.9677V174.909C86.9677 174.395 86.8342 173.994 86.5671 173.707C86.3001 173.418 85.9336 173.273 85.4677 173.273C85.1467 173.273 84.8597 173.342 84.6069 173.482C84.3569 173.621 84.1594 173.824 84.0146 174.091C83.8697 174.358 83.7972 174.682 83.7972 175.062ZM91.3111 177.807L91.2429 178.267C91.1946 178.591 91.1207 178.938 91.0213 179.307C90.9247 179.676 90.8239 180.024 90.7188 180.351C90.6136 180.678 90.527 180.938 90.4588 181.131H89.6918C89.7287 180.949 89.777 180.709 89.8366 180.411C89.8963 180.112 89.956 179.778 90.0156 179.409C90.0781 179.043 90.1293 178.668 90.169 178.284L90.2202 177.807H91.3111ZM96.5323 179V178.233L99.413 175.08C99.7511 174.71 100.029 174.389 100.248 174.116C100.467 173.841 100.629 173.582 100.734 173.341C100.842 173.097 100.896 172.841 100.896 172.574C100.896 172.267 100.822 172.001 100.674 171.777C100.529 171.553 100.331 171.379 100.078 171.257C99.8249 171.135 99.5408 171.074 99.2255 171.074C98.8903 171.074 98.5977 171.143 98.3477 171.283C98.1005 171.419 97.9087 171.611 97.7724 171.858C97.6388 172.105 97.5721 172.395 97.5721 172.727H96.5664C96.5664 172.216 96.6843 171.767 96.9201 171.381C97.1559 170.994 97.4769 170.693 97.8832 170.477C98.2923 170.261 98.7511 170.153 99.2596 170.153C99.771 170.153 100.224 170.261 100.619 170.477C101.014 170.693 101.324 170.984 101.548 171.351C101.772 171.717 101.885 172.125 101.885 172.574C101.885 172.895 101.826 173.209 101.71 173.516C101.596 173.82 101.397 174.159 101.113 174.534C100.832 174.906 100.441 175.361 99.9414 175.898L97.9812 177.994V178.062H102.038V179H96.5323ZM106.645 179.119C106.002 179.119 105.456 178.945 105.004 178.595C104.552 178.243 104.207 177.733 103.968 177.065C103.73 176.395 103.61 175.585 103.61 174.636C103.61 173.693 103.73 172.888 103.968 172.22C104.21 171.55 104.556 171.038 105.008 170.686C105.463 170.331 106.008 170.153 106.645 170.153C107.281 170.153 107.825 170.331 108.277 170.686C108.731 171.038 109.078 171.55 109.316 172.22C109.558 172.888 109.679 173.693 109.679 174.636C109.679 175.585 109.559 176.395 109.321 177.065C109.082 177.733 108.737 178.243 108.285 178.595C107.833 178.945 107.287 179.119 106.645 179.119ZM106.645 178.182C107.281 178.182 107.775 177.875 108.127 177.261C108.48 176.648 108.656 175.773 108.656 174.636C108.656 173.881 108.575 173.237 108.413 172.706C108.254 172.175 108.024 171.77 107.723 171.491C107.424 171.213 107.065 171.074 106.645 171.074C106.014 171.074 105.521 171.385 105.166 172.007C104.811 172.626 104.633 173.503 104.633 174.636C104.633 175.392 104.713 176.034 104.872 176.562C105.031 177.091 105.26 177.493 105.558 177.768C105.859 178.044 106.221 178.182 106.645 178.182ZM111.298 179V178.233L114.179 175.08C114.517 174.71 114.795 174.389 115.014 174.116C115.233 173.841 115.395 173.582 115.5 173.341C115.608 173.097 115.662 172.841 115.662 172.574C115.662 172.267 115.588 172.001 115.44 171.777C115.295 171.553 115.096 171.379 114.843 171.257C114.591 171.135 114.306 171.074 113.991 171.074C113.656 171.074 113.363 171.143 113.113 171.283C112.866 171.419 112.674 171.611 112.538 171.858C112.404 172.105 112.338 172.395 112.338 172.727H111.332C111.332 172.216 111.45 171.767 111.686 171.381C111.922 170.994 112.243 170.693 112.649 170.477C113.058 170.261 113.517 170.153 114.025 170.153C114.537 170.153 114.99 170.261 115.385 170.477C115.779 170.693 116.089 170.984 116.314 171.351C116.538 171.717 116.65 172.125 116.65 172.574C116.65 172.895 116.592 173.209 116.475 173.516C116.362 173.82 116.163 174.159 115.879 174.534C115.598 174.906 115.207 175.361 114.707 175.898L112.747 177.994V178.062H116.804V179H111.298ZM118.172 177.21V176.341L122.007 170.273H122.637V171.619H122.211L119.314 176.205V176.273H124.478V177.21H118.172ZM122.279 179V176.946V176.541V170.273H123.285V179H122.279Z" fill="#667085"/>
<g style="mix-blend-mode:multiply">
<rect x="233.5" y="146.5" width="42" height="21" rx="10.5" fill="#D4E8F2"/>
<rect x="233.5" y="146.5" width="42" height="21" rx="10.5" stroke="#A9D1E5"/>
<path d="M247.018 154.565C246.972 154.162 246.785 153.849 246.455 153.628C246.126 153.403 245.711 153.291 245.211 153.291C244.853 153.291 244.543 153.348 244.282 153.462C244.02 153.572 243.817 153.726 243.672 153.922C243.53 154.115 243.459 154.335 243.459 154.582C243.459 154.79 243.508 154.969 243.604 155.119C243.704 155.27 243.833 155.396 243.992 155.499C244.154 155.598 244.327 155.682 244.512 155.75C244.697 155.815 244.874 155.869 245.045 155.912L245.897 156.134C246.175 156.202 246.461 156.294 246.753 156.411C247.046 156.527 247.317 156.68 247.567 156.871C247.817 157.061 248.019 157.297 248.172 157.578C248.329 157.859 248.407 158.196 248.407 158.588C248.407 159.082 248.279 159.521 248.023 159.905C247.77 160.288 247.403 160.591 246.92 160.812C246.439 161.034 245.858 161.145 245.177 161.145C244.523 161.145 243.958 161.041 243.481 160.834C243.003 160.626 242.63 160.332 242.36 159.952C242.09 159.568 241.941 159.114 241.912 158.588H243.233C243.259 158.903 243.361 159.166 243.54 159.376C243.722 159.584 243.954 159.739 244.235 159.841C244.519 159.94 244.83 159.99 245.168 159.99C245.54 159.99 245.871 159.932 246.161 159.815C246.454 159.696 246.684 159.531 246.851 159.321C247.019 159.108 247.103 158.859 247.103 158.575C247.103 158.317 247.029 158.105 246.881 157.94C246.736 157.776 246.539 157.639 246.289 157.531C246.042 157.423 245.762 157.328 245.449 157.246L244.418 156.964C243.719 156.774 243.165 156.494 242.756 156.125C242.35 155.756 242.147 155.267 242.147 154.659C242.147 154.156 242.283 153.717 242.556 153.342C242.829 152.967 243.198 152.676 243.664 152.469C244.13 152.259 244.655 152.153 245.241 152.153C245.831 152.153 246.353 152.257 246.805 152.464C247.259 152.672 247.617 152.957 247.878 153.321C248.14 153.682 248.276 154.097 248.287 154.565H247.018ZM252.699 161.132C252.054 161.132 251.499 160.994 251.033 160.719C250.57 160.44 250.212 160.05 249.959 159.547C249.709 159.041 249.584 158.449 249.584 157.77C249.584 157.099 249.709 156.509 249.959 155.997C250.212 155.486 250.564 155.087 251.016 154.8C251.47 154.513 252.002 154.369 252.61 154.369C252.979 154.369 253.337 154.43 253.683 154.553C254.03 154.675 254.341 154.866 254.617 155.128C254.892 155.389 255.11 155.729 255.269 156.146C255.428 156.561 255.507 157.065 255.507 157.659V158.111H250.304V157.156H254.259C254.259 156.821 254.191 156.524 254.054 156.266C253.918 156.004 253.726 155.798 253.479 155.648C253.235 155.497 252.948 155.422 252.618 155.422C252.26 155.422 251.948 155.51 251.681 155.686C251.416 155.859 251.212 156.087 251.067 156.368C250.925 156.646 250.854 156.949 250.854 157.276V158.021C250.854 158.459 250.931 158.831 251.084 159.138C251.24 159.445 251.458 159.679 251.736 159.841C252.014 160 252.34 160.08 252.712 160.08C252.953 160.08 253.173 160.045 253.372 159.977C253.571 159.906 253.743 159.801 253.888 159.662C254.033 159.523 254.144 159.351 254.22 159.146L255.426 159.364C255.33 159.719 255.156 160.03 254.906 160.297C254.659 160.561 254.348 160.767 253.973 160.915C253.601 161.06 253.176 161.132 252.699 161.132ZM258.195 157.114V161H256.921V154.455H258.144V155.52H258.225C258.376 155.173 258.611 154.895 258.932 154.685C259.256 154.474 259.664 154.369 260.155 154.369C260.601 154.369 260.992 154.463 261.327 154.651C261.662 154.835 261.922 155.111 262.107 155.477C262.292 155.844 262.384 156.297 262.384 156.837V161H261.11V156.99C261.11 156.516 260.986 156.145 260.739 155.878C260.492 155.608 260.153 155.473 259.721 155.473C259.425 155.473 259.162 155.537 258.932 155.665C258.705 155.793 258.525 155.98 258.391 156.227C258.26 156.472 258.195 156.767 258.195 157.114ZM267.148 154.455V155.477H263.573V154.455H267.148ZM264.532 152.886H265.806V159.078C265.806 159.325 265.843 159.511 265.917 159.636C265.991 159.759 266.086 159.842 266.202 159.888C266.322 159.93 266.451 159.952 266.59 159.952C266.692 159.952 266.782 159.945 266.858 159.93C266.935 159.916 266.995 159.905 267.037 159.896L267.268 160.949C267.194 160.977 267.089 161.006 266.952 161.034C266.816 161.065 266.645 161.082 266.441 161.085C266.106 161.091 265.793 161.031 265.503 160.906C265.214 160.781 264.979 160.588 264.8 160.327C264.621 160.065 264.532 159.737 264.532 159.342V152.886Z" fill="#247EAB"/>
</g>
<path d="M52 208.5H276C282.351 208.5 287.5 213.649 287.5 220V258C287.5 264.351 282.351 269.5 276 269.5H52C45.6487 269.5 40.5 264.351 40.5 258V220C40.5 213.649 45.6487 208.5 52 208.5Z" stroke="#EAECF0"/>
<path d="M53.9787 235H52.348L56.0121 224.818H57.7869L61.451 235H59.8203L56.9418 226.668H56.8622L53.9787 235ZM54.2521 231.013H59.5419V232.305H54.2521V231.013ZM65.5376 235.149C64.9212 235.149 64.371 234.992 63.8871 234.677C63.4065 234.359 63.0286 233.906 62.7536 233.32C62.4818 232.73 62.3459 232.022 62.3459 231.197C62.3459 230.371 62.4834 229.665 62.7585 229.079C63.0369 228.492 63.4181 228.043 63.902 227.732C64.3859 227.42 64.9344 227.264 65.5476 227.264C66.0215 227.264 66.4027 227.344 66.6911 227.503C66.9827 227.659 67.2081 227.841 67.3672 228.05C67.5296 228.259 67.6555 228.442 67.745 228.602H67.8345V224.818H69.321V235H67.8693V233.812H67.745C67.6555 233.974 67.5263 234.16 67.3572 234.369C67.1915 234.577 66.9628 234.76 66.6712 234.915C66.3795 235.071 66.0017 235.149 65.5376 235.149ZM65.8658 233.881C66.2933 233.881 66.6546 233.769 66.9496 233.543C67.2479 233.315 67.4732 232.998 67.6257 232.594C67.7815 232.189 67.8594 231.719 67.8594 231.182C67.8594 230.652 67.7831 230.187 67.6307 229.79C67.4782 229.392 67.2545 229.082 66.9595 228.86C66.6645 228.638 66.3 228.527 65.8658 228.527C65.4183 228.527 65.0455 228.643 64.7472 228.875C64.4489 229.107 64.2235 229.424 64.071 229.825C63.9219 230.226 63.8473 230.678 63.8473 231.182C63.8473 231.692 63.9235 232.151 64.076 232.559C64.2285 232.967 64.4538 233.29 64.7521 233.528C65.0537 233.764 65.425 233.881 65.8658 233.881ZM74.7338 235.154C73.9815 235.154 73.3335 234.993 72.79 234.672C72.2497 234.347 71.8321 233.891 71.5371 233.305C71.2454 232.715 71.0996 232.024 71.0996 231.232C71.0996 230.449 71.2454 229.76 71.5371 229.163C71.8321 228.567 72.2431 228.101 72.7701 227.766C73.3004 227.432 73.9202 227.264 74.6294 227.264C75.0603 227.264 75.4779 227.335 75.8823 227.478C76.2866 227.621 76.6496 227.844 76.9711 228.149C77.2926 228.454 77.5461 228.85 77.7317 229.337C77.9173 229.821 78.0101 230.41 78.0101 231.102V231.629H71.9398V230.516H76.5534C76.5534 230.125 76.4739 229.778 76.3148 229.477C76.1557 229.172 75.932 228.931 75.6436 228.756C75.3586 228.58 75.0239 228.492 74.6394 228.492C74.2218 228.492 73.8572 228.595 73.5456 228.8C73.2374 229.003 72.9988 229.268 72.8297 229.596C72.664 229.921 72.5811 230.274 72.5811 230.655V231.525C72.5811 232.035 72.6706 232.469 72.8496 232.827C73.0319 233.185 73.2855 233.459 73.6103 233.648C73.9351 233.833 74.3146 233.926 74.7488 233.926C75.0305 233.926 75.2873 233.886 75.5194 233.807C75.7514 233.724 75.9519 233.601 76.1209 233.439C76.29 233.277 76.4192 233.076 76.5087 232.837L77.9157 233.091C77.803 233.505 77.6008 233.868 77.3091 234.18C77.0208 234.488 76.6578 234.728 76.2203 234.901C75.7862 235.07 75.2907 235.154 74.7338 235.154ZM79.7788 235V224.818H81.2653V228.602H81.3548C81.4409 228.442 81.5652 228.259 81.7276 228.05C81.89 227.841 82.1154 227.659 82.4038 227.503C82.6921 227.344 83.0733 227.264 83.5472 227.264C84.1637 227.264 84.7139 227.42 85.1978 227.732C85.6817 228.043 86.0612 228.492 86.3363 229.079C86.6147 229.665 86.7539 230.371 86.7539 231.197C86.7539 232.022 86.6164 232.73 86.3413 233.32C86.0662 233.906 85.6883 234.359 85.2077 234.677C84.7272 234.992 84.1786 235.149 83.5621 235.149C83.0981 235.149 82.7186 235.071 82.4237 234.915C82.132 234.76 81.9033 234.577 81.7376 234.369C81.5719 234.16 81.4442 233.974 81.3548 233.812H81.2305V235H79.7788ZM81.2354 231.182C81.2354 231.719 81.3133 232.189 81.4691 232.594C81.6249 232.998 81.8503 233.315 82.1452 233.543C82.4402 233.769 82.8015 233.881 83.229 233.881C83.6732 233.881 84.0444 233.764 84.3427 233.528C84.641 233.29 84.8664 232.967 85.0188 232.559C85.1746 232.151 85.2525 231.692 85.2525 231.182C85.2525 230.678 85.1763 230.226 85.0238 229.825C84.8746 229.424 84.6493 229.107 84.3477 228.875C84.0494 228.643 83.6765 228.527 83.229 228.527C82.7982 228.527 82.4336 228.638 82.1353 228.86C81.8403 229.082 81.6166 229.392 81.4641 229.79C81.3117 230.187 81.2354 230.652 81.2354 231.182ZM91.6397 235.154C90.9238 235.154 90.2991 234.99 89.7654 234.662C89.2318 234.334 88.8175 233.875 88.5225 233.285C88.2276 232.695 88.0801 232.005 88.0801 231.217C88.0801 230.424 88.2276 229.732 88.5225 229.138C88.8175 228.545 89.2318 228.085 89.7654 227.756C90.2991 227.428 90.9238 227.264 91.6397 227.264C92.3556 227.264 92.9804 227.428 93.514 227.756C94.0476 228.085 94.4619 228.545 94.7569 229.138C95.0519 229.732 95.1994 230.424 95.1994 231.217C95.1994 232.005 95.0519 232.695 94.7569 233.285C94.4619 233.875 94.0476 234.334 93.514 234.662C92.9804 234.99 92.3556 235.154 91.6397 235.154ZM91.6447 233.906C92.1087 233.906 92.4932 233.784 92.7981 233.538C93.103 233.293 93.3284 232.967 93.4743 232.559C93.6234 232.151 93.698 231.702 93.698 231.212C93.698 230.724 93.6234 230.277 93.4743 229.869C93.3284 229.458 93.103 229.129 92.7981 228.88C92.4932 228.631 92.1087 228.507 91.6447 228.507C91.1774 228.507 90.7896 228.631 90.4814 228.88C90.1764 229.129 89.9494 229.458 89.8002 229.869C89.6544 230.277 89.5815 230.724 89.5815 231.212C89.5815 231.702 89.6544 232.151 89.8002 232.559C89.9494 232.967 90.1764 233.293 90.4814 233.538C90.7896 233.784 91.1774 233.906 91.6447 233.906ZM98.3452 224.818V235H96.8587V224.818H98.3452ZM102.567 235.169C102.083 235.169 101.646 235.08 101.255 234.901C100.864 234.718 100.554 234.455 100.325 234.11C100.1 233.765 99.987 233.343 99.987 232.842C99.987 232.411 100.07 232.057 100.236 231.778C100.401 231.5 100.625 231.28 100.907 231.117C101.189 230.955 101.503 230.832 101.851 230.749C102.199 230.666 102.554 230.603 102.915 230.56C103.373 230.507 103.744 230.464 104.029 230.431C104.314 230.395 104.521 230.337 104.65 230.257C104.78 230.178 104.844 230.048 104.844 229.869V229.835C104.844 229.4 104.722 229.064 104.476 228.825C104.234 228.587 103.873 228.467 103.393 228.467C102.892 228.467 102.498 228.578 102.209 228.8C101.924 229.019 101.727 229.263 101.618 229.531L100.221 229.213C100.386 228.749 100.628 228.375 100.947 228.089C101.268 227.801 101.638 227.592 102.055 227.463C102.473 227.33 102.912 227.264 103.373 227.264C103.678 227.264 104.001 227.301 104.342 227.374C104.687 227.443 105.008 227.572 105.307 227.761C105.608 227.95 105.855 228.22 106.047 228.572C106.24 228.92 106.336 229.372 106.336 229.929V235H104.884V233.956H104.824C104.728 234.148 104.584 234.337 104.392 234.523C104.2 234.708 103.953 234.862 103.651 234.985C103.349 235.108 102.988 235.169 102.567 235.169ZM102.89 233.976C103.301 233.976 103.653 233.895 103.944 233.732C104.239 233.57 104.463 233.358 104.616 233.096C104.771 232.831 104.849 232.547 104.849 232.246V231.261C104.796 231.314 104.693 231.364 104.541 231.411C104.392 231.454 104.221 231.492 104.029 231.525C103.837 231.555 103.649 231.583 103.467 231.609C103.285 231.633 103.132 231.652 103.01 231.669C102.721 231.705 102.458 231.767 102.219 231.853C101.984 231.939 101.795 232.063 101.653 232.226C101.513 232.385 101.444 232.597 101.444 232.862C101.444 233.23 101.58 233.509 101.851 233.697C102.123 233.883 102.47 233.976 102.89 233.976ZM120.985 229.909C120.985 230.996 120.786 231.931 120.388 232.713C119.99 233.492 119.445 234.092 118.752 234.513C118.063 234.93 117.279 235.139 116.401 235.139C115.519 235.139 114.732 234.93 114.039 234.513C113.35 234.092 112.806 233.49 112.409 232.708C112.011 231.926 111.812 230.993 111.812 229.909C111.812 228.822 112.011 227.889 112.409 227.11C112.806 226.328 113.35 225.728 114.039 225.31C114.732 224.889 115.519 224.679 116.401 224.679C117.279 224.679 118.063 224.889 118.752 225.31C119.445 225.728 119.99 226.328 120.388 227.11C120.786 227.889 120.985 228.822 120.985 229.909ZM119.463 229.909C119.463 229.08 119.329 228.383 119.061 227.816C118.795 227.246 118.431 226.815 117.967 226.523C117.506 226.228 116.984 226.081 116.401 226.081C115.814 226.081 115.29 226.228 114.83 226.523C114.369 226.815 114.004 227.246 113.736 227.816C113.471 228.383 113.338 229.08 113.338 229.909C113.338 230.738 113.471 231.437 113.736 232.007C114.004 232.574 114.369 233.005 114.83 233.3C115.29 233.591 115.814 233.737 116.401 233.737C116.984 233.737 117.506 233.591 117.967 233.3C118.431 233.005 118.795 232.574 119.061 232.007C119.329 231.437 119.463 230.738 119.463 229.909ZM124.267 224.818V235H122.781V224.818H124.267ZM131.104 231.833V227.364H132.596V235H131.134V233.678H131.055C130.879 234.085 130.597 234.425 130.209 234.697C129.825 234.965 129.346 235.099 128.773 235.099C128.282 235.099 127.848 234.992 127.47 234.776C127.095 234.558 126.8 234.234 126.585 233.807C126.373 233.379 126.267 232.851 126.267 232.221V227.364H127.753V232.042C127.753 232.562 127.898 232.977 128.186 233.285C128.474 233.593 128.849 233.747 129.309 233.747C129.588 233.747 129.865 233.678 130.14 233.538C130.418 233.399 130.648 233.189 130.831 232.907C131.016 232.625 131.108 232.267 131.104 231.833ZM137.81 235.154C137.071 235.154 136.434 234.987 135.901 234.652C135.37 234.314 134.963 233.848 134.678 233.255C134.393 232.662 134.25 231.982 134.25 231.217C134.25 230.441 134.396 229.757 134.688 229.163C134.979 228.567 135.39 228.101 135.92 227.766C136.451 227.432 137.076 227.264 137.795 227.264C138.375 227.264 138.892 227.372 139.346 227.587C139.8 227.799 140.166 228.098 140.445 228.482C140.726 228.867 140.894 229.316 140.947 229.83H139.5C139.42 229.472 139.238 229.163 138.953 228.905C138.671 228.646 138.294 228.517 137.82 228.517C137.405 228.517 137.042 228.626 136.731 228.845C136.423 229.061 136.182 229.369 136.01 229.77C135.838 230.168 135.751 230.638 135.751 231.182C135.751 231.739 135.836 232.219 136.005 232.624C136.174 233.028 136.413 233.341 136.721 233.563C137.032 233.785 137.399 233.896 137.82 233.896C138.101 233.896 138.357 233.845 138.585 233.742C138.817 233.636 139.011 233.485 139.167 233.29C139.326 233.094 139.437 232.859 139.5 232.584H140.947C140.894 233.078 140.733 233.518 140.464 233.906C140.196 234.294 139.836 234.599 139.386 234.821C138.938 235.043 138.413 235.154 137.81 235.154ZM144.023 230.466V235H142.536V224.818H144.003V228.607H144.097C144.276 228.196 144.55 227.869 144.918 227.627C145.286 227.385 145.766 227.264 146.36 227.264C146.883 227.264 147.341 227.372 147.732 227.587C148.126 227.803 148.431 228.124 148.646 228.552C148.865 228.976 148.975 229.506 148.975 230.143V235H147.488V230.322C147.488 229.762 147.344 229.327 147.056 229.019C146.767 228.708 146.366 228.552 145.852 228.552C145.501 228.552 145.186 228.626 144.908 228.776C144.633 228.925 144.416 229.143 144.257 229.432C144.101 229.717 144.023 230.062 144.023 230.466ZM150.958 235V227.364H152.445V235H150.958ZM151.709 226.185C151.45 226.185 151.228 226.099 151.043 225.927C150.86 225.751 150.769 225.542 150.769 225.3C150.769 225.055 150.86 224.846 151.043 224.674C151.228 224.498 151.45 224.411 151.709 224.411C151.968 224.411 152.188 224.498 152.37 224.674C152.556 224.846 152.649 225.055 152.649 225.3C152.649 225.542 152.556 225.751 152.37 225.927C152.188 226.099 151.968 226.185 151.709 226.185Z" fill="#667085"/>
<path d="M55.9716 244.273V253H54.9148V245.381H54.8636L52.733 246.795V245.722L54.9148 244.273H55.9716ZM61.4304 253.119C60.8679 253.119 60.3665 253.023 59.9261 252.83C59.4886 252.636 59.1406 252.368 58.8821 252.024C58.6264 251.678 58.4872 251.276 58.4645 250.818H59.5384C59.5611 251.099 59.6577 251.342 59.8281 251.547C59.9986 251.749 60.2216 251.905 60.4972 252.016C60.7727 252.126 61.0781 252.182 61.4134 252.182C61.7884 252.182 62.1207 252.116 62.4105 251.986C62.7003 251.855 62.9276 251.673 63.0923 251.44C63.2571 251.207 63.3395 250.938 63.3395 250.631C63.3395 250.31 63.2599 250.027 63.1009 249.783C62.9418 249.536 62.7088 249.342 62.402 249.203C62.0952 249.064 61.7202 248.994 61.277 248.994H60.5781V248.057H61.277C61.6236 248.057 61.9276 247.994 62.1889 247.869C62.4531 247.744 62.6591 247.568 62.8068 247.341C62.9574 247.114 63.0327 246.847 63.0327 246.54C63.0327 246.244 62.9673 245.987 62.8366 245.768C62.706 245.55 62.5213 245.379 62.2827 245.257C62.0469 245.135 61.7685 245.074 61.4474 245.074C61.1463 245.074 60.8622 245.129 60.5952 245.24C60.331 245.348 60.1151 245.506 59.9474 245.713C59.7798 245.918 59.6889 246.165 59.6747 246.455H58.652C58.669 245.997 58.8068 245.597 59.0653 245.253C59.3239 244.906 59.6619 244.636 60.0795 244.443C60.5 244.25 60.9616 244.153 61.4645 244.153C62.0043 244.153 62.4673 244.263 62.8537 244.482C63.2401 244.697 63.5369 244.983 63.7443 245.338C63.9517 245.693 64.0554 246.077 64.0554 246.489C64.0554 246.98 63.9261 247.399 63.6676 247.746C63.4119 248.092 63.0639 248.332 62.6236 248.466V248.534C63.1747 248.625 63.6051 248.859 63.9148 249.237C64.2244 249.612 64.3793 250.077 64.3793 250.631C64.3793 251.105 64.25 251.531 63.9915 251.909C63.7358 252.284 63.3864 252.58 62.9432 252.795C62.5 253.011 61.9957 253.119 61.4304 253.119ZM72.9915 244.273H74.0483V250.511C74.0483 251.068 73.946 251.541 73.7415 251.93C73.5369 252.32 73.2486 252.615 72.8764 252.817C72.5043 253.018 72.0653 253.119 71.5597 253.119C71.0824 253.119 70.6577 253.033 70.2855 252.859C69.9134 252.683 69.6207 252.433 69.4077 252.109C69.1946 251.786 69.0881 251.401 69.0881 250.955H70.1278C70.1278 251.202 70.1889 251.418 70.3111 251.602C70.4361 251.784 70.6065 251.926 70.8224 252.028C71.0384 252.131 71.2841 252.182 71.5597 252.182C71.8636 252.182 72.1222 252.118 72.3352 251.99C72.5483 251.862 72.7102 251.675 72.821 251.428C72.9347 251.178 72.9915 250.872 72.9915 250.511V244.273ZM77.956 253.153C77.5412 253.153 77.1648 253.075 76.8267 252.919C76.4886 252.76 76.2202 252.531 76.0213 252.233C75.8224 251.932 75.723 251.568 75.723 251.142C75.723 250.767 75.7969 250.463 75.9446 250.23C76.0923 249.994 76.2898 249.81 76.5369 249.676C76.7841 249.543 77.0568 249.443 77.3551 249.378C77.6563 249.31 77.9588 249.256 78.2628 249.216C78.6605 249.165 78.983 249.126 79.2301 249.101C79.4801 249.072 79.6619 249.026 79.7756 248.96C79.892 248.895 79.9503 248.781 79.9503 248.619V248.585C79.9503 248.165 79.8352 247.838 79.6051 247.605C79.3778 247.372 79.0327 247.256 78.5696 247.256C78.0895 247.256 77.7131 247.361 77.4403 247.571C77.1676 247.781 76.9759 248.006 76.8651 248.244L75.9105 247.903C76.081 247.506 76.3082 247.196 76.5923 246.974C76.8793 246.75 77.1918 246.594 77.5298 246.506C77.8707 246.415 78.206 246.369 78.5355 246.369C78.7457 246.369 78.9872 246.395 79.2599 246.446C79.5355 246.494 79.8011 246.595 80.0568 246.749C80.3153 246.902 80.5298 247.134 80.7003 247.443C80.8707 247.753 80.956 248.168 80.956 248.688V253H79.9503V252.114H79.8991C79.831 252.256 79.7173 252.408 79.5582 252.57C79.3991 252.732 79.1875 252.869 78.9233 252.983C78.6591 253.097 78.3366 253.153 77.956 253.153ZM78.1094 252.25C78.5071 252.25 78.8423 252.172 79.1151 252.016C79.3906 251.859 79.598 251.658 79.7372 251.411C79.8793 251.163 79.9503 250.903 79.9503 250.631V249.71C79.9077 249.761 79.8139 249.808 79.669 249.851C79.527 249.891 79.3622 249.926 79.1747 249.957C78.9901 249.986 78.8097 250.011 78.6335 250.034C78.4602 250.054 78.3196 250.071 78.2116 250.085C77.9503 250.119 77.706 250.175 77.4787 250.251C77.2543 250.325 77.0724 250.437 76.9332 250.588C76.7969 250.736 76.7287 250.937 76.7287 251.193C76.7287 251.543 76.858 251.807 77.1165 251.986C77.3778 252.162 77.7088 252.25 78.1094 252.25ZM83.7972 249.062V253H82.7915V246.455H83.7631V247.477H83.8484C84.0018 247.145 84.2347 246.878 84.5472 246.676C84.8597 246.472 85.2631 246.369 85.7575 246.369C86.2006 246.369 86.5884 246.46 86.9208 246.642C87.2532 246.821 87.5117 247.094 87.6964 247.46C87.881 247.824 87.9734 248.284 87.9734 248.841V253H86.9677V248.909C86.9677 248.395 86.8342 247.994 86.5671 247.707C86.3001 247.418 85.9336 247.273 85.4677 247.273C85.1467 247.273 84.8597 247.342 84.6069 247.482C84.3569 247.621 84.1594 247.824 84.0146 248.091C83.8697 248.358 83.7972 248.682 83.7972 249.062ZM91.3111 251.807L91.2429 252.267C91.1946 252.591 91.1207 252.938 91.0213 253.307C90.9247 253.676 90.8239 254.024 90.7188 254.351C90.6136 254.678 90.527 254.938 90.4588 255.131H89.6918C89.7287 254.949 89.777 254.709 89.8366 254.411C89.8963 254.112 89.956 253.778 90.0156 253.409C90.0781 253.043 90.1293 252.668 90.169 252.284L90.2202 251.807H91.3111ZM96.5323 253V252.233L99.413 249.08C99.7511 248.71 100.029 248.389 100.248 248.116C100.467 247.841 100.629 247.582 100.734 247.341C100.842 247.097 100.896 246.841 100.896 246.574C100.896 246.267 100.822 246.001 100.674 245.777C100.529 245.553 100.331 245.379 100.078 245.257C99.8249 245.135 99.5408 245.074 99.2255 245.074C98.8903 245.074 98.5977 245.143 98.3477 245.283C98.1005 245.419 97.9087 245.611 97.7724 245.858C97.6388 246.105 97.5721 246.395 97.5721 246.727H96.5664C96.5664 246.216 96.6843 245.767 96.9201 245.381C97.1559 244.994 97.4769 244.693 97.8832 244.477C98.2923 244.261 98.7511 244.153 99.2596 244.153C99.771 244.153 100.224 244.261 100.619 244.477C101.014 244.693 101.324 244.984 101.548 245.351C101.772 245.717 101.885 246.125 101.885 246.574C101.885 246.895 101.826 247.209 101.71 247.516C101.596 247.82 101.397 248.159 101.113 248.534C100.832 248.906 100.441 249.361 99.9414 249.898L97.9812 251.994V252.062H102.038V253H96.5323ZM106.645 253.119C106.002 253.119 105.456 252.945 105.004 252.595C104.552 252.243 104.207 251.733 103.968 251.065C103.73 250.395 103.61 249.585 103.61 248.636C103.61 247.693 103.73 246.888 103.968 246.22C104.21 245.55 104.556 245.038 105.008 244.686C105.463 244.331 106.008 244.153 106.645 244.153C107.281 244.153 107.825 244.331 108.277 244.686C108.731 245.038 109.078 245.55 109.316 246.22C109.558 246.888 109.679 247.693 109.679 248.636C109.679 249.585 109.559 250.395 109.321 251.065C109.082 251.733 108.737 252.243 108.285 252.595C107.833 252.945 107.287 253.119 106.645 253.119ZM106.645 252.182C107.281 252.182 107.775 251.875 108.127 251.261C108.48 250.648 108.656 249.773 108.656 248.636C108.656 247.881 108.575 247.237 108.413 246.706C108.254 246.175 108.024 245.77 107.723 245.491C107.424 245.213 107.065 245.074 106.645 245.074C106.014 245.074 105.521 245.385 105.166 246.007C104.811 246.626 104.633 247.503 104.633 248.636C104.633 249.392 104.713 250.034 104.872 250.562C105.031 251.091 105.26 251.493 105.558 251.768C105.859 252.044 106.221 252.182 106.645 252.182ZM111.298 253V252.233L114.179 249.08C114.517 248.71 114.795 248.389 115.014 248.116C115.233 247.841 115.395 247.582 115.5 247.341C115.608 247.097 115.662 246.841 115.662 246.574C115.662 246.267 115.588 246.001 115.44 245.777C115.295 245.553 115.096 245.379 114.843 245.257C114.591 245.135 114.306 245.074 113.991 245.074C113.656 245.074 113.363 245.143 113.113 245.283C112.866 245.419 112.674 245.611 112.538 245.858C112.404 246.105 112.338 246.395 112.338 246.727H111.332C111.332 246.216 111.45 245.767 111.686 245.381C111.922 244.994 112.243 244.693 112.649 244.477C113.058 244.261 113.517 244.153 114.025 244.153C114.537 244.153 114.99 244.261 115.385 244.477C115.779 244.693 116.089 244.984 116.314 245.351C116.538 245.717 116.65 246.125 116.65 246.574C116.65 246.895 116.592 247.209 116.475 247.516C116.362 247.82 116.163 248.159 115.879 248.534C115.598 248.906 115.207 249.361 114.707 249.898L112.747 251.994V252.062H116.804V253H111.298ZM118.172 251.21V250.341L122.007 244.273H122.637V245.619H122.211L119.314 250.205V250.273H124.478V251.21H118.172ZM122.279 253V250.946V250.541V244.273H123.285V253H122.279Z" fill="#667085"/>
<g style="mix-blend-mode:multiply">
<rect x="235.5" y="220.5" width="40" height="21" rx="10.5" fill="#ECFDF3"/>
<rect x="235.5" y="220.5" width="40" height="21" rx="10.5" stroke="#A6F4C5"/>
<path d="M243.984 235V226.273H247.095C247.774 226.273 248.336 226.396 248.782 226.643C249.229 226.891 249.562 227.229 249.784 227.658C250.006 228.084 250.116 228.564 250.116 229.098C250.116 229.635 250.004 230.118 249.78 230.547C249.558 230.973 249.223 231.311 248.774 231.561C248.328 231.808 247.767 231.932 247.091 231.932H244.952V230.815H246.971C247.4 230.815 247.748 230.741 248.015 230.594C248.282 230.443 248.479 230.239 248.604 229.98C248.729 229.722 248.791 229.428 248.791 229.098C248.791 228.768 248.729 228.476 248.604 228.22C248.479 227.964 248.281 227.764 248.011 227.619C247.744 227.474 247.392 227.402 246.954 227.402H245.301V235H243.984ZM253.404 235.145C252.989 235.145 252.614 235.068 252.279 234.915C251.944 234.759 251.678 234.533 251.482 234.237C251.289 233.942 251.192 233.58 251.192 233.151C251.192 232.781 251.263 232.477 251.405 232.239C251.547 232 251.739 231.811 251.981 231.672C252.222 231.533 252.492 231.428 252.79 231.357C253.089 231.286 253.393 231.232 253.702 231.195C254.094 231.149 254.412 231.112 254.657 231.084C254.901 231.053 255.079 231.003 255.189 230.935C255.3 230.866 255.356 230.756 255.356 230.602V230.572C255.356 230.2 255.251 229.912 255.04 229.707C254.833 229.503 254.523 229.401 254.111 229.401C253.682 229.401 253.344 229.496 253.097 229.686C252.853 229.874 252.684 230.082 252.59 230.312L251.393 230.04C251.535 229.642 251.742 229.321 252.015 229.077C252.29 228.83 252.607 228.651 252.965 228.54C253.323 228.426 253.699 228.369 254.094 228.369C254.356 228.369 254.633 228.401 254.925 228.463C255.221 228.523 255.496 228.634 255.752 228.795C256.01 228.957 256.222 229.189 256.387 229.49C256.552 229.788 256.634 230.176 256.634 230.653V235H255.39V234.105H255.339C255.256 234.27 255.133 234.432 254.968 234.591C254.803 234.75 254.591 234.882 254.333 234.987C254.074 235.092 253.765 235.145 253.404 235.145ZM253.681 234.122C254.033 234.122 254.334 234.053 254.584 233.913C254.837 233.774 255.029 233.592 255.16 233.368C255.293 233.141 255.36 232.898 255.36 232.639V231.795C255.314 231.841 255.226 231.884 255.096 231.923C254.968 231.96 254.822 231.993 254.657 232.021C254.492 232.047 254.331 232.071 254.175 232.094C254.019 232.114 253.888 232.131 253.783 232.145C253.536 232.176 253.31 232.229 253.106 232.303C252.904 232.376 252.742 232.483 252.62 232.622C252.501 232.759 252.441 232.94 252.441 233.168C252.441 233.483 252.557 233.722 252.79 233.884C253.023 234.043 253.32 234.122 253.681 234.122ZM258.331 235V228.455H259.605V235H258.331ZM258.975 227.445C258.753 227.445 258.563 227.371 258.404 227.223C258.247 227.072 258.169 226.893 258.169 226.686C258.169 226.476 258.247 226.297 258.404 226.149C258.563 225.999 258.753 225.923 258.975 225.923C259.196 225.923 259.385 225.999 259.541 226.149C259.7 226.297 259.78 226.476 259.78 226.686C259.78 226.893 259.7 227.072 259.541 227.223C259.385 227.371 259.196 227.445 258.975 227.445ZM263.77 235.128C263.241 235.128 262.77 234.993 262.355 234.723C261.943 234.45 261.619 234.062 261.383 233.56C261.15 233.054 261.034 232.447 261.034 231.74C261.034 231.033 261.152 230.428 261.388 229.925C261.626 229.422 261.953 229.037 262.368 228.77C262.782 228.503 263.253 228.369 263.778 228.369C264.184 228.369 264.511 228.438 264.758 228.574C265.008 228.707 265.202 228.864 265.338 229.043C265.477 229.222 265.585 229.379 265.662 229.516H265.738V226.273H267.013V235H265.768V233.982H265.662C265.585 234.121 265.474 234.28 265.329 234.459C265.187 234.638 264.991 234.794 264.741 234.928C264.491 235.061 264.167 235.128 263.77 235.128ZM264.051 234.041C264.417 234.041 264.727 233.945 264.98 233.751C265.236 233.555 265.429 233.284 265.559 232.938C265.693 232.591 265.76 232.187 265.76 231.727C265.76 231.273 265.694 230.875 265.564 230.534C265.433 230.193 265.241 229.928 264.988 229.737C264.736 229.547 264.423 229.452 264.051 229.452C263.667 229.452 263.348 229.551 263.092 229.75C262.836 229.949 262.643 230.22 262.513 230.564C262.385 230.908 262.321 231.295 262.321 231.727C262.321 232.165 262.386 232.558 262.517 232.908C262.648 233.257 262.841 233.534 263.096 233.739C263.355 233.94 263.673 234.041 264.051 234.041Z" fill="#027A48"/>
</g>
<path d="M52 282.5H276C282.351 282.5 287.5 287.649 287.5 294V332C287.5 338.351 282.351 343.5 276 343.5H52C45.6487 343.5 40.5 338.351 40.5 332V294C40.5 287.649 45.6487 282.5 52 282.5Z" stroke="#EAECF0"/>
<line x1="21.5" y1="90" x2="21.5" y2="384" stroke="#EAECF0"/>
<g filter="url(#filter0_d_4939_15671)">
<circle cx="21.5" cy="90.5" r="5.5" fill="white"/>
<circle cx="21.5" cy="90.5" r="5" stroke="#D0D5DD"/>
</g>
<g filter="url(#filter1_d_4939_15671)">
<circle cx="21.5" cy="164.5" r="5.5" fill="white"/>
<circle cx="21.5" cy="164.5" r="5" stroke="#D0D5DD"/>
</g>
<g filter="url(#filter2_d_4939_15671)">
<circle cx="21.5" cy="235.5" r="5.5" fill="white"/>
<circle cx="21.5" cy="235.5" r="5" stroke="#D0D5DD"/>
</g>
</g>
<defs>
<filter id="filter0_d_4939_15671" x="14" y="84" width="15" height="15" filterUnits="userSpaceOnUse" color-interpolation-filters="sRGB">
<feFlood flood-opacity="0" result="BackgroundImageFix"/>
<feColorMatrix in="SourceAlpha" type="matrix" values="0 0 0 0 0 0 0 0 0 0 0 0 0 0 0 0 0 0 127 0" result="hardAlpha"/>
<feOffset dy="1"/>
<feGaussianBlur stdDeviation="1"/>
<feColorMatrix type="matrix" values="0 0 0 0 0.0627451 0 0 0 0 0.0941176 0 0 0 0 0.156863 0 0 0 0.05 0"/>
<feBlend mode="normal" in2="BackgroundImageFix" result="effect1_dropShadow_4939_15671"/>
<feBlend mode="normal" in="SourceGraphic" in2="effect1_dropShadow_4939_15671" result="shape"/>
</filter>
<filter id="filter1_d_4939_15671" x="14" y="158" width="15" height="15" filterUnits="userSpaceOnUse" color-interpolation-filters="sRGB">
<feFlood flood-opacity="0" result="BackgroundImageFix"/>
<feColorMatrix in="SourceAlpha" type="matrix" values="0 0 0 0 0 0 0 0 0 0 0 0 0 0 0 0 0 0 127 0" result="hardAlpha"/>
<feOffset dy="1"/>
<feGaussianBlur stdDeviation="1"/>
<feColorMatrix type="matrix" values="0 0 0 0 0.0627451 0 0 0 0 0.0941176 0 0 0 0 0.156863 0 0 0 0.05 0"/>
<feBlend mode="normal" in2="BackgroundImageFix" result="effect1_dropShadow_4939_15671"/>
<feBlend mode="normal" in="SourceGraphic" in2="effect1_dropShadow_4939_15671" result="shape"/>
</filter>
<filter id="filter2_d_4939_15671" x="14" y="229" width="15" height="15" filterUnits="userSpaceOnUse" color-interpolation-filters="sRGB">
<feFlood flood-opacity="0" result="BackgroundImageFix"/>
<feColorMatrix in="SourceAlpha" type="matrix" values="0 0 0 0 0 0 0 0 0 0 0 0 0 0 0 0 0 0 127 0" result="hardAlpha"/>
<feOffset dy="1"/>
<feGaussianBlur stdDeviation="1"/>
<feColorMatrix type="matrix" values="0 0 0 0 0.0627451 0 0 0 0 0.0941176 0 0 0 0 0.156863 0 0 0 0.05 0"/>
<feBlend mode="normal" in2="BackgroundImageFix" result="effect1_dropShadow_4939_15671"/>
<feBlend mode="normal" in="SourceGraphic" in2="effect1_dropShadow_4939_15671" result="shape"/>
</filter>
<clipPath id="clip0_4939_15671">
<rect width="304" height="288" fill="white"/>
</clipPath>
</defs>
</svg>
