<svg width="1440" height="703" viewBox="0 0 1440 703" fill="none" xmlns="http://www.w3.org/2000/svg">
<path d="M2133.3 1C2029.69 71.7279 1921.37 136.512 1805.29 184.095C1767.66 199.524 1728.98 213.189 1688.77 219.302C1606.78 231.768 1523.63 212.3 1440.73 209.687C1335.44 206.366 1229.57 231.334 1136.38 280.31C1066.26 317.165 987.371 370.622 908.053 384.037C835.996 396.224 758.481 329.916 694.671 304.045C629.312 277.548 556.212 271.905 487.187 285.535C451.026 292.677 415.855 305.103 383.425 322.654C352.414 339.441 325.398 370.682 288.633 346.129C276.482 338.012 268.081 325.506 257.637 315.282C221.342 279.756 157.871 276.979 118.614 309.204" stroke="#2D31A6" stroke-width="0.552088" stroke-miterlimit="10"/>
<path d="M2128.73 3.21777C2027.48 74.8946 1920.27 140.358 1804.83 187.767C1766.39 203.579 1726.9 216.83 1685.98 223.652C1636.61 231.818 1586.73 228.792 1536.68 224.486C1502.52 221.55 1468.28 218.013 1434.08 217.025C1366.51 215.077 1298.71 223.508 1234.06 241.263C1196.26 251.647 1159.55 265.227 1124.57 281.869C1099.99 293.501 1074.43 306.976 1048.22 320.097C1011.36 338.497 973.182 356.178 934.394 367.5C920.469 371.581 906.47 374.842 892.455 376.985C834.518 385.806 773.145 348.451 717.94 320.971C703.141 313.569 688.787 306.877 675.047 301.972C618.574 281.629 556.986 276.525 497.376 285.385C487.112 286.908 476.903 288.846 466.779 291.194C430.679 299.56 395.537 313.075 362.823 331.235C343.449 341.993 325.478 358.006 305.71 363.065C293.538 366.182 280.742 365.088 266.508 356.188C254.071 348.411 245.196 336.394 234.363 326.52C196.764 292.193 132.783 289.166 92.3975 320.976" stroke="#2D31A6" stroke-width="0.552088" stroke-miterlimit="10"/>
<path d="M2124.16 5.43018C2025.26 78.061 1919.17 144.199 1804.37 191.432C1765.12 207.635 1724.81 220.471 1683.19 227.993C1633.19 236.913 1582.56 234.735 1531.72 231.029C1497.01 228.502 1462.2 225.26 1427.42 224.351C1358.73 222.543 1289.79 230.24 1224.07 246.397C1185.65 255.842 1148.34 268.204 1112.74 283.417C1087.68 294.02 1061.7 306.347 1035.1 318.294C997.66 335.026 958.962 350.988 919.48 361.272C905.331 364.988 891.101 367.97 876.837 369.928C817.761 377.964 755.195 342.413 698.986 317.145C683.952 310.323 669.358 304.269 655.408 299.904C598.166 281.994 536.433 279.042 476.903 289.99C466.659 291.868 456.47 294.165 446.361 296.852C410.316 306.442 375.204 321.046 342.21 339.821C322.661 350.948 304.386 367.041 284.248 372.35C271.837 375.621 258.826 374.692 244.372 366.252C231.641 358.815 222.301 347.292 211.078 337.763C172.18 304.634 107.681 301.357 66.176 332.748" stroke="#2D31A6" stroke-width="0.552088" stroke-miterlimit="10"/>
<path d="M2119.6 7.64307C2023.05 81.2228 1918.07 148.045 1803.91 195.099C1763.85 211.686 1722.73 224.107 1680.41 232.338C1629.77 242.017 1578.4 240.684 1526.77 237.577C1491.51 235.465 1456.13 232.518 1420.77 231.679C1350.96 230.016 1280.89 236.973 1214.1 251.527C1175.05 260.038 1137.18 271.276 1100.93 284.961C1075.41 294.6 1048.97 305.708 1022 316.486C983.975 331.55 944.763 345.794 904.587 355.034C890.218 358.386 875.748 361.088 861.244 362.866C801.025 370.118 737.209 336.519 680.052 313.31C664.768 307.102 649.96 301.627 635.79 297.822C577.818 282.249 515.896 281.544 456.456 294.585C446.227 296.823 436.058 299.47 425.969 302.502C389.983 313.315 354.901 329.008 321.628 348.396C301.904 359.894 283.329 376.066 262.817 381.625C250.165 385.057 236.94 384.297 222.261 376.301C209.235 369.209 199.431 358.171 187.818 348.986C147.617 317.056 82.6082 313.524 39.9747 344.506" stroke="#2D31A6" stroke-width="0.552088" stroke-miterlimit="10"/>
<path d="M2115.03 9.8606C2020.84 84.3893 1916.97 151.891 1803.45 198.775C1762.59 215.751 1720.67 227.838 1677.62 236.688C1626.37 247.222 1574.24 246.637 1521.82 244.135C1486.01 242.432 1450.06 239.785 1414.13 239.021C1343.18 237.502 1271.98 243.726 1204.12 256.676C1164.44 264.248 1125.98 274.297 1089.12 286.524C1063.11 295.154 1036.25 305.089 1008.9 314.703C970.29 328.099 930.553 340.625 889.683 348.821C875.089 351.808 860.385 354.23 845.641 355.823C784.283 362.291 719.264 330.541 661.107 309.494C645.584 303.875 630.555 299.005 616.166 295.759C557.475 282.523 495.358 284.067 435.998 299.195C425.784 301.787 415.635 304.789 405.566 308.165C369.64 320.202 334.583 336.984 301.03 356.982C281.132 368.849 262.257 385.096 241.37 390.91C228.479 394.501 215.034 393.912 200.14 386.365C186.814 379.617 176.551 369.069 164.549 360.229C123.044 329.497 57.5204 325.716 13.7681 356.278" stroke="#2D31A6" stroke-width="0.552088" stroke-miterlimit="10"/>
<path d="M2110.46 12.073C2018.63 87.5557 1915.88 155.736 1802.99 202.44C1761.32 219.801 1718.59 231.494 1674.84 241.028C1622.95 252.336 1570.07 252.581 1516.86 250.678C1480.51 249.389 1443.98 247.037 1407.47 246.343C1335.4 244.969 1263.08 250.453 1194.14 261.806C1153.83 268.443 1114.77 277.294 1077.31 288.067C1050.82 295.684 1023.55 304.519 995.792 312.895C956.63 324.717 916.334 335.33 874.784 342.583C859.96 345.17 845.032 347.347 830.038 348.756C767.536 354.44 701.323 324.532 642.163 305.658C626.405 300.628 611.147 296.363 596.538 293.676C537.132 282.763 474.815 286.569 415.535 303.79C405.341 306.742 395.212 310.093 385.153 313.814C349.287 327.079 314.255 344.95 280.422 365.557C260.349 377.794 241.17 394.121 219.913 400.185C206.783 403.936 193.118 403.516 178.009 396.419C164.384 390.016 153.661 379.957 141.269 371.461C98.4658 341.928 32.4278 337.898 -12.4532 368.045" stroke="#2D31A6" stroke-width="0.552088" stroke-miterlimit="10"/>
<path d="M2105.89 14.2908C2016.42 90.7224 1914.78 159.582 1802.53 206.112C1760.05 223.862 1716.52 235.15 1672.05 245.379C1619.54 257.461 1565.91 258.529 1511.91 257.231C1475 256.352 1437.91 254.299 1400.83 253.68C1327.63 252.451 1254.17 257.201 1184.16 266.945C1143.23 272.644 1103.56 280.301 1065.5 289.62C1038.53 296.223 1010.83 303.9 982.691 311.097C942.945 321.266 902.129 330.131 859.885 336.355C844.842 338.572 829.673 340.48 814.44 341.699C750.799 346.598 683.393 318.534 623.224 301.827C607.231 297.387 591.753 293.721 576.914 291.603C516.8 283.013 454.278 289.081 395.077 308.39C384.898 311.696 374.789 315.402 364.75 319.463C328.944 333.952 293.943 352.911 259.825 374.133C239.577 386.74 220.098 403.147 198.467 409.46C185.101 413.371 171.201 413.126 155.883 406.473C141.953 400.42 130.776 390.84 118 382.689C73.8926 354.355 7.34017 350.07 -38.6597 379.807" stroke="#2D31A6" stroke-width="0.552088" stroke-miterlimit="10"/>
<path d="M2101.32 16.5029C2014.2 93.8835 1913.68 163.423 1802.07 209.777C1758.78 227.912 1714.43 238.796 1669.26 249.719C1616.12 262.57 1561.74 264.472 1506.95 263.773C1469.5 263.309 1431.83 261.551 1394.17 261.001C1319.84 259.917 1245.26 263.928 1174.18 272.074C1132.62 276.839 1092.35 283.297 1053.67 291.163C1026.21 296.752 998.095 303.27 969.576 309.294C929.245 317.804 887.915 324.927 844.977 330.121C829.713 331.969 814.305 333.602 798.827 334.636C734.043 338.751 665.453 312.525 604.274 297.991C588.047 294.135 572.344 291.074 557.281 289.52C496.462 283.242 433.725 291.583 374.61 312.985C364.446 316.646 354.357 320.711 344.338 325.111C308.592 340.824 273.615 360.872 239.217 382.704C218.795 395.679 199.011 412.166 177.01 418.729C163.405 422.795 149.275 422.735 133.752 416.517C119.513 410.813 107.886 401.718 94.72 393.911C49.3145 366.771 -17.7524 362.241 -64.881 391.559" stroke="#2D31A6" stroke-width="0.552088" stroke-miterlimit="10"/>
<path d="M2096.76 18.7153C2011.99 97.0499 1912.59 167.268 1801.61 213.448C1757.52 231.973 1712.36 242.446 1666.48 254.069C1612.7 267.684 1557.57 270.426 1502 270.331C1464 270.276 1425.76 268.818 1387.52 268.343C1312.07 267.404 1236.35 270.676 1164.2 277.223C1122.01 281.049 1081.14 286.303 1041.86 292.726C1013.91 297.296 985.373 302.661 956.475 307.505C915.56 314.363 873.715 319.742 830.078 323.902C814.59 325.381 798.952 326.739 783.229 327.588C717.306 330.92 647.532 306.526 585.335 294.17C568.873 290.898 552.95 288.441 537.662 287.452C476.139 283.477 413.193 294.1 354.162 317.594C344.018 321.615 333.949 326.03 323.94 330.775C288.254 347.711 253.302 368.848 218.625 391.294C198.027 404.639 177.944 421.201 155.568 428.019C141.724 432.244 127.359 432.369 111.636 426.585C97.0873 421.236 85.0104 412.616 71.4552 405.159C24.7461 379.217 -42.8351 374.437 -91.0825 403.341" stroke="#2D31A6" stroke-width="0.552088" stroke-miterlimit="10"/>
<path d="M2092.19 20.9331C2009.78 100.217 1911.49 171.114 1801.15 217.119C1756.24 236.029 1710.28 246.098 1663.68 258.414C1609.28 272.793 1553.4 276.375 1497.04 276.879C1458.49 277.239 1419.67 276.07 1380.86 275.67C1304.29 274.876 1227.43 277.413 1154.21 282.353C1111.41 285.245 1069.93 289.295 1030.04 294.275C1001.61 297.826 972.643 302.037 943.364 305.703C901.865 310.902 859.506 314.543 815.169 317.67C799.461 318.778 783.584 319.862 767.616 320.526C700.549 323.074 629.592 300.508 566.381 290.339C549.689 287.652 533.536 285.794 518.023 285.375C455.806 283.697 392.64 296.607 333.689 322.19C323.56 326.565 313.511 331.335 303.522 336.424C267.896 354.584 232.974 376.815 198.012 399.87C177.245 413.585 156.852 430.227 134.107 437.294C120.022 441.679 105.423 441.989 89.4956 436.64C74.6318 431.645 62.1105 423.504 48.1657 416.387C0.15803 391.644 -67.9427 386.609 -117.314 415.098" stroke="#2D31A6" stroke-width="0.552088" stroke-miterlimit="10"/>
<path d="M2087.62 23.146C2007.57 103.378 1910.39 174.96 1800.69 220.785C1754.98 240.084 1708.21 249.744 1660.9 262.76C1605.86 277.903 1549.24 282.323 1492.08 283.427C1452.98 284.196 1413.6 283.327 1374.21 283.003C1296.5 282.353 1218.52 284.151 1144.23 287.493C1100.79 289.446 1058.71 292.287 1018.23 295.829C989.299 298.356 959.911 301.418 930.254 303.91C888.164 307.446 845.296 309.354 800.265 311.452C784.338 312.191 768.22 313 752.013 313.479C683.807 315.242 611.671 294.5 547.436 286.519C530.51 284.416 514.137 283.157 498.395 283.307C435.483 283.917 372.097 299.125 313.227 326.8C303.113 331.535 293.084 336.654 283.114 342.088C247.548 361.472 212.651 384.792 177.415 408.456C156.473 422.54 135.78 439.262 112.66 446.579C98.3359 451.124 83.5021 451.624 67.3747 446.704C52.1963 442.069 39.2154 434.427 24.896 427.63C-24.4651 404.19 -93.0253 398.801 -143.525 426.876" stroke="#2D31A6" stroke-width="0.552088" stroke-miterlimit="10"/>
<path d="M2083.05 25.3584C2005.36 106.545 1909.29 178.801 1800.23 224.451C1753.71 244.135 1706.12 253.385 1658.11 267.1C1602.45 283.002 1545.08 288.267 1487.13 289.97C1447.48 291.154 1407.52 290.579 1367.56 290.324C1288.73 289.82 1209.61 290.879 1134.25 292.622C1090.19 293.641 1047.49 295.269 1006.42 297.372C976.998 298.875 947.185 300.783 917.153 302.102C874.479 303.975 831.097 304.154 785.367 305.213C769.214 305.588 752.867 306.117 736.41 306.412C667.061 307.391 593.746 288.467 528.492 282.678C511.336 281.154 494.739 280.495 478.766 281.224C415.16 284.111 351.55 301.627 292.764 331.39C282.67 336.479 272.661 341.958 262.707 347.732C227.2 368.339 192.328 392.748 156.812 417.026C135.695 431.481 114.698 448.277 91.2087 455.849C76.6496 460.554 61.571 461.248 45.2488 456.748C29.7507 452.478 16.3304 445.305 1.62141 438.847C-49.0383 416.607 -118.118 410.968 -169.737 438.628" stroke="#2D31A6" stroke-width="0.552088" stroke-miterlimit="10"/>
<path d="M2078.48 27.5762C2003.14 109.712 1908.19 182.652 1799.77 228.127C1752.44 248.201 1704.04 257.036 1655.32 271.455C1599.02 288.117 1540.91 294.22 1482.17 296.528C1441.98 298.121 1401.44 297.846 1360.9 297.667C1280.95 297.307 1200.7 297.632 1124.27 297.771C1079.58 297.851 1036.27 298.271 994.593 298.935C964.686 299.415 934.449 300.169 904.037 300.314C860.774 300.523 816.882 298.975 770.458 298.995C754.086 299 737.499 299.255 720.802 299.37C650.314 299.565 575.82 282.453 509.547 278.867C492.161 277.923 475.34 277.863 459.142 279.167C394.842 284.326 331.012 304.154 272.306 336.01C262.227 341.459 252.238 347.287 242.299 353.406C206.853 375.242 172.011 400.734 136.21 425.627C114.918 440.451 93.6211 457.327 69.7571 465.149C54.9583 470.009 39.635 470.903 23.118 466.827C7.30523 462.926 -6.55966 456.219 -21.6582 450.105C-73.6165 429.068 -143.211 423.17 -195.958 450.415" stroke="#2D31A6" stroke-width="0.552088" stroke-miterlimit="10"/>
<path d="M2073.92 29.7883C2000.94 112.873 1907.01 186.278 1799.32 231.793C1751.14 252.156 1701.96 260.672 1652.54 275.795C1595.61 293.211 1536.75 300.163 1477.22 303.075C1436.48 305.083 1395.37 305.103 1354.26 304.993C1273.17 304.778 1191.8 304.364 1114.29 302.901C1068.98 302.046 1025.07 301.242 982.786 300.478C952.389 299.929 921.728 299.529 890.941 298.51C847.089 297.057 802.693 293.78 755.564 292.762C738.972 292.402 722.145 292.377 705.204 292.307C633.572 291.718 557.905 276.414 490.608 275.031C472.992 274.666 455.946 275.206 439.519 277.084C374.524 284.511 310.474 306.656 251.853 340.599C241.789 346.403 231.82 352.586 221.901 359.049C186.515 382.109 151.698 408.69 115.617 434.192C94.1503 449.386 72.5488 466.342 48.3153 474.413C33.2767 479.433 17.7137 480.527 1.00188 476.871C-15.1305 473.34 -29.435 467.096 -44.9181 461.328C-98.175 441.494 -168.289 435.341 -222.155 462.172" stroke="#2D31A6" stroke-width="0.552088" stroke-miterlimit="10"/>
<path d="M2069.35 32.0015C1998.72 116.04 1905.91 190.119 1798.85 235.46C1749.86 256.207 1699.88 264.308 1649.74 280.136C1592.18 298.306 1532.58 306.107 1472.26 309.619C1430.97 312.036 1389.29 312.356 1347.6 312.321C1265.39 312.246 1182.89 311.102 1104.3 308.035C1058.36 306.242 1013.84 304.22 970.964 302.027C940.073 300.444 908.992 298.9 877.826 296.708C833.384 293.586 788.478 288.592 740.65 286.529C723.834 285.805 706.777 285.505 689.591 285.245C616.82 283.872 539.974 270.377 471.654 271.196C453.803 271.41 436.537 272.549 419.88 275.001C354.187 284.686 289.922 309.159 231.381 345.195C221.337 351.353 211.388 357.891 201.483 364.699C166.157 388.982 131.365 416.657 95.0045 442.768C73.3631 458.326 51.462 475.363 26.8539 483.689C11.5755 488.868 -4.23227 490.167 -21.1338 486.925C-37.5909 483.769 -52.3248 477.98 -68.2025 472.556C-122.758 453.921 -193.386 447.518 -248.381 473.929" stroke="#2D31A6" stroke-width="0.552088" stroke-miterlimit="10"/>
<path d="M2064.78 34.2185C1996.51 119.206 1904.82 193.969 1798.4 239.13C1748.6 260.262 1697.8 267.949 1646.96 284.486C1588.77 303.41 1528.42 312.061 1467.31 316.171C1425.47 319.003 1383.22 319.617 1340.96 319.652C1257.62 319.722 1173.99 317.839 1094.33 313.174C1047.76 310.447 1002.63 307.201 959.157 303.58C927.776 300.968 896.271 298.271 864.725 294.909C819.699 290.114 774.279 283.407 725.757 280.3C708.72 279.211 691.424 278.632 673.998 278.187C600.084 276.03 522.064 264.333 452.719 267.364C434.639 268.153 417.148 269.892 400.262 272.928C333.874 284.865 269.384 311.671 210.928 349.799C200.899 356.317 190.97 363.21 181.086 370.357C145.819 395.864 111.057 424.628 74.412 451.354C52.5958 467.281 30.395 484.398 5.41223 492.973C-10.1058 498.312 -26.1583 499.821 -43.2547 496.989C-60.0314 494.207 -75.2048 488.878 -91.4721 483.798C-147.326 466.362 -218.474 459.705 -274.587 485.706" stroke="#2D31A6" stroke-width="0.552088" stroke-miterlimit="10"/>
<path d="M2060.21 36.4312C1994.3 122.367 1903.81 198.025 1797.93 242.796C1747.37 264.417 1695.71 271.585 1644.17 288.826C1585.34 308.504 1524.25 318.004 1462.35 322.714C1419.96 325.955 1377.15 326.864 1334.3 326.979C1249.84 327.194 1165.07 324.572 1084.35 318.304C1037.15 314.638 991.412 310.168 947.335 305.123C915.465 301.472 883.535 297.631 851.614 293.106C805.999 286.643 760.069 278.217 710.848 274.067C693.592 272.614 676.056 271.755 658.385 271.125C583.332 268.183 504.134 258.284 433.765 263.533C415.455 264.902 397.734 267.234 380.628 270.85C313.541 285.035 248.837 314.178 190.461 354.394C180.451 361.267 170.537 368.514 160.668 376.006C125.461 402.737 90.7243 432.589 53.7996 459.924C31.8086 476.221 9.30311 493.418 -16.0442 502.243C-31.7971 507.737 -48.0993 509.46 -65.3855 507.033C-82.4818 504.631 -98.0848 499.721 -114.752 495.021C-171.874 478.669 -243.566 471.876 -300.809 497.458" stroke="#2D31A6" stroke-width="0.552088" stroke-miterlimit="10"/>
<path d="M2055.64 38.6443C1992.09 125.535 1902.71 201.871 1797.47 246.468C1746.1 268.474 1693.64 275.226 1641.38 293.177C1581.92 313.604 1520.09 323.953 1457.39 329.272C1414.46 332.928 1371.07 334.132 1327.65 334.317C1242.06 334.677 1156.16 331.32 1074.36 323.449C1026.54 318.849 980.194 313.15 935.518 306.682C903.158 301.997 870.809 297.003 838.504 291.314C792.304 283.178 745.86 273.039 695.944 267.844C678.468 266.026 660.698 264.888 642.782 264.074C566.585 260.348 486.208 252.236 414.826 259.708C396.281 261.651 378.341 264.578 361.005 268.778C293.213 285.205 228.299 316.691 170.003 359C160.009 366.232 150.12 373.829 140.265 381.66C105.119 409.615 70.4114 440.556 33.202 468.506C11.0362 485.172 -11.769 502.444 -37.4909 511.524C-53.4835 517.177 -70.0304 519.115 -87.5064 517.092C-104.922 515.075 -120.965 510.61 -138.021 506.254C-196.443 491.101 -268.654 484.059 -327.02 509.226" stroke="#2D31A6" stroke-width="0.552088" stroke-miterlimit="10"/>
<path d="M2051.08 40.8621C1989.88 128.701 1901.61 205.717 1797.02 250.139C1744.84 272.534 1691.56 278.863 1638.6 297.522C1578.5 318.699 1515.93 329.902 1452.44 335.82C1408.96 339.886 1365 341.389 1321 341.649C1234.29 342.153 1147.26 338.058 1064.39 328.588C1015.94 323.049 968.997 316.122 923.716 308.235C890.867 302.512 858.092 296.373 825.413 289.516C778.624 279.702 731.67 267.86 681.056 261.621C663.355 259.439 645.349 258.02 627.189 257.021C549.849 252.511 468.293 246.188 395.892 255.883C377.117 258.395 358.947 261.921 341.386 266.706C272.891 285.365 207.767 319.204 149.555 363.6C139.576 371.187 129.707 379.138 119.873 387.314C84.7858 416.492 50.1036 448.528 12.6195 477.081C-9.72115 494.118 -32.8309 511.469 -58.9225 520.799C-75.1548 526.612 -91.9415 528.77 -109.617 527.147C-127.353 525.519 -143.835 521.498 -161.281 517.487C-221.006 503.527 -293.726 496.235 -353.217 520.993" stroke="#2D31A6" stroke-width="0.552088" stroke-miterlimit="10"/>
<path d="M2046.51 43.0742C1987.67 131.862 1900.52 209.558 1796.55 253.804C1743.57 276.585 1689.47 282.493 1635.8 301.867C1575.07 323.793 1511.75 335.85 1447.48 342.368C1403.45 346.848 1358.92 348.646 1314.34 348.976C1226.5 349.625 1138.34 344.795 1054.4 333.717C1005.32 327.244 957.769 319.083 911.889 309.778C878.555 303.016 845.351 295.729 812.292 287.712C764.919 276.225 717.451 262.675 666.142 255.388C648.221 252.84 629.976 251.142 611.576 249.959C533.097 244.664 450.357 240.129 376.937 252.051C357.928 255.138 339.538 259.258 321.747 264.628C252.543 285.52 187.209 321.71 129.082 368.2C119.123 376.146 109.269 384.452 99.4546 392.968C64.4278 423.374 29.7706 456.493 -7.99318 485.662C-30.5086 503.068 -53.9181 520.498 -80.3843 530.083C-96.8563 536.057 -113.888 538.434 -131.753 537.21C-149.814 535.972 -166.73 532.391 -184.566 528.73C-245.589 515.968 -318.829 508.427 -379.443 532.765" stroke="#2D31A6" stroke-width="0.552088" stroke-miterlimit="10"/>
<path d="M2041.94 45.2864C1985.45 135.029 1899.42 213.403 1796.1 257.47C1742.3 280.64 1687.39 286.124 1633.02 306.207C1571.65 328.882 1507.59 341.793 1442.53 348.91C1397.95 353.8 1352.85 355.898 1307.7 356.302C1218.73 357.096 1129.44 351.527 1044.43 338.851C994.723 331.439 946.571 322.05 900.087 311.326C866.264 303.525 832.64 295.089 799.197 285.909C751.239 272.743 703.256 257.49 651.248 249.154C633.103 246.247 614.628 244.264 595.978 242.896C516.355 236.818 432.432 234.066 357.998 248.215C338.759 251.871 320.139 256.591 302.129 262.549C232.21 285.674 166.676 324.217 108.63 372.794C98.6856 381.095 88.8563 389.756 79.052 398.616C44.0802 430.247 9.4579 464.454 -28.5906 494.237C-51.2759 512.012 -74.995 529.518 -101.831 539.358C-118.543 545.491 -135.819 548.093 -153.874 547.259C-172.254 546.415 -189.61 543.273 -207.835 539.952C-270.162 528.389 -343.912 520.598 -405.649 544.522" stroke="#2D31A6" stroke-width="0.552088" stroke-miterlimit="10"/>
<path d="M2037.37 47.5044C1983.24 138.195 1898.32 217.249 1795.64 261.146C1741.03 284.701 1685.3 289.76 1630.23 310.562C1568.22 333.982 1503.42 347.752 1437.57 355.474C1392.44 360.778 1346.76 363.17 1301.04 363.645C1210.95 364.584 1120.53 358.275 1034.44 344.001C984.11 335.655 935.353 325.027 888.26 312.89C853.952 304.05 819.904 294.465 786.081 284.121C737.544 269.278 689.037 252.321 636.334 242.936C617.969 239.665 599.255 237.402 580.365 235.849C499.603 228.986 414.491 228.013 339.043 244.395C319.57 248.625 300.72 253.939 282.49 260.482C211.857 285.829 146.124 326.735 88.157 377.405C78.2279 386.065 68.4186 395.075 58.6343 404.28C23.7223 437.134 -10.8749 472.431 -49.2031 502.823C-72.0632 520.968 -96.082 538.554 -123.292 548.643C-140.239 554.931 -157.76 557.763 -176.015 557.323C-194.709 556.874 -212.51 554.167 -231.12 551.195C-294.75 540.831 -369.014 532.79 -431.876 556.295" stroke="#2D31A6" stroke-width="0.552088" stroke-miterlimit="10"/>
<path d="M2032.8 49.7166C1981.03 141.357 1897.22 221.095 1795.18 264.812C1739.77 288.756 1683.22 293.391 1627.44 314.902C1564.8 339.066 1499.26 353.695 1432.62 362.016C1386.94 367.73 1340.69 370.417 1294.39 370.971C1203.17 372.055 1111.62 365.013 1024.46 349.13C973.501 339.845 924.145 327.983 876.447 314.433C841.655 304.549 807.178 293.82 772.975 282.318C723.854 265.796 674.832 247.141 621.435 236.703C602.846 233.072 583.896 230.529 564.762 228.791C482.856 221.145 396.561 221.944 320.104 240.563C300.396 245.363 281.321 251.272 262.866 258.404C191.514 285.974 125.586 329.242 67.7042 382.004C57.795 391.019 48.0007 400.384 38.2363 409.934C3.38435 444.012 -31.1879 480.397 -69.7958 511.403C-92.8307 529.918 -117.154 547.584 -144.734 557.922C-161.92 564.37 -179.681 567.432 -198.131 567.382C-217.145 567.332 -235.385 565.06 -254.385 562.427C-319.314 553.262 -394.097 544.966 -458.077 568.061" stroke="#2D31A6" stroke-width="0.552088" stroke-miterlimit="10"/>
<path d="M2028.24 51.9294C1978.82 144.523 1896.13 224.936 1794.72 268.478C1738.5 292.807 1681.09 296.907 1624.66 319.243C1561.33 344.031 1495.09 359.634 1427.66 368.559C1381.44 374.687 1334.62 377.669 1287.74 378.294C1195.39 379.522 1102.72 371.741 1014.48 354.26C962.898 344.041 912.943 330.94 864.635 315.976C829.359 305.048 794.457 293.176 759.875 280.51C710.174 262.31 660.608 242.062 606.537 230.465C587.717 226.504 568.543 223.647 549.164 221.724C466.12 213.293 378.63 215.871 301.165 236.728C281.221 242.097 261.923 248.605 243.243 256.322C171.172 286.114 105.044 331.744 47.2466 386.594C37.3524 395.964 27.5831 405.689 17.8287 415.578C-16.9634 450.879 -51.5057 488.358 -90.3982 519.974C-113.608 538.858 -138.231 556.599 -166.186 567.192C-183.612 573.8 -201.612 577.092 -220.257 577.431C-239.591 577.781 -258.27 575.943 -277.659 573.655C-343.892 565.689 -419.185 557.143 -484.294 579.824" stroke="#2D31A6" stroke-width="0.552088" stroke-miterlimit="10"/>
<path d="M2023.67 54.1472C1976.6 147.69 1895.03 228.782 1794.26 272.149C1737.23 296.868 1679.01 300.553 1621.87 323.593C1557.9 349.135 1490.93 365.588 1422.71 375.112C1375.93 381.65 1328.54 384.932 1281.09 385.631C1187.61 387.004 1093.81 378.489 1004.5 359.404C952.29 348.247 901.74 333.912 852.823 317.535C817.062 305.563 781.761 292.482 746.769 278.717C696.524 258.749 646.398 236.878 591.638 224.242C572.599 219.916 553.185 216.78 533.561 214.672C449.373 205.457 360.695 209.807 282.221 232.902C262.043 238.841 242.514 245.943 223.619 254.254C150.824 286.264 84.5062 334.262 26.7891 391.205C16.9099 400.934 7.16048 411.008 -2.5739 421.242C-37.306 457.767 -71.8234 496.335 -110.996 528.56C-134.38 547.814 -159.303 565.634 -187.632 576.478C-205.298 583.245 -223.538 586.766 -242.382 587.491C-262.031 588.245 -281.155 586.831 -300.934 584.893C-368.465 578.126 -444.277 569.325 -510.51 591.591" stroke="#2D31A6" stroke-width="0.552088" stroke-miterlimit="10"/>
<path d="M2019.1 56.3596C1974.4 150.852 1893.93 232.627 1793.8 275.82C1735.97 300.923 1676.93 304.194 1619.09 327.938C1554.49 354.24 1486.77 371.536 1417.76 381.665C1370.44 388.617 1322.47 392.193 1274.44 392.962C1179.84 394.481 1084.9 385.226 994.524 364.543C941.686 352.452 890.537 336.874 841.006 319.088C804.766 306.072 769.035 291.853 733.658 276.924C682.829 255.283 632.189 231.698 576.729 218.018C557.465 213.328 537.817 209.912 517.953 207.62C432.626 197.621 342.749 203.739 263.271 229.076C242.858 235.584 223.1 243.281 203.986 252.181C130.461 286.409 63.9584 336.774 6.32125 395.804C-3.538 405.888 -13.2724 416.317 -22.9868 426.896C-57.659 464.644 -92.1514 504.301 -131.598 537.14C-155.158 556.764 -180.385 574.664 -209.084 585.757C-226.989 592.685 -245.469 596.441 -264.508 597.549C-284.472 598.713 -304.04 597.724 -324.208 596.126C-393.043 590.557 -469.365 581.507 -536.722 603.358" stroke="#2D31A6" stroke-width="0.552088" stroke-miterlimit="10"/>
<path d="M2014.53 58.5718C1972.18 154.018 1892.83 236.468 1793.34 279.486C1734.69 304.978 1674.84 307.83 1616.3 332.283C1551.06 359.339 1482.6 377.484 1412.8 388.212C1364.93 395.579 1316.39 399.45 1267.79 400.294C1172.06 401.957 1075.99 391.963 984.544 369.678C931.078 356.647 879.334 339.835 829.194 320.636C792.469 306.576 756.313 291.223 720.557 275.121C669.148 251.811 617.984 226.509 561.835 211.79C542.352 206.735 522.463 203.039 502.355 200.562C415.885 189.779 324.814 197.67 244.337 225.245C223.684 232.322 203.701 240.613 184.367 250.103C110.113 286.543 43.4258 339.281 -14.1314 400.404C-23.9757 410.848 -33.6851 421.626 -43.3846 432.549C-77.9968 471.526 -112.459 512.267 -152.191 545.721C-175.925 565.714 -201.452 583.689 -230.525 595.037C-248.666 602.119 -267.385 606.12 -286.624 607.608C-306.902 609.176 -326.915 608.612 -347.473 607.363C-417.611 602.993 -494.448 593.693 -562.928 615.125" stroke="#2D31A6" stroke-width="0.552088" stroke-miterlimit="10"/>
<path d="M2009.96 60.7896C1969.97 157.184 1891.74 240.319 1792.88 283.157C1733.42 309.034 1672.76 311.471 1613.51 336.629C1547.64 364.438 1478.43 383.433 1407.84 394.76C1359.42 402.537 1310.31 406.707 1261.13 407.626C1164.27 409.429 1067.07 398.706 974.555 374.817C920.464 360.852 868.156 342.717 817.372 322.194C780.192 307.031 743.582 290.599 707.442 273.328C655.448 248.35 603.77 221.324 546.922 205.567C527.213 200.148 507.095 196.172 486.742 193.51C399.133 181.942 306.809 191.457 225.382 221.424C204.48 229.031 184.282 237.956 164.728 248.035C89.7403 286.693 22.8682 341.798 -34.5991 405.009C-44.4284 415.807 -54.1178 426.945 -63.8022 438.208C-98.3546 478.409 -132.792 520.238 -172.803 554.301C-196.712 574.659 -222.544 592.719 -251.987 604.317C-270.367 611.559 -289.321 615.794 -308.765 617.667C-329.353 619.65 -349.815 619.505 -370.762 618.601C-442.2 615.43 -519.55 605.875 -589.154 626.897" stroke="#2D31A6" stroke-width="0.552088" stroke-miterlimit="10"/>
<path d="M2005.4 63.0024C1967.76 160.346 1890.64 244.16 1792.42 286.823C1732.16 313.09 1670.68 315.113 1610.72 340.974C1544.22 369.538 1474.27 389.377 1402.88 401.309C1353.92 409.5 1304.24 413.965 1254.48 414.954C1156.5 416.902 1058.16 405.439 964.571 379.952C909.856 365.048 856.949 345.694 805.555 323.743C767.891 307.546 730.856 289.965 694.336 271.53C641.763 244.884 589.56 216.14 532.018 199.339C512.09 193.55 491.732 189.3 471.139 186.453C382.386 174.101 288.873 185.414 206.438 217.594C185.301 225.78 164.854 235.255 145.105 245.958C69.2977 286.679 2.33075 344.306 -55.0567 409.609C-64.866 420.767 -74.5404 432.255 -84.2049 443.857C-118.697 485.282 -153.105 528.205 -193.401 562.877C-217.485 583.605 -243.616 601.745 -273.434 613.592C-292.053 620.994 -311.242 625.469 -330.886 627.717C-351.783 630.109 -372.695 630.384 -394.027 629.824C-466.768 627.851 -544.633 618.047 -615.361 638.655" stroke="#2D31A6" stroke-width="0.552088" stroke-miterlimit="10"/>
<path d="M2000.83 65.2153C1965.54 163.513 1889.54 248.001 1791.96 290.49C1730.89 317.141 1668.59 318.749 1607.93 345.315C1540.79 374.638 1470.1 395.32 1397.92 407.852C1348.41 416.452 1298.16 421.212 1247.82 422.281C1148.72 424.374 1049.25 412.172 954.592 385.081C899.247 369.244 845.741 348.666 793.742 325.287C755.594 308.06 718.13 289.331 681.23 269.722C628.073 241.408 575.356 210.946 517.119 193.101C496.966 186.948 476.374 182.418 455.536 179.386C365.644 166.25 270.938 179.366 187.494 213.753C166.122 222.514 145.445 232.588 125.476 243.875C48.9547 286.859 -18.212 346.803 -75.5195 414.2C-85.3138 425.712 -94.9633 437.554 -104.613 449.501C-139.045 492.15 -173.428 536.162 -214.003 571.448C-238.262 592.545 -264.698 610.76 -294.885 622.862C-313.745 630.424 -333.164 635.139 -353.012 637.766C-374.219 640.573 -395.58 641.267 -417.302 641.052C-491.341 640.273 -569.721 630.224 -641.572 650.412" stroke="#2D31A6" stroke-width="0.552088" stroke-miterlimit="10"/>
<path d="M1996.26 67.4326C1963.34 166.679 1888.44 251.852 1791.5 294.165C1729.62 321.206 1666.51 322.395 1605.14 349.665C1537.37 379.742 1465.93 401.274 1392.97 414.409C1342.91 423.424 1292.08 428.479 1241.17 429.618C1140.94 431.855 1040.35 418.919 944.608 390.226C888.639 373.449 834.528 351.653 781.92 326.845C743.288 308.585 705.399 288.706 668.115 267.929C614.378 237.947 561.136 205.762 502.205 186.877C481.833 180.359 461.005 175.555 439.923 172.333C348.888 158.413 252.992 173.332 168.539 209.932C146.933 219.272 126.031 229.945 105.838 241.807C28.597 287.053 -38.7646 349.32 -95.9922 418.809C-105.771 430.676 -115.401 442.873 -125.03 455.165C-159.403 499.037 -193.761 544.138 -234.616 580.034C-259.049 601.5 -285.785 619.795 -316.347 632.147C-335.446 639.868 -355.09 644.863 -375.153 647.83C-396.664 651.091 -418.48 652.16 -440.591 652.295C-515.934 652.714 -594.828 642.416 -667.804 662.189" stroke="#2D31A6" stroke-width="0.552088" stroke-miterlimit="10"/>
<path d="M1991.69 69.6455C1961.12 169.841 1887.34 255.693 1791.04 297.832C1728.35 325.257 1664.43 326.031 1602.36 354.01C1533.95 384.842 1461.77 407.222 1388.01 420.957C1237.78 448.937 1080.62 441.045 934.629 395.36C836.426 364.629 743.922 317.93 655.014 266.126C600.693 234.476 546.937 200.573 487.312 180.644C377.696 144.009 254.84 158.314 149.605 206.097C44.3698 253.88 -44.3335 333.078 -116.44 423.405C-181.879 505.37 -240.654 601.845 -337.783 641.422C-448.867 686.683 -577.947 643.625 -694 673.946" stroke="#2D31A6" stroke-width="0.552088" stroke-miterlimit="10"/>
<path d="M1759.8 703C1761.02 576.363 1716.25 449.771 1635.67 352.073C1612.74 324.278 1585.86 297.997 1551.96 285.805C1453.99 250.583 1349.39 327.579 1267.02 371.297C1167.62 424.049 1069.35 479.334 965.86 523.85C907.758 548.843 839.518 570.055 783.314 541.047C726.401 511.669 704.745 443.263 681.215 383.693C653.8 314.279 616.046 247.412 560.627 197.426C505.207 147.441 430.289 115.885 356.1 124.021C298.003 130.394 245.066 159.872 196.724 192.721C69.7071 279.037 -38.2002 393.308 -117.109 525.059" stroke="#2D31A6" stroke-width="0.552088" stroke-miterlimit="10"/>
<path d="M1762.98 697.525C1764.06 585.602 1724.69 476.061 1654.88 382.114C1648.4 373.388 1641.72 364.808 1634.76 356.462C1611.87 329.047 1585.21 303.1 1551.79 290.813C1455.13 255.237 1352.12 328.208 1269.87 370.357C1196.95 407.726 1124.54 447.183 1049.56 482.899C1023.55 495.34 997.316 507.322 970.745 518.625C913.107 543.138 845.676 564.066 789.892 536.411C733.408 508.406 711.048 442.648 686.869 385.41C658.69 318.718 620.502 254.448 565.187 206.391C545.928 189.659 524.376 175.075 501.356 163.502C458.283 141.836 410.066 130.698 362.153 135.763C304.601 141.846 252.048 170.13 204.016 201.481C106.772 264.907 20.8405 343.636 -50.0022 434.327C-71.1441 461.388 -90.9376 489.507 -109.273 518.61" stroke="#2D31A6" stroke-width="0.552088" stroke-miterlimit="10"/>
<path d="M1766.15 692.056C1767.2 583.864 1725.73 480.392 1653.93 386.11C1647.42 377.554 1640.78 369.083 1633.85 360.862C1610.99 333.832 1584.56 308.215 1551.62 295.828C1456.24 259.892 1354.85 328.842 1272.71 369.428C1200.55 405.079 1128.78 443.492 1053.84 478.454C1028.02 490.601 1001.98 502.328 975.624 513.411C918.452 537.45 851.824 558.087 796.465 531.786C740.411 505.15 717.346 442.039 692.523 387.139C663.584 323.168 624.952 261.496 569.747 215.371C550.523 199.314 529.076 185.314 506.211 174.211C463.443 153.414 415.67 142.695 368.212 147.52C311.204 153.319 259.041 180.404 211.313 210.252C114.648 270.621 29.2813 345.025 -41.7662 431.545C-62.9681 457.362 -82.8914 484.248 -101.431 512.172" stroke="#2D31A6" stroke-width="0.552088" stroke-miterlimit="10"/>
<path d="M1769.32 686.583C1770.33 582.121 1726.8 484.718 1653 390.101C1646.45 381.705 1639.85 373.349 1632.94 365.258C1610.12 338.607 1583.92 313.33 1551.46 300.843C1457.38 264.553 1357.61 329.482 1275.56 368.494C1204.18 402.432 1132.96 439.622 1058.14 474.009C1032.48 485.807 1006.66 497.334 980.514 508.197C923.806 531.756 857.983 552.109 803.052 527.161C747.428 501.894 723.659 441.435 698.187 388.867C668.484 327.619 629.417 268.543 574.322 224.347C555.128 208.963 533.791 195.548 511.081 184.91C468.612 164.981 421.294 154.683 374.28 159.273C317.817 164.787 266.043 190.673 218.62 219.017C122.53 276.335 37.7321 346.409 -33.5202 428.764C-54.782 453.337 -74.8302 478.989 -93.5747 505.74" stroke="#2D31A6" stroke-width="0.552088" stroke-miterlimit="10"/>
<path d="M1772.5 681.113C1773.47 580.383 1727.88 489.037 1652.05 394.096C1645.47 385.865 1638.91 377.619 1632.02 369.658C1609.23 343.391 1583.27 318.443 1551.28 305.857C1458.51 269.212 1360.37 330.131 1278.4 367.565C1207.81 399.8 1137.17 435.875 1062.41 469.564C1036.93 481.051 1011.33 492.339 985.389 502.982C929.145 526.067 864.131 546.135 809.62 522.536C754.425 498.642 729.952 440.83 703.831 390.595C673.364 332.069 633.862 275.585 578.872 233.321C559.713 218.607 538.486 205.781 515.926 195.607C473.762 176.553 426.893 166.674 380.323 171.019C324.399 176.243 273.015 200.937 225.902 227.777C130.391 282.038 46.1579 347.786 -25.3042 425.971C-46.6309 449.301 -66.804 473.719 -85.7533 499.291" stroke="#2D31A6" stroke-width="0.552088" stroke-miterlimit="10"/>
<path d="M1775.67 675.64C1776.61 578.641 1728.99 493.348 1651.1 398.087C1644.5 390.016 1637.97 381.89 1631.11 374.054C1608.35 348.167 1582.62 323.554 1551.11 310.872C1459.64 273.873 1363.15 330.786 1281.24 366.637C1211.45 397.183 1141.39 432.135 1066.7 465.124C1041.4 476.302 1016 487.35 990.273 497.774C934.494 520.379 870.284 540.162 816.198 517.917C761.433 495.391 736.26 440.231 709.484 392.329C678.258 336.52 638.317 282.638 583.432 242.307C564.308 228.268 543.186 216.026 520.78 206.317C478.921 188.131 432.496 178.672 386.382 182.782C331.002 187.722 280.008 211.221 233.199 236.559C138.267 287.768 54.5986 349.186 -17.0682 423.205C-38.4549 445.291 -58.7578 468.476 -77.9119 492.869" stroke="#2D31A6" stroke-width="0.552088" stroke-miterlimit="10"/>
<path d="M1778.84 670.165C1779.75 576.897 1730.14 497.643 1650.16 402.072C1643.54 394.161 1637.04 386.15 1630.21 378.443C1607.48 352.941 1581.97 328.658 1550.95 315.876C1460.77 278.522 1365.94 331.435 1284.09 365.692C1215.11 394.561 1145.62 428.379 1070.99 460.664C1045.86 471.532 1020.67 482.34 995.158 492.539C939.843 514.67 876.443 534.163 822.776 513.271C768.44 492.114 742.564 439.607 715.139 394.036C683.148 340.949 642.772 289.665 587.992 251.262C568.903 237.897 547.891 226.239 525.635 216.999C484.076 199.683 438.106 190.643 392.436 194.514C337.6 199.169 286.99 221.469 240.491 245.303C146.139 293.456 63.0346 350.549 -8.83698 420.397C-30.2886 441.24 -50.7163 463.191 -70.0702 486.405" stroke="#2D31A6" stroke-width="0.552088" stroke-miterlimit="10"/>
<path d="M1782.01 664.696C1782.88 575.159 1731.3 501.939 1649.21 406.068C1642.57 398.312 1636.1 390.42 1629.29 382.844C1606.6 357.721 1581.32 333.772 1550.77 320.896C1461.89 283.182 1368.74 332.114 1286.93 364.768C1218.78 391.969 1149.85 424.648 1075.27 456.229C1050.32 466.792 1025.33 477.351 1000.04 487.335C945.187 508.986 882.591 528.195 829.349 508.656C775.442 488.873 748.861 439.007 720.792 395.775C688.043 345.409 647.227 296.723 592.557 260.252C573.503 247.556 552.596 236.488 530.495 227.713C489.24 211.266 443.719 202.65 398.494 206.281C344.203 210.646 293.983 231.753 247.783 254.084C154.01 299.185 71.4702 351.947 -0.611213 417.631C-22.1228 437.229 -42.6803 457.947 -62.239 479.983" stroke="#2D31A6" stroke-width="0.552088" stroke-miterlimit="10"/>
<path d="M1785.19 659.222C1786.02 573.415 1732.49 506.214 1648.28 410.059C1641.62 402.457 1635.17 394.69 1628.38 387.238C1605.72 362.5 1580.67 338.886 1550.61 325.91C1463.02 287.842 1371.57 332.793 1289.78 363.834C1222.47 389.381 1154.08 420.907 1079.56 451.778C1054.8 462.032 1030 472.351 1004.92 482.115C950.537 503.292 888.749 522.211 835.927 504.031C782.45 485.616 755.165 438.403 726.446 397.502C692.933 349.859 651.677 303.769 597.117 269.227C578.098 257.205 557.3 246.722 535.349 238.411C494.399 222.838 449.328 214.637 404.547 218.033C350.801 222.114 300.97 242.022 255.075 262.854C161.882 304.898 79.9061 353.335 7.61992 414.848C-13.9565 433.203 -34.639 452.682 -54.4025 473.549" stroke="#2D31A6" stroke-width="0.552088" stroke-miterlimit="10"/>
<path d="M1788.36 653.748C1789.16 571.672 1733.7 510.474 1647.33 414.049C1640.66 406.602 1634.23 398.956 1627.47 391.634C1604.84 367.275 1580.03 343.996 1550.44 330.92C1464.15 292.497 1374.4 333.482 1292.62 362.9C1226.16 386.809 1158.31 417.176 1083.84 447.333C1059.26 457.287 1034.67 467.356 1009.81 476.901C955.886 497.598 894.902 516.233 842.504 499.406C789.457 482.36 761.468 437.798 732.1 399.23C697.822 354.309 656.133 310.817 601.677 278.207C582.693 266.86 562 256.961 540.204 249.114C499.553 234.41 454.932 226.634 410.605 229.785C357.403 233.576 307.957 252.291 262.372 271.62C169.758 310.612 88.3468 354.719 15.8559 412.066C-5.78052 429.178 -26.5928 447.423 -46.556 467.111" stroke="#2D31A6" stroke-width="0.552088" stroke-miterlimit="10"/>
<path d="M1791.54 648.28C1792.3 569.935 1734.94 514.73 1646.39 418.041C1639.71 410.744 1633.3 403.222 1626.56 396.025C1603.96 372.051 1579.38 349.101 1550.27 335.93C1465.28 297.152 1377.24 334.182 1295.46 361.962C1229.86 384.247 1162.55 413.441 1088.12 442.879C1063.72 452.528 1039.33 462.352 1014.68 471.677C961.225 491.9 901.051 510.245 849.072 494.772C796.455 479.094 767.761 437.185 737.744 400.949C702.707 358.75 660.578 317.855 606.227 287.173C587.278 276.495 566.69 267.18 545.049 259.803C504.703 245.968 460.531 238.611 416.649 241.528C363.986 245.034 314.935 262.55 269.654 280.376C177.62 316.312 96.7727 356.088 24.072 409.27C2.37567 425.138 -18.5665 442.149 -38.7345 460.659" stroke="#2D31A6" stroke-width="0.552088" stroke-miterlimit="10"/>
<path d="M1794.71 642.805C1795.44 568.191 1736.2 518.96 1645.44 422.031C1638.75 414.884 1632.36 407.492 1625.65 400.419C1603.09 376.825 1578.73 354.21 1550.1 340.939C1466.41 301.807 1380.1 334.901 1298.31 361.027C1233.58 381.705 1166.79 409.709 1092.41 438.433C1068.2 447.783 1044.01 457.357 1019.57 466.462C966.579 486.206 907.209 504.271 855.66 490.146C803.472 475.842 774.079 436.575 743.408 402.682C707.607 363.2 665.043 324.907 610.802 296.153C591.888 286.149 571.41 277.418 549.919 270.511C509.877 257.545 466.155 250.608 422.717 253.285C370.599 256.506 321.932 272.823 276.961 289.151C185.506 322.035 105.224 357.481 32.318 406.493C10.5568 421.117 -10.5103 436.894 -30.8781 454.226" stroke="#2D31A6" stroke-width="0.552088" stroke-miterlimit="10"/>
<path d="M1797.88 637.336C1798.57 566.454 1737.48 523.176 1644.5 426.027C1637.8 419.03 1631.43 411.748 1624.74 404.82C1602.25 381.565 1578.08 359.33 1549.93 345.959C1467.54 306.467 1382.97 335.641 1301.15 360.104C1237.3 379.193 1171.03 405.999 1096.69 433.993C1072.67 443.043 1048.68 452.363 1024.45 461.249C971.923 480.518 913.362 498.293 862.233 485.522C810.474 472.586 780.377 435.971 749.061 404.411C712.496 367.651 669.498 331.955 615.362 305.134C596.483 295.804 576.11 287.658 554.773 281.215C515.031 269.123 471.759 262.605 428.775 265.043C377.202 267.974 328.924 283.098 284.258 297.922C193.382 327.749 113.664 358.87 40.5539 403.716C18.7327 417.097 -2.46418 431.641 -23.0367 447.798" stroke="#2D31A6" stroke-width="0.552088" stroke-miterlimit="10"/>
<path d="M1801.06 631.862C1801.71 564.71 1738.79 527.366 1643.56 430.017C1636.85 423.165 1630.5 416.018 1623.83 409.215C1601.38 386.34 1577.43 364.439 1549.76 350.968C1468.66 311.122 1385.85 336.394 1304 359.165C1241.04 376.68 1175.26 402.272 1100.98 429.543C1077.14 438.293 1053.35 447.363 1029.34 456.029C977.273 474.818 919.516 492.309 868.811 480.892C817.482 469.324 786.68 435.361 754.715 406.133C717.391 372.095 673.953 338.997 619.922 314.104C601.073 305.443 580.815 297.886 559.623 291.908C520.186 280.685 477.363 274.587 434.824 276.784C383.795 279.431 335.907 293.356 291.545 306.677C201.249 333.453 122.095 360.243 48.7752 400.919C26.8891 413.056 5.56726 426.366 -15.2101 441.345" stroke="#2D31A6" stroke-width="0.552088" stroke-miterlimit="10"/>
<path d="M1804.23 626.388C1804.85 562.967 1740.13 531.536 1642.61 434.008C1635.9 427.3 1629.56 420.282 1622.91 413.61C1600.5 391.114 1576.78 369.548 1549.59 355.983C1469.79 315.781 1388.74 337.168 1306.84 358.235C1244.78 374.198 1179.51 398.561 1105.26 425.097C1081.61 433.548 1058.02 442.368 1034.22 450.814C982.617 469.129 925.669 486.33 875.384 476.266C824.484 466.072 792.979 434.757 760.364 407.861C722.276 376.545 678.398 346.043 624.477 323.083C605.663 315.097 585.51 308.125 564.473 302.611C525.34 292.257 482.967 286.578 440.873 288.541C390.388 290.904 342.884 303.63 298.827 315.452C209.11 339.171 130.521 361.636 56.9961 398.147C35.0501 409.04 13.5985 421.117 -7.37866 434.916" stroke="#2D31A6" stroke-width="0.552088" stroke-miterlimit="10"/>
<path d="M1807.41 620.919C1807.99 561.229 1741.49 535.687 1641.67 437.998C1634.96 431.435 1628.63 424.548 1622.01 418.005C1599.63 395.889 1576.13 374.657 1549.43 360.992C1470.92 320.436 1391.66 337.962 1309.68 357.296C1248.54 371.72 1183.75 394.845 1109.54 420.647C1086.08 428.803 1062.69 437.369 1039.1 445.595C987.966 463.43 931.822 480.347 881.961 471.636C831.491 462.811 799.282 434.142 766.018 409.584C727.17 380.99 682.854 353.086 629.042 332.054C610.263 324.742 590.22 318.354 569.332 313.309C530.5 303.824 488.575 298.57 446.936 300.293C396.995 302.366 349.882 313.898 306.129 324.217C216.992 344.885 138.967 363.02 65.237 395.36C43.226 405.004 21.6496 415.847 0.467651 428.473" stroke="#2D31A6" stroke-width="0.552088" stroke-miterlimit="10"/>
<path d="M1810.58 615.445C1811.12 559.486 1742.87 539.807 1640.72 441.989C1634.02 435.566 1627.69 428.813 1621.09 422.4C1598.74 400.669 1575.45 379.822 1549.25 366.007C1471.96 325.251 1394.56 338.786 1312.52 356.367C1252.29 369.278 1187.99 391.144 1113.82 416.202C1090.55 424.063 1067.35 432.374 1043.98 440.381C993.31 457.742 937.975 474.369 888.534 467.012C838.489 459.555 805.58 433.538 771.672 411.312C732.06 385.441 687.309 360.133 633.602 341.034C614.858 334.391 594.919 328.593 574.187 324.013C535.659 315.402 494.184 310.562 452.989 312.046C403.588 313.834 356.864 324.167 313.421 332.983C224.863 350.594 147.402 364.403 73.463 392.578C51.3921 400.979 29.6857 410.588 8.29907 422.041" stroke="#2D31A6" stroke-width="0.552088" stroke-miterlimit="10"/>
<path d="M1813.76 609.976C1814.26 557.748 1744.28 543.908 1639.78 445.985C1633.08 439.702 1626.75 433.089 1620.19 426.801C1597.87 405.449 1574.81 384.937 1549.09 371.027C1473.1 329.912 1397.49 339.636 1315.38 355.444C1256.07 366.861 1192.25 387.454 1118.12 411.767C1095.03 419.339 1072.03 427.39 1048.87 435.177C998.664 452.058 944.134 468.4 895.117 462.402C845.501 456.319 811.893 432.949 777.33 413.056C736.954 389.906 691.769 367.196 638.167 350.025C619.458 344.056 599.624 338.842 579.047 334.726C540.823 326.985 499.798 322.57 459.048 323.813C410.191 325.312 363.856 334.457 320.718 341.769C232.739 356.328 155.838 365.807 81.699 389.811C59.5632 396.968 37.737 405.344 16.1455 415.618" stroke="#2D31A6" stroke-width="0.552088" stroke-miterlimit="10"/>
<path d="M1816.93 604.502C1817.4 556 1745.71 547.979 1638.84 449.976C1632.13 443.833 1625.82 437.355 1619.27 431.196C1596.98 410.229 1574.15 390.046 1548.91 376.036C1474.22 334.567 1400.41 340.51 1318.21 354.505C1259.83 364.449 1196.49 383.753 1122.39 407.312C1099.5 414.594 1076.69 422.381 1053.74 429.953C1004 446.36 950.282 462.417 901.685 457.767C852.499 453.053 818.186 432.335 782.974 414.774C741.839 394.342 696.214 374.228 642.717 358.99C624.043 353.696 604.319 349.066 583.891 345.415C545.968 338.542 505.392 334.547 465.091 335.551C416.779 336.764 370.834 344.711 328.001 350.519C240.601 362.022 164.264 367.171 89.9203 387.014C67.7245 392.928 45.7684 400.07 23.9722 409.165" stroke="#2D31A6" stroke-width="0.552088" stroke-miterlimit="10"/>
<path d="M1820.1 599.028C1820.54 554.257 1747.17 552.014 1637.9 453.961C1631.2 447.953 1624.88 441.619 1618.36 435.586C1596.11 414.998 1573.51 395.15 1548.75 381.046C1475.35 339.216 1403.35 341.409 1321.06 353.57C1263.61 362.061 1200.75 380.067 1126.68 402.867C1103.98 409.859 1081.37 417.386 1058.63 424.733C1009.36 440.66 956.44 456.433 908.268 453.137C859.511 449.791 824.494 431.72 788.633 416.497C746.734 398.786 700.674 381.27 647.287 367.965C628.648 363.34 609.029 359.299 588.756 356.118C551.137 350.114 511.011 346.538 471.159 347.307C423.392 348.236 377.831 354.984 335.308 359.289C248.487 367.74 172.715 368.559 98.1613 384.232C75.9056 388.902 53.8196 394.811 31.8186 402.727" stroke="#2D31A6" stroke-width="0.552088" stroke-miterlimit="10"/>
<path d="M1823.27 593.559C1823.67 552.519 1748.66 556.025 1636.95 457.957C1630.26 452.083 1623.94 445.89 1617.45 439.986C1595.23 419.783 1572.86 400.265 1548.58 386.06C1476.48 343.871 1406.28 342.348 1323.9 352.637C1267.39 359.694 1205 376.381 1130.96 398.417C1108.45 405.119 1086.04 412.387 1063.51 419.514C1014.7 434.967 962.588 450.45 914.845 448.507C866.518 446.534 830.797 431.111 794.287 418.22C751.623 403.232 705.124 388.313 651.847 376.935C633.243 372.984 613.734 369.528 593.611 366.811C556.296 361.682 516.62 358.525 477.213 359.05C429.989 359.689 384.819 365.243 342.6 368.05C256.359 373.444 181.151 369.938 106.392 381.44C84.0715 384.867 61.8607 389.541 39.6599 396.279" stroke="#2D31A6" stroke-width="0.552088" stroke-miterlimit="10"/>
<path d="M1826.45 588.084C1826.81 550.775 1750.16 560 1636 461.947C1629.32 456.203 1623 450.155 1616.54 444.381C1594.34 424.563 1572.24 405.329 1548.41 391.074C1477.69 348.386 1409.22 343.321 1326.74 351.707C1271.16 357.356 1209.25 372.704 1135.25 393.976C1112.92 400.394 1090.7 407.396 1068.39 414.304C1020.05 429.278 968.742 444.476 921.418 443.887C873.521 443.282 837.095 430.511 799.941 419.953C756.518 407.686 709.579 395.365 656.407 385.92C637.838 382.644 618.434 379.772 598.466 377.519C561.451 373.259 522.229 370.522 483.266 370.811C436.582 371.166 391.801 375.521 349.887 376.825C264.225 379.167 189.582 371.331 114.618 378.668C92.2377 380.85 69.897 384.287 47.4915 389.856" stroke="#2D31A6" stroke-width="0.552088" stroke-miterlimit="10"/>
<path d="M1829.62 582.616C1829.95 549.037 1751.69 563.946 1635.06 465.943C1628.39 460.334 1622.07 454.431 1615.63 448.782C1593.47 429.348 1571.59 410.444 1548.24 396.089C1478.82 353.041 1412.16 344.331 1329.59 350.779C1274.94 355.044 1213.51 369.039 1139.54 389.531C1117.4 395.665 1095.38 402.402 1073.28 409.09C1025.39 423.589 974.895 438.498 927.996 439.262C880.528 440.026 843.398 429.907 805.595 421.681C761.408 412.137 714.034 402.412 660.967 394.895C642.428 392.288 623.139 390.001 603.32 388.218C566.61 384.826 527.833 382.509 489.325 382.564C443.185 382.634 398.793 385.79 357.184 385.591C272.101 384.876 198.022 372.715 122.849 375.881C100.404 376.82 77.9381 379.023 55.3328 383.413" stroke="#2D31A6" stroke-width="0.552088" stroke-miterlimit="10"/>
<path d="M1832.79 577.142C1833.08 547.294 1753.24 567.847 1634.12 469.929C1627.45 464.45 1621.13 458.691 1614.72 453.172C1592.59 434.123 1570.94 415.548 1548.07 401.099C1479.95 357.696 1415.09 345.375 1332.44 349.84C1278.71 352.742 1217.77 365.363 1143.82 385.081C1121.87 390.93 1100.04 397.398 1078.16 403.871C1030.74 417.89 981.048 432.515 934.569 434.632C887.53 436.77 849.702 429.293 811.243 423.404C766.292 416.582 718.485 409.455 665.527 403.871C647.023 401.938 627.839 400.235 608.175 398.921C571.765 396.399 533.441 394.506 495.378 394.316C449.783 394.096 405.781 396.059 364.476 394.356C279.973 390.59 206.458 374.098 131.08 373.099C108.575 372.795 85.9794 373.764 63.1693 376.975" stroke="#2D31A6" stroke-width="0.552088" stroke-miterlimit="10"/>
<path d="M1835.97 571.668C1836.23 545.551 1754.82 571.713 1633.18 473.92C1626.52 468.565 1620.18 462.971 1613.8 457.567C1591.67 438.943 1570.29 420.658 1547.91 406.114C1481.07 362.356 1418.02 346.464 1335.28 348.911C1282.48 350.469 1222.03 361.712 1148.1 380.636C1126.35 386.205 1104.71 392.403 1083.04 398.657C1036.09 412.202 987.202 426.536 941.147 430.007C894.538 433.514 856.005 428.689 816.897 425.133C771.187 421.027 722.94 416.502 670.088 412.846C651.618 411.588 632.538 410.469 613.03 409.62C576.924 407.971 539.05 406.493 501.431 406.069C456.381 405.564 412.763 406.328 371.768 403.127C287.844 396.304 214.894 375.487 139.311 370.318C116.741 368.769 94.0208 368.504 71.0059 370.537" stroke="#2D31A6" stroke-width="0.552088" stroke-miterlimit="10"/>
<path d="M1839.14 566.198C1839.36 543.813 1756.42 575.543 1632.23 477.915C1625.59 472.69 1619.25 467.246 1612.89 461.962C1590.79 443.722 1569.65 425.772 1547.74 411.123C1482.21 367.011 1420.94 347.592 1338.12 347.972C1286.25 348.211 1226.29 358.051 1152.39 376.186C1130.83 381.475 1109.38 387.404 1087.93 393.432C1041.44 406.498 993.36 420.552 947.725 425.372C901.545 430.247 862.308 428.074 822.551 426.85C776.077 425.467 727.395 423.539 674.648 421.811C656.213 421.222 637.243 420.692 617.884 420.308C582.083 419.528 544.654 418.475 507.485 417.805C462.978 417.016 419.751 416.582 379.06 411.877C295.716 402.003 223.33 376.855 147.537 367.52C124.907 364.728 102.057 363.23 78.8423 364.089" stroke="#2D31A6" stroke-width="0.552088" stroke-miterlimit="10"/>
<path d="M1842.32 560.724C1842.5 542.069 1758.05 579.329 1631.29 481.905C1624.66 476.806 1618.31 471.511 1611.99 466.357C1589.91 448.496 1569 430.881 1547.57 416.137C1483.34 371.67 1423.85 348.765 1340.97 347.042C1290 345.983 1230.54 354.409 1156.67 371.74C1135.3 376.755 1114.05 382.409 1092.81 388.217C1046.78 400.808 999.508 414.573 954.297 420.752C908.547 426.995 868.606 427.474 828.205 428.583C780.972 429.922 731.85 430.591 679.207 430.796C660.808 430.881 641.943 430.936 622.739 431.016C587.238 431.105 550.263 430.471 513.543 429.567C469.581 428.488 426.738 426.86 386.357 420.652C303.592 407.721 231.77 378.243 155.773 364.743C133.083 360.707 110.103 357.975 86.6836 357.656" stroke="#2D31A6" stroke-width="0.552088" stroke-miterlimit="10"/>
<path d="M1845.49 555.256C1845.64 540.332 1759.69 583.075 1630.35 485.901C1623.72 480.927 1617.37 475.782 1611.07 470.758C1589.04 453.282 1568.35 435.996 1547.4 421.152C1484.46 376.326 1426.74 349.984 1343.81 346.114C1293.75 343.776 1234.81 350.774 1160.96 367.301C1139.78 372.04 1118.72 377.42 1097.69 383.008C1052.13 395.12 1005.67 408.6 960.875 416.132C915.555 423.749 874.909 426.871 833.859 430.317C785.861 434.377 736.3 437.644 683.767 439.776C665.402 440.536 646.648 441.175 627.589 441.719C592.392 442.678 555.867 442.464 519.592 441.32C476.169 439.956 433.72 437.129 393.644 429.423C311.459 413.44 240.201 379.632 163.999 361.961C141.244 356.682 118.139 352.716 94.5151 351.218" stroke="#2D31A6" stroke-width="0.552088" stroke-miterlimit="10"/>
<path d="M1848.67 549.782C1848.78 538.589 1761.36 586.771 1629.41 489.887C1622.79 485.032 1616.44 480.048 1610.16 475.148C1588.16 458.052 1567.7 441.1 1547.24 426.161C1485.59 380.981 1429.62 351.243 1346.66 345.175C1297.48 341.579 1239.07 347.138 1165.24 362.846C1144.26 367.311 1123.4 372.41 1102.58 377.784C1057.48 389.421 1011.82 402.612 967.458 411.497C922.567 420.483 881.217 426.256 839.518 432.035C790.756 438.818 740.761 444.681 688.338 448.747C670.008 450.175 651.358 451.404 632.454 452.418C597.562 454.251 561.481 454.456 525.655 453.072C482.777 451.419 440.718 447.398 400.941 438.188C319.335 419.154 248.642 381.016 172.231 359.179C149.415 352.657 126.181 347.452 102.357 344.78" stroke="#2D31A6" stroke-width="0.552088" stroke-miterlimit="10"/>
<path d="M1851.84 544.307C1851.91 536.845 1763.05 590.422 1628.46 493.877C1621.86 489.142 1615.5 484.313 1609.25 479.543C1587.28 462.831 1567.05 446.214 1547.07 431.171C1486.72 385.635 1432.47 352.546 1349.5 344.24C1301.2 339.406 1243.33 343.516 1169.53 358.4C1148.74 362.595 1128.07 367.415 1107.46 372.569C1062.83 383.727 1017.98 396.633 974.036 406.872C929.574 417.226 887.52 425.652 845.172 433.763C795.651 443.267 745.215 451.728 692.898 457.722C674.602 459.824 656.063 461.637 637.308 463.116C602.716 465.818 567.09 466.442 531.713 464.824C489.379 462.886 447.705 457.667 408.238 446.953C327.211 424.862 257.083 382.399 180.466 356.392C157.586 348.626 134.227 342.188 110.198 338.342" stroke="#2D31A6" stroke-width="0.552088" stroke-miterlimit="10"/>
<path d="M1855.01 538.838C1855.05 535.107 1764.76 594.028 1627.51 497.873C1620.93 493.258 1614.56 488.588 1608.33 483.943C1586.4 467.611 1566.39 451.328 1546.89 436.19C1487.85 390.3 1435.29 353.905 1352.34 343.311C1304.89 337.253 1247.6 339.995 1173.8 353.955C1153.21 357.905 1132.73 362.42 1112.34 367.355C1068.17 378.038 1024.12 390.655 980.604 402.247C936.572 413.974 893.818 425.047 850.815 435.491C800.53 447.717 749.661 458.775 697.448 466.702C679.188 469.479 660.753 471.876 642.153 473.819C607.865 477.39 572.689 478.434 537.757 476.576C495.967 474.353 454.682 467.94 415.52 455.724C335.073 430.581 265.509 383.787 188.688 353.615C165.748 344.605 142.258 336.933 118.03 331.909" stroke="#2D31A6" stroke-width="0.552088" stroke-miterlimit="10"/>
<path d="M1858.19 533.364C1858.19 533.364 1766.5 597.584 1626.57 501.863C1486.65 406.143 1438.48 302.865 1178.09 349.51C998.16 381.744 828.415 460.808 647.018 484.517C572.384 494.272 494.164 489.677 422.822 464.489C342.954 436.29 273.955 385.171 196.924 350.828C173.919 340.574 150.309 331.669 125.871 325.466" stroke="#2D31A6" stroke-width="0.552088" stroke-miterlimit="10"/>
</svg>
