<svg width="409" height="272" viewBox="0 0 409 272" fill="none" xmlns="http://www.w3.org/2000/svg">
<rect width="409" height="272" fill="white"/>
<path d="M22.6719 23.4929C22.6188 23.0223 22.4001 22.6577 22.0156 22.3991C21.6312 22.1373 21.1473 22.0064 20.5639 22.0064C20.1463 22.0064 19.785 22.0727 19.4801 22.2053C19.1752 22.3345 18.9382 22.5135 18.7692 22.7422C18.6035 22.9676 18.5206 23.2244 18.5206 23.5128C18.5206 23.7547 18.5769 23.9635 18.6896 24.1392C18.8056 24.3149 18.9564 24.4624 19.142 24.5817C19.331 24.6977 19.5331 24.7955 19.7486 24.875C19.964 24.9512 20.1712 25.0142 20.37 25.0639L21.3643 25.3224C21.6892 25.402 22.0223 25.5097 22.3636 25.6456C22.705 25.7815 23.0215 25.9605 23.3132 26.1825C23.6049 26.4046 23.8402 26.6797 24.0192 27.0078C24.2015 27.3359 24.2926 27.7287 24.2926 28.1861C24.2926 28.7628 24.1435 29.2749 23.8452 29.7223C23.5502 30.1697 23.121 30.5227 22.5575 30.7812C21.9974 31.0398 21.3196 31.169 20.5241 31.169C19.7618 31.169 19.1023 31.0481 18.5455 30.8061C17.9886 30.5642 17.5528 30.2211 17.2379 29.777C16.9231 29.3295 16.7491 28.7992 16.7159 28.1861H18.2571C18.2869 28.554 18.4063 28.8606 18.6151 29.1058C18.8272 29.3478 19.0973 29.5284 19.4254 29.6477C19.7569 29.7637 20.1198 29.8217 20.5142 29.8217C20.9484 29.8217 21.3345 29.7538 21.6726 29.6179C22.014 29.4787 22.2824 29.2865 22.478 29.0412C22.6735 28.7926 22.7713 28.5026 22.7713 28.1712C22.7713 27.8696 22.6851 27.6226 22.5128 27.4304C22.3438 27.2382 22.1134 27.0791 21.8217 26.9531C21.5334 26.8272 21.2069 26.7161 20.8423 26.62L19.6392 26.2919C18.8239 26.0698 18.1776 25.7434 17.7003 25.3125C17.2263 24.8816 16.9893 24.3116 16.9893 23.6023C16.9893 23.0156 17.1484 22.5036 17.4666 22.0661C17.7848 21.6286 18.2157 21.2888 18.7592 21.0469C19.3028 20.8016 19.916 20.679 20.5987 20.679C21.2881 20.679 21.8963 20.8 22.4233 21.0419C22.9536 21.2839 23.3712 21.617 23.6761 22.0412C23.9811 22.4621 24.1402 22.946 24.1534 23.4929H22.6719ZM30.8464 27.8331V23.3636H32.3379V31H30.8762V29.6776H30.7967C30.621 30.0852 30.3393 30.425 29.9515 30.6967C29.5671 30.9652 29.0881 31.0994 28.5147 31.0994C28.0242 31.0994 27.59 30.9917 27.2122 30.7763C26.8377 30.5575 26.5427 30.2344 26.3272 29.8068C26.1151 29.3793 26.0091 28.8506 26.0091 28.2209V23.3636H27.4956V28.0419C27.4956 28.5623 27.6397 28.9766 27.9281 29.2848C28.2164 29.593 28.591 29.7472 29.0517 29.7472C29.3301 29.7472 29.6068 29.6776 29.8819 29.5384C30.1603 29.3991 30.3907 29.1887 30.573 28.907C30.7586 28.6252 30.8497 28.2673 30.8464 27.8331ZM34.4545 31V20.8182H35.9411V24.6016H36.0305C36.1167 24.4425 36.241 24.2585 36.4034 24.0497C36.5658 23.8409 36.7912 23.6586 37.0795 23.5028C37.3679 23.3438 37.7491 23.2642 38.223 23.2642C38.8395 23.2642 39.3897 23.42 39.8736 23.7315C40.3575 24.0431 40.737 24.4922 41.0121 25.0788C41.2905 25.6655 41.4297 26.3714 41.4297 27.1967C41.4297 28.022 41.2921 28.7296 41.017 29.3196C40.742 29.9062 40.3641 30.3587 39.8835 30.6768C39.4029 30.9917 38.8544 31.1491 38.2379 31.1491C37.7739 31.1491 37.3944 31.0713 37.0994 30.9155C36.8078 30.7597 36.5791 30.5774 36.4134 30.3686C36.2476 30.1598 36.12 29.9742 36.0305 29.8118H35.9062V31H34.4545ZM35.9112 27.1818C35.9112 27.7187 35.9891 28.1894 36.1449 28.5938C36.3007 28.9981 36.526 29.3146 36.821 29.5433C37.116 29.7687 37.4773 29.8814 37.9048 29.8814C38.349 29.8814 38.7202 29.7637 39.0185 29.5284C39.3168 29.2898 39.5421 28.9666 39.6946 28.5589C39.8504 28.1513 39.9283 27.6922 39.9283 27.1818C39.9283 26.678 39.852 26.2256 39.6996 25.8246C39.5504 25.4235 39.325 25.107 39.0234 24.875C38.7251 24.643 38.3523 24.527 37.9048 24.527C37.474 24.527 37.1094 24.638 36.8111 24.8601C36.5161 25.0821 36.2924 25.392 36.1399 25.7898C35.9875 26.1875 35.9112 26.6515 35.9112 27.1818ZM50.3686 23.3636V24.5568H46.1974V23.3636H50.3686ZM47.3161 21.5341H48.8026V28.7578C48.8026 29.0462 48.8456 29.2633 48.9318 29.4091C49.018 29.5516 49.129 29.6494 49.2649 29.7024C49.4041 29.7521 49.5549 29.777 49.7173 29.777C49.8366 29.777 49.9411 29.7687 50.0305 29.7521C50.12 29.7356 50.1896 29.7223 50.2393 29.7124L50.5078 30.9403C50.4216 30.9735 50.299 31.0066 50.1399 31.0398C49.9808 31.0762 49.782 31.0961 49.5433 31.0994C49.1522 31.1061 48.7876 31.0365 48.4496 30.8906C48.1115 30.7448 47.8381 30.5194 47.6293 30.2145C47.4205 29.9096 47.3161 29.5268 47.3161 29.0661V21.5341ZM55.1475 31.1541C54.4316 31.1541 53.8069 30.9901 53.2733 30.6619C52.7396 30.3338 52.3253 29.8748 52.0304 29.2848C51.7354 28.6948 51.5879 28.0054 51.5879 27.2166C51.5879 26.4245 51.7354 25.7318 52.0304 25.1385C52.3253 24.5452 52.7396 24.0845 53.2733 23.7564C53.8069 23.4283 54.4316 23.2642 55.1475 23.2642C55.8635 23.2642 56.4882 23.4283 57.0218 23.7564C57.5555 24.0845 57.9698 24.5452 58.2647 25.1385C58.5597 25.7318 58.7072 26.4245 58.7072 27.2166C58.7072 28.0054 58.5597 28.6948 58.2647 29.2848C57.9698 29.8748 57.5555 30.3338 57.0218 30.6619C56.4882 30.9901 55.8635 31.1541 55.1475 31.1541ZM55.1525 29.9062C55.6165 29.9062 56.001 29.7836 56.3059 29.5384C56.6109 29.2931 56.8362 28.9666 56.9821 28.5589C57.1312 28.1513 57.2058 27.7022 57.2058 27.2116C57.2058 26.7244 57.1312 26.277 56.9821 25.8693C56.8362 25.4583 56.6109 25.1286 56.3059 24.88C56.001 24.6314 55.6165 24.5071 55.1525 24.5071C54.6852 24.5071 54.2974 24.6314 53.9892 24.88C53.6842 25.1286 53.4572 25.4583 53.3081 25.8693C53.1622 26.277 53.0893 26.7244 53.0893 27.2116C53.0893 27.7022 53.1622 28.1513 53.3081 28.5589C53.4572 28.9666 53.6842 29.2931 53.9892 29.5384C54.2974 29.7836 54.6852 29.9062 55.1525 29.9062ZM63.9311 23.3636V24.5568H59.7599V23.3636H63.9311ZM60.8786 21.5341H62.3651V28.7578C62.3651 29.0462 62.4081 29.2633 62.4943 29.4091C62.5805 29.5516 62.6915 29.6494 62.8274 29.7024C62.9666 29.7521 63.1174 29.777 63.2798 29.777C63.3991 29.777 63.5036 29.7687 63.593 29.7521C63.6825 29.7356 63.7521 29.7223 63.8018 29.7124L64.0703 30.9403C63.9841 30.9735 63.8615 31.0066 63.7024 31.0398C63.5433 31.0762 63.3445 31.0961 63.1058 31.0994C62.7147 31.1061 62.3501 31.0365 62.0121 30.8906C61.674 30.7448 61.4006 30.5194 61.1918 30.2145C60.983 29.9096 60.8786 29.5268 60.8786 29.0661V21.5341ZM67.7978 31.169C67.3139 31.169 66.8764 31.0795 66.4853 30.9006C66.0942 30.7183 65.7843 30.4548 65.5556 30.1101C65.3302 29.7654 65.2175 29.3428 65.2175 28.8423C65.2175 28.4115 65.3004 28.0568 65.4661 27.7784C65.6318 27.5 65.8555 27.2796 66.1373 27.1172C66.419 26.9548 66.7338 26.8321 67.0819 26.7493C67.4299 26.6664 67.7845 26.6035 68.1458 26.5604C68.6032 26.5073 68.9744 26.4643 69.2594 26.4311C69.5444 26.3946 69.7516 26.3366 69.8809 26.2571C70.0101 26.1776 70.0748 26.0483 70.0748 25.8693V25.8345C70.0748 25.4003 69.9521 25.0639 69.7069 24.8253C69.4649 24.5866 69.1036 24.4673 68.623 24.4673C68.1226 24.4673 67.7282 24.5784 67.4398 24.8004C67.1548 25.0192 66.9576 25.2628 66.8482 25.5312L65.4512 25.2131C65.6169 24.7491 65.8588 24.3745 66.177 24.0895C66.4985 23.8011 66.8681 23.5923 67.2857 23.4631C67.7033 23.3305 68.1425 23.2642 68.6032 23.2642C68.9081 23.2642 69.2312 23.3007 69.5726 23.3736C69.9173 23.4432 70.2388 23.5724 70.5371 23.7614C70.8387 23.9503 71.0856 24.2204 71.2779 24.5717C71.4701 24.9197 71.5662 25.3722 71.5662 25.929V31H70.1145V29.956H70.0549C69.9587 30.1482 69.8146 30.3371 69.6223 30.5227C69.4301 30.7083 69.1832 30.8625 68.8816 30.9851C68.58 31.1077 68.2187 31.169 67.7978 31.169ZM68.1209 29.9759C68.5319 29.9759 68.8832 29.8946 69.1749 29.7322C69.4699 29.5698 69.6936 29.3577 69.8461 29.0959C70.0018 28.8307 70.0797 28.5473 70.0797 28.2457V27.2614C70.0267 27.3144 69.9239 27.3641 69.7715 27.4105C69.6223 27.4536 69.4516 27.4917 69.2594 27.5249C69.0672 27.5547 68.8799 27.5829 68.6976 27.6094C68.5153 27.6326 68.3629 27.6525 68.2402 27.669C67.9519 27.7055 67.6884 27.7668 67.4498 27.853C67.2144 27.9392 67.0255 28.0634 66.883 28.2259C66.7438 28.3849 66.6742 28.5971 66.6742 28.8622C66.6742 29.2301 66.8101 29.5085 67.0819 29.6974C67.3536 29.883 67.7 29.9759 68.1209 29.9759ZM75.0327 20.8182V31H73.5462V20.8182H75.0327Z" fill="#667085"/>
<path d="M322.43 24.5369V25.5312H312.288V24.5369H322.43ZM322.43 26.6847V27.679H312.288V26.6847H322.43ZM321.471 20.8182V31H320.054L314.879 23.5327H314.789V31H313.248V20.8182H314.675L319.85 28.2955H319.945V20.8182H321.471Z" fill="#344054"/>
<path d="M329.842 20.8182V31H328.301V22.3594H328.241L325.805 23.9503V22.4787L328.346 20.8182H329.842ZM332.597 31V29.8864L336.042 26.3168C336.41 25.929 336.713 25.5893 336.952 25.2976C337.194 25.0026 337.374 24.7225 337.494 24.4574C337.613 24.1922 337.673 23.9105 337.673 23.6122C337.673 23.2741 337.593 22.9825 337.434 22.7372C337.275 22.4886 337.058 22.2981 336.783 22.1655C336.508 22.0296 336.198 21.9616 335.853 21.9616C335.488 21.9616 335.17 22.0362 334.898 22.1854C334.627 22.3345 334.418 22.545 334.272 22.8168C334.126 23.0885 334.053 23.4067 334.053 23.7713H332.587C332.587 23.1515 332.729 22.6096 333.014 22.1456C333.299 21.6816 333.69 21.322 334.188 21.0668C334.685 20.8082 335.25 20.679 335.883 20.679C336.522 20.679 337.086 20.8066 337.573 21.0618C338.064 21.3137 338.446 21.6584 338.722 22.0959C338.997 22.5301 339.134 23.0206 339.134 23.5675C339.134 23.9453 339.063 24.3149 338.92 24.6761C338.781 25.0374 338.538 25.4401 338.19 25.8842C337.842 26.325 337.358 26.8603 336.738 27.4901L334.714 29.608V29.6825H339.298V31H332.597ZM343.136 29.608L343.062 30.1499C343.012 30.5476 342.928 30.9619 342.808 31.3928C342.692 31.8269 342.571 32.2296 342.445 32.6009C342.323 32.9721 342.222 33.267 342.142 33.4858H341.088C341.131 33.2803 341.191 33.0019 341.267 32.6506C341.343 32.3026 341.418 31.9131 341.491 31.4822C341.564 31.0514 341.618 30.6122 341.655 30.1648L341.705 29.608H343.136ZM348.391 31.169C347.606 31.1657 346.935 30.9586 346.378 30.5476C345.821 30.1366 345.395 29.5384 345.1 28.7528C344.805 27.9673 344.658 27.0211 344.658 25.9141C344.658 24.8104 344.805 23.8674 345.1 23.0852C345.398 22.303 345.826 21.7064 346.383 21.2955C346.943 20.8845 347.612 20.679 348.391 20.679C349.17 20.679 349.838 20.8861 350.395 21.3004C350.952 21.7114 351.378 22.308 351.673 23.0902C351.971 23.8691 352.12 24.8104 352.12 25.9141C352.12 27.0244 351.973 27.9723 351.678 28.7578C351.383 29.54 350.957 30.1383 350.4 30.5526C349.843 30.9635 349.174 31.169 348.391 31.169ZM348.391 29.8416C349.081 29.8416 349.619 29.5052 350.007 28.8324C350.398 28.1596 350.594 27.1868 350.594 25.9141C350.594 25.0689 350.504 24.3546 350.325 23.7713C350.15 23.1847 349.896 22.7405 349.565 22.4389C349.237 22.134 348.845 21.9815 348.391 21.9815C347.705 21.9815 347.167 22.3196 346.776 22.9957C346.384 23.6719 346.187 24.6446 346.184 25.9141C346.184 26.7625 346.272 27.4801 346.447 28.0668C346.626 28.6501 346.88 29.0926 347.208 29.3942C347.536 29.6925 347.931 29.8416 348.391 29.8416ZM357.428 31.169C356.643 31.1657 355.972 30.9586 355.415 30.5476C354.858 30.1366 354.432 29.5384 354.137 28.7528C353.842 27.9673 353.695 27.0211 353.695 25.9141C353.695 24.8104 353.842 23.8674 354.137 23.0852C354.436 22.303 354.863 21.7064 355.42 21.2955C355.98 20.8845 356.65 20.679 357.428 20.679C358.207 20.679 358.875 20.8861 359.432 21.3004C359.989 21.7114 360.415 22.308 360.71 23.0902C361.008 23.8691 361.157 24.8104 361.157 25.9141C361.157 27.0244 361.01 27.9723 360.715 28.7578C360.42 29.54 359.994 30.1383 359.437 30.5526C358.88 30.9635 358.211 31.169 357.428 31.169ZM357.428 29.8416C358.118 29.8416 358.656 29.5052 359.044 28.8324C359.435 28.1596 359.631 27.1868 359.631 25.9141C359.631 25.0689 359.541 24.3546 359.362 23.7713C359.187 23.1847 358.933 22.7405 358.602 22.4389C358.274 22.134 357.883 21.9815 357.428 21.9815C356.742 21.9815 356.204 22.3196 355.813 22.9957C355.422 23.6719 355.224 24.6446 355.221 25.9141C355.221 26.7625 355.309 27.4801 355.485 28.0668C355.664 28.6501 355.917 29.0926 356.245 29.3942C356.573 29.6925 356.968 29.8416 357.428 29.8416ZM366.466 31.169C365.68 31.1657 365.009 30.9586 364.452 30.5476C363.895 30.1366 363.469 29.5384 363.174 28.7528C362.879 27.9673 362.732 27.0211 362.732 25.9141C362.732 24.8104 362.879 23.8674 363.174 23.0852C363.473 22.303 363.9 21.7064 364.457 21.2955C365.017 20.8845 365.687 20.679 366.466 20.679C367.244 20.679 367.912 20.8861 368.469 21.3004C369.026 21.7114 369.452 22.308 369.747 23.0902C370.045 23.8691 370.194 24.8104 370.194 25.9141C370.194 27.0244 370.047 27.9723 369.752 28.7578C369.457 29.54 369.031 30.1383 368.474 30.5526C367.917 30.9635 367.248 31.169 366.466 31.169ZM366.466 29.8416C367.155 29.8416 367.694 29.5052 368.081 28.8324C368.472 28.1596 368.668 27.1868 368.668 25.9141C368.668 25.0689 368.578 24.3546 368.4 23.7713C368.224 23.1847 367.97 22.7405 367.639 22.4389C367.311 22.134 366.92 21.9815 366.466 21.9815C365.779 21.9815 365.241 22.3196 364.85 22.9957C364.459 23.6719 364.261 24.6446 364.258 25.9141C364.258 26.7625 364.346 27.4801 364.522 28.0668C364.701 28.6501 364.954 29.0926 365.282 29.3942C365.61 29.6925 366.005 29.8416 366.466 29.8416ZM372.588 31.0945C372.316 31.0945 372.083 30.9983 371.887 30.8061C371.692 30.6106 371.594 30.3752 371.594 30.1001C371.594 29.8284 371.692 29.5964 371.887 29.4041C372.083 29.2086 372.316 29.1108 372.588 29.1108C372.86 29.1108 373.094 29.2086 373.289 29.4041C373.485 29.5964 373.582 29.8284 373.582 30.1001C373.582 30.2824 373.536 30.4498 373.443 30.6023C373.354 30.7514 373.234 30.8707 373.085 30.9602C372.936 31.0497 372.77 31.0945 372.588 31.0945ZM378.729 31.169C377.944 31.1657 377.273 30.9586 376.716 30.5476C376.159 30.1366 375.733 29.5384 375.438 28.7528C375.143 27.9673 374.996 27.0211 374.996 25.9141C374.996 24.8104 375.143 23.8674 375.438 23.0852C375.736 22.303 376.164 21.7064 376.721 21.2955C377.281 20.8845 377.95 20.679 378.729 20.679C379.508 20.679 380.176 20.8861 380.733 21.3004C381.29 21.7114 381.715 22.308 382.01 23.0902C382.309 23.8691 382.458 24.8104 382.458 25.9141C382.458 27.0244 382.31 27.9723 382.015 28.7578C381.72 29.54 381.295 30.1383 380.738 30.5526C380.181 30.9635 379.511 31.169 378.729 31.169ZM378.729 29.8416C379.419 29.8416 379.957 29.5052 380.345 28.8324C380.736 28.1596 380.932 27.1868 380.932 25.9141C380.932 25.0689 380.842 24.3546 380.663 23.7713C380.488 23.1847 380.234 22.7405 379.903 22.4389C379.574 22.134 379.183 21.9815 378.729 21.9815C378.043 21.9815 377.505 22.3196 377.113 22.9957C376.722 23.6719 376.525 24.6446 376.522 25.9141C376.522 26.7625 376.61 27.4801 376.785 28.0668C376.964 28.6501 377.218 29.0926 377.546 29.3942C377.874 29.6925 378.269 29.8416 378.729 29.8416ZM387.766 31.169C386.981 31.1657 386.31 30.9586 385.753 30.5476C385.196 30.1366 384.77 29.5384 384.475 28.7528C384.18 27.9673 384.033 27.0211 384.033 25.9141C384.033 24.8104 384.18 23.8674 384.475 23.0852C384.773 22.303 385.201 21.7064 385.758 21.2955C386.318 20.8845 386.987 20.679 387.766 20.679C388.545 20.679 389.213 20.8861 389.77 21.3004C390.327 21.7114 390.753 22.308 391.048 23.0902C391.346 23.8691 391.495 24.8104 391.495 25.9141C391.495 27.0244 391.348 27.9723 391.053 28.7578C390.758 29.54 390.332 30.1383 389.775 30.5526C389.218 30.9635 388.549 31.169 387.766 31.169ZM387.766 29.8416C388.456 29.8416 388.994 29.5052 389.382 28.8324C389.773 28.1596 389.969 27.1868 389.969 25.9141C389.969 25.0689 389.879 24.3546 389.7 23.7713C389.525 23.1847 389.271 22.7405 388.94 22.4389C388.612 22.134 388.22 21.9815 387.766 21.9815C387.08 21.9815 386.542 22.3196 386.151 22.9957C385.759 23.6719 385.562 24.6446 385.559 25.9141C385.559 26.7625 385.647 27.4801 385.822 28.0668C386.001 28.6501 386.255 29.0926 386.583 29.3942C386.911 29.6925 387.306 29.8416 387.766 29.8416Z" fill="#344054"/>
<mask id="path-4-inside-1_4939_15768" fill="white">
<path d="M16 44H393V96H16V44Z"/>
</mask>
<path d="M16 45H393V43H16V45ZM393 95H16V97H393V95Z" fill="#EAECF0" mask="url(#path-4-inside-1_4939_15768)"/>
<g clip-path="url(#clip0_4939_15768)">
<path d="M17.0043 64.8182H19.2614L22.2841 72.196H22.4034L25.4261 64.8182H27.6832V75H25.9134V68.005H25.8189L23.005 74.9702H21.6825L18.8686 67.9901H18.7741V75H17.0043V64.8182ZM31.8097 75.1541C31.3258 75.1541 30.8899 75.0679 30.5021 74.8956C30.1177 74.7199 29.8127 74.4614 29.5874 74.12C29.3653 73.7786 29.2543 73.3577 29.2543 72.8572C29.2543 72.4264 29.3338 72.0701 29.4929 71.7884C29.652 71.5066 29.8691 71.2812 30.1442 71.1122C30.4193 70.9432 30.7292 70.8156 31.0739 70.7294C31.4219 70.6399 31.7815 70.5753 32.1527 70.5355C32.6001 70.4891 32.9631 70.4477 33.2415 70.4112C33.5199 70.3714 33.7221 70.3118 33.848 70.2322C33.9773 70.1494 34.0419 70.0218 34.0419 69.8494V69.8196C34.0419 69.4451 33.9309 69.1551 33.7088 68.9496C33.4867 68.7441 33.1669 68.6413 32.7493 68.6413C32.3085 68.6413 31.9588 68.7375 31.7003 68.9297C31.4451 69.1219 31.2727 69.349 31.1832 69.6108L29.5028 69.3722C29.6354 68.9081 29.8542 68.5204 30.1591 68.2088C30.464 67.8939 30.8369 67.6586 31.2777 67.5028C31.7185 67.3438 32.2057 67.2642 32.7393 67.2642C33.1072 67.2642 33.4735 67.3073 33.8381 67.3935C34.2027 67.4796 34.5357 67.6222 34.8374 67.821C35.139 68.0166 35.3809 68.2834 35.5632 68.6214C35.7488 68.9595 35.8416 69.3821 35.8416 69.8892V75H34.1115V73.951H34.0518C33.9425 74.1631 33.7884 74.362 33.5895 74.5476C33.3939 74.7299 33.147 74.8774 32.8487 74.9901C32.5537 75.0994 32.2074 75.1541 31.8097 75.1541ZM32.277 73.8317C32.6383 73.8317 32.9515 73.7604 33.2166 73.6179C33.4818 73.4721 33.6856 73.2798 33.8281 73.0412C33.974 72.8026 34.0469 72.5424 34.0469 72.2607V71.3608C33.9905 71.4072 33.8944 71.4503 33.7585 71.4901C33.6259 71.5298 33.4768 71.5646 33.3111 71.5945C33.1454 71.6243 32.9813 71.6508 32.8189 71.674C32.6565 71.6972 32.5156 71.7171 32.3963 71.7337C32.1278 71.7701 31.8875 71.8298 31.6754 71.9126C31.4633 71.9955 31.2959 72.1115 31.1733 72.2607C31.0507 72.4065 30.9893 72.5954 30.9893 72.8274C30.9893 73.1589 31.1103 73.4091 31.3523 73.5781C31.5942 73.7472 31.9025 73.8317 32.277 73.8317ZM39.451 70.5256V75H37.6513V67.3636H39.3714V68.6612H39.4609C39.6366 68.2337 39.9167 67.8939 40.3011 67.642C40.6889 67.3902 41.1679 67.2642 41.7379 67.2642C42.2649 67.2642 42.724 67.3769 43.1151 67.6023C43.5095 67.8277 43.8144 68.1541 44.0298 68.5817C44.2486 69.0092 44.3563 69.5279 44.353 70.1378V75H42.5533V70.4162C42.5533 69.9058 42.4207 69.5064 42.1555 69.218C41.8937 68.9297 41.5308 68.7855 41.0668 68.7855C40.7519 68.7855 40.4718 68.8551 40.2266 68.9943C39.9846 69.1302 39.794 69.3274 39.6548 69.5859C39.5189 69.8445 39.451 70.1577 39.451 70.5256ZM48.38 75.1541C47.8961 75.1541 47.4602 75.0679 47.0724 74.8956C46.688 74.7199 46.383 74.4614 46.1577 74.12C45.9356 73.7786 45.8246 73.3577 45.8246 72.8572C45.8246 72.4264 45.9041 72.0701 46.0632 71.7884C46.2223 71.5066 46.4394 71.2812 46.7145 71.1122C46.9896 70.9432 47.2995 70.8156 47.6442 70.7294C47.9922 70.6399 48.3518 70.5753 48.723 70.5355C49.1705 70.4891 49.5334 70.4477 49.8118 70.4112C50.0902 70.3714 50.2924 70.3118 50.4183 70.2322C50.5476 70.1494 50.6122 70.0218 50.6122 69.8494V69.8196C50.6122 69.4451 50.5012 69.1551 50.2791 68.9496C50.0571 68.7441 49.7372 68.6413 49.3196 68.6413C48.8788 68.6413 48.5291 68.7375 48.2706 68.9297C48.0154 69.1219 47.843 69.349 47.7536 69.6108L46.0732 69.3722C46.2057 68.9081 46.4245 68.5204 46.7294 68.2088C47.0343 67.8939 47.4072 67.6586 47.848 67.5028C48.2888 67.3438 48.776 67.2642 49.3097 67.2642C49.6776 67.2642 50.0438 67.3073 50.4084 67.3935C50.773 67.4796 51.1061 67.6222 51.4077 67.821C51.7093 68.0166 51.9512 68.2834 52.1335 68.6214C52.3191 68.9595 52.4119 69.3821 52.4119 69.8892V75H50.6818V73.951H50.6222C50.5128 74.1631 50.3587 74.362 50.1598 74.5476C49.9643 74.7299 49.7173 74.8774 49.419 74.9901C49.1241 75.0994 48.7777 75.1541 48.38 75.1541ZM48.8473 73.8317C49.2086 73.8317 49.5218 73.7604 49.7869 73.6179C50.0521 73.4721 50.2559 73.2798 50.3984 73.0412C50.5443 72.8026 50.6172 72.5424 50.6172 72.2607V71.3608C50.5608 71.4072 50.4647 71.4503 50.3288 71.4901C50.1963 71.5298 50.0471 71.5646 49.8814 71.5945C49.7157 71.6243 49.5516 71.6508 49.3892 71.674C49.2268 71.6972 49.0859 71.7171 48.9666 71.7337C48.6982 71.7701 48.4579 71.8298 48.2457 71.9126C48.0336 71.9955 47.8662 72.1115 47.7436 72.2607C47.621 72.4065 47.5597 72.5954 47.5597 72.8274C47.5597 73.1589 47.6806 73.4091 47.9226 73.5781C48.1645 73.7472 48.4728 73.8317 48.8473 73.8317ZM57.5426 78.0227C56.8963 78.0227 56.3411 77.9349 55.8771 77.7592C55.4131 77.5869 55.0402 77.3549 54.7585 77.0632C54.4768 76.7715 54.2812 76.4484 54.1719 76.0938L55.7926 75.701C55.8655 75.8501 55.9716 75.9976 56.1108 76.1435C56.25 76.2926 56.4373 76.4152 56.6726 76.5114C56.9112 76.6108 57.2112 76.6605 57.5724 76.6605C58.0829 76.6605 58.5054 76.5362 58.8402 76.2876C59.175 76.0424 59.3423 75.638 59.3423 75.0746V73.6278H59.2528C59.16 73.8134 59.0241 74.004 58.8452 74.1996C58.6695 74.3951 58.4358 74.5592 58.1442 74.6918C57.8558 74.8243 57.4929 74.8906 57.0554 74.8906C56.4688 74.8906 55.9368 74.7531 55.4595 74.478C54.9856 74.1996 54.6077 73.7853 54.326 73.2351C54.0476 72.6816 53.9084 71.9889 53.9084 71.157C53.9084 70.3184 54.0476 69.6108 54.326 69.0341C54.6077 68.4541 54.9872 68.0149 55.4645 67.7166C55.9418 67.415 56.4737 67.2642 57.0604 67.2642C57.5078 67.2642 57.8757 67.3404 58.1641 67.4929C58.4557 67.642 58.6877 67.8227 58.8601 68.0348C59.0324 68.2436 59.1634 68.4408 59.2528 68.6264H59.3523V67.3636H61.1271V75.1243C61.1271 75.7772 60.9714 76.3175 60.6598 76.745C60.3482 77.1726 59.9223 77.4924 59.3821 77.7045C58.8419 77.9167 58.2287 78.0227 57.5426 78.0227ZM57.5575 73.4787C57.9387 73.4787 58.2635 73.3859 58.532 73.2003C58.8004 73.0147 59.0043 72.7479 59.1435 72.3999C59.2827 72.0518 59.3523 71.6342 59.3523 71.147C59.3523 70.6664 59.2827 70.2455 59.1435 69.8842C59.0076 69.523 58.8054 69.2429 58.5369 69.044C58.2718 68.8419 57.9453 68.7408 57.5575 68.7408C57.1565 68.7408 56.8217 68.8452 56.5533 69.054C56.2848 69.2628 56.0826 69.5495 55.9467 69.9141C55.8108 70.2753 55.7429 70.6863 55.7429 71.147C55.7429 71.6143 55.8108 72.0237 55.9467 72.375C56.0859 72.723 56.2898 72.9948 56.5582 73.1903C56.83 73.3826 57.1631 73.4787 57.5575 73.4787ZM66.3523 75.1491C65.5866 75.1491 64.9254 74.9901 64.3686 74.6719C63.8151 74.3504 63.3892 73.8963 63.0909 73.3097C62.7926 72.7197 62.6435 72.0253 62.6435 71.2266C62.6435 70.4411 62.7926 69.7517 63.0909 69.1584C63.3925 68.5618 63.8134 68.0978 64.3537 67.7663C64.8939 67.4316 65.5286 67.2642 66.2578 67.2642C66.7285 67.2642 67.1726 67.3404 67.5902 67.4929C68.0111 67.642 68.3823 67.8741 68.7038 68.1889C69.0286 68.5038 69.2839 68.9048 69.4695 69.392C69.6551 69.8759 69.7479 70.4527 69.7479 71.1222V71.674H63.4886V70.4609H68.0227C68.0194 70.1162 67.9448 69.8097 67.799 69.5412C67.6532 69.2694 67.4493 69.0556 67.1875 68.8999C66.929 68.7441 66.6274 68.6662 66.2827 68.6662C65.9148 68.6662 65.5916 68.7557 65.3132 68.9347C65.0348 69.1103 64.8177 69.3423 64.6619 69.6307C64.5095 69.9157 64.4316 70.2289 64.4283 70.5703V71.6293C64.4283 72.0734 64.5095 72.4545 64.6719 72.7727C64.8343 73.0876 65.0613 73.3295 65.353 73.4986C65.6446 73.6643 65.986 73.7472 66.3771 73.7472C66.639 73.7472 66.8759 73.7107 67.0881 73.6378C67.3002 73.5616 67.4841 73.4505 67.6399 73.3047C67.7957 73.1589 67.9134 72.9782 67.9929 72.7628L69.6733 72.9517C69.5672 73.3958 69.3651 73.7836 69.0668 74.1151C68.7718 74.4432 68.3939 74.6984 67.9332 74.8807C67.4725 75.0597 66.9455 75.1491 66.3523 75.1491ZM78.2729 75H74.8226V64.8182H78.3425C79.3534 64.8182 80.2218 65.022 80.9476 65.4297C81.6768 65.834 82.2369 66.4157 82.628 67.1747C83.0191 67.9337 83.2147 68.8419 83.2147 69.8991C83.2147 70.9598 83.0175 71.8712 82.623 72.6335C82.2319 73.3958 81.6668 73.9808 80.9277 74.3885C80.1919 74.7962 79.307 75 78.2729 75ZM76.6671 73.4041H78.1834C78.8927 73.4041 79.4843 73.2749 79.9583 73.0163C80.4322 72.7545 80.7885 72.3651 81.0272 71.848C81.2658 71.3277 81.3851 70.678 81.3851 69.8991C81.3851 69.1203 81.2658 68.474 81.0272 67.9602C80.7885 67.4432 80.4355 67.0571 79.9682 66.8018C79.5042 66.5433 78.9275 66.4141 78.2381 66.4141H76.6671V73.4041ZM84.8876 75V67.3636H86.6873V75H84.8876ZM85.7924 66.2798C85.5074 66.2798 85.2621 66.1854 85.0566 65.9964C84.8511 65.8042 84.7484 65.5739 84.7484 65.3054C84.7484 65.0336 84.8511 64.8033 85.0566 64.6143C85.2621 64.4221 85.5074 64.326 85.7924 64.326C86.0808 64.326 86.3261 64.4221 86.5282 64.6143C86.7337 64.8033 86.8365 65.0336 86.8365 65.3054C86.8365 65.5739 86.7337 65.8042 86.5282 65.9964C86.3261 66.1854 86.0808 66.2798 85.7924 66.2798ZM94.5735 69.3821L92.9329 69.5611C92.8865 69.3954 92.8053 69.2396 92.6893 69.0938C92.5766 68.9479 92.4241 68.8303 92.2319 68.7408C92.0397 68.6513 91.8043 68.6065 91.5259 68.6065C91.1514 68.6065 90.8365 68.6877 90.5813 68.8501C90.3294 69.0125 90.2051 69.223 90.2085 69.4815C90.2051 69.7036 90.2863 69.8842 90.4521 70.0234C90.6211 70.1626 90.8995 70.277 91.2873 70.3665L92.5898 70.6449C93.3124 70.8007 93.8493 71.0476 94.2006 71.3857C94.5553 71.7237 94.7343 72.1662 94.7376 72.7131C94.7343 73.1937 94.5934 73.6179 94.315 73.9858C94.0399 74.3504 93.6571 74.6354 93.1665 74.8409C92.676 75.0464 92.1126 75.1491 91.4762 75.1491C90.5415 75.1491 89.7892 74.9536 89.2191 74.5625C88.649 74.1681 88.3093 73.6196 88.1999 72.9169L89.9549 72.7479C90.0344 73.0926 90.2035 73.3527 90.462 73.5284C90.7205 73.7041 91.0569 73.7919 91.4712 73.7919C91.8988 73.7919 92.2418 73.7041 92.5004 73.5284C92.7622 73.3527 92.8931 73.1357 92.8931 72.8771C92.8931 72.6584 92.8086 72.4777 92.6396 72.3352C92.4738 72.1927 92.2153 72.0833 91.864 72.0071L90.5614 71.7337C89.829 71.5812 89.2871 71.3243 88.9357 70.9631C88.5844 70.5985 88.4104 70.1378 88.4137 69.581C88.4104 69.1103 88.538 68.7027 88.7965 68.358C89.0584 68.0099 89.4213 67.7415 89.8853 67.5526C90.3526 67.3603 90.8912 67.2642 91.5011 67.2642C92.396 67.2642 93.1003 67.4548 93.614 67.8359C94.131 68.2171 94.4509 68.7325 94.5735 69.3821ZM99.5526 75.1491C98.7902 75.1491 98.1357 74.9818 97.5888 74.647C97.0452 74.3123 96.6259 73.8499 96.331 73.2599C96.0393 72.6667 95.8935 71.9839 95.8935 71.2116C95.8935 70.4361 96.0426 69.7517 96.3409 69.1584C96.6392 68.5618 97.0601 68.0978 97.6037 67.7663C98.1506 67.4316 98.7969 67.2642 99.5426 67.2642C100.162 67.2642 100.711 67.3786 101.188 67.6072C101.669 67.8326 102.052 68.1525 102.337 68.5668C102.622 68.9777 102.784 69.4583 102.824 70.0085H101.104C101.034 69.6406 100.868 69.334 100.607 69.0888C100.348 68.8402 100.002 68.7159 99.5675 68.7159C99.1996 68.7159 98.8764 68.8153 98.598 69.0142C98.3196 69.2098 98.1025 69.4915 97.9467 69.8594C97.7943 70.2273 97.718 70.6681 97.718 71.1818C97.718 71.7022 97.7943 72.1496 97.9467 72.5241C98.0992 72.8954 98.313 73.1821 98.5881 73.3842C98.8665 73.5831 99.1929 73.6825 99.5675 73.6825C99.8326 73.6825 100.07 73.6328 100.278 73.5334C100.491 73.4306 100.668 73.2831 100.81 73.0909C100.953 72.8987 101.051 72.665 101.104 72.3899H102.824C102.781 72.9302 102.622 73.4091 102.347 73.8267C102.071 74.241 101.697 74.5658 101.223 74.8011C100.749 75.0331 100.192 75.1491 99.5526 75.1491ZM107.633 75.1491C106.887 75.1491 106.241 74.9851 105.694 74.657C105.147 74.3288 104.723 73.8698 104.421 73.2798C104.123 72.6899 103.974 72.0005 103.974 71.2116C103.974 70.4228 104.123 69.7318 104.421 69.1385C104.723 68.5452 105.147 68.0845 105.694 67.7564C106.241 67.4283 106.887 67.2642 107.633 67.2642C108.378 67.2642 109.025 67.4283 109.572 67.7564C110.118 68.0845 110.541 68.5452 110.839 69.1385C111.141 69.7318 111.292 70.4228 111.292 71.2116C111.292 72.0005 111.141 72.6899 110.839 73.2798C110.541 73.8698 110.118 74.3288 109.572 74.657C109.025 74.9851 108.378 75.1491 107.633 75.1491ZM107.643 73.7074C108.047 73.7074 108.385 73.5964 108.657 73.3743C108.929 73.1489 109.131 72.8473 109.263 72.4695C109.399 72.0916 109.467 71.6707 109.467 71.2067C109.467 70.7393 109.399 70.3168 109.263 69.9389C109.131 69.5578 108.929 69.2545 108.657 69.0291C108.385 68.8037 108.047 68.6911 107.643 68.6911C107.228 68.6911 106.884 68.8037 106.608 69.0291C106.337 69.2545 106.133 69.5578 105.997 69.9389C105.864 70.3168 105.798 70.7393 105.798 71.2067C105.798 71.6707 105.864 72.0916 105.997 72.4695C106.133 72.8473 106.337 73.1489 106.608 73.3743C106.884 73.5964 107.228 73.7074 107.643 73.7074ZM117.686 71.7884V67.3636H119.486V75H117.741V73.6428H117.662C117.489 74.0703 117.206 74.42 116.811 74.6918C116.42 74.9635 115.938 75.0994 115.365 75.0994C114.864 75.0994 114.422 74.9884 114.037 74.7663C113.656 74.541 113.358 74.2145 113.142 73.7869C112.927 73.3561 112.819 72.8357 112.819 72.2259V67.3636H114.619V71.9474C114.619 72.4313 114.752 72.8158 115.017 73.1009C115.282 73.3859 115.63 73.5284 116.061 73.5284C116.326 73.5284 116.583 73.4638 116.831 73.3345C117.08 73.2053 117.284 73.013 117.443 72.7578C117.605 72.4993 117.686 72.1761 117.686 71.7884ZM123.137 70.5256V75H121.337V67.3636H123.057V68.6612H123.146C123.322 68.2337 123.602 67.8939 123.987 67.642C124.374 67.3902 124.853 67.2642 125.423 67.2642C125.95 67.2642 126.41 67.3769 126.801 67.6023C127.195 67.8277 127.5 68.1541 127.715 68.5817C127.934 69.0092 128.042 69.5279 128.039 70.1378V75H126.239V70.4162C126.239 69.9058 126.106 69.5064 125.841 69.218C125.579 68.9297 125.216 68.7855 124.752 68.7855C124.437 68.7855 124.157 68.8551 123.912 68.9943C123.67 69.1302 123.48 69.3274 123.34 69.5859C123.204 69.8445 123.137 70.1577 123.137 70.5256ZM133.681 67.3636V68.7557H129.291V67.3636H133.681ZM130.375 65.5341H132.175V72.7031C132.175 72.9451 132.211 73.1307 132.284 73.2599C132.36 73.3859 132.46 73.4721 132.583 73.5185C132.705 73.5649 132.841 73.5881 132.99 73.5881C133.103 73.5881 133.206 73.5798 133.298 73.5632C133.395 73.5466 133.468 73.5317 133.517 73.5185L133.82 74.9254C133.724 74.9586 133.587 74.995 133.408 75.0348C133.232 75.0746 133.017 75.0978 132.762 75.1044C132.311 75.1177 131.905 75.0497 131.544 74.9006C131.182 74.7481 130.896 74.5128 130.683 74.1946C130.475 73.8764 130.372 73.4787 130.375 73.0014V65.5341Z" fill="#247EAB"/>
</g>
<path d="M359.43 68.5369V69.5312H349.288V68.5369H359.43ZM359.43 70.6847V71.679H349.288V70.6847H359.43ZM358.471 64.8182V75H357.054L351.879 67.5327H351.789V75H350.248V64.8182H351.675L356.85 72.2955H356.945V64.8182H358.471Z" fill="#344054"/>
<path d="M366.524 75.169C365.739 75.1657 365.067 74.9586 364.511 74.5476C363.954 74.1366 363.528 73.5384 363.233 72.7528C362.938 71.9673 362.79 71.0211 362.79 69.9141C362.79 68.8104 362.938 67.8674 363.233 67.0852C363.531 66.303 363.959 65.7064 364.516 65.2955C365.076 64.8845 365.745 64.679 366.524 64.679C367.303 64.679 367.971 64.8861 368.528 65.3004C369.085 65.7114 369.51 66.308 369.805 67.0902C370.104 67.8691 370.253 68.8104 370.253 69.9141C370.253 71.0244 370.105 71.9723 369.81 72.7578C369.515 73.54 369.089 74.1383 368.533 74.5526C367.976 74.9635 367.306 75.169 366.524 75.169ZM366.524 73.8416C367.214 73.8416 367.752 73.5052 368.14 72.8324C368.531 72.1596 368.727 71.1868 368.727 69.9141C368.727 69.0689 368.637 68.3546 368.458 67.7713C368.282 67.1847 368.029 66.7405 367.697 66.4389C367.369 66.134 366.978 65.9815 366.524 65.9815C365.838 65.9815 365.299 66.3196 364.908 66.9957C364.517 67.6719 364.32 68.6446 364.317 69.9141C364.317 70.7625 364.405 71.4801 364.58 72.0668C364.759 72.6501 365.013 73.0926 365.341 73.3942C365.669 73.6925 366.063 73.8416 366.524 73.8416ZM372.647 75.0945C372.375 75.0945 372.141 74.9983 371.946 74.8061C371.75 74.6106 371.652 74.3752 371.652 74.1001C371.652 73.8284 371.75 73.5964 371.946 73.4041C372.141 73.2086 372.375 73.1108 372.647 73.1108C372.918 73.1108 373.152 73.2086 373.348 73.4041C373.543 73.5964 373.641 73.8284 373.641 74.1001C373.641 74.2824 373.595 74.4498 373.502 74.6023C373.412 74.7514 373.293 74.8707 373.144 74.9602C372.995 75.0497 372.829 75.0945 372.647 75.0945ZM378.788 75.169C378.002 75.1657 377.331 74.9586 376.774 74.5476C376.218 74.1366 375.792 73.5384 375.497 72.7528C375.202 71.9673 375.054 71.0211 375.054 69.9141C375.054 68.8104 375.202 67.8674 375.497 67.0852C375.795 66.303 376.222 65.7064 376.779 65.2955C377.339 64.8845 378.009 64.679 378.788 64.679C379.567 64.679 380.235 64.8861 380.791 65.3004C381.348 65.7114 381.774 66.308 382.069 67.0902C382.367 67.8691 382.517 68.8104 382.517 69.9141C382.517 71.0244 382.369 71.9723 382.074 72.7578C381.779 73.54 381.353 74.1383 380.796 74.5526C380.24 74.9635 379.57 75.169 378.788 75.169ZM378.788 73.8416C379.477 73.8416 380.016 73.5052 380.404 72.8324C380.795 72.1596 380.99 71.1868 380.99 69.9141C380.99 69.0689 380.901 68.3546 380.722 67.7713C380.546 67.1847 380.293 66.7405 379.961 66.4389C379.633 66.134 379.242 65.9815 378.788 65.9815C378.102 65.9815 377.563 66.3196 377.172 66.9957C376.781 67.6719 376.584 68.6446 376.58 69.9141C376.58 70.7625 376.668 71.4801 376.844 72.0668C377.023 72.6501 377.276 73.0926 377.605 73.3942C377.933 73.6925 378.327 73.8416 378.788 73.8416ZM387.825 75.169C387.039 75.1657 386.368 74.9586 385.811 74.5476C385.255 74.1366 384.829 73.5384 384.534 72.7528C384.239 71.9673 384.091 71.0211 384.091 69.9141C384.091 68.8104 384.239 67.8674 384.534 67.0852C384.832 66.303 385.26 65.7064 385.816 65.2955C386.377 64.8845 387.046 64.679 387.825 64.679C388.604 64.679 389.272 64.8861 389.828 65.3004C390.385 65.7114 390.811 66.308 391.106 67.0902C391.404 67.8691 391.554 68.8104 391.554 69.9141C391.554 71.0244 391.406 71.9723 391.111 72.7578C390.816 73.54 390.39 74.1383 389.833 74.5526C389.277 74.9635 388.607 75.169 387.825 75.169ZM387.825 73.8416C388.514 73.8416 389.053 73.5052 389.441 72.8324C389.832 72.1596 390.027 71.1868 390.027 69.9141C390.027 69.0689 389.938 68.3546 389.759 67.7713C389.583 67.1847 389.33 66.7405 388.998 66.4389C388.67 66.134 388.279 65.9815 387.825 65.9815C387.139 65.9815 386.6 66.3196 386.209 66.9957C385.818 67.6719 385.621 68.6446 385.618 69.9141C385.618 70.7625 385.705 71.4801 385.881 72.0668C386.06 72.6501 386.314 73.0926 386.642 73.3942C386.97 73.6925 387.364 73.8416 387.825 73.8416Z" fill="#344054"/>
<g clip-path="url(#clip1_4939_15768)">
<path d="M17.0043 108.818H19.2614L22.2841 116.196H22.4034L25.4261 108.818H27.6832V119H25.9134V112.005H25.8189L23.005 118.97H21.6825L18.8686 111.99H18.7741V119H17.0043V108.818ZM31.8097 119.154C31.3258 119.154 30.8899 119.068 30.5021 118.896C30.1177 118.72 29.8127 118.461 29.5874 118.12C29.3653 117.779 29.2543 117.358 29.2543 116.857C29.2543 116.426 29.3338 116.07 29.4929 115.788C29.652 115.507 29.8691 115.281 30.1442 115.112C30.4193 114.943 30.7292 114.816 31.0739 114.729C31.4219 114.64 31.7815 114.575 32.1527 114.536C32.6001 114.489 32.9631 114.448 33.2415 114.411C33.5199 114.371 33.7221 114.312 33.848 114.232C33.9773 114.149 34.0419 114.022 34.0419 113.849V113.82C34.0419 113.445 33.9309 113.155 33.7088 112.95C33.4867 112.744 33.1669 112.641 32.7493 112.641C32.3085 112.641 31.9588 112.737 31.7003 112.93C31.4451 113.122 31.2727 113.349 31.1832 113.611L29.5028 113.372C29.6354 112.908 29.8542 112.52 30.1591 112.209C30.464 111.894 30.8369 111.659 31.2777 111.503C31.7185 111.344 32.2057 111.264 32.7393 111.264C33.1072 111.264 33.4735 111.307 33.8381 111.393C34.2027 111.48 34.5357 111.622 34.8374 111.821C35.139 112.017 35.3809 112.283 35.5632 112.621C35.7488 112.96 35.8416 113.382 35.8416 113.889V119H34.1115V117.951H34.0518C33.9425 118.163 33.7884 118.362 33.5895 118.548C33.3939 118.73 33.147 118.877 32.8487 118.99C32.5537 119.099 32.2074 119.154 31.8097 119.154ZM32.277 117.832C32.6383 117.832 32.9515 117.76 33.2166 117.618C33.4818 117.472 33.6856 117.28 33.8281 117.041C33.974 116.803 34.0469 116.542 34.0469 116.261V115.361C33.9905 115.407 33.8944 115.45 33.7585 115.49C33.6259 115.53 33.4768 115.565 33.3111 115.594C33.1454 115.624 32.9813 115.651 32.8189 115.674C32.6565 115.697 32.5156 115.717 32.3963 115.734C32.1278 115.77 31.8875 115.83 31.6754 115.913C31.4633 115.996 31.2959 116.112 31.1733 116.261C31.0507 116.406 30.9893 116.595 30.9893 116.827C30.9893 117.159 31.1103 117.409 31.3523 117.578C31.5942 117.747 31.9025 117.832 32.277 117.832ZM39.451 114.526V119H37.6513V111.364H39.3714V112.661H39.4609C39.6366 112.234 39.9167 111.894 40.3011 111.642C40.6889 111.39 41.1679 111.264 41.7379 111.264C42.2649 111.264 42.724 111.377 43.1151 111.602C43.5095 111.828 43.8144 112.154 44.0298 112.582C44.2486 113.009 44.3563 113.528 44.353 114.138V119H42.5533V114.416C42.5533 113.906 42.4207 113.506 42.1555 113.218C41.8937 112.93 41.5308 112.786 41.0668 112.786C40.7519 112.786 40.4718 112.855 40.2266 112.994C39.9846 113.13 39.794 113.327 39.6548 113.586C39.5189 113.844 39.451 114.158 39.451 114.526ZM48.38 119.154C47.8961 119.154 47.4602 119.068 47.0724 118.896C46.688 118.72 46.383 118.461 46.1577 118.12C45.9356 117.779 45.8246 117.358 45.8246 116.857C45.8246 116.426 45.9041 116.07 46.0632 115.788C46.2223 115.507 46.4394 115.281 46.7145 115.112C46.9896 114.943 47.2995 114.816 47.6442 114.729C47.9922 114.64 48.3518 114.575 48.723 114.536C49.1705 114.489 49.5334 114.448 49.8118 114.411C50.0902 114.371 50.2924 114.312 50.4183 114.232C50.5476 114.149 50.6122 114.022 50.6122 113.849V113.82C50.6122 113.445 50.5012 113.155 50.2791 112.95C50.0571 112.744 49.7372 112.641 49.3196 112.641C48.8788 112.641 48.5291 112.737 48.2706 112.93C48.0154 113.122 47.843 113.349 47.7536 113.611L46.0732 113.372C46.2057 112.908 46.4245 112.52 46.7294 112.209C47.0343 111.894 47.4072 111.659 47.848 111.503C48.2888 111.344 48.776 111.264 49.3097 111.264C49.6776 111.264 50.0438 111.307 50.4084 111.393C50.773 111.48 51.1061 111.622 51.4077 111.821C51.7093 112.017 51.9512 112.283 52.1335 112.621C52.3191 112.96 52.4119 113.382 52.4119 113.889V119H50.6818V117.951H50.6222C50.5128 118.163 50.3587 118.362 50.1598 118.548C49.9643 118.73 49.7173 118.877 49.419 118.99C49.1241 119.099 48.7777 119.154 48.38 119.154ZM48.8473 117.832C49.2086 117.832 49.5218 117.76 49.7869 117.618C50.0521 117.472 50.2559 117.28 50.3984 117.041C50.5443 116.803 50.6172 116.542 50.6172 116.261V115.361C50.5608 115.407 50.4647 115.45 50.3288 115.49C50.1963 115.53 50.0471 115.565 49.8814 115.594C49.7157 115.624 49.5516 115.651 49.3892 115.674C49.2268 115.697 49.0859 115.717 48.9666 115.734C48.6982 115.77 48.4579 115.83 48.2457 115.913C48.0336 115.996 47.8662 116.112 47.7436 116.261C47.621 116.406 47.5597 116.595 47.5597 116.827C47.5597 117.159 47.6806 117.409 47.9226 117.578C48.1645 117.747 48.4728 117.832 48.8473 117.832ZM57.5426 122.023C56.8963 122.023 56.3411 121.935 55.8771 121.759C55.4131 121.587 55.0402 121.355 54.7585 121.063C54.4768 120.772 54.2812 120.448 54.1719 120.094L55.7926 119.701C55.8655 119.85 55.9716 119.998 56.1108 120.143C56.25 120.293 56.4373 120.415 56.6726 120.511C56.9112 120.611 57.2112 120.661 57.5724 120.661C58.0829 120.661 58.5054 120.536 58.8402 120.288C59.175 120.042 59.3423 119.638 59.3423 119.075V117.628H59.2528C59.16 117.813 59.0241 118.004 58.8452 118.2C58.6695 118.395 58.4358 118.559 58.1442 118.692C57.8558 118.824 57.4929 118.891 57.0554 118.891C56.4688 118.891 55.9368 118.753 55.4595 118.478C54.9856 118.2 54.6077 117.785 54.326 117.235C54.0476 116.682 53.9084 115.989 53.9084 115.157C53.9084 114.318 54.0476 113.611 54.326 113.034C54.6077 112.454 54.9872 112.015 55.4645 111.717C55.9418 111.415 56.4737 111.264 57.0604 111.264C57.5078 111.264 57.8757 111.34 58.1641 111.493C58.4557 111.642 58.6877 111.823 58.8601 112.035C59.0324 112.244 59.1634 112.441 59.2528 112.626H59.3523V111.364H61.1271V119.124C61.1271 119.777 60.9714 120.317 60.6598 120.745C60.3482 121.173 59.9223 121.492 59.3821 121.705C58.8419 121.917 58.2287 122.023 57.5426 122.023ZM57.5575 117.479C57.9387 117.479 58.2635 117.386 58.532 117.2C58.8004 117.015 59.0043 116.748 59.1435 116.4C59.2827 116.052 59.3523 115.634 59.3523 115.147C59.3523 114.666 59.2827 114.246 59.1435 113.884C59.0076 113.523 58.8054 113.243 58.5369 113.044C58.2718 112.842 57.9453 112.741 57.5575 112.741C57.1565 112.741 56.8217 112.845 56.5533 113.054C56.2848 113.263 56.0826 113.549 55.9467 113.914C55.8108 114.275 55.7429 114.686 55.7429 115.147C55.7429 115.614 55.8108 116.024 55.9467 116.375C56.0859 116.723 56.2898 116.995 56.5582 117.19C56.83 117.383 57.1631 117.479 57.5575 117.479ZM66.3523 119.149C65.5866 119.149 64.9254 118.99 64.3686 118.672C63.8151 118.35 63.3892 117.896 63.0909 117.31C62.7926 116.72 62.6435 116.025 62.6435 115.227C62.6435 114.441 62.7926 113.752 63.0909 113.158C63.3925 112.562 63.8134 112.098 64.3537 111.766C64.8939 111.432 65.5286 111.264 66.2578 111.264C66.7285 111.264 67.1726 111.34 67.5902 111.493C68.0111 111.642 68.3823 111.874 68.7038 112.189C69.0286 112.504 69.2839 112.905 69.4695 113.392C69.6551 113.876 69.7479 114.453 69.7479 115.122V115.674H63.4886V114.461H68.0227C68.0194 114.116 67.9448 113.81 67.799 113.541C67.6532 113.269 67.4493 113.056 67.1875 112.9C66.929 112.744 66.6274 112.666 66.2827 112.666C65.9148 112.666 65.5916 112.756 65.3132 112.935C65.0348 113.11 64.8177 113.342 64.6619 113.631C64.5095 113.916 64.4316 114.229 64.4283 114.57V115.629C64.4283 116.073 64.5095 116.455 64.6719 116.773C64.8343 117.088 65.0613 117.33 65.353 117.499C65.6446 117.664 65.986 117.747 66.3771 117.747C66.639 117.747 66.8759 117.711 67.0881 117.638C67.3002 117.562 67.4841 117.451 67.6399 117.305C67.7957 117.159 67.9134 116.978 67.9929 116.763L69.6733 116.952C69.5672 117.396 69.3651 117.784 69.0668 118.115C68.7718 118.443 68.3939 118.698 67.9332 118.881C67.4725 119.06 66.9455 119.149 66.3523 119.149ZM74.3752 110.364V108.818H82.4988V110.364H79.3517V119H77.5222V110.364H74.3752ZM85.1436 119.154C84.6597 119.154 84.2239 119.068 83.8361 118.896C83.4516 118.72 83.1467 118.461 82.9213 118.12C82.6993 117.779 82.5882 117.358 82.5882 116.857C82.5882 116.426 82.6678 116.07 82.8269 115.788C82.986 115.507 83.2031 115.281 83.4782 115.112C83.7533 114.943 84.0632 114.816 84.4078 114.729C84.7559 114.64 85.1155 114.575 85.4867 114.536C85.9341 114.489 86.2971 114.448 86.5755 114.411C86.8539 114.371 87.056 114.312 87.182 114.232C87.3113 114.149 87.3759 114.022 87.3759 113.849V113.82C87.3759 113.445 87.2649 113.155 87.0428 112.95C86.8207 112.744 86.5009 112.641 86.0833 112.641C85.6425 112.641 85.2928 112.737 85.0343 112.93C84.7791 113.122 84.6067 113.349 84.5172 113.611L82.8368 113.372C82.9694 112.908 83.1882 112.52 83.4931 112.209C83.798 111.894 84.1709 111.659 84.6117 111.503C85.0525 111.344 85.5397 111.264 86.0733 111.264C86.4412 111.264 86.8075 111.307 87.1721 111.393C87.5366 111.48 87.8697 111.622 88.1713 111.821C88.473 112.017 88.7149 112.283 88.8972 112.621C89.0828 112.96 89.1756 113.382 89.1756 113.889V119H87.4455V117.951H87.3858C87.2765 118.163 87.1223 118.362 86.9235 118.548C86.7279 118.73 86.481 118.877 86.1827 118.99C85.8877 119.099 85.5414 119.154 85.1436 119.154ZM85.611 117.832C85.9722 117.832 86.2855 117.76 86.5506 117.618C86.8158 117.472 87.0196 117.28 87.1621 117.041C87.3079 116.803 87.3809 116.542 87.3809 116.261V115.361C87.3245 115.407 87.2284 115.45 87.0925 115.49C86.9599 115.53 86.8108 115.565 86.6451 115.594C86.4793 115.624 86.3153 115.651 86.1529 115.674C85.9905 115.697 85.8496 115.717 85.7303 115.734C85.4618 115.77 85.2215 115.83 85.0094 115.913C84.7973 115.996 84.6299 116.112 84.5073 116.261C84.3846 116.406 84.3233 116.595 84.3233 116.827C84.3233 117.159 84.4443 117.409 84.6863 117.578C84.9282 117.747 85.2364 117.832 85.611 117.832ZM92.4569 111.364L93.998 114.183L95.5641 111.364H97.4682L95.1664 115.182L97.508 119H95.6138L93.998 116.251L92.3972 119H90.4881L92.8148 115.182L90.5478 111.364H92.4569ZM102.78 113.909C102.78 112.666 102.944 111.524 103.273 110.484C103.604 109.44 104.096 108.475 104.749 107.59H106.444C106.193 107.918 105.957 108.321 105.738 108.798C105.52 109.272 105.329 109.793 105.167 110.359C105.008 110.923 104.882 111.508 104.789 112.114C104.699 112.721 104.655 113.319 104.655 113.909C104.655 114.695 104.733 115.49 104.888 116.295C105.047 117.101 105.261 117.848 105.53 118.538C105.801 119.224 106.106 119.786 106.444 120.223H104.749C104.096 119.338 103.604 118.375 103.273 117.335C102.944 116.29 102.78 115.149 102.78 113.909ZM111.586 119.194C110.768 119.194 110.065 118.987 109.478 118.572C108.895 118.155 108.446 117.553 108.131 116.768C107.819 115.979 107.664 115.029 107.664 113.919C107.667 112.809 107.824 111.864 108.136 111.085C108.451 110.303 108.9 109.706 109.483 109.295C110.07 108.884 110.771 108.679 111.586 108.679C112.402 108.679 113.103 108.884 113.689 109.295C114.276 109.706 114.725 110.303 115.037 111.085C115.351 111.867 115.509 112.812 115.509 113.919C115.509 115.033 115.351 115.984 115.037 116.773C114.725 117.558 114.276 118.158 113.689 118.572C113.106 118.987 112.405 119.194 111.586 119.194ZM111.586 117.638C112.223 117.638 112.725 117.325 113.093 116.698C113.464 116.068 113.65 115.142 113.65 113.919C113.65 113.11 113.565 112.431 113.396 111.881C113.227 111.33 112.988 110.916 112.68 110.638C112.372 110.356 112.007 110.215 111.586 110.215C110.953 110.215 110.453 110.53 110.085 111.16C109.717 111.786 109.531 112.706 109.528 113.919C109.525 114.731 109.606 115.414 109.772 115.967C109.941 116.521 110.179 116.938 110.488 117.22C110.796 117.499 111.162 117.638 111.586 117.638ZM120.392 113.909C120.392 115.149 120.227 116.29 119.895 117.335C119.567 118.375 119.076 119.338 118.423 120.223H116.728C116.983 119.895 117.219 119.494 117.434 119.02C117.653 118.546 117.842 118.026 118.001 117.459C118.163 116.892 118.289 116.305 118.379 115.699C118.472 115.092 118.518 114.496 118.518 113.909C118.518 113.124 118.438 112.328 118.279 111.523C118.124 110.717 117.91 109.97 117.638 109.281C117.369 108.591 117.066 108.028 116.728 107.59H118.423C119.076 108.475 119.567 109.44 119.895 110.484C120.227 111.524 120.392 112.666 120.392 113.909Z" fill="#247EAB"/>
</g>
<path d="M359.43 112.537V113.531H349.288V112.537H359.43ZM359.43 114.685V115.679H349.288V114.685H359.43ZM358.471 108.818V119H357.054L351.879 111.533H351.789V119H350.248V108.818H351.675L356.85 116.295H356.945V108.818H358.471Z" fill="#344054"/>
<path d="M366.524 119.169C365.739 119.166 365.067 118.959 364.511 118.548C363.954 118.137 363.528 117.538 363.233 116.753C362.938 115.967 362.79 115.021 362.79 113.914C362.79 112.81 362.938 111.867 363.233 111.085C363.531 110.303 363.959 109.706 364.516 109.295C365.076 108.884 365.745 108.679 366.524 108.679C367.303 108.679 367.971 108.886 368.528 109.3C369.085 109.711 369.51 110.308 369.805 111.09C370.104 111.869 370.253 112.81 370.253 113.914C370.253 115.024 370.105 115.972 369.81 116.758C369.515 117.54 369.089 118.138 368.533 118.553C367.976 118.964 367.306 119.169 366.524 119.169ZM366.524 117.842C367.214 117.842 367.752 117.505 368.14 116.832C368.531 116.16 368.727 115.187 368.727 113.914C368.727 113.069 368.637 112.355 368.458 111.771C368.282 111.185 368.029 110.741 367.697 110.439C367.369 110.134 366.978 109.982 366.524 109.982C365.838 109.982 365.299 110.32 364.908 110.996C364.517 111.672 364.32 112.645 364.317 113.914C364.317 114.763 364.405 115.48 364.58 116.067C364.759 116.65 365.013 117.093 365.341 117.394C365.669 117.692 366.063 117.842 366.524 117.842ZM372.647 119.094C372.375 119.094 372.141 118.998 371.946 118.806C371.75 118.611 371.652 118.375 371.652 118.1C371.652 117.828 371.75 117.596 371.946 117.404C372.141 117.209 372.375 117.111 372.647 117.111C372.918 117.111 373.152 117.209 373.348 117.404C373.543 117.596 373.641 117.828 373.641 118.1C373.641 118.282 373.595 118.45 373.502 118.602C373.412 118.751 373.293 118.871 373.144 118.96C372.995 119.05 372.829 119.094 372.647 119.094ZM378.788 119.169C378.002 119.166 377.331 118.959 376.774 118.548C376.218 118.137 375.792 117.538 375.497 116.753C375.202 115.967 375.054 115.021 375.054 113.914C375.054 112.81 375.202 111.867 375.497 111.085C375.795 110.303 376.222 109.706 376.779 109.295C377.339 108.884 378.009 108.679 378.788 108.679C379.567 108.679 380.235 108.886 380.791 109.3C381.348 109.711 381.774 110.308 382.069 111.09C382.367 111.869 382.517 112.81 382.517 113.914C382.517 115.024 382.369 115.972 382.074 116.758C381.779 117.54 381.353 118.138 380.796 118.553C380.24 118.964 379.57 119.169 378.788 119.169ZM378.788 117.842C379.477 117.842 380.016 117.505 380.404 116.832C380.795 116.16 380.99 115.187 380.99 113.914C380.99 113.069 380.901 112.355 380.722 111.771C380.546 111.185 380.293 110.741 379.961 110.439C379.633 110.134 379.242 109.982 378.788 109.982C378.102 109.982 377.563 110.32 377.172 110.996C376.781 111.672 376.584 112.645 376.58 113.914C376.58 114.763 376.668 115.48 376.844 116.067C377.023 116.65 377.276 117.093 377.605 117.394C377.933 117.692 378.327 117.842 378.788 117.842ZM387.825 119.169C387.039 119.166 386.368 118.959 385.811 118.548C385.255 118.137 384.829 117.538 384.534 116.753C384.239 115.967 384.091 115.021 384.091 113.914C384.091 112.81 384.239 111.867 384.534 111.085C384.832 110.303 385.26 109.706 385.816 109.295C386.377 108.884 387.046 108.679 387.825 108.679C388.604 108.679 389.272 108.886 389.828 109.3C390.385 109.711 390.811 110.308 391.106 111.09C391.404 111.869 391.554 112.81 391.554 113.914C391.554 115.024 391.406 115.972 391.111 116.758C390.816 117.54 390.39 118.138 389.833 118.553C389.277 118.964 388.607 119.169 387.825 119.169ZM387.825 117.842C388.514 117.842 389.053 117.505 389.441 116.832C389.832 116.16 390.027 115.187 390.027 113.914C390.027 113.069 389.938 112.355 389.759 111.771C389.583 111.185 389.33 110.741 388.998 110.439C388.67 110.134 388.279 109.982 387.825 109.982C387.139 109.982 386.6 110.32 386.209 110.996C385.818 111.672 385.621 112.645 385.618 113.914C385.618 114.763 385.705 115.48 385.881 116.067C386.06 116.65 386.314 117.093 386.642 117.394C386.97 117.692 387.364 117.842 387.825 117.842Z" fill="#344054"/>
<mask id="path-14-inside-2_4939_15768" fill="white">
<path d="M16 132H393V168H16V132Z"/>
</mask>
<path d="M393 131.5H391.997V132.5H393V131.5ZM389.992 131.5H387.987V132.5H389.992V131.5ZM385.981 131.5H383.976V132.5H385.981V131.5ZM381.971 131.5H379.965V132.5H381.971V131.5ZM377.96 131.5H375.955V132.5H377.96V131.5ZM373.949 131.5H371.944V132.5H373.949V131.5ZM369.939 131.5H367.934V132.5H369.939V131.5ZM365.928 131.5H363.923V132.5H365.928V131.5ZM361.918 131.5H359.912V132.5H361.918V131.5ZM357.907 131.5H355.902V132.5H357.907V131.5ZM353.896 131.5H351.891V132.5H353.896V131.5ZM349.886 131.5H347.88V132.5H349.886V131.5ZM345.875 131.5H343.87V132.5H345.875V131.5ZM341.864 131.5H339.859V132.5H341.864V131.5ZM337.854 131.5H335.848V132.5H337.854V131.5ZM333.843 131.5H331.838V132.5H333.843V131.5ZM329.832 131.5H327.827V132.5H329.832V131.5ZM325.822 131.5H323.817V132.5H325.822V131.5ZM321.811 131.5H319.806V132.5H321.811V131.5ZM317.801 131.5H315.795V132.5H317.801V131.5ZM313.79 131.5H311.785V132.5H313.79V131.5ZM309.779 131.5H307.774V132.5H309.779V131.5ZM305.769 131.5H303.763V132.5H305.769V131.5ZM301.758 131.5H299.753V132.5H301.758V131.5ZM297.747 131.5H295.742V132.5H297.747V131.5ZM293.737 131.5H291.731V132.5H293.737V131.5ZM289.726 131.5H287.721V132.5H289.726V131.5ZM285.715 131.5H283.71V132.5H285.715V131.5ZM281.705 131.5H279.7V132.5H281.705V131.5ZM277.694 131.5H275.689V132.5H277.694V131.5ZM273.684 131.5H271.678V132.5H273.684V131.5ZM269.673 131.5H267.668V132.5H269.673V131.5ZM265.662 131.5H263.657V132.5H265.662V131.5ZM261.652 131.5H259.646V132.5H261.652V131.5ZM257.641 131.5H255.636V132.5H257.641V131.5ZM253.63 131.5H251.625V132.5H253.63V131.5ZM249.62 131.5H247.614V132.5H249.62V131.5ZM245.609 131.5H243.604V132.5H245.609V131.5ZM241.598 131.5H239.593V132.5H241.598V131.5ZM237.588 131.5H235.582V132.5H237.588V131.5ZM233.577 131.5H231.572V132.5H233.577V131.5ZM229.566 131.5H227.561V132.5H229.566V131.5ZM225.556 131.5H223.55V132.5H225.556V131.5ZM221.545 131.5H219.54V132.5H221.545V131.5ZM217.534 131.5H215.529V132.5H217.534V131.5ZM213.524 131.5H211.519V132.5H213.524V131.5ZM209.513 131.5H207.508V132.5H209.513V131.5ZM205.503 131.5H203.497V132.5H205.503V131.5ZM201.492 131.5H199.487V132.5H201.492V131.5ZM197.481 131.5H195.476V132.5H197.481V131.5ZM193.471 131.5H191.465V132.5H193.471V131.5ZM189.46 131.5H187.455V132.5H189.46V131.5ZM185.449 131.5H183.444V132.5H185.449V131.5ZM181.439 131.5H179.433V132.5H181.439V131.5ZM177.428 131.5H175.423V132.5H177.428V131.5ZM173.417 131.5H171.412V132.5H173.417V131.5ZM169.407 131.5H167.401V132.5H169.407V131.5ZM165.396 131.5H163.391V132.5H165.396V131.5ZM161.385 131.5H159.38V132.5H161.385V131.5ZM157.375 131.5H155.369V132.5H157.375V131.5ZM153.364 131.5H151.359V132.5H153.364V131.5ZM149.353 131.5H147.348V132.5H149.353V131.5ZM145.343 131.5H143.337V132.5H145.343V131.5ZM141.332 131.5H139.327V132.5H141.332V131.5ZM137.321 131.5H135.316V132.5H137.321V131.5ZM133.311 131.5H131.306V132.5H133.311V131.5ZM129.3 131.5H127.295V132.5H129.3V131.5ZM125.29 131.5H123.284V132.5H125.29V131.5ZM121.279 131.5H119.274V132.5H121.279V131.5ZM117.268 131.5H115.263V132.5H117.268V131.5ZM113.258 131.5H111.252V132.5H113.258V131.5ZM109.247 131.5H107.242V132.5H109.247V131.5ZM105.237 131.5H103.231V132.5H105.237V131.5ZM101.226 131.5H99.2206V132.5H101.226V131.5ZM97.2153 131.5H95.21V132.5H97.2153V131.5ZM93.2047 131.5H91.1993V132.5H93.2047V131.5ZM89.194 131.5H87.1887V132.5H89.194V131.5ZM85.1834 131.5H83.1781V132.5H85.1834V131.5ZM81.1728 131.5H79.1675V132.5H81.1728V131.5ZM77.1622 131.5H75.1569V132.5H77.1622V131.5ZM73.1516 131.5H71.1462V132.5H73.1516V131.5ZM69.1409 131.5H67.1356V132.5H69.1409V131.5ZM65.1303 131.5H63.125V132.5H65.1303V131.5ZM61.1197 131.5H59.1144V132.5H61.1197V131.5ZM57.1091 131.5H55.1038V132.5H57.1091V131.5ZM53.0984 131.5H51.0931V132.5H53.0984V131.5ZM49.0878 131.5H47.0825V132.5H49.0878V131.5ZM45.0772 131.5H43.0719V132.5H45.0772V131.5ZM41.0666 131.5H39.0613V132.5H41.0666V131.5ZM37.056 131.5H35.0507V132.5H37.056V131.5ZM33.0453 131.5H31.04V132.5H33.0453V131.5ZM29.0347 131.5H27.0294V132.5H29.0347V131.5ZM25.0241 131.5H23.0188V132.5H25.0241V131.5ZM21.0135 131.5H19.0082V132.5H21.0135V131.5ZM17.0029 131.5H16V132.5H17.0029V131.5ZM393 131H391.997V133H393V131ZM389.992 131H387.987V133H389.992V131ZM385.981 131H383.976V133H385.981V131ZM381.971 131H379.965V133H381.971V131ZM377.96 131H375.955V133H377.96V131ZM373.949 131H371.944V133H373.949V131ZM369.939 131H367.934V133H369.939V131ZM365.928 131H363.923V133H365.928V131ZM361.918 131H359.912V133H361.918V131ZM357.907 131H355.902V133H357.907V131ZM353.896 131H351.891V133H353.896V131ZM349.886 131H347.88V133H349.886V131ZM345.875 131H343.87V133H345.875V131ZM341.864 131H339.859V133H341.864V131ZM337.854 131H335.848V133H337.854V131ZM333.843 131H331.838V133H333.843V131ZM329.832 131H327.827V133H329.832V131ZM325.822 131H323.817V133H325.822V131ZM321.811 131H319.806V133H321.811V131ZM317.801 131H315.795V133H317.801V131ZM313.79 131H311.785V133H313.79V131ZM309.779 131H307.774V133H309.779V131ZM305.769 131H303.763V133H305.769V131ZM301.758 131H299.753V133H301.758V131ZM297.747 131H295.742V133H297.747V131ZM293.737 131H291.731V133H293.737V131ZM289.726 131H287.721V133H289.726V131ZM285.715 131H283.71V133H285.715V131ZM281.705 131H279.7V133H281.705V131ZM277.694 131H275.689V133H277.694V131ZM273.684 131H271.678V133H273.684V131ZM269.673 131H267.668V133H269.673V131ZM265.662 131H263.657V133H265.662V131ZM261.652 131H259.646V133H261.652V131ZM257.641 131H255.636V133H257.641V131ZM253.63 131H251.625V133H253.63V131ZM249.62 131H247.614V133H249.62V131ZM245.609 131H243.604V133H245.609V131ZM241.598 131H239.593V133H241.598V131ZM237.588 131H235.582V133H237.588V131ZM233.577 131H231.572V133H233.577V131ZM229.566 131H227.561V133H229.566V131ZM225.556 131H223.55V133H225.556V131ZM221.545 131H219.54V133H221.545V131ZM217.534 131H215.529V133H217.534V131ZM213.524 131H211.519V133H213.524V131ZM209.513 131H207.508V133H209.513V131ZM205.503 131H203.497V133H205.503V131ZM201.492 131H199.487V133H201.492V131ZM197.481 131H195.476V133H197.481V131ZM193.471 131H191.465V133H193.471V131ZM189.46 131H187.455V133H189.46V131ZM185.449 131H183.444V133H185.449V131ZM181.439 131H179.433V133H181.439V131ZM177.428 131H175.423V133H177.428V131ZM173.417 131H171.412V133H173.417V131ZM169.407 131H167.401V133H169.407V131ZM165.396 131H163.391V133H165.396V131ZM161.385 131H159.38V133H161.385V131ZM157.375 131H155.369V133H157.375V131ZM153.364 131H151.359V133H153.364V131ZM149.353 131H147.348V133H149.353V131ZM145.343 131H143.337V133H145.343V131ZM141.332 131H139.327V133H141.332V131ZM137.321 131H135.316V133H137.321V131ZM133.311 131H131.306V133H133.311V131ZM129.3 131H127.295V133H129.3V131ZM125.29 131H123.284V133H125.29V131ZM121.279 131H119.274V133H121.279V131ZM117.268 131H115.263V133H117.268V131ZM113.258 131H111.252V133H113.258V131ZM109.247 131H107.242V133H109.247V131ZM105.237 131H103.231V133H105.237V131ZM101.226 131H99.2206V133H101.226V131ZM97.2153 131H95.21V133H97.2153V131ZM93.2047 131H91.1993V133H93.2047V131ZM89.194 131H87.1887V133H89.194V131ZM85.1834 131H83.1781V133H85.1834V131ZM81.1728 131H79.1675V133H81.1728V131ZM77.1622 131H75.1569V133H77.1622V131ZM73.1516 131H71.1462V133H73.1516V131ZM69.1409 131H67.1356V133H69.1409V131ZM65.1303 131H63.125V133H65.1303V131ZM61.1197 131H59.1144V133H61.1197V131ZM57.1091 131H55.1038V133H57.1091V131ZM53.0984 131H51.0931V133H53.0984V131ZM49.0878 131H47.0825V133H49.0878V131ZM45.0772 131H43.0719V133H45.0772V131ZM41.0666 131H39.0613V133H41.0666V131ZM37.056 131H35.0507V133H37.056V131ZM33.0453 131H31.04V133H33.0453V131ZM29.0347 131H27.0294V133H29.0347V131ZM25.0241 131H23.0188V133H25.0241V131ZM21.0135 131H19.0082V133H21.0135V131ZM17.0029 131H16V133H17.0029V131Z" fill="#D0D5DD" mask="url(#path-14-inside-2_4939_15768)"/>
<path d="M16.7727 147.614V146.364H25.5V147.614H21.8409V158H20.4318V147.614H16.7727ZM29.7727 158.182C28.9848 158.182 28.2936 157.994 27.6989 157.619C27.108 157.244 26.6458 156.72 26.3125 156.045C25.983 155.371 25.8182 154.583 25.8182 153.682C25.8182 152.773 25.983 151.979 26.3125 151.301C26.6458 150.623 27.108 150.097 27.6989 149.722C28.2936 149.347 28.9848 149.159 29.7727 149.159C30.5606 149.159 31.25 149.347 31.8409 149.722C32.4356 150.097 32.8977 150.623 33.2273 151.301C33.5606 151.979 33.7273 152.773 33.7273 153.682C33.7273 154.583 33.5606 155.371 33.2273 156.045C32.8977 156.72 32.4356 157.244 31.8409 157.619C31.25 157.994 30.5606 158.182 29.7727 158.182ZM29.7727 156.977C30.3712 156.977 30.8636 156.824 31.25 156.517C31.6364 156.21 31.9223 155.807 32.108 155.307C32.2936 154.807 32.3864 154.265 32.3864 153.682C32.3864 153.098 32.2936 152.555 32.108 152.051C31.9223 151.547 31.6364 151.14 31.25 150.83C30.8636 150.519 30.3712 150.364 29.7727 150.364C29.1742 150.364 28.6818 150.519 28.2955 150.83C27.9091 151.14 27.6231 151.547 27.4375 152.051C27.2519 152.555 27.1591 153.098 27.1591 153.682C27.1591 154.265 27.2519 154.807 27.4375 155.307C27.6231 155.807 27.9091 156.21 28.2955 156.517C28.6818 156.824 29.1742 156.977 29.7727 156.977ZM39.5696 149.273V150.409H35.0469V149.273H39.5696ZM36.3651 147.182H37.706V155.5C37.706 155.879 37.7609 156.163 37.8707 156.352C37.9844 156.538 38.1283 156.663 38.3026 156.727C38.4806 156.788 38.6681 156.818 38.8651 156.818C39.0128 156.818 39.134 156.811 39.2287 156.795C39.3234 156.777 39.3991 156.761 39.456 156.75L39.7287 157.955C39.6378 157.989 39.5109 158.023 39.348 158.057C39.1851 158.095 38.9787 158.114 38.7287 158.114C38.3499 158.114 37.9787 158.032 37.6151 157.869C37.2552 157.706 36.956 157.458 36.7173 157.125C36.4825 156.792 36.3651 156.371 36.3651 155.864V147.182ZM44.1548 158.205C43.6018 158.205 43.0999 158.1 42.6491 157.892C42.1984 157.68 41.8404 157.375 41.5753 156.977C41.3101 156.576 41.1776 156.091 41.1776 155.523C41.1776 155.023 41.276 154.617 41.473 154.307C41.67 153.992 41.9332 153.746 42.2628 153.568C42.5923 153.39 42.956 153.258 43.3537 153.17C43.7552 153.08 44.1586 153.008 44.5639 152.955C45.0942 152.886 45.5241 152.835 45.8537 152.801C46.187 152.763 46.4295 152.701 46.581 152.614C46.7363 152.527 46.8139 152.375 46.8139 152.159V152.114C46.8139 151.553 46.6605 151.117 46.3537 150.807C46.0507 150.496 45.5904 150.341 44.973 150.341C44.3329 150.341 43.831 150.481 43.4673 150.761C43.1037 151.042 42.848 151.341 42.7003 151.659L41.4276 151.205C41.6548 150.674 41.9579 150.261 42.3366 149.966C42.7192 149.667 43.1359 149.458 43.5866 149.341C44.0412 149.22 44.4882 149.159 44.9276 149.159C45.2079 149.159 45.5298 149.193 45.8935 149.261C46.2609 149.326 46.6151 149.46 46.956 149.665C47.3007 149.869 47.5866 150.178 47.8139 150.591C48.0412 151.004 48.1548 151.557 48.1548 152.25V158H46.8139V156.818H46.7457C46.6548 157.008 46.5033 157.21 46.2912 157.426C46.0791 157.642 45.7969 157.826 45.4446 157.977C45.0923 158.129 44.6624 158.205 44.1548 158.205ZM44.3594 157C44.8897 157 45.3366 156.896 45.7003 156.688C46.0677 156.479 46.3442 156.21 46.5298 155.881C46.7192 155.551 46.8139 155.205 46.8139 154.841V153.614C46.7571 153.682 46.6321 153.744 46.4389 153.801C46.2495 153.854 46.0298 153.902 45.7798 153.943C45.5336 153.981 45.2931 154.015 45.0582 154.045C44.8272 154.072 44.6397 154.095 44.4957 154.114C44.1473 154.159 43.8215 154.233 43.5185 154.335C43.2192 154.434 42.9768 154.583 42.7912 154.784C42.6094 154.981 42.5185 155.25 42.5185 155.591C42.5185 156.057 42.6908 156.409 43.0355 156.648C43.384 156.883 43.8253 157 44.3594 157ZM51.9432 146.364V158H50.6023V146.364H51.9432Z" fill="#344054"/>
<path d="M297.366 152.69V153.969H284.326V152.69H297.366ZM297.366 155.452V156.73H284.326V155.452H297.366ZM296.234 147.909V161H294.125L287.95 152.083H287.848V161H285.47V147.909H287.599L293.754 156.832H293.876V147.909H296.234Z" fill="#344054"/>
<path d="M300.927 158.571V156.685L306.482 147.909H308.054V150.594H307.095L303.356 156.519V156.621H311.109V158.571H300.927ZM307.172 161V157.996L307.197 157.152V147.909H309.435V161H307.172ZM313.152 161V159.287L317.696 154.832C318.131 154.393 318.493 154.003 318.783 153.662C319.073 153.321 319.29 152.991 319.435 152.671C319.58 152.352 319.652 152.011 319.652 151.648C319.652 151.235 319.559 150.881 319.371 150.587C319.184 150.289 318.926 150.059 318.598 149.897C318.27 149.735 317.897 149.654 317.479 149.654C317.049 149.654 316.672 149.744 316.348 149.923C316.024 150.097 315.772 150.347 315.593 150.67C315.419 150.994 315.331 151.38 315.331 151.827H313.075C313.075 150.996 313.265 150.274 313.644 149.661C314.023 149.047 314.545 148.572 315.21 148.235C315.879 147.898 316.646 147.73 317.511 147.73C318.389 147.73 319.16 147.894 319.825 148.222C320.49 148.55 321.005 149 321.372 149.571C321.743 150.142 321.928 150.794 321.928 151.527C321.928 152.017 321.834 152.499 321.647 152.972C321.459 153.445 321.129 153.969 320.656 154.544C320.187 155.119 319.529 155.816 318.681 156.634L316.424 158.929V159.018H322.126V161H313.152ZM327.074 159.21L326.99 159.913C326.931 160.45 326.824 160.996 326.671 161.55C326.522 162.108 326.364 162.621 326.198 163.09C326.032 163.559 325.897 163.928 325.795 164.196H324.235C324.295 163.936 324.376 163.582 324.478 163.135C324.585 162.688 324.687 162.185 324.785 161.626C324.883 161.068 324.949 160.501 324.983 159.926L325.028 159.21H327.074ZM333.969 161.249C332.916 161.249 332.013 160.983 331.259 160.45C330.509 159.913 329.931 159.14 329.526 158.13C329.126 157.116 328.926 155.895 328.926 154.467C328.93 153.04 329.132 151.825 329.533 150.824C329.938 149.818 330.515 149.051 331.265 148.523C332.019 147.994 332.921 147.73 333.969 147.73C335.017 147.73 335.919 147.994 336.673 148.523C337.427 149.051 338.004 149.818 338.405 150.824C338.81 151.83 339.012 153.044 339.012 154.467C339.012 155.899 338.81 157.122 338.405 158.136C338.004 159.146 337.427 159.918 336.673 160.45C335.923 160.983 335.021 161.249 333.969 161.249ZM333.969 159.249C334.787 159.249 335.433 158.846 335.906 158.04C336.383 157.231 336.622 156.04 336.622 154.467C336.622 153.428 336.513 152.554 336.296 151.847C336.078 151.139 335.771 150.607 335.375 150.249C334.979 149.886 334.51 149.705 333.969 149.705C333.155 149.705 332.512 150.11 332.039 150.92C331.566 151.725 331.327 152.908 331.323 154.467C331.318 155.511 331.423 156.389 331.636 157.101C331.853 157.812 332.16 158.349 332.556 158.712C332.953 159.07 333.423 159.249 333.969 159.249ZM345.975 161.249C344.922 161.249 344.019 160.983 343.265 160.45C342.515 159.913 341.937 159.14 341.532 158.13C341.132 157.116 340.931 155.895 340.931 154.467C340.936 153.04 341.138 151.825 341.539 150.824C341.944 149.818 342.521 149.051 343.271 148.523C344.025 147.994 344.926 147.73 345.975 147.73C347.023 147.73 347.924 147.994 348.679 148.523C349.433 149.051 350.01 149.818 350.411 150.824C350.816 151.83 351.018 153.044 351.018 154.467C351.018 155.899 350.816 157.122 350.411 158.136C350.01 159.146 349.433 159.918 348.679 160.45C347.929 160.983 347.027 161.249 345.975 161.249ZM345.975 159.249C346.793 159.249 347.439 158.846 347.912 158.04C348.389 157.231 348.627 156.04 348.627 154.467C348.627 153.428 348.519 152.554 348.301 151.847C348.084 151.139 347.777 150.607 347.381 150.249C346.985 149.886 346.516 149.705 345.975 149.705C345.161 149.705 344.517 150.11 344.044 150.92C343.571 151.725 343.333 152.908 343.328 154.467C343.324 155.511 343.429 156.389 343.642 157.101C343.859 157.812 344.166 158.349 344.562 158.712C344.958 159.07 345.429 159.249 345.975 159.249ZM357.981 161.249C356.928 161.249 356.025 160.983 355.27 160.45C354.52 159.913 353.943 159.14 353.538 158.13C353.138 157.116 352.937 155.895 352.937 154.467C352.942 153.04 353.144 151.825 353.545 150.824C353.949 149.818 354.527 149.051 355.277 148.523C356.031 147.994 356.932 147.73 357.981 147.73C359.029 147.73 359.93 147.994 360.684 148.523C361.439 149.051 362.016 149.818 362.417 150.824C362.822 151.83 363.024 153.044 363.024 154.467C363.024 155.899 362.822 157.122 362.417 158.136C362.016 159.146 361.439 159.918 360.684 160.45C359.934 160.983 359.033 161.249 357.981 161.249ZM357.981 159.249C358.799 159.249 359.444 158.846 359.917 158.04C360.395 157.231 360.633 156.04 360.633 154.467C360.633 153.428 360.525 152.554 360.307 151.847C360.09 151.139 359.783 150.607 359.387 150.249C358.991 149.886 358.522 149.705 357.981 149.705C357.167 149.705 356.523 150.11 356.05 150.92C355.577 151.725 355.339 152.908 355.334 154.467C355.33 155.511 355.434 156.389 355.648 157.101C355.865 157.812 356.172 158.349 356.568 158.712C356.964 159.07 357.435 159.249 357.981 159.249ZM366.089 161.141C365.701 161.141 365.369 161.004 365.092 160.732C364.815 160.459 364.678 160.126 364.683 159.734C364.678 159.351 364.815 159.023 365.092 158.75C365.369 158.477 365.701 158.341 366.089 158.341C366.464 158.341 366.79 158.477 367.067 158.75C367.348 159.023 367.491 159.351 367.495 159.734C367.491 159.994 367.423 160.231 367.291 160.444C367.163 160.657 366.992 160.827 366.779 160.955C366.57 161.079 366.34 161.141 366.089 161.141ZM374.188 161.249C373.135 161.249 372.232 160.983 371.477 160.45C370.727 159.913 370.15 159.14 369.745 158.13C369.345 157.116 369.144 155.895 369.144 154.467C369.149 153.04 369.351 151.825 369.752 150.824C370.156 149.818 370.734 149.051 371.484 148.523C372.238 147.994 373.139 147.73 374.188 147.73C375.236 147.73 376.137 147.994 376.892 148.523C377.646 149.051 378.223 149.818 378.624 150.824C379.029 151.83 379.231 153.044 379.231 154.467C379.231 155.899 379.029 157.122 378.624 158.136C378.223 159.146 377.646 159.918 376.892 160.45C376.142 160.983 375.24 161.249 374.188 161.249ZM374.188 159.249C375.006 159.249 375.651 158.846 376.124 158.04C376.602 157.231 376.84 156.04 376.84 154.467C376.84 153.428 376.732 152.554 376.514 151.847C376.297 151.139 375.99 150.607 375.594 150.249C375.198 149.886 374.729 149.705 374.188 149.705C373.374 149.705 372.73 150.11 372.257 150.92C371.784 151.725 371.546 152.908 371.541 154.467C371.537 155.511 371.642 156.389 371.855 157.101C372.072 157.812 372.379 158.349 372.775 158.712C373.171 159.07 373.642 159.249 374.188 159.249ZM386.194 161.249C385.141 161.249 384.238 160.983 383.483 160.45C382.733 159.913 382.156 159.14 381.751 158.13C381.35 157.116 381.15 155.895 381.15 154.467C381.154 153.04 381.357 151.825 381.757 150.824C382.162 149.818 382.74 149.051 383.49 148.523C384.244 147.994 385.145 147.73 386.194 147.73C387.242 147.73 388.143 147.994 388.897 148.523C389.652 149.051 390.229 149.818 390.63 150.824C391.034 151.83 391.237 153.044 391.237 154.467C391.237 155.899 391.034 157.122 390.63 158.136C390.229 159.146 389.652 159.918 388.897 160.45C388.147 160.983 387.246 161.249 386.194 161.249ZM386.194 159.249C387.012 159.249 387.657 158.846 388.13 158.04C388.608 157.231 388.846 156.04 388.846 154.467C388.846 153.428 388.738 152.554 388.52 151.847C388.303 151.139 387.996 150.607 387.6 150.249C387.203 149.886 386.735 149.705 386.194 149.705C385.38 149.705 384.736 150.11 384.263 150.92C383.79 151.725 383.551 152.908 383.547 154.467C383.543 155.511 383.647 156.389 383.86 157.101C384.078 157.812 384.385 158.349 384.781 158.712C385.177 159.07 385.648 159.249 386.194 159.249Z" fill="#344054"/>
<g filter="url(#filter0_d_4939_15768)">
<path d="M24 208C24 203.582 27.5817 200 32 200H377C381.418 200 385 203.582 385 208V240C385 244.418 381.418 248 377 248H32C27.5817 248 24 244.418 24 240V208Z" fill="#298DBE"/>
<path d="M32 200.5H377C381.142 200.5 384.5 203.858 384.5 208V240C384.5 244.142 381.142 247.5 377 247.5H32C27.8579 247.5 24.5 244.142 24.5 240V208C24.5 203.858 27.8579 200.5 32 200.5Z" stroke="#298DBE"/>
<path d="M141.108 222.29H138.983C138.922 221.941 138.811 221.633 138.648 221.364C138.485 221.091 138.282 220.86 138.04 220.67C137.797 220.481 137.521 220.339 137.21 220.244C136.903 220.146 136.572 220.097 136.216 220.097C135.583 220.097 135.023 220.256 134.534 220.574C134.045 220.888 133.663 221.35 133.386 221.96C133.11 222.566 132.972 223.307 132.972 224.182C132.972 225.072 133.11 225.822 133.386 226.432C133.667 227.038 134.049 227.496 134.534 227.807C135.023 228.114 135.581 228.267 136.21 228.267C136.559 228.267 136.884 228.222 137.188 228.131C137.494 228.036 137.769 227.898 138.011 227.716C138.258 227.534 138.464 227.311 138.631 227.045C138.801 226.78 138.919 226.477 138.983 226.136L141.108 226.148C141.028 226.701 140.856 227.22 140.591 227.705C140.33 228.189 139.987 228.617 139.562 228.989C139.138 229.356 138.642 229.644 138.074 229.852C137.506 230.057 136.875 230.159 136.182 230.159C135.159 230.159 134.246 229.922 133.443 229.449C132.64 228.975 132.008 228.292 131.545 227.398C131.083 226.504 130.852 225.432 130.852 224.182C130.852 222.928 131.085 221.856 131.551 220.966C132.017 220.072 132.652 219.388 133.455 218.915C134.258 218.441 135.167 218.205 136.182 218.205C136.83 218.205 137.432 218.295 137.989 218.477C138.545 218.659 139.042 218.926 139.477 219.278C139.913 219.627 140.271 220.055 140.551 220.562C140.835 221.066 141.021 221.642 141.108 222.29ZM145.004 224.886V230H142.947V218.364H144.959V222.756H145.061C145.266 222.263 145.582 221.875 146.01 221.591C146.442 221.303 146.991 221.159 147.658 221.159C148.264 221.159 148.792 221.286 149.243 221.54C149.694 221.794 150.042 222.165 150.288 222.653C150.538 223.142 150.663 223.739 150.663 224.443V230H148.607V224.761C148.607 224.174 148.455 223.718 148.152 223.392C147.853 223.062 147.432 222.898 146.891 222.898C146.527 222.898 146.201 222.977 145.913 223.136C145.629 223.292 145.406 223.517 145.243 223.812C145.084 224.108 145.004 224.466 145.004 224.886ZM156.624 230.17C155.749 230.17 154.993 229.989 154.357 229.625C153.724 229.258 153.237 228.739 152.896 228.068C152.555 227.394 152.385 226.6 152.385 225.688C152.385 224.79 152.555 224.002 152.896 223.324C153.241 222.642 153.722 222.112 154.339 221.733C154.957 221.35 155.682 221.159 156.516 221.159C157.054 221.159 157.561 221.246 158.038 221.42C158.519 221.591 158.944 221.856 159.311 222.216C159.682 222.576 159.974 223.034 160.186 223.591C160.398 224.144 160.504 224.803 160.504 225.568V226.199H153.351V224.812H158.533C158.529 224.419 158.444 224.068 158.277 223.761C158.11 223.451 157.877 223.206 157.578 223.028C157.283 222.85 156.938 222.761 156.544 222.761C156.124 222.761 155.754 222.864 155.436 223.068C155.118 223.269 154.87 223.534 154.692 223.864C154.518 224.189 154.429 224.547 154.425 224.938V226.148C154.425 226.655 154.518 227.091 154.703 227.455C154.889 227.814 155.148 228.091 155.482 228.284C155.815 228.473 156.205 228.568 156.652 228.568C156.951 228.568 157.222 228.527 157.464 228.443C157.707 228.356 157.917 228.229 158.095 228.062C158.273 227.896 158.408 227.689 158.499 227.443L160.419 227.659C160.298 228.167 160.067 228.61 159.726 228.989C159.389 229.364 158.957 229.655 158.43 229.864C157.904 230.068 157.302 230.17 156.624 230.17ZM166.051 230.17C165.18 230.17 164.432 229.979 163.807 229.597C163.186 229.214 162.706 228.686 162.369 228.011C162.036 227.333 161.869 226.553 161.869 225.67C161.869 224.784 162.04 224.002 162.381 223.324C162.722 222.642 163.203 222.112 163.824 221.733C164.449 221.35 165.188 221.159 166.04 221.159C166.748 221.159 167.375 221.29 167.92 221.551C168.47 221.809 168.907 222.174 169.233 222.648C169.559 223.117 169.744 223.667 169.79 224.295H167.824C167.744 223.875 167.555 223.525 167.256 223.244C166.96 222.96 166.564 222.818 166.068 222.818C165.648 222.818 165.278 222.932 164.96 223.159C164.642 223.383 164.394 223.705 164.216 224.125C164.042 224.545 163.955 225.049 163.955 225.636C163.955 226.231 164.042 226.742 164.216 227.17C164.39 227.595 164.634 227.922 164.949 228.153C165.267 228.381 165.64 228.494 166.068 228.494C166.371 228.494 166.642 228.437 166.881 228.324C167.123 228.206 167.326 228.038 167.489 227.818C167.652 227.598 167.763 227.331 167.824 227.017H169.79C169.741 227.634 169.559 228.182 169.244 228.659C168.93 229.133 168.502 229.504 167.96 229.773C167.419 230.038 166.782 230.17 166.051 230.17ZM173.354 227.261L173.348 224.778H173.678L176.814 221.273H179.217L175.359 225.568H174.933L173.354 227.261ZM171.479 230V218.364H173.536V230H171.479ZM176.956 230L174.115 226.028L175.501 224.58L179.416 230H176.956ZM184.036 230.17C183.183 230.17 182.445 229.983 181.82 229.608C181.195 229.233 180.71 228.708 180.365 228.034C180.024 227.36 179.854 226.572 179.854 225.67C179.854 224.769 180.024 223.979 180.365 223.301C180.71 222.623 181.195 222.097 181.82 221.722C182.445 221.347 183.183 221.159 184.036 221.159C184.888 221.159 185.626 221.347 186.251 221.722C186.876 222.097 187.359 222.623 187.7 223.301C188.045 223.979 188.217 224.769 188.217 225.67C188.217 226.572 188.045 227.36 187.7 228.034C187.359 228.708 186.876 229.233 186.251 229.608C185.626 229.983 184.888 230.17 184.036 230.17ZM184.047 228.523C184.509 228.523 184.895 228.396 185.206 228.142C185.517 227.884 185.748 227.54 185.899 227.108C186.054 226.676 186.132 226.195 186.132 225.665C186.132 225.131 186.054 224.648 185.899 224.216C185.748 223.78 185.517 223.434 185.206 223.176C184.895 222.919 184.509 222.79 184.047 222.79C183.573 222.79 183.179 222.919 182.865 223.176C182.554 223.434 182.321 223.78 182.166 224.216C182.015 224.648 181.939 225.131 181.939 225.665C181.939 226.195 182.015 226.676 182.166 227.108C182.321 227.54 182.554 227.884 182.865 228.142C183.179 228.396 183.573 228.523 184.047 228.523ZM195.526 226.33V221.273H197.582V230H195.588V228.449H195.497C195.3 228.937 194.976 229.337 194.526 229.648C194.079 229.958 193.527 230.114 192.872 230.114C192.3 230.114 191.795 229.987 191.355 229.733C190.92 229.475 190.579 229.102 190.332 228.614C190.086 228.121 189.963 227.527 189.963 226.83V221.273H192.02V226.511C192.02 227.064 192.171 227.504 192.474 227.83C192.777 228.155 193.175 228.318 193.668 228.318C193.971 228.318 194.264 228.244 194.548 228.097C194.832 227.949 195.065 227.729 195.247 227.438C195.433 227.142 195.526 226.773 195.526 226.33ZM204.055 221.273V222.864H199.038V221.273H204.055ZM200.277 219.182H202.334V227.375C202.334 227.652 202.375 227.864 202.459 228.011C202.546 228.155 202.66 228.254 202.8 228.307C202.94 228.36 203.095 228.386 203.266 228.386C203.394 228.386 203.512 228.377 203.618 228.358C203.728 228.339 203.811 228.322 203.868 228.307L204.214 229.915C204.105 229.953 203.947 229.994 203.743 230.04C203.542 230.085 203.296 230.112 203.004 230.119C202.489 230.134 202.025 230.057 201.612 229.886C201.199 229.712 200.872 229.443 200.629 229.08C200.391 228.716 200.273 228.261 200.277 227.716V219.182ZM210.256 224.182C210.256 222.761 210.443 221.456 210.818 220.267C211.197 219.074 211.759 217.972 212.506 216.96H214.443C214.155 217.335 213.886 217.795 213.636 218.341C213.386 218.883 213.169 219.477 212.983 220.125C212.801 220.769 212.657 221.437 212.551 222.131C212.449 222.824 212.398 223.508 212.398 224.182C212.398 225.08 212.487 225.989 212.665 226.909C212.847 227.83 213.091 228.684 213.398 229.472C213.708 230.256 214.057 230.898 214.443 231.398H212.506C211.759 230.386 211.197 229.286 210.818 228.097C210.443 226.903 210.256 225.598 210.256 224.182ZM220.28 230.159C219.723 230.155 219.179 230.059 218.649 229.869C218.119 229.676 217.642 229.364 217.217 228.932C216.793 228.496 216.456 227.919 216.206 227.199C215.956 226.475 215.833 225.58 215.837 224.511C215.837 223.515 215.943 222.627 216.155 221.847C216.367 221.066 216.672 220.407 217.07 219.869C217.467 219.328 217.946 218.915 218.507 218.631C219.071 218.347 219.702 218.205 220.399 218.205C221.13 218.205 221.778 218.348 222.342 218.636C222.911 218.924 223.369 219.318 223.717 219.818C224.066 220.314 224.282 220.875 224.365 221.5H222.291C222.185 221.053 221.967 220.697 221.638 220.432C221.312 220.163 220.899 220.028 220.399 220.028C219.592 220.028 218.971 220.379 218.536 221.08C218.104 221.78 217.886 222.742 217.882 223.966H217.962C218.147 223.633 218.388 223.347 218.683 223.108C218.979 222.869 219.312 222.686 219.683 222.557C220.058 222.424 220.454 222.358 220.871 222.358C221.553 222.358 222.164 222.521 222.706 222.847C223.251 223.172 223.683 223.621 224.001 224.193C224.32 224.761 224.477 225.413 224.473 226.148C224.477 226.913 224.303 227.6 223.95 228.21C223.598 228.816 223.107 229.294 222.479 229.642C221.85 229.991 221.117 230.163 220.28 230.159ZM220.268 228.455C220.681 228.455 221.051 228.354 221.376 228.153C221.702 227.953 221.96 227.682 222.149 227.341C222.339 227 222.431 226.617 222.428 226.193C222.431 225.777 222.34 225.4 222.155 225.062C221.973 224.725 221.721 224.458 221.399 224.261C221.077 224.064 220.71 223.966 220.297 223.966C219.99 223.966 219.704 224.025 219.439 224.142C219.174 224.259 218.943 224.422 218.746 224.631C218.549 224.835 218.393 225.074 218.28 225.347C218.17 225.616 218.113 225.903 218.109 226.21C218.113 226.616 218.208 226.989 218.393 227.33C218.579 227.67 218.835 227.943 219.161 228.148C219.486 228.352 219.856 228.455 220.268 228.455ZM230.385 230V221.273H232.442V230H230.385ZM231.419 220.034C231.093 220.034 230.813 219.926 230.578 219.71C230.343 219.491 230.226 219.227 230.226 218.92C230.226 218.61 230.343 218.347 230.578 218.131C230.813 217.911 231.093 217.801 231.419 217.801C231.749 217.801 232.029 217.911 232.26 218.131C232.495 218.347 232.612 218.61 232.612 218.92C232.612 219.227 232.495 219.491 232.26 219.71C232.029 219.926 231.749 220.034 231.419 220.034ZM238.915 221.273V222.864H233.898V221.273H238.915ZM235.136 219.182H237.193V227.375C237.193 227.652 237.235 227.864 237.318 228.011C237.405 228.155 237.519 228.254 237.659 228.307C237.799 228.36 237.955 228.386 238.125 228.386C238.254 228.386 238.371 228.377 238.477 228.358C238.587 228.339 238.67 228.322 238.727 228.307L239.074 229.915C238.964 229.953 238.807 229.994 238.602 230.04C238.402 230.085 238.155 230.112 237.864 230.119C237.348 230.134 236.884 230.057 236.472 229.886C236.059 229.712 235.731 229.443 235.489 229.08C235.25 228.716 235.133 228.261 235.136 227.716V219.182ZM244.405 230.17C243.53 230.17 242.774 229.989 242.138 229.625C241.505 229.258 241.018 228.739 240.678 228.068C240.337 227.394 240.166 226.6 240.166 225.688C240.166 224.79 240.337 224.002 240.678 223.324C241.022 222.642 241.503 222.112 242.121 221.733C242.738 221.35 243.464 221.159 244.297 221.159C244.835 221.159 245.342 221.246 245.82 221.42C246.301 221.591 246.725 221.856 247.092 222.216C247.464 222.576 247.755 223.034 247.967 223.591C248.179 224.144 248.286 224.803 248.286 225.568V226.199H241.132V224.812H246.314C246.31 224.419 246.225 224.068 246.058 223.761C245.892 223.451 245.659 223.206 245.359 223.028C245.064 222.85 244.719 222.761 244.325 222.761C243.905 222.761 243.536 222.864 243.217 223.068C242.899 223.269 242.651 223.534 242.473 223.864C242.299 224.189 242.21 224.547 242.206 224.938V226.148C242.206 226.655 242.299 227.091 242.484 227.455C242.67 227.814 242.929 228.091 243.263 228.284C243.596 228.473 243.986 228.568 244.433 228.568C244.732 228.568 245.003 228.527 245.246 228.443C245.488 228.356 245.698 228.229 245.876 228.062C246.054 227.896 246.189 227.689 246.28 227.443L248.2 227.659C248.079 228.167 247.848 228.61 247.507 228.989C247.17 229.364 246.738 229.655 246.212 229.864C245.685 230.068 245.083 230.17 244.405 230.17ZM250.026 230V221.273H251.991V222.756H252.094C252.276 222.256 252.577 221.866 252.997 221.585C253.418 221.301 253.92 221.159 254.503 221.159C255.094 221.159 255.592 221.303 255.997 221.591C256.406 221.875 256.694 222.263 256.861 222.756H256.952C257.145 222.271 257.471 221.884 257.929 221.597C258.391 221.305 258.938 221.159 259.571 221.159C260.374 221.159 261.029 221.413 261.537 221.92C262.045 222.428 262.298 223.169 262.298 224.142V230H260.236V224.46C260.236 223.919 260.092 223.523 259.804 223.273C259.516 223.019 259.164 222.892 258.747 222.892C258.251 222.892 257.863 223.047 257.582 223.358C257.306 223.665 257.168 224.064 257.168 224.557V230H255.151V224.375C255.151 223.924 255.014 223.564 254.741 223.295C254.473 223.027 254.12 222.892 253.685 222.892C253.389 222.892 253.12 222.968 252.878 223.119C252.635 223.267 252.442 223.477 252.298 223.75C252.154 224.019 252.082 224.333 252.082 224.693V230H250.026ZM271.283 223.58L269.408 223.784C269.355 223.595 269.262 223.417 269.129 223.25C269 223.083 268.826 222.949 268.607 222.847C268.387 222.744 268.118 222.693 267.8 222.693C267.372 222.693 267.012 222.786 266.72 222.972C266.432 223.157 266.29 223.398 266.294 223.693C266.29 223.947 266.383 224.153 266.572 224.312C266.766 224.472 267.084 224.602 267.527 224.705L269.016 225.023C269.841 225.201 270.455 225.483 270.857 225.869C271.262 226.256 271.466 226.761 271.47 227.386C271.466 227.936 271.305 228.42 270.987 228.841C270.673 229.258 270.235 229.583 269.675 229.818C269.114 230.053 268.47 230.17 267.743 230.17C266.675 230.17 265.815 229.947 265.163 229.5C264.512 229.049 264.124 228.422 263.999 227.619L266.004 227.426C266.095 227.82 266.288 228.117 266.584 228.318C266.879 228.519 267.264 228.619 267.737 228.619C268.226 228.619 268.618 228.519 268.913 228.318C269.213 228.117 269.362 227.869 269.362 227.574C269.362 227.324 269.266 227.117 269.072 226.955C268.883 226.792 268.588 226.667 268.186 226.58L266.697 226.267C265.86 226.093 265.241 225.799 264.839 225.386C264.438 224.97 264.239 224.443 264.243 223.807C264.239 223.269 264.385 222.803 264.68 222.409C264.98 222.011 265.394 221.705 265.925 221.489C266.459 221.269 267.074 221.159 267.771 221.159C268.794 221.159 269.599 221.377 270.186 221.812C270.777 222.248 271.143 222.837 271.283 223.58ZM276.837 225.256C276.837 226.672 276.647 227.977 276.268 229.17C275.893 230.36 275.333 231.46 274.587 232.472H272.649C272.941 232.097 273.21 231.638 273.456 231.097C273.706 230.555 273.922 229.96 274.104 229.312C274.289 228.665 274.433 227.994 274.536 227.301C274.642 226.608 274.695 225.926 274.695 225.256C274.695 224.358 274.604 223.449 274.422 222.528C274.244 221.608 274 220.754 273.689 219.966C273.382 219.178 273.036 218.534 272.649 218.034H274.587C275.333 219.045 275.893 220.148 276.268 221.341C276.647 222.53 276.837 223.835 276.837 225.256Z" fill="white"/>
</g>
<defs>
<filter id="filter0_d_4939_15768" x="22" y="199" width="365" height="52" filterUnits="userSpaceOnUse" color-interpolation-filters="sRGB">
<feFlood flood-opacity="0" result="BackgroundImageFix"/>
<feColorMatrix in="SourceAlpha" type="matrix" values="0 0 0 0 0 0 0 0 0 0 0 0 0 0 0 0 0 0 127 0" result="hardAlpha"/>
<feOffset dy="1"/>
<feGaussianBlur stdDeviation="1"/>
<feColorMatrix type="matrix" values="0 0 0 0 0.0627451 0 0 0 0 0.0941176 0 0 0 0 0.156863 0 0 0 0.05 0"/>
<feBlend mode="normal" in2="BackgroundImageFix" result="effect1_dropShadow_4939_15768"/>
<feBlend mode="normal" in="SourceGraphic" in2="effect1_dropShadow_4939_15768" result="shape"/>
</filter>
<clipPath id="clip0_4939_15768">
<path d="M16 70C16 64.4772 20.4772 60 26 60H125C130.523 60 135 64.4772 135 70V70C135 75.5228 130.523 80 125 80H26C20.4772 80 16 75.5228 16 70V70Z" fill="white"/>
</clipPath>
<clipPath id="clip1_4939_15768">
<path d="M16 114C16 108.477 20.4772 104 26 104H112C117.523 104 122 108.477 122 114V114C122 119.523 117.523 124 112 124H26C20.4772 124 16 119.523 16 114V114Z" fill="white"/>
</clipPath>
</defs>
</svg>
