<svg width="232" height="250" viewBox="0 0 232 250" fill="none" xmlns="http://www.w3.org/2000/svg">
<rect width="232" height="250" fill="white"/>
<g style="mix-blend-mode:multiply">
<rect x="24" y="154" width="176" height="30" rx="15" fill="#FFFAEB"/>
<rect x="28.5" y="158.5" width="62" height="21" rx="10.5" fill="white"/>
<rect x="28.5" y="158.5" width="62" height="21" rx="10.5" stroke="#FEDF89"/>
<path d="M37.0154 173V164.273H40.1262C40.8052 164.273 41.3677 164.396 41.8137 164.643C42.2598 164.891 42.5936 165.229 42.8152 165.658C43.0368 166.084 43.1476 166.564 43.1476 167.098C43.1476 167.635 43.0353 168.118 42.8109 168.547C42.5893 168.973 42.2541 169.311 41.8052 169.561C41.3592 169.808 40.7981 169.932 40.122 169.932H37.9828V168.815H40.0027C40.4316 168.815 40.7797 168.741 41.0467 168.594C41.3137 168.443 41.5098 168.239 41.6348 167.98C41.7598 167.722 41.8223 167.428 41.8223 167.098C41.8223 166.768 41.7598 166.476 41.6348 166.22C41.5098 165.964 41.3123 165.764 41.0424 165.619C40.7754 165.474 40.4231 165.402 39.9856 165.402H38.3322V173H37.0154ZM47.3279 173.132C46.6831 173.132 46.1277 172.994 45.6618 172.719C45.1987 172.44 44.8407 172.05 44.5879 171.547C44.3379 171.041 44.2129 170.449 44.2129 169.77C44.2129 169.099 44.3379 168.509 44.5879 167.997C44.8407 167.486 45.193 167.087 45.6447 166.8C46.0993 166.513 46.6305 166.369 47.2385 166.369C47.6078 166.369 47.9657 166.43 48.3123 166.553C48.6589 166.675 48.97 166.866 49.2456 167.128C49.5211 167.389 49.7385 167.729 49.8976 168.146C50.0566 168.561 50.1362 169.065 50.1362 169.659V170.111H44.9331V169.156H48.8876C48.8876 168.821 48.8194 168.524 48.6831 168.266C48.5467 168.004 48.3549 167.798 48.1078 167.648C47.8635 167.497 47.5765 167.422 47.247 167.422C46.889 167.422 46.5765 167.51 46.3095 167.686C46.0453 167.859 45.8407 168.087 45.6958 168.368C45.5538 168.646 45.4828 168.949 45.4828 169.276V170.021C45.4828 170.459 45.5595 170.831 45.7129 171.138C45.8691 171.445 46.0865 171.679 46.3649 171.841C46.6433 172 46.9686 172.08 47.3407 172.08C47.5822 172.08 47.8024 172.045 48.0012 171.977C48.2001 171.906 48.372 171.801 48.5169 171.662C48.6618 171.523 48.7725 171.351 48.8493 171.146L50.0552 171.364C49.9586 171.719 49.7853 172.03 49.5353 172.297C49.2882 172.561 48.9771 172.767 48.6021 172.915C48.2299 173.06 47.8052 173.132 47.3279 173.132ZM52.824 169.114V173H51.5499V166.455H52.7729V167.52H52.8539C53.0044 167.173 53.2402 166.895 53.5613 166.685C53.8851 166.474 54.2928 166.369 54.7843 166.369C55.2303 166.369 55.6209 166.463 55.9561 166.651C56.2914 166.835 56.5513 167.111 56.736 167.477C56.9206 167.844 57.013 168.297 57.013 168.837V173H55.7388V168.99C55.7388 168.516 55.6152 168.145 55.3681 167.878C55.1209 167.608 54.7814 167.473 54.3496 167.473C54.0542 167.473 53.7914 167.537 53.5613 167.665C53.334 167.793 53.1536 167.98 53.0201 168.227C52.8894 168.472 52.824 168.767 52.824 169.114ZM61.1721 173.128C60.6436 173.128 60.1721 172.993 59.7573 172.723C59.3453 172.45 59.0215 172.062 58.7857 171.56C58.5527 171.054 58.4363 170.447 58.4363 169.74C58.4363 169.033 58.5542 168.428 58.79 167.925C59.0286 167.422 59.3553 167.037 59.7701 166.77C60.1848 166.503 60.655 166.369 61.1806 166.369C61.5868 166.369 61.9135 166.438 62.1607 166.574C62.4107 166.707 62.6039 166.864 62.7402 167.043C62.8794 167.222 62.9874 167.379 63.0641 167.516H63.1408V164.273H64.415V173H63.1706V171.982H63.0641C62.9874 172.121 62.8766 172.28 62.7317 172.459C62.5897 172.638 62.3936 172.794 62.1436 172.928C61.8936 173.061 61.5698 173.128 61.1721 173.128ZM61.4533 172.041C61.8198 172.041 62.1294 171.945 62.3823 171.751C62.638 171.555 62.8311 171.284 62.9618 170.938C63.0953 170.591 63.1621 170.187 63.1621 169.727C63.1621 169.273 63.0968 168.875 62.9661 168.534C62.8354 168.193 62.6436 167.928 62.3908 167.737C62.138 167.547 61.8255 167.452 61.4533 167.452C61.0698 167.452 60.7502 167.551 60.4945 167.75C60.2388 167.949 60.0456 168.22 59.915 168.564C59.7871 168.908 59.7232 169.295 59.7232 169.727C59.7232 170.165 59.7885 170.558 59.9192 170.908C60.0499 171.257 60.2431 171.534 60.4988 171.739C60.7573 171.94 61.0755 172.041 61.4533 172.041ZM66.2335 173V166.455H67.5076V173H66.2335ZM66.877 165.445C66.6554 165.445 66.465 165.371 66.3059 165.223C66.1497 165.072 66.0716 164.893 66.0716 164.686C66.0716 164.476 66.1497 164.297 66.3059 164.149C66.465 163.999 66.6554 163.923 66.877 163.923C67.0985 163.923 67.2875 163.999 67.4437 164.149C67.6028 164.297 67.6824 164.476 67.6824 164.686C67.6824 164.893 67.6028 165.072 67.4437 165.223C67.2875 165.371 67.0985 165.445 66.877 165.445ZM70.4959 169.114V173H69.2218V166.455H70.4448V167.52H70.5257C70.6763 167.173 70.9121 166.895 71.2331 166.685C71.557 166.474 71.9647 166.369 72.4561 166.369C72.9022 166.369 73.2928 166.463 73.628 166.651C73.9632 166.835 74.2232 167.111 74.4078 167.477C74.5925 167.844 74.6848 168.297 74.6848 168.837V173H73.4107V168.99C73.4107 168.516 73.2871 168.145 73.04 167.878C72.7928 167.608 72.4533 167.473 72.0215 167.473C71.726 167.473 71.4632 167.537 71.2331 167.665C71.0059 167.793 70.8255 167.98 70.6919 168.227C70.5613 168.472 70.4959 168.767 70.4959 169.114ZM79.138 175.591C78.6181 175.591 78.1706 175.523 77.7956 175.386C77.4235 175.25 77.1195 175.07 76.8837 174.845C76.6479 174.621 76.4718 174.375 76.3553 174.108L77.4505 173.656C77.5272 173.781 77.6294 173.913 77.7573 174.053C77.888 174.195 78.0641 174.315 78.2857 174.415C78.5101 174.514 78.7985 174.564 79.1507 174.564C79.6337 174.564 80.0328 174.446 80.3482 174.21C80.6635 173.977 80.8212 173.605 80.8212 173.094V171.807H80.7402C80.6635 171.946 80.5527 172.101 80.4078 172.271C80.2658 172.442 80.0698 172.589 79.8198 172.714C79.5698 172.839 79.2445 172.902 78.8439 172.902C78.3269 172.902 77.861 172.781 77.4462 172.54C77.0343 172.295 76.7076 171.936 76.4661 171.462C76.2275 170.984 76.1081 170.398 76.1081 169.702C76.1081 169.006 76.226 168.409 76.4618 167.912C76.7005 167.415 77.0272 167.034 77.4419 166.77C77.8567 166.503 78.3269 166.369 78.8525 166.369C79.2587 166.369 79.5868 166.438 79.8368 166.574C80.0868 166.707 80.2814 166.864 80.4206 167.043C80.5627 167.222 80.6721 167.379 80.7488 167.516H80.8425V166.455H82.0911V173.145C82.0911 173.707 81.9604 174.169 81.699 174.53C81.4377 174.891 81.084 175.158 80.638 175.331C80.1948 175.504 79.6948 175.591 79.138 175.591ZM79.1252 171.845C79.4917 171.845 79.8013 171.76 80.0542 171.589C80.3098 171.416 80.503 171.169 80.6337 170.848C80.7672 170.524 80.834 170.136 80.834 169.685C80.834 169.244 80.7686 168.857 80.638 168.521C80.5073 168.186 80.3155 167.925 80.0627 167.737C79.8098 167.547 79.4973 167.452 79.1252 167.452C78.7417 167.452 78.4221 167.551 78.1664 167.75C77.9107 167.946 77.7175 168.213 77.5868 168.551C77.459 168.889 77.3951 169.267 77.3951 169.685C77.3951 170.114 77.4604 170.49 77.5911 170.814C77.7218 171.138 77.915 171.391 78.1706 171.572C78.4292 171.754 78.7473 171.845 79.1252 171.845Z" fill="#B42318"/>
<path d="M99.8395 173V172.045L102.793 168.986C103.108 168.653 103.368 168.362 103.572 168.112C103.78 167.859 103.935 167.619 104.037 167.392C104.139 167.165 104.19 166.923 104.19 166.668C104.19 166.378 104.122 166.128 103.986 165.918C103.849 165.705 103.663 165.541 103.428 165.428C103.192 165.311 102.926 165.253 102.631 165.253C102.318 165.253 102.045 165.317 101.812 165.445C101.58 165.572 101.401 165.753 101.276 165.986C101.151 166.219 101.088 166.491 101.088 166.804H99.831C99.831 166.273 99.9531 165.808 100.197 165.411C100.442 165.013 100.777 164.705 101.203 164.486C101.629 164.264 102.114 164.153 102.656 164.153C103.205 164.153 103.688 164.263 104.105 164.482C104.526 164.697 104.854 164.993 105.089 165.368C105.325 165.74 105.443 166.161 105.443 166.629C105.443 166.953 105.382 167.27 105.26 167.58C105.141 167.889 104.932 168.234 104.634 168.615C104.335 168.993 103.92 169.452 103.389 169.991L101.655 171.807V171.871H105.584V173H99.8395ZM110.237 173.119C109.652 173.119 109.129 173.018 108.669 172.817C108.212 172.615 107.849 172.335 107.582 171.977C107.318 171.616 107.176 171.199 107.156 170.724H108.494C108.511 170.983 108.598 171.207 108.754 171.398C108.913 171.585 109.121 171.73 109.376 171.832C109.632 171.935 109.916 171.986 110.229 171.986C110.572 171.986 110.876 171.926 111.141 171.807C111.408 171.687 111.616 171.521 111.767 171.308C111.918 171.092 111.993 170.844 111.993 170.562C111.993 170.27 111.918 170.013 111.767 169.791C111.619 169.567 111.402 169.391 111.115 169.263C110.831 169.135 110.487 169.071 110.084 169.071H109.347V167.997H110.084C110.408 167.997 110.692 167.939 110.936 167.822C111.183 167.706 111.376 167.544 111.516 167.337C111.655 167.126 111.724 166.881 111.724 166.599C111.724 166.33 111.663 166.095 111.541 165.896C111.422 165.695 111.251 165.537 111.03 165.423C110.811 165.31 110.553 165.253 110.254 165.253C109.97 165.253 109.705 165.305 109.457 165.411C109.213 165.513 109.014 165.661 108.861 165.854C108.707 166.044 108.625 166.273 108.614 166.54H107.339C107.354 166.068 107.493 165.653 107.757 165.295C108.024 164.937 108.376 164.658 108.814 164.456C109.251 164.254 109.737 164.153 110.271 164.153C110.831 164.153 111.314 164.263 111.72 164.482C112.129 164.697 112.445 164.986 112.666 165.347C112.891 165.707 113.001 166.102 112.999 166.531C113.001 167.02 112.865 167.435 112.589 167.776C112.317 168.116 111.953 168.345 111.499 168.462V168.53C112.078 168.618 112.527 168.848 112.845 169.22C113.166 169.592 113.325 170.054 113.322 170.605C113.325 171.085 113.192 171.516 112.922 171.896C112.655 172.277 112.29 172.577 111.827 172.795C111.364 173.011 110.834 173.119 110.237 173.119ZM118.228 164.273H119.826L122.605 171.057H122.707L125.485 164.273H127.083V173H125.831V166.685H125.75L123.176 172.987H122.136L119.562 166.68H119.481V173H118.228V164.273ZM130.8 173.145C130.386 173.145 130.011 173.068 129.675 172.915C129.34 172.759 129.075 172.533 128.879 172.237C128.685 171.942 128.589 171.58 128.589 171.151C128.589 170.781 128.66 170.477 128.802 170.239C128.944 170 129.136 169.811 129.377 169.672C129.619 169.533 129.888 169.428 130.187 169.357C130.485 169.286 130.789 169.232 131.099 169.195C131.491 169.149 131.809 169.112 132.053 169.084C132.298 169.053 132.475 169.003 132.586 168.935C132.697 168.866 132.752 168.756 132.752 168.602V168.572C132.752 168.2 132.647 167.912 132.437 167.707C132.229 167.503 131.92 167.401 131.508 167.401C131.079 167.401 130.741 167.496 130.494 167.686C130.249 167.874 130.08 168.082 129.987 168.312L128.789 168.04C128.931 167.642 129.138 167.321 129.411 167.077C129.687 166.83 130.004 166.651 130.362 166.54C130.719 166.426 131.096 166.369 131.491 166.369C131.752 166.369 132.029 166.401 132.322 166.463C132.617 166.523 132.893 166.634 133.148 166.795C133.407 166.957 133.619 167.189 133.783 167.49C133.948 167.788 134.031 168.176 134.031 168.653V173H132.786V172.105H132.735C132.653 172.27 132.529 172.432 132.364 172.591C132.2 172.75 131.988 172.882 131.729 172.987C131.471 173.092 131.161 173.145 130.8 173.145ZM131.077 172.122C131.43 172.122 131.731 172.053 131.981 171.913C132.234 171.774 132.425 171.592 132.556 171.368C132.69 171.141 132.756 170.898 132.756 170.639V169.795C132.711 169.841 132.623 169.884 132.492 169.923C132.364 169.96 132.218 169.993 132.053 170.021C131.888 170.047 131.728 170.071 131.572 170.094C131.415 170.114 131.285 170.131 131.18 170.145C130.933 170.176 130.707 170.229 130.502 170.303C130.3 170.376 130.138 170.483 130.016 170.622C129.897 170.759 129.837 170.94 129.837 171.168C129.837 171.483 129.954 171.722 130.187 171.884C130.42 172.043 130.717 172.122 131.077 172.122ZM135.728 173V166.455H136.959V167.494H137.027C137.147 167.142 137.357 166.865 137.658 166.663C137.962 166.459 138.306 166.357 138.689 166.357C138.769 166.357 138.863 166.359 138.971 166.365C139.081 166.371 139.168 166.378 139.23 166.386V167.605C139.179 167.591 139.088 167.575 138.958 167.558C138.827 167.538 138.696 167.528 138.566 167.528C138.265 167.528 137.996 167.592 137.76 167.72C137.527 167.845 137.343 168.02 137.206 168.244C137.07 168.466 137.002 168.719 137.002 169.003V173H135.728ZM142.856 173.132C142.222 173.132 141.677 172.989 141.219 172.702C140.765 172.412 140.415 172.013 140.171 171.504C139.927 170.996 139.805 170.413 139.805 169.757C139.805 169.092 139.93 168.506 140.18 167.997C140.43 167.486 140.782 167.087 141.237 166.8C141.691 166.513 142.227 166.369 142.843 166.369C143.34 166.369 143.783 166.462 144.173 166.646C144.562 166.828 144.876 167.084 145.114 167.413C145.356 167.743 145.499 168.128 145.545 168.568H144.305C144.237 168.261 144.08 167.997 143.836 167.776C143.594 167.554 143.271 167.443 142.864 167.443C142.509 167.443 142.198 167.537 141.931 167.724C141.667 167.909 141.461 168.173 141.313 168.517C141.165 168.858 141.092 169.261 141.092 169.727C141.092 170.205 141.164 170.616 141.309 170.963C141.454 171.31 141.658 171.578 141.923 171.768C142.19 171.959 142.504 172.054 142.864 172.054C143.106 172.054 143.325 172.01 143.521 171.922C143.719 171.831 143.886 171.702 144.019 171.534C144.156 171.366 144.251 171.165 144.305 170.929H145.545C145.499 171.352 145.362 171.73 145.131 172.062C144.901 172.395 144.593 172.656 144.207 172.847C143.823 173.037 143.373 173.132 142.856 173.132ZM148.181 169.114V173H146.907V164.273H148.164V167.52H148.245C148.399 167.168 148.633 166.888 148.949 166.68C149.264 166.473 149.676 166.369 150.184 166.369C150.633 166.369 151.025 166.462 151.36 166.646C151.699 166.831 151.96 167.107 152.145 167.473C152.332 167.837 152.426 168.291 152.426 168.837V173H151.152V168.99C151.152 168.51 151.028 168.138 150.781 167.874C150.534 167.607 150.19 167.473 149.75 167.473C149.449 167.473 149.179 167.537 148.94 167.665C148.704 167.793 148.518 167.98 148.382 168.227C148.248 168.472 148.181 168.767 148.181 169.114ZM155.784 171.807L155.72 172.271C155.677 172.612 155.605 172.967 155.502 173.337C155.403 173.709 155.299 174.054 155.191 174.372C155.086 174.69 155 174.943 154.931 175.131H154.028C154.065 174.955 154.116 174.716 154.181 174.415C154.247 174.116 154.311 173.783 154.373 173.413C154.436 173.044 154.483 172.668 154.514 172.284L154.556 171.807H155.784ZM160.601 173V172.045L163.554 168.986C163.87 168.653 164.13 168.362 164.334 168.112C164.542 167.859 164.696 167.619 164.799 167.392C164.901 167.165 164.952 166.923 164.952 166.668C164.952 166.378 164.884 166.128 164.748 165.918C164.611 165.705 164.425 165.541 164.189 165.428C163.953 165.311 163.688 165.253 163.392 165.253C163.08 165.253 162.807 165.317 162.574 165.445C162.341 165.572 162.162 165.753 162.037 165.986C161.912 166.219 161.85 166.491 161.85 166.804H160.593C160.593 166.273 160.715 165.808 160.959 165.411C161.203 165.013 161.539 164.705 161.965 164.486C162.391 164.264 162.875 164.153 163.418 164.153C163.966 164.153 164.449 164.263 164.867 164.482C165.287 164.697 165.615 164.993 165.851 165.368C166.087 165.74 166.205 166.161 166.205 166.629C166.205 166.953 166.144 167.27 166.022 167.58C165.902 167.889 165.694 168.234 165.395 168.615C165.097 168.993 164.682 169.452 164.151 169.991L162.417 171.807V171.871H166.346V173H160.601ZM170.999 173.145C170.326 173.142 169.75 172.964 169.273 172.612C168.796 172.26 168.431 171.747 168.178 171.074C167.925 170.401 167.799 169.589 167.799 168.641C167.799 167.695 167.925 166.886 168.178 166.216C168.434 165.545 168.8 165.034 169.277 164.682C169.757 164.33 170.331 164.153 170.999 164.153C171.667 164.153 172.239 164.331 172.716 164.686C173.194 165.038 173.559 165.55 173.811 166.22C174.067 166.888 174.195 167.695 174.195 168.641C174.195 169.592 174.069 170.405 173.816 171.078C173.563 171.749 173.198 172.261 172.721 172.616C172.243 172.969 171.669 173.145 170.999 173.145ZM170.999 172.007C171.59 172.007 172.051 171.719 172.384 171.142C172.719 170.565 172.887 169.732 172.887 168.641C172.887 167.916 172.81 167.304 172.657 166.804C172.506 166.301 172.289 165.92 172.005 165.662C171.723 165.401 171.388 165.27 170.999 165.27C170.411 165.27 169.949 165.56 169.614 166.139C169.279 166.719 169.11 167.553 169.107 168.641C169.107 169.368 169.182 169.983 169.333 170.486C169.486 170.986 169.703 171.365 169.985 171.624C170.266 171.879 170.604 172.007 170.999 172.007ZM175.707 173V172.045L178.66 168.986C178.975 168.653 179.235 168.362 179.44 168.112C179.647 167.859 179.802 167.619 179.904 167.392C180.006 167.165 180.058 166.923 180.058 166.668C180.058 166.378 179.989 166.128 179.853 165.918C179.717 165.705 179.531 165.541 179.295 165.428C179.059 165.311 178.793 165.253 178.498 165.253C178.185 165.253 177.913 165.317 177.68 165.445C177.447 165.572 177.268 165.753 177.143 165.986C177.018 166.219 176.955 166.491 176.955 166.804H175.698C175.698 166.273 175.82 165.808 176.065 165.411C176.309 165.013 176.644 164.705 177.07 164.486C177.496 164.264 177.981 164.153 178.523 164.153C179.072 164.153 179.555 164.263 179.972 164.482C180.393 164.697 180.721 164.993 180.957 165.368C181.192 165.74 181.31 166.161 181.31 166.629C181.31 166.953 181.249 167.27 181.127 167.58C181.008 167.889 180.799 168.234 180.501 168.615C180.202 168.993 179.788 169.452 179.256 169.991L177.522 171.807V171.871H181.451V173H175.707ZM182.695 171.295V170.23L186.467 164.273H187.306V165.841H186.773L184.076 170.111V170.179H189.245V171.295H182.695ZM186.833 173V170.972L186.842 170.486V164.273H188.09V173H186.833Z" fill="#B54708"/>
</g>
<g style="mix-blend-mode:multiply">
<rect x="24" y="66" width="184" height="30" rx="15" fill="#ECFDF3"/>
<rect x="28.5" y="70.5" width="70" height="21" rx="10.5" fill="white"/>
<rect x="28.5" y="70.5" width="70" height="21" rx="10.5" stroke="#A6F4C5"/>
<path d="M40.1728 85H37.3475V76.2727H40.2623C41.1174 76.2727 41.8517 76.4474 42.4654 76.7969C43.079 77.1435 43.5492 77.642 43.8759 78.2926C44.2054 78.9403 44.3702 79.7173 44.3702 80.6236C44.3702 81.5327 44.204 82.3139 43.8716 82.9673C43.5421 83.6207 43.0648 84.1236 42.4398 84.4759C41.8148 84.8253 41.0591 85 40.1728 85ZM38.6642 83.8494H40.1003C40.7651 83.8494 41.3176 83.7244 41.758 83.4744C42.1983 83.2216 42.5279 82.8565 42.7466 82.3793C42.9654 81.8991 43.0748 81.3139 43.0748 80.6236C43.0748 79.9389 42.9654 79.358 42.7466 78.8807C42.5307 78.4034 42.2083 78.0412 41.7793 77.794C41.3503 77.5469 40.8176 77.4233 40.1813 77.4233H38.6642V83.8494ZM48.7264 85.1321C48.0815 85.1321 47.5261 84.9943 47.0602 84.7188C46.5971 84.4403 46.2392 84.0497 45.9863 83.5469C45.7363 83.0412 45.6113 82.4489 45.6113 81.7699C45.6113 81.0994 45.7363 80.5085 45.9863 79.9972C46.2392 79.4858 46.5914 79.0866 47.0431 78.7997C47.4977 78.5128 48.0289 78.3693 48.6369 78.3693C49.0062 78.3693 49.3642 78.4304 49.7108 78.5526C50.0574 78.6747 50.3684 78.8665 50.644 79.1278C50.9196 79.3892 51.1369 79.7287 51.296 80.1463C51.4551 80.5611 51.5346 81.0653 51.5346 81.6591V82.1108H46.3315V81.1562H50.286C50.286 80.821 50.2179 80.5241 50.0815 80.2656C49.9451 80.0043 49.7534 79.7983 49.5062 79.6477C49.2619 79.4972 48.975 79.4219 48.6454 79.4219C48.2875 79.4219 47.975 79.5099 47.7079 79.6861C47.4437 79.8594 47.2392 80.0866 47.0943 80.3679C46.9522 80.6463 46.8812 80.9489 46.8812 81.2756V82.0213C46.8812 82.4588 46.9579 82.831 47.1113 83.1378C47.2676 83.4446 47.4849 83.679 47.7633 83.8409C48.0417 84 48.367 84.0795 48.7392 84.0795C48.9806 84.0795 49.2008 84.0455 49.3997 83.9773C49.5985 83.9062 49.7704 83.8011 49.9153 83.6619C50.0602 83.5227 50.171 83.3509 50.2477 83.1463L51.4537 83.3636C51.3571 83.7187 51.1838 84.0298 50.9338 84.2969C50.6866 84.5611 50.3755 84.767 50.0005 84.9148C49.6284 85.0597 49.2037 85.1321 48.7264 85.1321ZM54.2225 76.2727V85H52.9483V76.2727H54.2225ZM55.9366 85V78.4545H57.2108V85H55.9366ZM56.5801 77.4446C56.3585 77.4446 56.1681 77.3707 56.0091 77.223C55.8528 77.0724 55.7747 76.8935 55.7747 76.6861C55.7747 76.4759 55.8528 76.2969 56.0091 76.1491C56.1681 75.9986 56.3585 75.9233 56.5801 75.9233C56.8017 75.9233 56.9906 75.9986 57.1468 76.1491C57.3059 76.2969 57.3855 76.4759 57.3855 76.6861C57.3855 76.8935 57.3059 77.0724 57.1468 77.223C56.9906 77.3707 56.8017 77.4446 56.5801 77.4446ZM64.5243 78.4545L62.1507 85H60.7871L58.4093 78.4545H59.7772L61.4348 83.4915H61.503L63.1564 78.4545H64.5243ZM68.3201 85.1321C67.6752 85.1321 67.1199 84.9943 66.6539 84.7188C66.1909 84.4403 65.8329 84.0497 65.5801 83.5469C65.3301 83.0412 65.2051 82.4489 65.2051 81.7699C65.2051 81.0994 65.3301 80.5085 65.5801 79.9972C65.8329 79.4858 66.1852 79.0866 66.6369 78.7997C67.0914 78.5128 67.6227 78.3693 68.2306 78.3693C68.6 78.3693 68.9579 78.4304 69.3045 78.5526C69.6511 78.6747 69.9622 78.8665 70.2377 79.1278C70.5133 79.3892 70.7306 79.7287 70.8897 80.1463C71.0488 80.5611 71.1284 81.0653 71.1284 81.6591V82.1108H65.9252V81.1562H69.8798C69.8798 80.821 69.8116 80.5241 69.6752 80.2656C69.5389 80.0043 69.3471 79.7983 69.1 79.6477C68.8556 79.4972 68.5687 79.4219 68.2392 79.4219C67.8812 79.4219 67.5687 79.5099 67.3017 79.6861C67.0375 79.8594 66.8329 80.0866 66.688 80.3679C66.546 80.6463 66.475 80.9489 66.475 81.2756V82.0213C66.475 82.4588 66.5517 82.831 66.7051 83.1378C66.8613 83.4446 67.0787 83.679 67.3571 83.8409C67.6355 84 67.9608 84.0795 68.3329 84.0795C68.5744 84.0795 68.7946 84.0455 68.9934 83.9773C69.1923 83.9062 69.3642 83.8011 69.5091 83.6619C69.6539 83.5227 69.7647 83.3509 69.8414 83.1463L71.0474 83.3636C70.9508 83.7187 70.7775 84.0298 70.5275 84.2969C70.2804 84.5611 69.9693 84.767 69.5943 84.9148C69.2221 85.0597 68.7974 85.1321 68.3201 85.1321ZM72.5421 85V78.4545H73.7736V79.4943H73.8418C73.9611 79.142 74.1713 78.8651 74.4725 78.6634C74.7765 78.4588 75.1202 78.3565 75.5037 78.3565C75.5833 78.3565 75.677 78.3594 75.785 78.3651C75.8958 78.3707 75.9824 78.3778 76.0449 78.3864V79.6051C75.9938 79.5909 75.9029 79.5753 75.7722 79.5582C75.6415 79.5384 75.5108 79.5284 75.3801 79.5284C75.079 79.5284 74.8105 79.5923 74.5748 79.7202C74.3418 79.8452 74.1571 80.0199 74.0208 80.2443C73.8844 80.4659 73.8162 80.7187 73.8162 81.0028V85H72.5421ZM79.7342 85.1321C79.0893 85.1321 78.5339 84.9943 78.068 84.7188C77.6049 84.4403 77.247 84.0497 76.9941 83.5469C76.7441 83.0412 76.6191 82.4489 76.6191 81.7699C76.6191 81.0994 76.7441 80.5085 76.9941 79.9972C77.247 79.4858 77.5993 79.0866 78.051 78.7997C78.5055 78.5128 79.0368 78.3693 79.6447 78.3693C80.014 78.3693 80.372 78.4304 80.7186 78.5526C81.0652 78.6747 81.3762 78.8665 81.6518 79.1278C81.9274 79.3892 82.1447 79.7287 82.3038 80.1463C82.4629 80.5611 82.5424 81.0653 82.5424 81.6591V82.1108H77.3393V81.1562H81.2939C81.2939 80.821 81.2257 80.5241 81.0893 80.2656C80.9529 80.0043 80.7612 79.7983 80.514 79.6477C80.2697 79.4972 79.9828 79.4219 79.6532 79.4219C79.2953 79.4219 78.9828 79.5099 78.7157 79.6861C78.4515 79.8594 78.247 80.0866 78.1021 80.3679C77.96 80.6463 77.889 80.9489 77.889 81.2756V82.0213C77.889 82.4588 77.9657 82.831 78.1191 83.1378C78.2754 83.4446 78.4927 83.679 78.7711 83.8409C79.0495 84 79.3748 84.0795 79.747 84.0795C79.9885 84.0795 80.2086 84.0455 80.4075 83.9773C80.6064 83.9062 80.7782 83.8011 80.9231 83.6619C81.068 83.5227 81.1788 83.3509 81.2555 83.1463L82.4615 83.3636C82.3649 83.7187 82.1916 84.0298 81.9416 84.2969C81.6944 84.5611 81.3833 84.767 81.0083 84.9148C80.6362 85.0597 80.2115 85.1321 79.7342 85.1321ZM86.4064 85.1278C85.878 85.1278 85.4064 84.9929 84.9917 84.723C84.5797 84.4503 84.2559 84.0625 84.0201 83.5597C83.7871 83.054 83.6706 82.4474 83.6706 81.7401C83.6706 81.0327 83.7885 80.4276 84.0243 79.9247C84.263 79.4219 84.5897 79.0369 85.0044 78.7699C85.4192 78.5028 85.8894 78.3693 86.415 78.3693C86.8212 78.3693 87.1479 78.4375 87.3951 78.5739C87.6451 78.7074 87.8382 78.8636 87.9746 79.0426C88.1138 79.2216 88.2218 79.3793 88.2985 79.5156H88.3752V76.2727H89.6493V85H88.405V83.9815H88.2985C88.2218 84.1207 88.111 84.2798 87.9661 84.4588C87.824 84.6378 87.628 84.794 87.378 84.9276C87.128 85.0611 86.8042 85.1278 86.4064 85.1278ZM86.6877 84.0412C87.0542 84.0412 87.3638 83.9446 87.6167 83.7514C87.8723 83.5554 88.0655 83.2841 88.1962 82.9375C88.3297 82.5909 88.3965 82.1875 88.3965 81.7273C88.3965 81.2727 88.3311 80.875 88.2005 80.5341C88.0698 80.1932 87.878 79.9276 87.6252 79.7372C87.3723 79.5469 87.0598 79.4517 86.6877 79.4517C86.3042 79.4517 85.9846 79.5511 85.7289 79.75C85.4732 79.9489 85.28 80.2202 85.1493 80.5639C85.0215 80.9077 84.9576 81.2955 84.9576 81.7273C84.9576 82.1648 85.0229 82.5582 85.1536 82.9077C85.2843 83.2571 85.4775 83.5341 85.7331 83.7386C85.9917 83.9403 86.3098 84.0412 86.6877 84.0412Z" fill="#027A48"/>
<path d="M107.839 85V84.0455L110.793 80.9858C111.108 80.6534 111.368 80.3622 111.572 80.1122C111.78 79.8594 111.935 79.6193 112.037 79.392C112.139 79.1648 112.19 78.9233 112.19 78.6676C112.19 78.3778 112.122 78.1278 111.986 77.9176C111.849 77.7045 111.663 77.5412 111.428 77.4276C111.192 77.3111 110.926 77.2528 110.631 77.2528C110.318 77.2528 110.045 77.3168 109.812 77.4446C109.58 77.5724 109.401 77.7528 109.276 77.9858C109.151 78.2187 109.088 78.4915 109.088 78.804H107.831C107.831 78.2727 107.953 77.8082 108.197 77.4105C108.442 77.0128 108.777 76.7045 109.203 76.4858C109.629 76.2642 110.114 76.1534 110.656 76.1534C111.205 76.1534 111.688 76.2628 112.105 76.4815C112.526 76.6974 112.854 76.9929 113.089 77.3679C113.325 77.7401 113.443 78.1605 113.443 78.6293C113.443 78.9531 113.382 79.2699 113.26 79.5795C113.141 79.8892 112.932 80.2344 112.634 80.6151C112.335 80.9929 111.92 81.4517 111.389 81.9915L109.655 83.8068V83.8707H113.584V85H107.839ZM118.08 85.1193C117.545 85.1193 117.065 85.017 116.639 84.8125C116.216 84.6051 115.878 84.321 115.625 83.9602C115.372 83.5994 115.237 83.1875 115.22 82.7244H116.499C116.53 83.0994 116.696 83.4077 116.997 83.6491C117.298 83.8906 117.659 84.0114 118.08 84.0114C118.415 84.0114 118.712 83.9347 118.97 83.7812C119.232 83.625 119.436 83.4105 119.584 83.1378C119.734 82.8651 119.81 82.554 119.81 82.2045C119.81 81.8494 119.733 81.5327 119.58 81.2543C119.426 80.9759 119.214 80.7571 118.945 80.598C118.678 80.4389 118.371 80.358 118.024 80.3551C117.76 80.3551 117.494 80.4006 117.227 80.4915C116.96 80.5824 116.744 80.7017 116.58 80.8494L115.374 80.6705L115.864 76.2727H120.662V77.402H116.959L116.682 79.8438H116.733C116.903 79.679 117.129 79.5412 117.411 79.4304C117.695 79.3196 117.999 79.2642 118.322 79.2642C118.854 79.2642 119.327 79.3906 119.741 79.6435C120.159 79.8963 120.487 80.2415 120.726 80.679C120.967 81.1136 121.087 81.6136 121.084 82.179C121.087 82.7443 120.959 83.2486 120.7 83.6918C120.445 84.1349 120.089 84.4844 119.635 84.7401C119.183 84.9929 118.665 85.1193 118.08 85.1193ZM125.935 76.2727H127.533L130.312 83.0568H130.414L133.192 76.2727H134.79V85H133.538V78.6847H133.457L130.883 84.9872H129.843L127.269 78.6804H127.188V85H125.935V76.2727ZM138.507 85.1449C138.093 85.1449 137.718 85.0682 137.382 84.9148C137.047 84.7585 136.782 84.5327 136.586 84.2372C136.392 83.9418 136.296 83.5795 136.296 83.1506C136.296 82.7812 136.367 82.4773 136.509 82.2386C136.651 82 136.843 81.8111 137.084 81.6719C137.326 81.5327 137.596 81.4276 137.894 81.3565C138.192 81.2855 138.496 81.2315 138.806 81.1946C139.198 81.1491 139.516 81.1122 139.76 81.0838C140.005 81.0526 140.182 81.0028 140.293 80.9347C140.404 80.8665 140.459 80.7557 140.459 80.6023V80.5724C140.459 80.2003 140.354 79.9119 140.144 79.7074C139.936 79.5028 139.627 79.4006 139.215 79.4006C138.786 79.4006 138.448 79.4957 138.201 79.6861C137.956 79.8736 137.787 80.0824 137.694 80.3125L136.496 80.0398C136.638 79.642 136.846 79.321 137.118 79.0767C137.394 78.8295 137.711 78.6506 138.069 78.5398C138.426 78.4261 138.803 78.3693 139.198 78.3693C139.459 78.3693 139.736 78.4006 140.029 78.4631C140.324 78.5227 140.6 78.6335 140.855 78.7955C141.114 78.9574 141.326 79.1889 141.49 79.4901C141.655 79.7884 141.738 80.1761 141.738 80.6534V85H140.493V84.1051H140.442C140.36 84.2699 140.236 84.4318 140.071 84.5909C139.907 84.75 139.695 84.8821 139.436 84.9872C139.178 85.0923 138.868 85.1449 138.507 85.1449ZM138.784 84.1222C139.137 84.1222 139.438 84.0526 139.688 83.9134C139.941 83.7741 140.132 83.5923 140.263 83.3679C140.397 83.1406 140.463 82.8977 140.463 82.6392V81.7955C140.418 81.8409 140.33 81.8835 140.199 81.9233C140.071 81.9602 139.925 81.9929 139.76 82.0213C139.596 82.0469 139.435 82.071 139.279 82.0938C139.123 82.1136 138.992 82.1307 138.887 82.1449C138.64 82.1761 138.414 82.2287 138.209 82.3026C138.007 82.3764 137.846 82.483 137.723 82.6222C137.604 82.7585 137.544 82.9403 137.544 83.1676C137.544 83.483 137.661 83.7216 137.894 83.8835C138.127 84.0426 138.424 84.1222 138.784 84.1222ZM143.435 85V78.4545H144.666V79.4943H144.734C144.854 79.142 145.064 78.8651 145.365 78.6634C145.669 78.4588 146.013 78.3565 146.396 78.3565C146.476 78.3565 146.57 78.3594 146.678 78.3651C146.788 78.3707 146.875 78.3778 146.938 78.3864V79.6051C146.886 79.5909 146.795 79.5753 146.665 79.5582C146.534 79.5384 146.403 79.5284 146.273 79.5284C145.972 79.5284 145.703 79.5923 145.467 79.7202C145.234 79.8452 145.05 80.0199 144.913 80.2443C144.777 80.4659 144.709 80.7187 144.709 81.0028V85H143.435ZM150.563 85.1321C149.929 85.1321 149.384 84.9886 148.926 84.7017C148.472 84.4119 148.123 84.0128 147.878 83.5043C147.634 82.9957 147.512 82.4134 147.512 81.7571C147.512 81.0923 147.637 80.5057 147.887 79.9972C148.137 79.4858 148.489 79.0866 148.944 78.7997C149.398 78.5128 149.934 78.3693 150.55 78.3693C151.047 78.3693 151.49 78.4616 151.88 78.6463C152.269 78.8281 152.583 79.0838 152.821 79.4134C153.063 79.7429 153.206 80.1278 153.252 80.5682H152.012C151.944 80.2614 151.787 79.9972 151.543 79.7756C151.301 79.554 150.978 79.4432 150.571 79.4432C150.216 79.4432 149.905 79.5369 149.638 79.7244C149.374 79.9091 149.168 80.1733 149.02 80.517C148.873 80.858 148.799 81.2614 148.799 81.7273C148.799 82.2045 148.871 82.6165 149.016 82.9631C149.161 83.3097 149.365 83.5781 149.63 83.7685C149.897 83.9588 150.211 84.054 150.571 84.054C150.813 84.054 151.032 84.0099 151.228 83.9219C151.426 83.831 151.593 83.7017 151.726 83.5341C151.863 83.3665 151.958 83.1648 152.012 82.929H153.252C153.206 83.3523 153.069 83.7301 152.838 84.0625C152.608 84.3949 152.3 84.6562 151.914 84.8466C151.53 85.0369 151.08 85.1321 150.563 85.1321ZM155.888 81.1136V85H154.614V76.2727H155.871V79.5199H155.952C156.106 79.1676 156.34 78.8878 156.656 78.6804C156.971 78.473 157.383 78.3693 157.891 78.3693C158.34 78.3693 158.732 78.4616 159.067 78.6463C159.406 78.831 159.667 79.1065 159.852 79.473C160.039 79.8366 160.133 80.2912 160.133 80.8366V85H158.859V80.9901C158.859 80.5099 158.735 80.1378 158.488 79.8736C158.241 79.6065 157.897 79.473 157.457 79.473C157.156 79.473 156.886 79.5369 156.647 79.6648C156.411 79.7926 156.225 79.9801 156.089 80.2273C155.955 80.4716 155.888 80.767 155.888 81.1136ZM163.491 83.8068L163.427 84.2713C163.384 84.6122 163.312 84.9673 163.21 85.3366C163.11 85.7088 163.006 86.054 162.898 86.3722C162.793 86.6903 162.707 86.9432 162.638 87.1307H161.735C161.772 86.9545 161.823 86.7159 161.888 86.4148C161.954 86.1165 162.018 85.7827 162.08 85.4134C162.143 85.044 162.19 84.6676 162.221 84.2841L162.263 83.8068H163.491ZM168.308 85V84.0455L171.261 80.9858C171.577 80.6534 171.837 80.3622 172.041 80.1122C172.249 79.8594 172.403 79.6193 172.506 79.392C172.608 79.1648 172.659 78.9233 172.659 78.6676C172.659 78.3778 172.591 78.1278 172.455 77.9176C172.318 77.7045 172.132 77.5412 171.896 77.4276C171.661 77.3111 171.395 77.2528 171.099 77.2528C170.787 77.2528 170.514 77.3168 170.281 77.4446C170.048 77.5724 169.869 77.7528 169.744 77.9858C169.619 78.2187 169.557 78.4915 169.557 78.804H168.3C168.3 78.2727 168.422 77.8082 168.666 77.4105C168.911 77.0128 169.246 76.7045 169.672 76.4858C170.098 76.2642 170.582 76.1534 171.125 76.1534C171.673 76.1534 172.156 76.2628 172.574 76.4815C172.994 76.6974 173.322 76.9929 173.558 77.3679C173.794 77.7401 173.912 78.1605 173.912 78.6293C173.912 78.9531 173.851 79.2699 173.729 79.5795C173.609 79.8892 173.401 80.2344 173.102 80.6151C172.804 80.9929 172.389 81.4517 171.858 81.9915L170.124 83.8068V83.8707H174.053V85H168.308ZM178.706 85.1449C178.033 85.142 177.457 84.9645 176.98 84.6122C176.503 84.2599 176.138 83.7472 175.885 83.0739C175.632 82.4006 175.506 81.5895 175.506 80.6406C175.506 79.6946 175.632 78.8864 175.885 78.2159C176.141 77.5455 176.507 77.0341 176.984 76.6818C177.464 76.3295 178.038 76.1534 178.706 76.1534C179.374 76.1534 179.946 76.331 180.423 76.6861C180.901 77.0384 181.266 77.5497 181.518 78.2202C181.774 78.8878 181.902 79.6946 181.902 80.6406C181.902 81.5923 181.776 82.4048 181.523 83.0781C181.27 83.7486 180.905 84.2614 180.428 84.6165C179.95 84.9688 179.376 85.1449 178.706 85.1449ZM178.706 84.0071C179.297 84.0071 179.759 83.7188 180.091 83.142C180.426 82.5653 180.594 81.7315 180.594 80.6406C180.594 79.9162 180.517 79.304 180.364 78.804C180.213 78.3011 179.996 77.9205 179.712 77.6619C179.43 77.4006 179.095 77.2699 178.706 77.2699C178.118 77.2699 177.656 77.5597 177.321 78.1392C176.986 78.7187 176.817 79.5526 176.814 80.6406C176.814 81.3679 176.889 81.983 177.04 82.4858C177.193 82.9858 177.411 83.3651 177.692 83.6236C177.973 83.8793 178.311 84.0071 178.706 84.0071ZM183.414 85V84.0455L186.367 80.9858C186.682 80.6534 186.942 80.3622 187.147 80.1122C187.354 79.8594 187.509 79.6193 187.611 79.392C187.713 79.1648 187.765 78.9233 187.765 78.6676C187.765 78.3778 187.696 78.1278 187.56 77.9176C187.424 77.7045 187.238 77.5412 187.002 77.4276C186.766 77.3111 186.5 77.2528 186.205 77.2528C185.892 77.2528 185.62 77.3168 185.387 77.4446C185.154 77.5724 184.975 77.7528 184.85 77.9858C184.725 78.2187 184.662 78.4915 184.662 78.804H183.405C183.405 78.2727 183.527 77.8082 183.772 77.4105C184.016 77.0128 184.351 76.7045 184.777 76.4858C185.203 76.2642 185.688 76.1534 186.23 76.1534C186.779 76.1534 187.262 76.2628 187.679 76.4815C188.1 76.6974 188.428 76.9929 188.664 77.3679C188.9 77.7401 189.017 78.1605 189.017 78.6293C189.017 78.9531 188.956 79.2699 188.834 79.5795C188.715 79.8892 188.506 80.2344 188.208 80.6151C187.909 80.9929 187.495 81.4517 186.963 81.9915L185.229 83.8068V83.8707H189.158V85H183.414ZM190.402 83.2955V82.2301L194.174 76.2727H195.013V77.8409H194.48L191.783 82.1108V82.179H196.952V83.2955H190.402ZM194.54 85V82.9716L194.549 82.4858V76.2727H195.797V85H194.54Z" fill="#027A48"/>
</g>
<g style="mix-blend-mode:multiply">
<rect x="24" y="110" width="181" height="30" rx="15" fill="#FEF3F2"/>
<rect x="28.5" y="114.5" width="66" height="21" rx="10.5" fill="white"/>
<rect x="28.5" y="114.5" width="66" height="21" rx="10.5" stroke="#FECDCA"/>
<path d="M37.2166 129V120.273H40.3274C41.0036 120.273 41.5646 120.389 42.0107 120.622C42.4595 120.855 42.7947 121.178 43.0163 121.589C43.2379 121.999 43.3487 122.472 43.3487 123.009C43.3487 123.543 43.2365 124.013 43.0121 124.419C42.7905 124.822 42.4553 125.136 42.0064 125.361C41.5604 125.585 40.9993 125.697 40.3232 125.697H37.9666V124.564H40.2038C40.63 124.564 40.9766 124.503 41.2436 124.381C41.5135 124.259 41.7109 124.081 41.8359 123.848C41.9609 123.615 42.0234 123.335 42.0234 123.009C42.0234 122.679 41.9595 122.393 41.8317 122.152C41.7067 121.911 41.5092 121.726 41.2393 121.598C40.9723 121.467 40.6214 121.402 40.1868 121.402H38.5334V129H37.2166ZM41.5249 125.062L43.6811 129H42.1811L40.0675 125.062H41.5249ZM47.5877 129.132C46.9428 129.132 46.3874 128.994 45.9215 128.719C45.4585 128.44 45.1005 128.05 44.8477 127.547C44.5977 127.041 44.4727 126.449 44.4727 125.77C44.4727 125.099 44.5977 124.509 44.8477 123.997C45.1005 123.486 45.4528 123.087 45.9045 122.8C46.359 122.513 46.8903 122.369 47.4982 122.369C47.8675 122.369 48.2255 122.43 48.5721 122.553C48.9187 122.675 49.2298 122.866 49.5053 123.128C49.7809 123.389 49.9982 123.729 50.1573 124.146C50.3164 124.561 50.396 125.065 50.396 125.659V126.111H45.1928V125.156H49.1474C49.1474 124.821 49.0792 124.524 48.9428 124.266C48.8065 124.004 48.6147 123.798 48.3675 123.648C48.1232 123.497 47.8363 123.422 47.5067 123.422C47.1488 123.422 46.8363 123.51 46.5692 123.686C46.305 123.859 46.1005 124.087 45.9556 124.368C45.8136 124.646 45.7425 124.949 45.7425 125.276V126.021C45.7425 126.459 45.8192 126.831 45.9727 127.138C46.1289 127.445 46.3462 127.679 46.6246 127.841C46.9031 128 47.2283 128.08 47.6005 128.08C47.842 128.08 48.0621 128.045 48.261 127.977C48.4599 127.906 48.6317 127.801 48.7766 127.662C48.9215 127.523 49.0323 127.351 49.109 127.146L50.315 127.364C50.2184 127.719 50.0451 128.03 49.7951 128.297C49.5479 128.561 49.2369 128.767 48.8619 128.915C48.4897 129.06 48.065 129.132 47.5877 129.132ZM51.8097 122.455H53.0838V129.426C53.0838 129.864 53.0043 130.233 52.8452 130.534C52.6889 130.835 52.456 131.064 52.1463 131.22C51.8395 131.376 51.4602 131.455 51.0085 131.455C50.9631 131.455 50.9205 131.455 50.8807 131.455C50.8381 131.455 50.794 131.453 50.7486 131.45V130.355C50.7884 130.355 50.8239 130.355 50.8551 130.355C50.8835 130.355 50.9162 130.355 50.9531 130.355C51.2543 130.355 51.4716 130.274 51.6051 130.112C51.7415 129.953 51.8097 129.722 51.8097 129.418V122.455ZM52.4403 121.445C52.2188 121.445 52.0284 121.371 51.8693 121.223C51.7131 121.072 51.6349 120.893 51.6349 120.686C51.6349 120.476 51.7131 120.297 51.8693 120.149C52.0284 119.999 52.2188 119.923 52.4403 119.923C52.6619 119.923 52.8509 119.999 53.0071 120.149C53.1662 120.297 53.2457 120.476 53.2457 120.686C53.2457 120.893 53.1662 121.072 53.0071 121.223C52.8509 121.371 52.6619 121.445 52.4403 121.445ZM57.619 129.132C56.9741 129.132 56.4187 128.994 55.9528 128.719C55.4897 128.44 55.1317 128.05 54.8789 127.547C54.6289 127.041 54.5039 126.449 54.5039 125.77C54.5039 125.099 54.6289 124.509 54.8789 123.997C55.1317 123.486 55.484 123.087 55.9357 122.8C56.3903 122.513 56.9215 122.369 57.5295 122.369C57.8988 122.369 58.2567 122.43 58.6033 122.553C58.9499 122.675 59.261 122.866 59.5366 123.128C59.8121 123.389 60.0295 123.729 60.1886 124.146C60.3477 124.561 60.4272 125.065 60.4272 125.659V126.111H55.2241V125.156H59.1786C59.1786 124.821 59.1104 124.524 58.9741 124.266C58.8377 124.004 58.646 123.798 58.3988 123.648C58.1545 123.497 57.8675 123.422 57.538 123.422C57.18 123.422 56.8675 123.51 56.6005 123.686C56.3363 123.859 56.1317 124.087 55.9869 124.368C55.8448 124.646 55.7738 124.949 55.7738 125.276V126.021C55.7738 126.459 55.8505 126.831 56.0039 127.138C56.1602 127.445 56.3775 127.679 56.6559 127.841C56.9343 128 57.2596 128.08 57.6317 128.08C57.8732 128.08 58.0934 128.045 58.2923 127.977C58.4911 127.906 58.663 127.801 58.8079 127.662C58.9528 127.523 59.0636 127.351 59.1403 127.146L60.3462 127.364C60.2496 127.719 60.0763 128.03 59.8263 128.297C59.5792 128.561 59.2681 128.767 58.8931 128.915C58.521 129.06 58.0962 129.132 57.619 129.132ZM64.598 129.132C63.9645 129.132 63.419 128.989 62.9616 128.702C62.5071 128.412 62.1577 128.013 61.9134 127.504C61.669 126.996 61.5469 126.413 61.5469 125.757C61.5469 125.092 61.6719 124.506 61.9219 123.997C62.1719 123.486 62.5241 123.087 62.9787 122.8C63.4332 122.513 63.9688 122.369 64.5852 122.369C65.0824 122.369 65.5256 122.462 65.9148 122.646C66.304 122.828 66.6179 123.084 66.8565 123.413C67.098 123.743 67.2415 124.128 67.2869 124.568H66.0469C65.9787 124.261 65.8224 123.997 65.5781 123.776C65.3366 123.554 65.0128 123.443 64.6065 123.443C64.2514 123.443 63.9403 123.537 63.6733 123.724C63.4091 123.909 63.2031 124.173 63.0554 124.517C62.9077 124.858 62.8338 125.261 62.8338 125.727C62.8338 126.205 62.9063 126.616 63.0511 126.963C63.196 127.31 63.4006 127.578 63.6648 127.768C63.9318 127.959 64.2457 128.054 64.6065 128.054C64.848 128.054 65.0668 128.01 65.2628 127.922C65.4616 127.831 65.6278 127.702 65.7614 127.534C65.8977 127.366 65.9929 127.165 66.0469 126.929H67.2869C67.2415 127.352 67.1037 127.73 66.8736 128.062C66.6435 128.395 66.3352 128.656 65.9489 128.847C65.5653 129.037 65.1151 129.132 64.598 129.132ZM71.7049 122.455V123.477H68.1296V122.455H71.7049ZM69.0884 120.886H70.3626V127.078C70.3626 127.325 70.3995 127.511 70.4734 127.636C70.5472 127.759 70.6424 127.842 70.7589 127.888C70.8782 127.93 71.0075 127.952 71.1467 127.952C71.2489 127.952 71.3384 127.945 71.4151 127.93C71.4918 127.916 71.5515 127.905 71.5941 127.896L71.8242 128.949C71.7504 128.977 71.6452 129.006 71.5089 129.034C71.3725 129.065 71.2021 129.082 70.9975 129.085C70.6623 129.091 70.3498 129.031 70.06 128.906C69.7702 128.781 69.5359 128.588 69.3569 128.327C69.1779 128.065 69.0884 127.737 69.0884 127.342V120.886ZM75.8651 129.132C75.2202 129.132 74.6648 128.994 74.1989 128.719C73.7358 128.44 73.3778 128.05 73.125 127.547C72.875 127.041 72.75 126.449 72.75 125.77C72.75 125.099 72.875 124.509 73.125 123.997C73.3778 123.486 73.7301 123.087 74.1818 122.8C74.6364 122.513 75.1676 122.369 75.7756 122.369C76.1449 122.369 76.5028 122.43 76.8494 122.553C77.196 122.675 77.5071 122.866 77.7827 123.128C78.0582 123.389 78.2756 123.729 78.4347 124.146C78.5938 124.561 78.6733 125.065 78.6733 125.659V126.111H73.4702V125.156H77.4247C77.4247 124.821 77.3565 124.524 77.2202 124.266C77.0838 124.004 76.892 123.798 76.6449 123.648C76.4006 123.497 76.1136 123.422 75.7841 123.422C75.4261 123.422 75.1136 123.51 74.8466 123.686C74.5824 123.859 74.3778 124.087 74.233 124.368C74.0909 124.646 74.0199 124.949 74.0199 125.276V126.021C74.0199 126.459 74.0966 126.831 74.25 127.138C74.4062 127.445 74.6236 127.679 74.902 127.841C75.1804 128 75.5057 128.08 75.8778 128.08C76.1193 128.08 76.3395 128.045 76.5384 127.977C76.7372 127.906 76.9091 127.801 77.054 127.662C77.1989 127.523 77.3097 127.351 77.3864 127.146L78.5923 127.364C78.4957 127.719 78.3224 128.03 78.0724 128.297C77.8253 128.561 77.5142 128.767 77.1392 128.915C76.767 129.06 76.3423 129.132 75.8651 129.132ZM82.5373 129.128C82.0089 129.128 81.5373 128.993 81.1225 128.723C80.7106 128.45 80.3867 128.062 80.1509 127.56C79.918 127.054 79.8015 126.447 79.8015 125.74C79.8015 125.033 79.9194 124.428 80.1552 123.925C80.3938 123.422 80.7205 123.037 81.1353 122.77C81.5501 122.503 82.0202 122.369 82.5458 122.369C82.9521 122.369 83.2788 122.438 83.5259 122.574C83.7759 122.707 83.9691 122.864 84.1055 123.043C84.2447 123.222 84.3526 123.379 84.4293 123.516H84.506V120.273H85.7802V129H84.5359V127.982H84.4293C84.3526 128.121 84.2418 128.28 84.0969 128.459C83.9549 128.638 83.7589 128.794 83.5089 128.928C83.2589 129.061 82.935 129.128 82.5373 129.128ZM82.8185 128.041C83.185 128.041 83.4947 127.945 83.7475 127.751C84.0032 127.555 84.1964 127.284 84.3271 126.938C84.4606 126.591 84.5273 126.187 84.5273 125.727C84.5273 125.273 84.462 124.875 84.3313 124.534C84.2006 124.193 84.0089 123.928 83.756 123.737C83.5032 123.547 83.1907 123.452 82.8185 123.452C82.435 123.452 82.1154 123.551 81.8597 123.75C81.604 123.949 81.4109 124.22 81.2802 124.564C81.1523 124.908 81.0884 125.295 81.0884 125.727C81.0884 126.165 81.1538 126.558 81.2844 126.908C81.4151 127.257 81.6083 127.534 81.864 127.739C82.1225 127.94 82.4407 128.041 82.8185 128.041Z" fill="#B42318"/>
<path d="M106.878 129.119C106.293 129.119 105.77 129.018 105.31 128.817C104.852 128.615 104.49 128.335 104.223 127.977C103.959 127.616 103.817 127.199 103.797 126.724H105.135C105.152 126.983 105.239 127.207 105.395 127.398C105.554 127.585 105.761 127.73 106.017 127.832C106.273 127.935 106.557 127.986 106.869 127.986C107.213 127.986 107.517 127.926 107.781 127.807C108.048 127.687 108.257 127.521 108.408 127.308C108.558 127.092 108.634 126.844 108.634 126.562C108.634 126.27 108.558 126.013 108.408 125.791C108.26 125.567 108.043 125.391 107.756 125.263C107.472 125.135 107.128 125.071 106.724 125.071H105.987V123.997H106.724C107.048 123.997 107.332 123.939 107.577 123.822C107.824 123.706 108.017 123.544 108.156 123.337C108.295 123.126 108.365 122.881 108.365 122.599C108.365 122.33 108.304 122.095 108.182 121.896C108.063 121.695 107.892 121.537 107.67 121.423C107.452 121.31 107.193 121.253 106.895 121.253C106.611 121.253 106.345 121.305 106.098 121.411C105.854 121.513 105.655 121.661 105.501 121.854C105.348 122.044 105.266 122.273 105.254 122.54H103.98C103.994 122.068 104.134 121.653 104.398 121.295C104.665 120.937 105.017 120.658 105.455 120.456C105.892 120.254 106.378 120.153 106.912 120.153C107.472 120.153 107.955 120.263 108.361 120.482C108.77 120.697 109.085 120.986 109.307 121.347C109.531 121.707 109.642 122.102 109.639 122.531C109.642 123.02 109.506 123.435 109.23 123.776C108.957 124.116 108.594 124.345 108.139 124.462V124.53C108.719 124.618 109.168 124.848 109.486 125.22C109.807 125.592 109.966 126.054 109.963 126.605C109.966 127.085 109.832 127.516 109.562 127.896C109.295 128.277 108.93 128.577 108.467 128.795C108.004 129.011 107.474 129.119 106.878 129.119ZM114.612 129.145C113.939 129.142 113.364 128.964 112.886 128.612C112.409 128.26 112.044 127.747 111.791 127.074C111.538 126.401 111.412 125.589 111.412 124.641C111.412 123.695 111.538 122.886 111.791 122.216C112.047 121.545 112.413 121.034 112.891 120.682C113.371 120.33 113.945 120.153 114.612 120.153C115.28 120.153 115.852 120.331 116.33 120.686C116.807 121.038 117.172 121.55 117.425 122.22C117.68 122.888 117.808 123.695 117.808 124.641C117.808 125.592 117.682 126.405 117.429 127.078C117.176 127.749 116.811 128.261 116.334 128.616C115.857 128.969 115.283 129.145 114.612 129.145ZM114.612 128.007C115.203 128.007 115.665 127.719 115.997 127.142C116.332 126.565 116.5 125.732 116.5 124.641C116.5 123.916 116.423 123.304 116.27 122.804C116.119 122.301 115.902 121.92 115.618 121.662C115.337 121.401 115.001 121.27 114.612 121.27C114.024 121.27 113.563 121.56 113.227 122.139C112.892 122.719 112.723 123.553 112.72 124.641C112.72 125.368 112.795 125.983 112.946 126.486C113.099 126.986 113.317 127.365 113.598 127.624C113.879 127.879 114.217 128.007 114.612 128.007ZM122.615 120.273H124.213L126.991 127.057H127.094L129.872 120.273H131.47V129H130.217V122.685H130.136L127.562 128.987H126.523L123.949 122.68H123.868V129H122.615V120.273ZM135.187 129.145C134.772 129.145 134.397 129.068 134.062 128.915C133.727 128.759 133.461 128.533 133.265 128.237C133.072 127.942 132.975 127.58 132.975 127.151C132.975 126.781 133.047 126.477 133.189 126.239C133.331 126 133.522 125.811 133.764 125.672C134.005 125.533 134.275 125.428 134.574 125.357C134.872 125.286 135.176 125.232 135.485 125.195C135.877 125.149 136.196 125.112 136.44 125.084C136.684 125.053 136.862 125.003 136.973 124.935C137.083 124.866 137.139 124.756 137.139 124.602V124.572C137.139 124.2 137.034 123.912 136.824 123.707C136.616 123.503 136.306 123.401 135.895 123.401C135.466 123.401 135.127 123.496 134.88 123.686C134.636 123.874 134.467 124.082 134.373 124.312L133.176 124.04C133.318 123.642 133.525 123.321 133.798 123.077C134.074 122.83 134.39 122.651 134.748 122.54C135.106 122.426 135.483 122.369 135.877 122.369C136.139 122.369 136.416 122.401 136.708 122.463C137.004 122.523 137.279 122.634 137.535 122.795C137.794 122.957 138.005 123.189 138.17 123.49C138.335 123.788 138.417 124.176 138.417 124.653V129H137.173V128.105H137.122C137.039 128.27 136.916 128.432 136.751 128.591C136.586 128.75 136.375 128.882 136.116 128.987C135.858 129.092 135.548 129.145 135.187 129.145ZM135.464 128.122C135.816 128.122 136.118 128.053 136.368 127.913C136.62 127.774 136.812 127.592 136.943 127.368C137.076 127.141 137.143 126.898 137.143 126.639V125.795C137.098 125.841 137.01 125.884 136.879 125.923C136.751 125.96 136.605 125.993 136.44 126.021C136.275 126.047 136.115 126.071 135.958 126.094C135.802 126.114 135.672 126.131 135.566 126.145C135.319 126.176 135.093 126.229 134.889 126.303C134.687 126.376 134.525 126.483 134.403 126.622C134.284 126.759 134.224 126.94 134.224 127.168C134.224 127.483 134.341 127.722 134.574 127.884C134.806 128.043 135.103 128.122 135.464 128.122ZM140.114 129V122.455H141.346V123.494H141.414C141.533 123.142 141.744 122.865 142.045 122.663C142.349 122.459 142.692 122.357 143.076 122.357C143.156 122.357 143.249 122.359 143.357 122.365C143.468 122.371 143.555 122.378 143.617 122.386V123.605C143.566 123.591 143.475 123.575 143.344 123.558C143.214 123.538 143.083 123.528 142.952 123.528C142.651 123.528 142.383 123.592 142.147 123.72C141.914 123.845 141.729 124.02 141.593 124.244C141.457 124.466 141.388 124.719 141.388 125.003V129H140.114ZM147.243 129.132C146.609 129.132 146.064 128.989 145.606 128.702C145.152 128.412 144.802 128.013 144.558 127.504C144.314 126.996 144.191 126.413 144.191 125.757C144.191 125.092 144.316 124.506 144.566 123.997C144.816 123.486 145.169 123.087 145.623 122.8C146.078 122.513 146.613 122.369 147.23 122.369C147.727 122.369 148.17 122.462 148.559 122.646C148.949 122.828 149.262 123.084 149.501 123.413C149.743 123.743 149.886 124.128 149.931 124.568H148.691C148.623 124.261 148.467 123.997 148.223 123.776C147.981 123.554 147.657 123.443 147.251 123.443C146.896 123.443 146.585 123.537 146.318 123.724C146.054 123.909 145.848 124.173 145.7 124.517C145.552 124.858 145.478 125.261 145.478 125.727C145.478 126.205 145.551 126.616 145.696 126.963C145.841 127.31 146.045 127.578 146.309 127.768C146.576 127.959 146.89 128.054 147.251 128.054C147.493 128.054 147.711 128.01 147.907 127.922C148.106 127.831 148.272 127.702 148.406 127.534C148.542 127.366 148.637 127.165 148.691 126.929H149.931C149.886 127.352 149.748 127.73 149.518 128.062C149.288 128.395 148.98 128.656 148.593 128.847C148.21 129.037 147.76 129.132 147.243 129.132ZM152.568 125.114V129H151.294V120.273H152.551V123.52H152.632C152.786 123.168 153.02 122.888 153.335 122.68C153.651 122.473 154.063 122.369 154.571 122.369C155.02 122.369 155.412 122.462 155.747 122.646C156.085 122.831 156.347 123.107 156.531 123.473C156.719 123.837 156.812 124.291 156.812 124.837V129H155.538V124.99C155.538 124.51 155.415 124.138 155.168 123.874C154.92 123.607 154.577 123.473 154.136 123.473C153.835 123.473 153.565 123.537 153.327 123.665C153.091 123.793 152.905 123.98 152.768 124.227C152.635 124.472 152.568 124.767 152.568 125.114ZM160.17 127.807L160.107 128.271C160.064 128.612 159.991 128.967 159.889 129.337C159.79 129.709 159.686 130.054 159.578 130.372C159.473 130.69 159.386 130.943 159.318 131.131H158.415C158.452 130.955 158.503 130.716 158.568 130.415C158.634 130.116 158.697 129.783 158.76 129.413C158.822 129.044 158.869 128.668 158.901 128.284L158.943 127.807H160.17ZM164.988 129V128.045L167.941 124.986C168.256 124.653 168.516 124.362 168.721 124.112C168.928 123.859 169.083 123.619 169.185 123.392C169.288 123.165 169.339 122.923 169.339 122.668C169.339 122.378 169.271 122.128 169.134 121.918C168.998 121.705 168.812 121.541 168.576 121.428C168.34 121.311 168.075 121.253 167.779 121.253C167.467 121.253 167.194 121.317 166.961 121.445C166.728 121.572 166.549 121.753 166.424 121.986C166.299 122.219 166.237 122.491 166.237 122.804H164.979C164.979 122.273 165.102 121.808 165.346 121.411C165.59 121.013 165.925 120.705 166.352 120.486C166.778 120.264 167.262 120.153 167.805 120.153C168.353 120.153 168.836 120.263 169.254 120.482C169.674 120.697 170.002 120.993 170.238 121.368C170.474 121.74 170.592 122.161 170.592 122.629C170.592 122.953 170.531 123.27 170.408 123.58C170.289 123.889 170.08 124.234 169.782 124.615C169.484 124.993 169.069 125.452 168.538 125.991L166.803 127.807V127.871H170.732V129H164.988ZM175.386 129.145C174.712 129.142 174.137 128.964 173.66 128.612C173.183 128.26 172.817 127.747 172.565 127.074C172.312 126.401 172.185 125.589 172.185 124.641C172.185 123.695 172.312 122.886 172.565 122.216C172.82 121.545 173.187 121.034 173.664 120.682C174.144 120.33 174.718 120.153 175.386 120.153C176.053 120.153 176.626 120.331 177.103 120.686C177.58 121.038 177.945 121.55 178.198 122.22C178.454 122.888 178.582 123.695 178.582 124.641C178.582 125.592 178.455 126.405 178.202 127.078C177.95 127.749 177.585 128.261 177.107 128.616C176.63 128.969 176.056 129.145 175.386 129.145ZM175.386 128.007C175.977 128.007 176.438 127.719 176.771 127.142C177.106 126.565 177.273 125.732 177.273 124.641C177.273 123.916 177.197 123.304 177.043 122.804C176.893 122.301 176.675 121.92 176.391 121.662C176.11 121.401 175.775 121.27 175.386 121.27C174.798 121.27 174.336 121.56 174.001 122.139C173.665 122.719 173.496 123.553 173.494 124.641C173.494 125.368 173.569 125.983 173.719 126.486C173.873 126.986 174.09 127.365 174.371 127.624C174.653 127.879 174.991 128.007 175.386 128.007ZM180.093 129V128.045L183.047 124.986C183.362 124.653 183.622 124.362 183.826 124.112C184.034 123.859 184.189 123.619 184.291 123.392C184.393 123.165 184.444 122.923 184.444 122.668C184.444 122.378 184.376 122.128 184.24 121.918C184.103 121.705 183.917 121.541 183.681 121.428C183.446 121.311 183.18 121.253 182.885 121.253C182.572 121.253 182.299 121.317 182.066 121.445C181.833 121.572 181.654 121.753 181.529 121.986C181.404 122.219 181.342 122.491 181.342 122.804H180.085C180.085 122.273 180.207 121.808 180.451 121.411C180.696 121.013 181.031 120.705 181.457 120.486C181.883 120.264 182.368 120.153 182.91 120.153C183.458 120.153 183.941 120.263 184.359 120.482C184.779 120.697 185.108 120.993 185.343 121.368C185.579 121.74 185.697 122.161 185.697 122.629C185.697 122.953 185.636 123.27 185.514 123.58C185.395 123.889 185.186 124.234 184.887 124.615C184.589 124.993 184.174 125.452 183.643 125.991L181.909 127.807V127.871H185.838V129H180.093ZM187.082 127.295V126.23L190.853 120.273H191.693V121.841H191.16L188.463 126.111V126.179H193.632V127.295H187.082ZM191.22 129V126.972L191.228 126.486V120.273H192.477V129H191.22Z" fill="#B42318"/>
</g>
<line x1="41.5" y1="96" x2="41.5" y2="110" stroke="#0C111D" stroke-opacity="0.6" stroke-dasharray="2 2"/>
<line x1="41.5" y1="140" x2="41.5" y2="154" stroke="#0C111D" stroke-opacity="0.6" stroke-dasharray="2 2"/>
</svg>
