<svg width="29" height="28" viewBox="0 0 29 28" fill="none" xmlns="http://www.w3.org/2000/svg">
<path d="M8.53339 22.4C7.27973 22.3983 6.07438 21.9162 5.16537 21.0529C4.25637 20.1895 3.71285 19.0106 3.64667 17.7587C3.58049 16.5068 3.99667 15.2771 4.80958 14.3227C5.62249 13.3683 6.77029 12.7618 8.01679 12.628C7.64976 11.1886 7.86954 9.66243 8.62779 8.38512C9.38604 7.10781 10.6206 6.18403 12.06 5.81699C13.4993 5.44996 15.0256 5.66974 16.3029 6.42799C17.5802 7.18624 18.504 8.42084 18.871 9.86019C19.727 9.741 20.5984 9.79922 21.431 10.0312C22.2635 10.2632 23.0395 10.6641 23.7105 11.2088C24.3815 11.7535 24.9332 12.4305 25.3314 13.1976C25.7296 13.9647 25.9657 14.8055 26.025 15.6677C26.0843 16.53 25.9655 17.3952 25.6761 18.2096C25.3867 19.024 24.9328 19.7701 24.3427 20.4016C23.7526 21.033 23.0388 21.5363 22.2459 21.8801C21.4529 22.2239 20.5977 22.4009 19.7334 22.4H8.53339Z" fill="#A9D1E5"/>
</svg>
