<svg width="29" height="28" viewBox="0 0 29 28" fill="none" xmlns="http://www.w3.org/2000/svg">
<path fill-rule="evenodd" clip-rule="evenodd" d="M4.0481 5.41103C3.66663 6.15972 3.66663 7.13982 3.66663 9.1V16.5667C3.66663 18.5268 3.66663 19.5069 4.0481 20.2556C4.38366 20.9142 4.91909 21.4496 5.57766 21.7852C5.9933 21.997 6.48025 22.0912 7.16663 22.1331V23.3333C7.16663 23.9777 7.68896 24.5 8.33329 24.5C8.97762 24.5 9.49996 23.9777 9.49996 23.3333V22.1667H18.8333V23.3333C18.8333 23.9777 19.3556 24.5 20 24.5C20.6443 24.5 21.1666 23.9777 21.1666 23.3333V22.1331C21.853 22.0912 22.34 21.997 22.7556 21.7852C23.4142 21.4496 23.9496 20.9142 24.2851 20.2556C24.6666 19.5069 24.6666 18.5268 24.6666 16.5667V9.1C24.6666 7.13982 24.6666 6.15972 24.2851 5.41103C23.9496 4.75247 23.4142 4.21703 22.7556 3.88148C22.0069 3.5 21.0268 3.5 19.0666 3.5H9.26663C7.30644 3.5 6.32635 3.5 5.57766 3.88148C4.91909 4.21703 4.38366 4.75247 4.0481 5.41103Z" fill="#A9D1E5"/>
<path fill-rule="evenodd" clip-rule="evenodd" d="M13 8.16667C13 7.52233 13.5223 7 14.1666 7C14.811 7 15.3333 7.52233 15.3333 8.16667V9.53249C16.3278 9.88399 17.116 10.6722 17.4675 11.6667L18.8333 11.6667C19.4776 11.6667 20 12.189 20 12.8333C20 13.4777 19.4776 14 18.8333 14H17.4675C17.116 14.9945 16.3278 15.7827 15.3333 16.1342V17.5C15.3333 18.1443 14.811 18.6667 14.1666 18.6667C13.5223 18.6667 13 18.1443 13 17.5V16.1342C12.0055 15.7827 11.2173 14.9945 10.8658 14H9.49998C8.85565 14 8.33331 13.4777 8.33331 12.8333C8.33331 12.189 8.85565 11.6667 9.49998 11.6667L10.8658 11.6667C11.2173 10.6722 12.0055 9.88399 13 9.53249V8.16667ZM13 12.8333C13 13.4777 13.5223 14 14.1666 14C14.811 14 15.3333 13.4777 15.3333 12.8333C15.3333 12.189 14.811 11.6667 14.1666 11.6667C13.5223 11.6667 13 12.189 13 12.8333Z" fill="#207098"/>
</svg>
