<svg width="29" height="28" viewBox="0 0 29 28" fill="none" xmlns="http://www.w3.org/2000/svg">
<path d="M26.0245 9.08926C26.1177 9.54494 26.1667 10.0168 26.1667 10.5C26.1667 10.5 26.1667 10.5 26.1667 10.5C26.1667 19.0763 18.3833 23.1072 15.5314 24.2963C14.867 24.5733 14.1331 24.5733 13.4687 24.2963C13.1122 24.1476 12.6787 23.9546 12.1929 23.7138C8.79251 22.0284 2.83337 18.0043 2.83337 10.5001C2.83337 6.63411 5.96738 3.5 9.83337 3.5C11.6262 3.5 13.2616 4.17399 14.5 5.28242C15.7385 4.17399 17.3739 3.5 19.1667 3.5C20.6774 3.5 22.0763 3.97856 23.2202 4.79234C24.6376 5.80078 25.6633 7.324 26.0245 9.08926Z" fill="#A9D1E5"/>
</svg>
