<svg width="28" height="28" viewBox="0 0 28 28" fill="none" xmlns="http://www.w3.org/2000/svg">
<g clip-path="url(#clip0_1287_84074)">
<rect y="-0.000488281" width="28" height="28" rx="14" fill="#334155" fill-opacity="0.5"/>
<path d="M19.2295 10.9995C18.8445 11.1745 18.4295 11.2895 17.9995 11.3445C18.4395 11.0795 18.7795 10.6595 18.9395 10.1545C18.5245 10.4045 18.0645 10.5795 17.5795 10.6795C17.1845 10.2495 16.6295 9.99951 15.9995 9.99951C14.8245 9.99951 13.8645 10.9595 13.8645 12.1445C13.8645 12.3145 13.8845 12.4795 13.9195 12.6345C12.1395 12.5445 10.5545 11.6895 9.49953 10.3945C9.31453 10.7095 9.20953 11.0795 9.20953 11.4695C9.20953 12.2145 9.58453 12.8745 10.1645 13.2495C9.80953 13.2495 9.47953 13.1495 9.18953 12.9995V13.0145C9.18953 14.0545 9.92953 14.9245 10.9095 15.1195C10.5949 15.2056 10.2646 15.2176 9.94453 15.1545C10.0803 15.5808 10.3463 15.9537 10.705 16.221C11.0638 16.4882 11.4973 16.6364 11.9445 16.6445C11.1863 17.2447 10.2465 17.5692 9.27953 17.5645C9.10953 17.5645 8.93953 17.5545 8.76953 17.5345C9.71953 18.1445 10.8495 18.4995 12.0595 18.4995C15.9995 18.4995 18.1645 15.2295 18.1645 12.3945C18.1645 12.2995 18.1645 12.2095 18.1595 12.1145C18.5795 11.8145 18.9395 11.4345 19.2295 10.9995Z" fill="white"/>
</g>
<defs>
<clipPath id="clip0_1287_84074">
<rect y="-0.000488281" width="28" height="28" rx="14" fill="white"/>
</clipPath>
</defs>
</svg>
