<svg width="28" height="28" viewBox="0 0 28 28" fill="none" xmlns="http://www.w3.org/2000/svg">
<g clip-path="url(#clip0_1287_84080)">
<rect y="-0.000488281" width="28" height="28" rx="14" fill="#334155" fill-opacity="0.5"/>
<path d="M17.5 9.49951C17.7652 9.49951 18.0196 9.60487 18.2071 9.7924C18.3946 9.97994 18.5 10.2343 18.5 10.4995V17.4995C18.5 17.7647 18.3946 18.0191 18.2071 18.2066C18.0196 18.3942 17.7652 18.4995 17.5 18.4995H10.5C10.2348 18.4995 9.98043 18.3942 9.79289 18.2066C9.60536 18.0191 9.5 17.7647 9.5 17.4995V10.4995C9.5 10.2343 9.60536 9.97994 9.79289 9.7924C9.98043 9.60487 10.2348 9.49951 10.5 9.49951H17.5ZM17.25 17.2495V14.5995C17.25 14.1672 17.0783 13.7526 16.7726 13.4469C16.4669 13.1412 16.0523 12.9695 15.62 12.9695C15.195 12.9695 14.7 13.2295 14.46 13.6195V13.0645H13.065V17.2495H14.46V14.7845C14.46 14.3995 14.77 14.0845 15.155 14.0845C15.3407 14.0845 15.5187 14.1583 15.65 14.2895C15.7813 14.4208 15.855 14.5989 15.855 14.7845V17.2495H17.25ZM11.44 12.2795C11.6628 12.2795 11.8764 12.191 12.034 12.0335C12.1915 11.876 12.28 11.6623 12.28 11.4395C12.28 10.9745 11.905 10.5945 11.44 10.5945C11.2159 10.5945 11.001 10.6835 10.8425 10.842C10.684 11.0005 10.595 11.2154 10.595 11.4395C10.595 11.9045 10.975 12.2795 11.44 12.2795ZM12.135 17.2495V13.0645H10.75V17.2495H12.135Z" fill="white"/>
</g>
<defs>
<clipPath id="clip0_1287_84080">
<rect y="-0.000488281" width="28" height="28" rx="14" fill="white"/>
</clipPath>
</defs>
</svg>
