<svg width="28" height="28" viewBox="0 0 28 28" fill="none" xmlns="http://www.w3.org/2000/svg">
<g clip-path="url(#clip0_5542_15069)">
<rect y="-0.000488281" width="28" height="28" rx="14" fill="#334155" fill-opacity="0.5"/>
<path fill-rule="evenodd" clip-rule="evenodd" d="M12.2715 9.14979C12.9874 9.06999 13.7345 9 14.5 9C15.2655 9 16.0126 9.06999 16.7285 9.14979C17.8431 9.27403 18.7387 10.1689 18.8582 11.2855C18.9344 11.9977 19 12.7398 19 13.5C19 14.2602 18.9344 15.0023 18.8582 15.7145C18.7387 16.8311 17.8431 17.726 16.7285 17.8502C16.0126 17.93 15.2655 18 14.5 18C13.7345 18 12.9874 17.93 12.2715 17.8502C11.1569 17.726 10.2613 16.8311 10.1418 15.7145C10.0656 15.0023 10 14.2602 10 13.5C10 12.7398 10.0656 11.9977 10.1418 11.2855C10.2613 10.1689 11.1569 9.27403 12.2715 9.14979ZM15.388 10.7544C15.34 10.5482 15.145 10.4107 14.9346 10.4349C14.7243 10.459 14.5655 10.6371 14.5655 10.8488V14.7C14.5655 15.2714 14.1023 15.7345 13.5309 15.7345C12.9595 15.7345 12.4963 15.2714 12.4963 14.7C12.4963 14.1286 12.9595 13.6653 13.5309 13.6653C13.761 13.6653 13.9475 13.4788 13.9475 13.2487C13.9475 13.0186 13.761 12.832 13.5309 12.832C12.4992 12.832 11.6629 13.6683 11.6629 14.7C11.6629 15.7316 12.4992 16.5679 13.5309 16.5679C14.5625 16.5679 15.3988 15.7316 15.3988 14.7V12.374C15.7992 12.7135 16.3144 12.9 16.9201 12.9C17.1502 12.9 17.3367 12.7135 17.3367 12.4834C17.3367 12.2533 17.1502 12.0667 16.9201 12.0667C16.48 12.0667 16.1528 11.9307 15.9126 11.7164C15.6674 11.4978 15.4853 11.1726 15.388 10.7544Z" fill="white"/>
</g>
<defs>
<clipPath id="clip0_5542_15069">
<rect y="-0.000488281" width="28" height="28" rx="14" fill="white"/>
</clipPath>
</defs>
</svg>
