<svg width="28" height="28" viewBox="0 0 28 28" fill="none" xmlns="http://www.w3.org/2000/svg">
<g clip-path="url(#clip0_1287_84068)">
<rect y="-0.000488281" width="28" height="28" rx="14" fill="#334155" fill-opacity="0.5"/>
<path d="M10.5 9.49951H17.5C17.7652 9.49951 18.0196 9.60487 18.2071 9.7924C18.3946 9.97994 18.5 10.2343 18.5 10.4995V17.4995C18.5 17.7647 18.3946 18.0191 18.2071 18.2066C18.0196 18.3942 17.7652 18.4995 17.5 18.4995H10.5C10.2348 18.4995 9.98043 18.3942 9.79289 18.2066C9.60536 18.0191 9.5 17.7647 9.5 17.4995V10.4995C9.5 10.2343 9.60536 9.97994 9.79289 9.7924C9.98043 9.60487 10.2348 9.49951 10.5 9.49951ZM17 10.4995H15.75C15.2859 10.4995 14.8408 10.6839 14.5126 11.0121C14.1844 11.3403 14 11.7854 14 12.2495V13.4995H13V14.9995H14V18.4995H15.5V14.9995H17V13.4995H15.5V12.4995C15.5 12.3669 15.5527 12.2397 15.6464 12.146C15.7402 12.0522 15.8674 11.9995 16 11.9995H17V10.4995Z" fill="white"/>
</g>
<defs>
<clipPath id="clip0_1287_84068">
<rect y="-0.000488281" width="28" height="28" rx="14" fill="white"/>
</clipPath>
</defs>
</svg>
