<svg width="68" height="68" viewBox="0 0 68 68" fill="none" xmlns="http://www.w3.org/2000/svg">
<g clip-path="url(#clip0_5219_63934)">
<path d="M67.3337 34.0001C67.3337 52.4096 52.4098 67.3334 34.0003 67.3334C15.5908 67.3334 0.666992 52.4096 0.666992 34.0001C0.666992 15.5906 15.5908 0.666748 34.0003 0.666748C52.4098 0.666748 67.3337 15.5906 67.3337 34.0001Z" fill="#BEDCEB"/>
<path fill-rule="evenodd" clip-rule="evenodd" d="M13.9223 30.6667H0.666992V37.3334H13.9223C14.4283 49.4861 17.6733 58.2353 21.4666 64.1359C21.7111 64.5164 21.958 64.885 22.2067 65.242C25.8324 66.5942 29.7568 67.3334 33.8538 67.3334L33.927 67.3333L34.0002 67.3334C38.0973 67.3334 42.0217 66.5942 45.6474 65.242C45.896 64.885 46.1429 64.5164 46.3875 64.1359C50.1807 58.2353 53.4257 49.4861 53.9317 37.3334H67.3337V30.6667H53.9317C53.4257 18.5141 50.1807 9.76485 46.3875 3.86422C46.1429 3.48381 45.896 3.11517 45.6474 2.75817C42.0217 1.40591 38.0973 0.666748 34.0002 0.666748L33.927 0.666905L33.8538 0.666748C29.7568 0.666748 25.8324 1.40591 22.2067 2.75817C21.958 3.11517 21.7111 3.48381 21.4666 3.86422C17.6733 9.76485 14.4283 18.5141 13.9223 30.6667ZM20.5952 30.6667C21.0935 19.7327 24.0082 12.239 27.0744 7.46927C28.7677 4.83536 30.5035 3.03612 31.9063 1.93089C32.6105 1.3761 33.1953 1.02401 33.6138 0.824721C33.7533 0.758268 33.8571 0.716919 33.927 0.691746C33.997 0.716919 34.1007 0.758268 34.2403 0.824721C34.6588 1.02401 35.2436 1.3761 35.9477 1.93089C37.3505 3.03612 39.0864 4.83536 40.7796 7.46927C43.8459 12.239 46.7606 19.7327 47.2588 30.6667H20.5952ZM47.2588 37.3334C46.7606 48.2675 43.8459 55.7612 40.7796 60.5309C39.0864 63.1648 37.3505 64.964 35.9477 66.0693C35.2436 66.6241 34.6588 66.9762 34.2403 67.1754C34.1007 67.2419 33.997 67.2832 33.927 67.3084C33.857 67.2832 33.7533 67.2419 33.6138 67.1754C33.1953 66.9762 32.6105 66.6241 31.9063 66.0693C30.5035 64.964 28.7677 63.1648 27.0744 60.5309C24.0082 55.7612 21.0935 48.2675 20.5952 37.3334H47.2588Z" fill="#298DBE"/>
</g>
<defs>
<clipPath id="clip0_5219_63934">
<rect width="68" height="68" fill="white"/>
</clipPath>
</defs>
</svg>
