<svg width="20" height="21" viewBox="0 0 20 21" fill="none" xmlns="http://www.w3.org/2000/svg">
<path d="M2.5 15.59V10.59C2.5 8.60084 3.29018 6.69319 4.6967 5.28666C6.10322 3.88014 8.01088 3.08997 10 3.08997C11.9891 3.08997 13.8968 3.88014 15.3033 5.28666C16.7098 6.69319 17.5 8.60084 17.5 10.59V15.59M17.5 16.4233C17.5 16.8653 17.3244 17.2892 17.0118 17.6018C16.6993 17.9144 16.2754 18.09 15.8333 18.09H15C14.558 18.09 14.134 17.9144 13.8215 17.6018C13.5089 17.2892 13.3333 16.8653 13.3333 16.4233V13.9233C13.3333 13.4813 13.5089 13.0573 13.8215 12.7448C14.134 12.4322 14.558 12.2566 15 12.2566H17.5V16.4233ZM2.5 16.4233C2.5 16.8653 2.67559 17.2892 2.98816 17.6018C3.30072 17.9144 3.72464 18.09 4.16667 18.09H5C5.44203 18.09 5.86595 17.9144 6.17851 17.6018C6.49107 17.2892 6.66667 16.8653 6.66667 16.4233V13.9233C6.66667 13.4813 6.49107 13.0573 6.17851 12.7448C5.86595 12.4322 5.44203 12.2566 5 12.2566H2.5V16.4233Z" stroke="#298DBE" stroke-width="1.66667" stroke-linecap="round" stroke-linejoin="round"/>
</svg>
