<svg width="24" height="24" viewBox="0 0 24 24" fill="none" xmlns="http://www.w3.org/2000/svg">
<path d="M13.3248 10.6755L5.44059 18.5597M6.29145 12.8378L2.42965 11.9256C2.00478 11.8252 1.85535 11.2977 2.16313 10.9888L5.23428 7.91768C5.44059 7.71138 5.72049 7.59317 6.01378 7.59094L9.47635 7.56083M13.8377 3.59866C16.4149 5.35616 18.6441 7.58536 20.4016 10.1625M11.1614 17.7088L12.0736 21.5706C12.1739 21.9955 12.7014 22.1449 13.0103 21.8371L16.0814 18.766C16.2878 18.5597 16.406 18.2798 16.4082 17.9865L16.4383 14.5239M21.0629 8.35036L21.9639 4.01462C22.2093 2.83478 21.1655 1.79099 19.9856 2.03632L15.6499 2.93737C14.373 3.20278 13.2021 3.83508 12.281 4.75732L8.72362 8.31356C7.36647 9.67071 6.48326 11.4304 6.20447 13.3296L6.19221 13.411C6.01601 14.6231 6.42193 15.8465 7.28729 16.713C8.15266 17.5783 9.3771 17.9842 10.5893 17.8069L10.6707 17.7947C12.5698 17.517 14.3295 16.6327 15.6867 15.2755L19.2429 11.7193C20.1652 10.7981 20.7975 9.62722 21.0629 8.35036Z" stroke="#4A1FB8" stroke-width="2" stroke-linecap="round" stroke-linejoin="round"/>
</svg>
