<svg width="64" height="60" viewBox="0 0 64 60" fill="none" xmlns="http://www.w3.org/2000/svg">
<path d="M0 8C0 5.87827 0.842854 3.84344 2.34315 2.34315C3.84344 0.842854 5.87827 0 8 0H36C38.1217 0 40.1566 0.842854 41.6569 2.34315C43.1571 3.84344 44 5.87827 44 8V24C44 26.1217 43.1571 28.1566 41.6569 29.6569C40.1566 31.1571 38.1217 32 36 32H28L16 44V32H8C5.87827 32 3.84344 31.1571 2.34315 29.6569C0.842854 28.1566 0 26.1217 0 24V8Z" fill="#298DBE"/>
<path d="M51.9981 16V24C51.9981 28.2435 50.3124 32.3131 47.3118 35.3137C44.3112 38.3143 40.2416 40 35.9981 40H31.3101L24.2461 47.068C25.3661 47.664 26.6421 48 27.9981 48H35.9981L47.9981 60V48H55.9981C58.1198 48 60.1547 47.1571 61.6549 45.6569C63.1552 44.1566 63.9981 42.1217 63.9981 40V24C63.9981 21.8783 63.1552 19.8434 61.6549 18.3431C60.1547 16.8429 58.1198 16 55.9981 16H51.9981Z" fill="#298DBE"/>
</svg>
