<svg width="24" height="24" viewBox="0 0 24 24" fill="none" xmlns="http://www.w3.org/2000/svg">
<path d="M7 22.0002H4C3.46957 22.0002 2.96086 21.7895 2.58579 21.4145C2.21071 21.0394 2 20.5307 2 20.0002V13.0002C2 12.4698 2.21071 11.9611 2.58579 11.586C2.96086 11.211 3.46957 11.0002 4 11.0002H7M14 9.00024V5.00024C14 4.20459 13.6839 3.44153 13.1213 2.87892C12.5587 2.31631 11.7956 2.00024 11 2.00024L7 11.0002V22.0002H18.28C18.7623 22.0057 19.2304 21.8366 19.5979 21.5243C19.9654 21.2119 20.2077 20.7771 20.28 20.3002L21.66 11.3002C21.7035 11.0136 21.6842 10.7209 21.6033 10.4425C21.5225 10.1641 21.3821 9.90654 21.1919 9.68776C21.0016 9.46898 20.7661 9.29418 20.5016 9.17546C20.2371 9.05675 19.9499 8.99696 19.66 9.00024H14Z" stroke="#A11043" stroke-width="2" stroke-linecap="round" stroke-linejoin="round"/>
</svg>
