<svg width="20" height="21" viewBox="0 0 20 21" fill="none" xmlns="http://www.w3.org/2000/svg">
<path d="M14.1668 17.795V16.1284C14.1668 15.2443 13.8156 14.3965 13.1905 13.7714C12.5654 13.1462 11.7176 12.795 10.8335 12.795H4.16683C3.28277 12.795 2.43493 13.1462 1.80981 13.7714C1.18469 14.3965 0.833496 15.2443 0.833496 16.1284V17.795M19.1668 17.795V16.1284C19.1663 15.3898 18.9205 14.6724 18.468 14.0886C18.0155 13.5049 17.3819 13.088 16.6668 12.9034M13.3335 2.90338C14.0505 3.08696 14.686 3.50396 15.1399 4.08864C15.5937 4.67331 15.84 5.3924 15.84 6.13254C15.84 6.87269 15.5937 7.59178 15.1399 8.17645C14.686 8.76113 14.0505 9.17813 13.3335 9.36171M10.8335 6.12838C10.8335 7.96933 9.34111 9.46171 7.50016 9.46171C5.65921 9.46171 4.16683 7.96933 4.16683 6.12838C4.16683 4.28743 5.65921 2.79504 7.50016 2.79504C9.34111 2.79504 10.8335 4.28743 10.8335 6.12838Z" stroke="#027A48" stroke-width="1.66667" stroke-linecap="round" stroke-linejoin="round"/>
</svg>
