<svg width="151" height="33" viewBox="0 0 151 33" fill="none" xmlns="http://www.w3.org/2000/svg">
<path d="M35.6912 12.507C35.2557 11.444 34.5986 10.4915 33.7178 9.64725C32.9119 8.8894 32.0051 8.32839 30.9972 7.96532C29.9893 7.60225 28.8804 7.42072 27.6716 7.42072C26.4726 7.42072 25.3507 7.61865 24.3059 8.01344C23.2611 8.40822 22.3455 8.9911 21.5614 9.75989C20.6914 10.6041 20.0496 11.5413 19.6358 12.5715C19.222 13.6027 19.0156 14.7477 19.0156 16.0086C19.0156 17.2903 19.2567 18.5031 19.74 19.6459C20.2223 20.7887 20.9097 21.7609 21.8003 22.5614C22.5747 23.2558 23.4653 23.7763 24.4731 24.123C25.481 24.4697 26.5519 24.6435 27.6868 24.6435C28.8533 24.6435 29.9307 24.4697 30.9168 24.123C31.903 23.7763 32.7838 23.2503 33.5581 22.545C34.4813 21.7018 35.1753 20.7165 35.6423 19.589C36.1093 18.4626 36.3428 17.2794 36.3428 16.0403C36.3439 14.7466 36.1256 13.5699 35.6912 12.507ZM32.8359 18.3336C32.534 19.063 32.0843 19.7016 31.4859 20.2473C30.9841 20.7034 30.415 21.0446 29.7764 21.2687C29.1378 21.4929 28.4406 21.6056 27.6857 21.6056C26.9505 21.6056 26.2576 21.4929 25.6048 21.2687C24.9521 21.0446 24.3754 20.7066 23.8747 20.2572C23.298 19.7388 22.8527 19.1089 22.541 18.3697C22.2282 17.6293 22.0718 16.8452 22.0718 16.0152C22.0718 15.1994 22.2054 14.4579 22.4737 13.7897C22.7419 13.1227 23.1568 12.5157 23.7205 11.9689C24.2288 11.4713 24.8207 11.0941 25.4973 10.8382C26.1739 10.5823 26.8994 10.4543 27.676 10.4543C28.459 10.4543 29.1769 10.5724 29.8286 10.8064C30.4813 11.0416 31.0678 11.4046 31.5902 11.8957C32.1604 12.4424 32.5861 13.0592 32.8674 13.7471C33.1487 14.435 33.2899 15.1972 33.2899 16.0338C33.2888 16.8386 33.1378 17.6042 32.8359 18.3336Z" fill="#298DBE"/>
<path d="M47.1282 16.6411C46.6873 15.9816 46.04 15.378 45.2059 14.8476C44.8269 14.6081 44.2415 14.303 43.4171 13.9159C42.6297 13.5451 42.002 13.2225 41.548 12.9546C41.1907 12.7479 40.8757 12.4931 40.6118 12.1946C40.3826 11.9365 40.2719 11.6368 40.2719 11.2781C40.2719 11.0211 40.3587 10.7445 40.5293 10.4547C40.6987 10.1671 40.9963 9.91225 41.4144 9.69572C41.7066 9.54262 42.0737 9.42232 42.5037 9.33921C42.9469 9.25282 43.4204 9.20908 43.9124 9.20908C45.0549 9.20908 45.927 8.90506 46.5048 8.30578C47.201 7.58292 47.188 6.69712 47.1869 6.65994L47.1771 6.27172H46.7937C46.7644 6.27172 46.6341 6.26844 46.0509 6.23781C45.6045 6.21485 45.0278 6.20282 44.337 6.20282C43.5648 6.20282 42.7557 6.26515 41.9336 6.38654C41.0842 6.5123 40.2968 6.77258 39.5963 7.15642C38.7753 7.59604 38.1095 8.18658 37.6175 8.91053C37.1168 9.6487 36.8627 10.4918 36.8627 11.4148C36.8627 12.3334 37.0853 13.1547 37.5241 13.8557C37.9542 14.5447 38.5808 15.1461 39.3878 15.647C39.9287 15.974 40.6064 16.3184 41.4014 16.6717C42.1605 17.0096 42.7622 17.3289 43.1977 17.6264C43.579 17.8768 43.8798 18.1349 44.0894 18.3941C44.2686 18.6139 44.3555 18.9037 44.3555 19.281C44.3555 19.7107 44.248 20.064 44.0286 20.3614C43.8005 20.6698 43.4323 20.9388 42.9317 21.1619C42.5656 21.3271 42.0867 21.443 41.51 21.5064C41.4492 21.513 41.2721 21.5239 40.7682 21.5239C40.3327 21.5239 39.7473 21.5162 39.0261 21.4998C39.012 21.4998 38.9979 21.4998 38.9838 21.4987C38.4418 21.4966 37.9075 21.6726 37.4807 22.0105C36.8323 22.5245 36.4902 23.2857 36.526 24.0949L36.5412 24.4252L36.8638 24.4711C36.8963 24.4755 36.9974 24.4897 37.8923 24.5673C38.4929 24.6198 39.0826 24.6461 39.6452 24.6461C40.8106 24.6461 41.8923 24.5302 42.8589 24.3016C43.8396 24.0698 44.703 23.722 45.4242 23.2671C46.128 22.8253 46.7068 22.2402 47.1434 21.5283C47.5877 20.8043 47.8125 19.9732 47.8125 19.0557C47.8146 18.1349 47.5833 17.3224 47.1282 16.6411Z" fill="#298DBE"/>
<path d="M6.00391 9.81164C6.09514 9.81164 9.17959 9.7668 9.99631 9.83461C12.1967 10.1047 13.3077 11.6871 13.7139 12.4395C14.1212 13.1919 14.3243 14.0438 14.3243 14.9963C14.3243 16.2572 14.0875 17.283 13.614 18.0737C13.1405 18.8643 12.4476 19.5172 11.5364 20.0323C11.014 20.3286 10.3308 20.5626 9.48586 20.7365C7.92626 21.1226 4.96128 20.8962 3.49726 21.4364C1.11224 22.3146 0.165185 24.7467 0.165185 26.1541C0.165185 27.2915 0.156496 27.2565 0.151066 28.3172C0.136947 30.4957 0.128258 32.0431 0.125 32.9595C3.74922 32.9595 5.03079 31.6177 4.64198 24.7981C4.64198 24.7051 4.71366 24.6297 4.80163 24.6319C5.52387 24.6461 8.49645 24.6854 9.75629 24.4208C11.1964 24.119 12.4867 23.6389 13.6292 22.9838C15.0748 22.1483 16.226 21.0482 17.0829 19.6845C17.9398 18.3208 18.3678 16.6432 18.3678 14.6486C18.3678 12.9502 17.942 11.4236 17.0916 10.0664C16.2412 8.70931 15.0509 7.59167 13.4468 6.87319C12.1446 6.29031 7.80571 6.20282 5.32946 6.20282C4.34874 6.20282 4.36829 6.82616 4.36829 6.82944C4.36829 6.82944 4.36829 8.96849 4.36829 9.29C4.36829 9.61152 4.48884 9.81055 5.26864 9.81055H6.00391V9.81164Z" fill="#298DBE"/>
<path d="M3.56323 20.8833C4.12147 20.7367 3.99331 20.4076 3.99331 20.0948L3.99331 11.6633L3.99331 6.99587C3.99331 6.57594 3.63274 6.23474 3.18853 6.23474H1.04788C0.60259 6.23474 0.242014 6.57703 0.2431 6.99697L0.195312 23.9584C1.15649 21.6717 3.37425 20.9336 3.56323 20.8833Z" fill="#247EAB"/>
<path d="M2.12802 5.24543C3.3033 5.24543 4.25604 4.28609 4.25604 3.10269C4.25604 1.9193 3.3033 0.959961 2.12802 0.959961C0.952748 0.959961 0 1.9193 0 3.10269C0 4.28609 0.952748 5.24543 2.12802 5.24543Z" fill="#247EAB"/>
<path d="M56.8125 22.2983V7.44318H58.9664V12.9631H59.0961C59.2209 12.731 59.401 12.4626 59.6363 12.1579C59.8717 11.8533 60.1982 11.5873 60.616 11.3601C61.0339 11.1279 61.5861 11.0119 62.2729 11.0119C63.1661 11.0119 63.9634 11.2392 64.6645 11.6937C65.3657 12.1483 65.9156 12.8035 66.3142 13.6594C66.7176 14.5153 66.9193 15.5453 66.9193 16.7494C66.9193 17.9535 66.72 18.9859 66.3214 19.8466C65.9228 20.7025 65.3753 21.3626 64.6789 21.8268C63.9826 22.2862 63.1878 22.5159 62.2945 22.5159C61.6222 22.5159 61.0723 22.4023 60.6449 22.175C60.2222 21.9477 59.8909 21.6818 59.6508 21.3771C59.4106 21.0725 59.2257 20.8017 59.0961 20.5647H58.916V22.2983H56.8125ZM58.9232 16.7276C58.9232 17.511 59.036 18.1977 59.2618 18.7876C59.4875 19.3776 59.814 19.8394 60.2415 20.173C60.6689 20.5019 61.1923 20.6663 61.8119 20.6663C62.4554 20.6663 62.9933 20.4946 63.4255 20.1513C63.8577 19.8031 64.1843 19.3316 64.4052 18.7368C64.6309 18.1421 64.7438 17.4723 64.7438 16.7276C64.7438 15.9926 64.6333 15.3325 64.4124 14.7474C64.1963 14.1623 63.8697 13.7005 63.4327 13.362C63.0005 13.0235 62.4602 12.8543 61.8119 12.8543C61.1875 12.8543 60.6593 13.0163 60.227 13.3403C59.7996 13.6642 59.4755 14.1164 59.2545 14.6967C59.0336 15.2769 58.9232 15.9539 58.9232 16.7276Z" fill="white"/>
<path d="M70.323 26.4763C70.0012 26.4763 69.7083 26.4497 69.4442 26.3965C69.18 26.3482 68.9831 26.295 68.8535 26.237L69.3721 24.4598C69.7659 24.5662 70.1165 24.6122 70.4239 24.5977C70.7312 24.5832 71.0026 24.4671 71.2379 24.2495C71.478 24.0319 71.6893 23.6765 71.8718 23.1832L72.1383 22.4434L68.0899 11.157H70.395L73.1973 19.8031H73.3125L76.1148 11.157H78.4271L73.8672 23.7853C73.6559 24.3656 73.387 24.8564 73.0604 25.2577C72.7338 25.6639 72.3448 25.9686 71.8934 26.1717C71.442 26.3748 70.9185 26.4763 70.323 26.4763Z" fill="white"/>
<path d="M88.8815 22.2983L84.7898 7.44318H87.131L90.0053 18.9472H90.1421L93.1317 7.44318H95.4512L98.4408 18.9545H98.5776L101.445 7.44318H103.793L99.6942 22.2983H97.4539L94.3491 11.1715H94.2338L91.129 22.2983H88.8815Z" fill="white"/>
<path d="M107.78 22.5449C107.079 22.5449 106.445 22.4144 105.879 22.1532C105.312 21.8873 104.863 21.5028 104.531 20.9999C104.205 20.497 104.042 19.8805 104.042 19.1503C104.042 18.5217 104.162 18.0042 104.402 17.5981C104.642 17.1919 104.966 16.8703 105.374 16.6333C105.783 16.3964 106.239 16.2175 106.743 16.0966C107.247 15.9757 107.761 15.8838 108.285 15.8209C108.947 15.7436 109.485 15.6807 109.898 15.6324C110.311 15.5792 110.611 15.4945 110.799 15.3785C110.986 15.2624 111.08 15.0738 111.08 14.8127V14.7619C111.08 14.1285 110.902 13.6377 110.547 13.2895C110.196 12.9413 109.673 12.7672 108.976 12.7672C108.251 12.7672 107.679 12.9292 107.262 13.2532C106.849 13.5724 106.563 13.9278 106.404 14.3195L104.38 13.8553C104.62 13.1783 104.971 12.6318 105.432 12.216C105.898 11.7953 106.433 11.4906 107.038 11.302C107.643 11.1086 108.28 11.0119 108.947 11.0119C109.389 11.0119 109.857 11.0651 110.352 11.1715C110.852 11.273 111.317 11.4616 111.75 11.7372C112.187 12.0129 112.544 12.407 112.823 12.9196C113.101 13.4273 113.241 14.0874 113.241 14.8998V22.2983H111.137V20.7751H111.051C110.912 21.0555 110.703 21.3312 110.424 21.602C110.146 21.8728 109.788 22.0976 109.351 22.2765C108.914 22.4555 108.39 22.5449 107.78 22.5449ZM108.249 20.8041C108.844 20.8041 109.353 20.6856 109.776 20.4487C110.203 20.2117 110.527 19.9022 110.748 19.5202C110.974 19.1334 111.087 18.7199 111.087 18.2799V16.8437C111.01 16.9211 110.861 16.9936 110.64 17.0613C110.424 17.1242 110.177 17.1798 109.898 17.2281C109.62 17.2716 109.348 17.3127 109.084 17.3514C108.82 17.3853 108.599 17.4143 108.421 17.4385C108.004 17.4917 107.622 17.5811 107.276 17.7069C106.935 17.8326 106.661 18.0139 106.455 18.2509C106.253 18.483 106.152 18.7925 106.152 19.1793C106.152 19.7161 106.349 20.1223 106.743 20.3979C107.137 20.6687 107.639 20.8041 108.249 20.8041Z" fill="white"/>
<path d="M118.264 7.44318V22.2983H116.11V7.44318H118.264Z" fill="white"/>
<path d="M128.17 17.6778V11.157H130.331V22.2983H128.214V20.3689H128.098C127.844 20.9637 127.436 21.4593 126.874 21.8558C126.317 22.2475 125.623 22.4434 124.792 22.4434C124.081 22.4434 123.452 22.2862 122.904 21.9719C122.362 21.6527 121.934 21.1813 121.622 20.5575C121.315 19.9337 121.161 19.1624 121.161 18.2436V11.157H123.315V17.9825C123.315 18.7417 123.524 19.3461 123.942 19.7959C124.36 20.2456 124.902 20.4704 125.57 20.4704C125.973 20.4704 126.374 20.3689 126.773 20.1658C127.176 19.9627 127.51 19.6556 127.774 19.2446C128.043 18.8336 128.175 18.3113 128.17 17.6778Z" fill="white"/>
<path d="M133.226 22.2983V11.157H135.307V12.9268H135.423C135.624 12.3272 135.98 11.8557 136.489 11.5124C137.003 11.1642 137.584 10.9901 138.232 10.9901C138.367 10.9901 138.525 10.995 138.708 11.0046C138.895 11.0143 139.041 11.0264 139.147 11.0409V13.1154C139.061 13.0912 138.907 13.0646 138.686 13.0356C138.465 13.0018 138.244 12.9848 138.023 12.9848C137.514 12.9848 137.06 13.0936 136.662 13.3112C136.268 13.524 135.956 13.8214 135.725 14.2034C135.495 14.5806 135.379 15.011 135.379 15.4945V22.2983H133.226Z" fill="white"/>
<path d="M145.384 22.5232C144.293 22.5232 143.355 22.2886 142.567 21.8196C141.784 21.3457 141.179 20.6808 140.752 19.8249C140.329 18.9641 140.118 17.9559 140.118 16.8002C140.118 15.659 140.329 14.6531 140.752 13.7827C141.179 12.9123 141.775 12.2329 142.538 11.7445C143.306 11.2561 144.205 11.0119 145.232 11.0119C145.857 11.0119 146.462 11.1159 147.048 11.3238C147.634 11.5317 148.159 11.8581 148.625 12.303C149.091 12.7479 149.458 13.3258 149.727 14.0366C149.996 14.7426 150.131 15.6009 150.131 16.6116V17.3804H141.335V15.7557H148.02C148.02 15.1851 147.905 14.6797 147.674 14.2397C147.444 13.7948 147.12 13.4442 146.702 13.1879C146.289 12.9316 145.804 12.8035 145.247 12.8035C144.642 12.8035 144.113 12.9534 143.662 13.2532C143.215 13.5482 142.869 13.935 142.625 14.4138C142.384 14.8877 142.264 15.4027 142.264 15.9588V17.2281C142.264 17.9728 142.394 18.6063 142.653 19.1285C142.918 19.6508 143.285 20.0497 143.756 20.3254C144.226 20.5962 144.776 20.7316 145.405 20.7316C145.813 20.7316 146.186 20.6735 146.522 20.5575C146.858 20.4366 147.148 20.2577 147.393 20.0207C147.638 19.7838 147.826 19.4912 147.955 19.143L149.994 19.513C149.831 20.1174 149.538 20.6469 149.115 21.1015C148.697 21.5512 148.171 21.9018 147.537 22.1532C146.908 22.3999 146.19 22.5232 145.384 22.5232Z" fill="white"/>
</svg>
