<svg width="151" height="32" viewBox="0 0 151 32" fill="none" xmlns="http://www.w3.org/2000/svg">
<path d="M35.6912 11.5469C35.2557 10.484 34.5986 9.53147 33.7178 8.68723C32.9119 7.92937 32.0051 7.36837 30.9972 7.0053C29.9893 6.64223 28.8804 6.46069 27.6716 6.46069C26.4726 6.46069 25.3507 6.65863 24.3059 7.05342C23.2611 7.4482 22.3455 8.03108 21.5614 8.79987C20.6914 9.64411 20.0496 10.5813 19.6358 11.6115C19.222 12.6427 19.0156 13.7877 19.0156 15.0486C19.0156 16.3303 19.2567 17.5431 19.74 18.6859C20.2223 19.8286 20.9097 20.8008 21.8003 21.6013C22.5747 22.2958 23.4653 22.8163 24.4731 23.163C25.481 23.5096 26.5519 23.6835 27.6868 23.6835C28.8533 23.6835 29.9307 23.5096 30.9168 23.163C31.903 22.8163 32.7838 22.2903 33.5581 21.5849C34.4813 20.7418 35.1753 19.7565 35.6423 18.629C36.1093 17.5026 36.3428 16.3193 36.3428 15.0803C36.3439 13.7866 36.1256 12.6099 35.6912 11.5469ZM32.8359 17.3736C32.534 18.103 32.0843 18.7416 31.4859 19.2873C30.9841 19.7433 30.415 20.0845 29.7764 20.3087C29.1378 20.5329 28.4406 20.6455 27.6857 20.6455C26.9505 20.6455 26.2576 20.5329 25.6048 20.3087C24.9521 20.0845 24.3754 19.7466 23.8747 19.2972C23.298 18.7788 22.8527 18.1489 22.541 17.4096C22.2282 16.6693 22.0718 15.8852 22.0718 15.0552C22.0718 14.2393 22.2054 13.4979 22.4737 12.8297C22.7419 12.1626 23.1568 11.5557 23.7205 11.0089C24.2288 10.5113 24.8207 10.134 25.4973 9.87814C26.1739 9.62224 26.8994 9.49429 27.676 9.49429C28.459 9.49429 29.1769 9.6124 29.8286 9.84642C30.4813 10.0815 31.0678 10.4446 31.5902 10.9356C32.1604 11.4824 32.5861 12.0992 32.8674 12.7871C33.1487 13.4749 33.2899 14.2372 33.2899 15.0737C33.2888 15.8786 33.1378 16.6441 32.8359 17.3736Z" fill="#298DBE"/>
<path d="M47.1282 15.6812C46.6873 15.0217 46.04 14.4181 45.2059 13.8877C44.8269 13.6482 44.2415 13.3431 43.4171 12.956C42.6297 12.5852 42.002 12.2626 41.548 11.9947C41.1907 11.788 40.8757 11.5332 40.6118 11.2347C40.3826 10.9766 40.2719 10.6769 40.2719 10.3182C40.2719 10.0612 40.3587 9.78457 40.5293 9.49477C40.6987 9.20715 40.9963 8.95235 41.4144 8.73582C41.7066 8.58272 42.0737 8.46242 42.5037 8.37931C42.9469 8.29292 43.4204 8.24918 43.9124 8.24918C45.0549 8.24918 45.927 7.94516 46.5048 7.34588C47.201 6.62302 47.188 5.73722 47.1869 5.70004L47.1771 5.31182H46.7937C46.7644 5.31182 46.6341 5.30854 46.0509 5.27791C45.6045 5.25495 45.0278 5.24292 44.337 5.24292C43.5648 5.24292 42.7557 5.30525 41.9336 5.42664C41.0842 5.5524 40.2968 5.81268 39.5963 6.19652C38.7753 6.63614 38.1095 7.22668 37.6175 7.95063C37.1168 8.6888 36.8627 9.53195 36.8627 10.4549C36.8627 11.3735 37.0853 12.1948 37.5241 12.8958C37.9542 13.5848 38.5808 14.1862 39.3878 14.6871C39.9287 15.0141 40.6064 15.3586 41.4014 15.7118C42.1605 16.0497 42.7622 16.369 43.1977 16.6665C43.579 16.9169 43.8798 17.175 44.0894 17.4342C44.2686 17.654 44.3555 17.9438 44.3555 18.3211C44.3555 18.7508 44.248 19.1041 44.0286 19.4015C43.8005 19.7099 43.4323 19.9789 42.9317 20.202C42.5656 20.3672 42.0867 20.4831 41.51 20.5465C41.4492 20.5531 41.2721 20.564 40.7682 20.564C40.3327 20.564 39.7473 20.5563 39.0261 20.5399C39.012 20.5399 38.9979 20.5399 38.9838 20.5388C38.4418 20.5367 37.9075 20.7127 37.4807 21.0506C36.8323 21.5646 36.4902 22.3258 36.526 23.135L36.5412 23.4653L36.8638 23.5112C36.8963 23.5156 36.9974 23.5298 37.8923 23.6074C38.4929 23.6599 39.0826 23.6862 39.6452 23.6862C40.8106 23.6862 41.8923 23.5703 42.8589 23.3417C43.8396 23.1099 44.703 22.7621 45.4242 22.3072C46.128 21.8654 46.7068 21.2803 47.1434 20.5684C47.5877 19.8444 47.8125 19.0133 47.8125 18.0958C47.8146 17.175 47.5833 16.3625 47.1282 15.6812Z" fill="#298DBE"/>
<path d="M6.00391 8.85174C6.09514 8.85174 9.17959 8.8069 9.99631 8.87471C12.1967 9.14482 13.3077 10.7272 13.7139 11.4796C14.1212 12.232 14.3243 13.0839 14.3243 14.0364C14.3243 15.2973 14.0875 16.3231 13.614 17.1138C13.1405 17.9044 12.4476 18.5573 11.5364 19.0724C11.014 19.3687 10.3308 19.6027 9.48586 19.7766C7.92626 20.1627 4.96128 19.9363 3.49726 20.4765C1.11224 21.3547 0.165185 23.7868 0.165185 25.1942C0.165185 26.3316 0.156496 26.2966 0.151066 27.3573C0.136947 29.5358 0.128258 31.0832 0.125 31.9996C3.74922 31.9996 5.03079 30.6578 4.64198 23.8382C4.64198 23.7452 4.71366 23.6698 4.80163 23.672C5.52387 23.6862 8.49645 23.7255 9.75629 23.4609C11.1964 23.1591 12.4867 22.679 13.6292 22.0239C15.0748 21.1884 16.226 20.0883 17.0829 18.7246C17.9398 17.3609 18.3678 15.6833 18.3678 13.6887C18.3678 11.9903 17.942 10.4637 17.0916 9.10655C16.2412 7.74941 15.0509 6.63177 13.4468 5.91329C12.1446 5.33041 7.80571 5.24292 5.32946 5.24292C4.34874 5.24292 4.36829 5.86626 4.36829 5.86954C4.36829 5.86954 4.36829 8.00859 4.36829 8.3301C4.36829 8.65162 4.48884 8.85065 5.26864 8.85065H6.00391V8.85174Z" fill="#298DBE"/>
<path d="M3.56323 19.9234C4.12147 19.7769 3.99331 19.4477 3.99331 19.135L3.99331 10.7034L3.99331 6.03603C3.99331 5.6161 3.63274 5.2749 3.18853 5.2749H1.04788C0.60259 5.2749 0.242014 5.61719 0.2431 6.03713L0.195312 22.9986C1.15649 20.7119 3.37425 19.9737 3.56323 19.9234Z" fill="#247EAB"/>
<path d="M2.12802 4.28547C3.3033 4.28547 4.25604 3.32613 4.25604 2.14273C4.25604 0.959335 3.3033 0 2.12802 0C0.952748 0 0 0.959335 0 2.14273C0 3.32613 0.952748 4.28547 2.12802 4.28547Z" fill="#247EAB"/>
<path d="M56.8125 21.3383V6.48315H58.9664V12.0031H59.0961C59.2209 11.7709 59.401 11.5026 59.6363 11.1979C59.8717 10.8933 60.1982 10.6273 60.616 10.4C61.0339 10.1679 61.5861 10.0519 62.2729 10.0519C63.1661 10.0519 63.9634 10.2791 64.6645 10.7337C65.3657 11.1882 65.9156 11.8435 66.3142 12.6994C66.7176 13.5553 66.9193 14.5853 66.9193 15.7894C66.9193 16.9935 66.72 18.0259 66.3214 18.8866C65.9228 19.7425 65.3753 20.4026 64.6789 20.8668C63.9826 21.3262 63.1878 21.5559 62.2945 21.5559C61.6222 21.5559 61.0723 21.4423 60.6449 21.215C60.2222 20.9877 59.8909 20.7217 59.6508 20.4171C59.4106 20.1124 59.2257 19.8417 59.0961 19.6047H58.916V21.3383H56.8125ZM58.9232 15.7676C58.9232 16.551 59.036 17.2377 59.2618 17.8276C59.4875 18.4176 59.814 18.8794 60.2415 19.213C60.6689 19.5418 61.1923 19.7063 61.8119 19.7063C62.4554 19.7063 62.9933 19.5346 63.4255 19.1913C63.8577 18.8431 64.1843 18.3716 64.4052 17.7768C64.6309 17.182 64.7438 16.5123 64.7438 15.7676C64.7438 15.0326 64.6333 14.3725 64.4124 13.7874C64.1963 13.2023 63.8697 12.7405 63.4327 12.402C63.0005 12.0635 62.4602 11.8943 61.8119 11.8943C61.1875 11.8943 60.6593 12.0562 60.227 12.3802C59.7996 12.7042 59.4755 13.1564 59.2545 13.7366C59.0336 14.3169 58.9232 14.9939 58.9232 15.7676Z" fill="white"/>
<path d="M70.323 25.5163C70.0012 25.5163 69.7083 25.4897 69.4442 25.4365C69.18 25.3881 68.9831 25.335 68.8535 25.2769L69.3721 23.4998C69.7659 23.6062 70.1165 23.6521 70.4239 23.6376C70.7312 23.6231 71.0026 23.5071 71.2379 23.2895C71.478 23.0719 71.6893 22.7164 71.8718 22.2232L72.1383 21.4834L68.0899 10.1969H70.395L73.1973 18.8431H73.3125L76.1148 10.1969H78.4271L73.8672 22.8253C73.6559 23.4055 73.387 23.8964 73.0604 24.2977C72.7338 24.7039 72.3448 25.0086 71.8934 25.2116C71.442 25.4147 70.9185 25.5163 70.323 25.5163Z" fill="white"/>
<path d="M88.8815 21.3383L84.7898 6.48315H87.131L90.0053 17.9872H90.1421L93.1317 6.48315H95.4512L98.4408 17.9944H98.5776L101.445 6.48315H103.793L99.6942 21.3383H97.4539L94.3491 10.2114H94.2338L91.129 21.3383H88.8815Z" fill="white"/>
<path d="M107.78 21.5849C107.079 21.5849 106.445 21.4543 105.879 21.1932C105.312 20.9273 104.863 20.5428 104.531 20.0399C104.205 19.537 104.042 18.9205 104.042 18.1903C104.042 17.5616 104.162 17.0442 104.402 16.638C104.642 16.2318 104.966 15.9103 105.374 15.6733C105.783 15.4364 106.239 15.2575 106.743 15.1366C107.247 15.0157 107.761 14.9238 108.285 14.8609C108.947 14.7836 109.485 14.7207 109.898 14.6723C110.311 14.6191 110.611 14.5345 110.799 14.4185C110.986 14.3024 111.08 14.1138 111.08 13.8527V13.8019C111.08 13.1684 110.902 12.6776 110.547 12.3295C110.196 11.9813 109.673 11.8072 108.976 11.8072C108.251 11.8072 107.679 11.9692 107.262 12.2932C106.849 12.6123 106.563 12.9678 106.404 13.3595L104.38 12.8952C104.62 12.2182 104.971 11.6718 105.432 11.2559C105.898 10.8352 106.433 10.5306 107.038 10.342C107.643 10.1486 108.28 10.0519 108.947 10.0519C109.389 10.0519 109.857 10.1051 110.352 10.2114C110.852 10.313 111.317 10.5016 111.75 10.7772C112.187 11.0528 112.544 11.447 112.823 11.9595C113.101 12.4673 113.241 13.1273 113.241 13.9397V21.3383H111.137V19.8151H111.051C110.912 20.0955 110.703 20.3712 110.424 20.642C110.146 20.9128 109.788 21.1376 109.351 21.3165C108.914 21.4954 108.39 21.5849 107.78 21.5849ZM108.249 19.8441C108.844 19.8441 109.353 19.7256 109.776 19.4886C110.203 19.2517 110.527 18.9422 110.748 18.5602C110.974 18.1734 111.087 17.7599 111.087 17.3199V15.8837C111.01 15.961 110.861 16.0336 110.64 16.1013C110.424 16.1641 110.177 16.2197 109.898 16.2681C109.62 16.3116 109.348 16.3527 109.084 16.3914C108.82 16.4253 108.599 16.4543 108.421 16.4785C108.004 16.5316 107.622 16.6211 107.276 16.7468C106.935 16.8726 106.661 17.0539 106.455 17.2908C106.253 17.523 106.152 17.8324 106.152 18.2193C106.152 18.756 106.349 19.1622 106.743 19.4379C107.137 19.7087 107.639 19.8441 108.249 19.8441Z" fill="white"/>
<path d="M118.264 6.48315V21.3383H116.11V6.48315H118.264Z" fill="white"/>
<path d="M128.17 16.7178V10.1969H130.331V21.3383H128.214V19.4089H128.098C127.844 20.0036 127.436 20.4993 126.874 20.8958C126.317 21.2875 125.623 21.4834 124.792 21.4834C124.081 21.4834 123.452 21.3262 122.904 21.0119C122.362 20.6927 121.934 20.2213 121.622 19.5975C121.315 18.9737 121.161 18.2024 121.161 17.2836V10.1969H123.315V17.0225C123.315 17.7817 123.524 18.3861 123.942 18.8358C124.36 19.2856 124.902 19.5104 125.57 19.5104C125.973 19.5104 126.374 19.4089 126.773 19.2058C127.176 19.0027 127.51 18.6956 127.774 18.2846C128.043 17.8735 128.175 17.3513 128.17 16.7178Z" fill="white"/>
<path d="M133.226 21.3383V10.1969H135.307V11.9668H135.423C135.624 11.3672 135.98 10.8957 136.489 10.5524C137.003 10.2042 137.584 10.0301 138.232 10.0301C138.367 10.0301 138.525 10.0349 138.708 10.0446C138.895 10.0543 139.041 10.0664 139.147 10.0809V12.1554C139.061 12.1312 138.907 12.1046 138.686 12.0756C138.465 12.0417 138.244 12.0248 138.023 12.0248C137.514 12.0248 137.06 12.1336 136.662 12.3512C136.268 12.564 135.956 12.8614 135.725 13.2434C135.495 13.6206 135.379 14.051 135.379 14.5345V21.3383H133.226Z" fill="white"/>
<path d="M145.384 21.5631C144.293 21.5631 143.355 21.3286 142.567 20.8596C141.784 20.3857 141.179 19.7208 140.752 18.8648C140.329 18.0041 140.118 16.9959 140.118 15.8401C140.118 14.6989 140.329 13.6931 140.752 12.8227C141.179 11.9523 141.775 11.2729 142.538 10.7845C143.306 10.2961 144.205 10.0519 145.232 10.0519C145.857 10.0519 146.462 10.1558 147.048 10.3638C147.634 10.5717 148.159 10.8981 148.625 11.343C149.091 11.7879 149.458 12.3657 149.727 13.0766C149.996 13.7826 150.131 14.6409 150.131 15.6516V16.4204H141.335V14.7956H148.02C148.02 14.225 147.905 13.7197 147.674 13.2797C147.444 12.8348 147.12 12.4842 146.702 12.2279C146.289 11.9716 145.804 11.8435 145.247 11.8435C144.642 11.8435 144.113 11.9934 143.662 12.2932C143.215 12.5882 142.869 12.975 142.625 13.4538C142.384 13.9276 142.264 14.4426 142.264 14.9987V16.2681C142.264 17.0128 142.394 17.6463 142.653 18.1685C142.918 18.6908 143.285 19.0897 143.756 19.3653C144.226 19.6361 144.776 19.7715 145.405 19.7715C145.813 19.7715 146.186 19.7135 146.522 19.5975C146.858 19.4766 147.148 19.2976 147.393 19.0607C147.638 18.8237 147.826 18.5312 147.955 18.183L149.994 18.553C149.831 19.1574 149.538 19.6869 149.115 20.1415C148.697 20.5912 148.171 20.9418 147.537 21.1932C146.908 21.4398 146.19 21.5631 145.384 21.5631Z" fill="white"/>
</svg>
